<?xml version="1.0" standalone="no"?>
<!DOCTYPE svg PUBLIC "-//W3C//DTD SVG 1.1//EN" "http://www.w3.org/Graphics/SVG/1.1/DTD/svg11.dtd" >
<svg>
<metadata>
Created by FontForge 20120731 at Thu Sep 18 21:29:46 2014
 By World Wide Web Server
Copyright (C) 2011 Markanna Studios Inc.www.SweetFonts.com
</metadata>
<defs>
<font id="SweetSansPro-Italic" horiz-adv-x="500" >
  <font-face 
    font-family="Sweet Sans Pro"
    font-weight="400"
    font-style="italic"
    font-stretch="normal"
    units-per-em="1000"
    panose-1="2 0 0 0 0 0 0 0 0 0"
    ascent="770"
    descent="-230"
    x-height="469"
    cap-height="653"
    bbox="-172 -306 1522 1052"
    underline-thickness="56"
    underline-position="-72"
    slope="-12"
    stemh="77"
    stemv="88"
    unicode-range="U+000D-FB04"
  />
<missing-glyph horiz-adv-x="579" 
d="M579 0h-579v653h579v-653zM289 269l-176 -198h352zM113 582l176 -198l175 198h-351zM340 326l160 -179v359zM238 326l-159 180v-359z" />
    <glyph glyph-name="f_i" unicode="fi" horiz-adv-x="614" 
d="M74 469h93l21 96c22 109 106 146 169 146c32 0 71 -10 88 -20l-29 -66c-12 8 -41 15 -60 15c-40 0 -77 -23 -89 -75l-20 -96h138l-14 -62h-137l-86 -407h-80l86 407h-93zM464 0h-80l99 469h80zM506 637c0 28 26 52 58 52c28 0 49 -20 49 -44c0 -29 -28 -52 -59 -52
c-28 0 -48 19 -48 44z" />
    <glyph glyph-name="f_l" unicode="fl" horiz-adv-x="630" 
d="M74 469h93l21 96c22 109 106 146 169 146c32 0 71 -10 88 -20l-29 -66c-12 8 -41 15 -60 15c-40 0 -77 -23 -89 -75l-20 -96h138l-14 -62h-137l-86 -407h-80l86 407h-93zM472 0h-79l149 700h79z" />
    <glyph glyph-name="f_f" unicode="ff" horiz-adv-x="682" 
d="M68 0l86 407h-93l13 62h93l22 105c21 101 101 137 163 137c39 0 84 -14 102 -30l-30 -65c-13 13 -48 24 -72 24c-40 0 -74 -22 -83 -67l-22 -104h249l22 105c21 101 101 137 163 137c39 0 84 -14 102 -30l-30 -65c-14 13 -48 24 -72 24c-40 0 -74 -22 -83 -67l-22 -104
h137l-13 -62h-137l-87 -407h-79l86 407h-249l-86 -407h-80z" />
    <glyph glyph-name="f_f_i" unicode="ffi" horiz-adv-x="942" 
d="M68 0l86 407h-93l13 62h93l22 105c21 101 101 137 163 137c39 0 84 -14 102 -30l-30 -65c-13 13 -48 24 -72 24c-40 0 -74 -22 -83 -67l-22 -104h248l21 96c23 109 106 146 169 146c33 0 71 -10 88 -20l-29 -66c-12 8 -40 15 -60 15c-39 0 -77 -23 -88 -75l-21 -96h138
l-13 -62h-138l-86 -407h-80l86 407h-248l-86 -407h-80zM792 0h-79l98 469h80zM835 637c0 28 25 52 58 52c27 0 48 -20 48 -44c0 -29 -27 -52 -59 -52c-28 0 -47 19 -47 44z" />
    <glyph glyph-name="f_f_l" unicode="ffl" horiz-adv-x="958" 
d="M68 0l86 407h-93l13 62h93l22 105c21 101 101 137 163 137c39 0 84 -14 102 -30l-30 -65c-13 13 -48 24 -72 24c-40 0 -74 -22 -83 -67l-22 -104h248l21 96c23 109 106 146 169 146c33 0 71 -10 88 -20l-29 -66c-12 8 -40 15 -60 15c-39 0 -77 -23 -88 -75l-21 -96h138
l-13 -62h-138l-86 -407h-80l86 407h-248l-86 -407h-80zM801 0h-80l149 700h80z" />
    <glyph glyph-name="f_j" unicode="fj" horiz-adv-x="614" 
d="M74 469h93l21 96c22 109 106 146 169 146c32 0 71 -10 88 -20l-29 -66c-12 8 -41 15 -60 15c-40 0 -77 -23 -89 -75l-20 -96h138l-14 -62h-137l-86 -407h-80l86 407h-93zM260 -227l-9 63c42 7 102 25 121 109l112 524h80l-113 -524c-27 -128 -126 -172 -191 -172z
M507 637c0 28 26 52 58 52c27 0 48 -20 48 -44c0 -29 -27 -52 -58 -52c-28 0 -48 19 -48 44z" />
    <glyph glyph-name="f_f_j" unicode="ffj" horiz-adv-x="942" 
d="M68 0l86 407h-93l13 62h93l22 105c21 101 101 137 163 137c39 0 84 -14 102 -30l-30 -65c-13 13 -48 24 -72 24c-40 0 -74 -22 -83 -67l-22 -104h248l21 96c23 109 106 146 169 146c33 0 71 -10 88 -20l-29 -66c-12 8 -40 15 -60 15c-39 0 -77 -23 -88 -75l-21 -96h138
l-13 -62h-138l-86 -407h-80l86 407h-248l-86 -407h-80zM589 -227l-10 63c42 7 103 25 121 109l113 524h79l-112 -524c-27 -128 -126 -172 -191 -172zM835 637c0 28 26 52 58 52c28 0 49 -20 49 -44c0 -29 -27 -52 -59 -52c-28 0 -48 19 -48 44z" />
    <glyph glyph-name="f_t" unicode="ft" horiz-adv-x="709" 
d="M516 611h80l-30 -142h141l-13 -62h-141l-59 -280c-3 -10 -5 -22 -5 -30c0 -30 23 -44 58 -44c21 0 61 6 78 13l-4 -63c-22 -12 -71 -20 -104 -20c-54 0 -110 23 -110 98c0 12 2 26 5 40l60 286h-238l-86 -407h-80l86 407h-93l13 62h93l21 96c22 109 106 146 169 146
c32 0 71 -10 88 -20l-29 -66c-12 8 -41 15 -60 15c-40 0 -77 -23 -89 -75l-20 -96h238z" />
    <glyph glyph-name="f_f_t" unicode="fft" horiz-adv-x="1037" 
d="M68 0l86 407h-93l13 62h93l22 105c21 101 101 137 163 137c39 0 84 -14 102 -30l-30 -65c-13 13 -48 24 -72 24c-40 0 -74 -22 -83 -67l-22 -104h248l21 96c23 109 106 146 169 146c33 0 71 -10 88 -20l-29 -66c-12 8 -40 15 -60 15c-39 0 -77 -23 -88 -75l-21 -96h238
l31 142h80l-30 -142h141l-13 -62h-141l-59 -280c-3 -10 -5 -22 -5 -30c0 -30 23 -44 57 -44c22 0 62 6 78 13l-3 -63c-22 -12 -72 -20 -104 -20c-55 0 -110 23 -110 98c0 12 2 26 5 40l60 286h-238l-86 -407h-80l86 407h-248l-86 -407h-80z" />
    <glyph glyph-name="t_t" unicode="tt" horiz-adv-x="746" 
d="M553 611h79l-30 -142h142l-14 -62h-141l-59 -280c-2 -10 -4 -22 -4 -30c0 -30 23 -44 57 -44c22 0 62 6 78 13l-4 -63c-22 -12 -71 -20 -103 -20c-55 0 -110 23 -110 98c0 12 2 26 5 40l60 286h-283l-59 -280c-3 -10 -5 -22 -5 -30c0 -30 23 -44 58 -44c21 0 61 6 77 13
l-3 -63c-22 -12 -71 -20 -104 -20c-54 0 -110 23 -110 98c0 12 2 26 5 40l60 286h-92l14 62h91l31 142h80l-30 -142h283z" />
    <glyph glyph-name=".notdef" horiz-adv-x="579" 
d="M579 0h-579v653h579v-653zM289 269l-176 -198h352zM113 582l176 -198l175 198h-351zM340 326l160 -179v359zM238 326l-159 180v-359z" />
    <glyph glyph-name="space" unicode=" " horiz-adv-x="225" 
 />
    <glyph glyph-name="A" unicode="A" horiz-adv-x="747" 
d="M67 0h-96l442 653h82l164 -653h-90l-47 196h-325zM432 551l-189 -285h262l-68 285h-5z" />
    <glyph glyph-name="B" unicode="B" horiz-adv-x="807" 
d="M63 0l138 653h346c75 0 120 -19 153 -52c29 -29 44 -67 44 -103c0 -67 -53 -132 -122 -152c57 -16 94 -75 94 -140c0 -53 -23 -99 -59 -135c-48 -48 -114 -71 -198 -71h-396zM164 77h292c60 0 102 13 132 43c23 22 36 52 36 81c0 56 -44 102 -96 102h-315zM272 576
l-43 -203h302c68 0 119 52 119 110c0 23 -8 46 -25 63c-25 26 -59 30 -95 30h-258z" />
    <glyph glyph-name="C" unicode="C" horiz-adv-x="776" 
d="M774 525l-68 -43c-56 65 -145 111 -245 111c-161 0 -301 -135 -301 -292c0 -136 109 -241 257 -241c89 0 175 36 239 86l46 -57c-76 -60 -178 -106 -291 -106c-188 0 -342 124 -342 312c0 199 180 375 395 375c121 0 237 -52 310 -145z" />
    <glyph glyph-name="D" unicode="D" horiz-adv-x="819" 
d="M62 0l139 653h246c123 0 186 -34 241 -85c54 -54 82 -128 82 -203c0 -92 -41 -186 -112 -255c-72 -66 -154 -110 -296 -110h-300zM165 77h209c111 0 164 33 221 83c53 53 85 123 85 199c0 58 -21 114 -61 155c-41 38 -82 62 -177 62h-170z" />
    <glyph glyph-name="E" unicode="E" horiz-adv-x="711" 
d="M495 382l-17 -77h-264l-49 -228h461l-16 -77h-548l139 653h525l-16 -77h-438l-42 -194h265z" />
    <glyph glyph-name="F" unicode="F" horiz-adv-x="658" 
d="M149 0h-87l139 653h516l-16 -77h-429l-43 -200h264l-16 -77h-264z" />
    <glyph glyph-name="G" unicode="G" horiz-adv-x="818" 
d="M772 550l-62 -54c-54 58 -149 97 -247 97c-159 0 -304 -133 -304 -295c0 -143 114 -238 271 -238c64 0 132 15 180 44l38 175h-214l17 77h292l-64 -304c-78 -44 -174 -69 -262 -69c-188 0 -348 122 -348 314c0 198 186 373 399 373c117 0 224 -46 304 -120z" />
    <glyph glyph-name="H" unicode="H" horiz-adv-x="815" 
d="M149 0h-87l139 653h87l-56 -260h401l56 260h86l-139 -653h-86l67 316h-401z" />
    <glyph glyph-name="I" unicode="I" horiz-adv-x="328" 
d="M149 0h-87l139 653h87z" />
    <glyph glyph-name="J" unicode="J" horiz-adv-x="661" 
d="M547 653h87l-95 -449c-30 -144 -144 -221 -281 -221c-136 0 -234 61 -262 193l78 29c20 -94 85 -145 190 -145c91 0 169 55 190 153z" />
    <glyph glyph-name="K" unicode="K" horiz-adv-x="739" 
d="M649 653h108l-310 -256l225 -397h-100l-191 346l-191 -153l-41 -193h-87l139 653h87l-77 -355z" />
    <glyph glyph-name="L" unicode="L" horiz-adv-x="627" 
d="M201 653h87l-123 -576h412l-16 -77h-498z" />
    <glyph glyph-name="M" unicode="M" horiz-adv-x="911" 
d="M732 0h-86l104 495h-5c-106 -131 -214 -266 -319 -397h-18l-153 397h-5l-105 -495h-82l138 653h87l156 -411h2c110 137 221 276 331 411h94z" />
    <glyph glyph-name="N" unicode="N" horiz-adv-x="823" 
d="M696 653h87l-139 -653h-79l-306 516h-1l-109 -516h-87l139 653h79l306 -516h1z" />
    <glyph glyph-name="O" unicode="O" horiz-adv-x="848" 
d="M70 299c0 203 181 371 391 371c195 0 339 -139 339 -314c0 -205 -185 -373 -394 -373c-196 0 -336 139 -336 316zM162 299c0 -132 103 -239 244 -239c162 0 302 133 302 296c0 131 -107 237 -247 237c-163 0 -299 -132 -299 -294z" />
    <glyph glyph-name="P" unicode="P" horiz-adv-x="748" 
d="M149 0h-86l138 653h341c73 0 119 -16 155 -52c34 -35 51 -78 51 -127c0 -59 -24 -103 -63 -140c-47 -46 -107 -68 -198 -68h-281zM272 576l-50 -233h271c57 0 104 13 136 44c22 22 34 50 34 81c0 29 -11 58 -31 78c-25 25 -63 30 -98 30h-262z" />
    <glyph glyph-name="Q" unicode="Q" horiz-adv-x="848" 
d="M70 300c0 205 187 370 389 370c177 0 341 -128 341 -318c0 -126 -72 -237 -175 -304l98 -138l-83 -27l-90 127c-45 -17 -94 -27 -143 -27c-178 0 -337 129 -337 317zM418 196l84 27l77 -109c75 51 129 135 129 232c0 138 -110 247 -249 247c-152 0 -298 -126 -298 -287
c0 -137 108 -246 247 -246c32 0 64 6 95 16z" />
    <glyph glyph-name="R" unicode="R" horiz-adv-x="788" 
d="M149 0h-86l138 653h347c68 0 119 -16 156 -53c32 -34 50 -79 50 -125c0 -97 -80 -183 -194 -201l100 -274h-95l-92 266h-267zM272 576l-50 -233h298c79 0 148 51 148 127c0 23 -7 51 -31 74c-23 23 -50 32 -105 32h-260z" />
    <glyph glyph-name="S" unicode="S" horiz-adv-x="738" 
d="M692 546l-65 -54c-59 72 -168 104 -262 104c-67 0 -152 -24 -152 -99c0 -74 83 -90 178 -110c116 -20 280 -48 280 -194c0 -140 -122 -210 -278 -210c-154 0 -279 60 -368 168l65 54c69 -89 172 -148 305 -148c89 0 187 30 187 118c0 84 -93 108 -209 129
c-126 25 -249 56 -249 177c0 130 115 189 244 189c117 0 240 -40 324 -124z" />
    <glyph glyph-name="T" unicode="T" horiz-adv-x="644" 
d="M82 576l17 77h595l-18 -77h-253l-122 -576h-86l122 576h-255z" />
    <glyph glyph-name="U" unicode="U" horiz-adv-x="788" 
d="M674 653h87l-93 -444c-32 -153 -151 -226 -293 -226c-150 0 -274 82 -274 218c0 26 4 69 17 135c6 24 47 221 67 317h86l-68 -326c-13 -61 -17 -90 -17 -113c0 -101 87 -154 190 -154c101 0 184 51 207 158z" />
    <glyph glyph-name="V" unicode="V" horiz-adv-x="744" 
d="M698 653h99l-442 -653h-82l-165 653h94l130 -544h6z" />
    <glyph glyph-name="W" unicode="W" horiz-adv-x="1007" 
d="M949 653h93l-349 -653h-88l-55 490h-6c-86 -163 -175 -328 -262 -490h-89l-71 653h92l51 -522h6l278 522h65l56 -522h6z" />
    <glyph glyph-name="X" unicode="X" horiz-adv-x="711" 
d="M638 653h111l-323 -311l201 -342h-105l-160 281l-285 -281h-110l350 338l-183 315h105l142 -254z" />
    <glyph glyph-name="Y" unicode="Y" horiz-adv-x="665" 
d="M615 653h109l-342 -347l-65 -306h-86l65 307l-194 346h102l148 -270z" />
    <glyph glyph-name="Z" unicode="Z" horiz-adv-x="670" 
d="M586 77l-17 -77h-569l12 55l519 521h-411l17 77h536l-12 -55l-518 -521h443z" />
    <glyph glyph-name="a" unicode="a" horiz-adv-x="599" 
d="M134 376l-15 68c39 18 108 40 181 40c86 0 224 -31 225 -130c0 -21 -7 -44 -13 -76l-41 -198c-6 -26 -10 -51 -6 -80h-80c-3 18 -1 42 2 59c-38 -30 -105 -69 -186 -69c-90 0 -180 48 -180 150c0 106 101 164 214 164c52 0 136 -13 187 -68l16 67c2 12 3 20 3 27
c0 62 -79 85 -143 85s-131 -22 -164 -39zM230 55c85 1 157 54 167 64l11 56c-36 50 -115 67 -168 67c-71 0 -138 -29 -138 -96c0 -64 64 -91 128 -91z" />
    <glyph glyph-name="b" unicode="b" horiz-adv-x="624" 
d="M101 0h-74c17 42 26 82 35 120l122 580h80l-62 -293c47 46 102 77 170 77c114 0 189 -93 189 -214c0 -143 -106 -283 -259 -284c-75 0 -142 32 -177 89c-5 -22 -14 -53 -24 -75zM350 414c-53 0 -114 -27 -164 -81l-42 -204c31 -41 90 -73 152 -73c106 0 177 103 177 209
c0 85 -46 149 -123 149z" />
    <glyph glyph-name="c" unicode="c" horiz-adv-x="558" 
d="M536 392l-63 -47c-35 40 -90 69 -152 69c-105 0 -186 -97 -186 -201c0 -86 62 -157 154 -157c61 0 114 29 148 55l41 -56c-21 -19 -96 -69 -198 -69c-138 0 -233 88 -233 226c0 142 123 272 279 272c82 0 157 -32 210 -92z" />
    <glyph glyph-name="d" unicode="d" horiz-adv-x="624" 
d="M541 700h79l-123 -581c-9 -44 -16 -79 -17 -119h-74c-1 20 4 49 8 68c-32 -31 -92 -82 -177 -82c-115 0 -191 95 -191 212c0 138 107 285 260 286c73 0 128 -31 172 -81zM262 56c36 0 91 12 159 81l43 205c-31 39 -88 72 -152 72c-107 -1 -177 -106 -177 -207
c0 -78 44 -151 127 -151z" />
    <glyph glyph-name="e" unicode="e" horiz-adv-x="590" 
d="M445 109l42 -56c-59 -36 -130 -67 -225 -67c-134 0 -215 97 -215 219c0 154 124 279 272 279c116 0 217 -64 217 -206c0 -16 -1 -34 -5 -54h-404v-13c0 -85 58 -155 150 -155c71 0 125 27 168 53zM319 417c-86 0 -153 -55 -179 -130h310c7 85 -55 130 -131 130z" />
    <glyph glyph-name="f" unicode="f" horiz-adv-x="353" 
d="M74 469h93l22 105c21 101 101 137 163 137c39 0 84 -14 102 -30l-30 -65c-13 13 -48 24 -72 24c-40 0 -74 -22 -83 -67l-22 -104h138l-14 -62h-137l-86 -407h-80l86 407h-93z" />
    <glyph glyph-name="g" unicode="g" horiz-adv-x="624" 
d="M509 469h74c-18 -40 -29 -81 -37 -119l-86 -402c-24 -112 -118 -175 -240 -175c-81 0 -161 25 -215 82l43 55c39 -45 109 -70 177 -70c92 0 143 50 157 116l24 107c-48 -46 -102 -77 -169 -77c-116 0 -191 93 -191 213c0 145 108 284 257 285c79 1 144 -37 179 -90
c5 23 15 54 27 75zM258 56c51 0 113 26 163 80l43 203c-31 41 -91 75 -154 75c-106 -1 -176 -103 -176 -210c0 -84 46 -148 124 -148z" />
    <glyph glyph-name="h" unicode="h" horiz-adv-x="604" 
d="M34 0l149 700h80l-63 -293c45 38 104 77 171 77c86 0 155 -60 155 -151c0 -23 -4 -42 -10 -69l-56 -264h-80l57 273c5 20 9 42 9 58c0 57 -48 83 -100 83c-66 0 -119 -40 -161 -81l-71 -333h-80z" />
    <glyph glyph-name="i" unicode="i" horiz-adv-x="266" 
d="M157 637c0 28 26 52 58 52c28 0 48 -20 48 -44c0 -29 -27 -52 -58 -52c-28 0 -48 19 -48 44zM115 0h-80l99 469h79z" />
    <glyph glyph-name="j" unicode="j" horiz-adv-x="266" 
d="M-90 -227l-9 63c42 7 102 25 120 109l113 524h80l-113 -524c-27 -128 -126 -172 -191 -172zM157 637c0 28 25 52 58 52c27 0 48 -20 48 -44c0 -29 -27 -52 -59 -52c-28 0 -47 19 -47 44z" />
    <glyph glyph-name="k" unicode="k" horiz-adv-x="552" 
d="M446 469h108l-224 -170l154 -299h-90l-126 252l-119 -91l-34 -161h-81l149 700h81l-96 -448z" />
    <glyph glyph-name="l" unicode="l" horiz-adv-x="279" 
d="M121 0h-80l149 700h80z" />
    <glyph glyph-name="m" unicode="m" horiz-adv-x="896" 
d="M36 0l76 359c7 36 12 73 11 110h72c3 -24 0 -42 -3 -70c42 41 102 85 171 85c67 0 116 -40 133 -98c52 55 119 98 183 98c76 0 140 -61 140 -151c0 -23 -4 -42 -10 -70l-56 -263h-81l56 264c7 33 10 49 10 64c0 55 -37 86 -86 86c-57 0 -113 -44 -149 -82l-68 -332h-81
l67 321c10 61 -32 93 -85 93c-57 0 -108 -38 -149 -81l-71 -333h-80z" />
    <glyph glyph-name="n" unicode="n" horiz-adv-x="606" 
d="M116 0h-80l76 359c7 36 12 73 11 110h72c2 -24 0 -42 -3 -70c46 41 109 85 180 85c87 0 156 -61 156 -151c0 -23 -4 -43 -10 -70l-56 -263h-81l57 264c1 9 10 43 10 65c0 56 -47 85 -103 85c-61 0 -114 -38 -158 -80z" />
    <glyph glyph-name="o" unicode="o" horiz-adv-x="617" 
d="M48 215c0 147 118 269 275 269c139 0 230 -100 230 -229c0 -147 -120 -269 -277 -269c-138 0 -228 99 -228 229zM131 218c0 -91 58 -165 151 -165c111 0 189 94 189 199c0 90 -59 165 -155 165c-109 0 -185 -95 -185 -199z" />
    <glyph glyph-name="p" unicode="p" horiz-adv-x="624" 
d="M70 -210h-80l120 558c8 38 16 79 15 121h74c2 -21 -1 -44 -5 -66c31 29 91 81 177 81c114 0 191 -95 191 -213c0 -139 -108 -284 -260 -285c-68 0 -126 26 -173 80zM188 334l-44 -205c32 -38 88 -73 151 -73c104 0 178 103 178 206c0 80 -45 152 -127 152
c-54 0 -107 -29 -158 -80z" />
    <glyph glyph-name="q" unicode="q" horiz-adv-x="624" 
d="M509 469h74c-18 -41 -29 -83 -37 -122l-119 -557h-80l59 273c-47 -46 -102 -77 -170 -77c-115 0 -189 93 -189 214c0 142 105 283 258 284c75 0 142 -32 178 -90c4 24 15 51 26 75zM258 56c52 0 113 26 163 80l43 203c-31 42 -91 75 -154 75c-106 -1 -175 -103 -175 -210
c0 -84 45 -148 123 -148z" />
    <glyph glyph-name="r" unicode="r" horiz-adv-x="393" 
d="M116 0h-80l74 350c8 39 13 78 13 119h73c2 -27 -1 -49 -6 -81c40 48 79 96 143 96c29 0 58 -8 70 -24l-18 -73c-14 12 -44 19 -62 19c-50 0 -103 -46 -139 -86z" />
    <glyph glyph-name="s" unicode="s" horiz-adv-x="553" 
d="M497 407l-43 -57c-46 40 -122 69 -184 69c-51 0 -105 -20 -105 -66s54 -58 111 -68c89 -15 199 -35 199 -143c0 -103 -99 -157 -215 -157c-91 0 -183 33 -250 97l43 57c53 -52 133 -88 210 -88c60 0 129 22 129 82c0 54 -56 67 -117 77c-93 16 -192 32 -192 134
c0 91 82 142 188 142c81 0 167 -30 226 -79z" />
    <glyph glyph-name="t" unicode="t" horiz-adv-x="382" 
d="M53 407l14 62h91l31 142h80l-30 -142h141l-13 -62h-141l-59 -280c-3 -10 -5 -22 -5 -30c0 -30 23 -44 58 -44c21 0 61 6 77 13l-3 -63c-22 -12 -71 -20 -104 -20c-54 0 -110 23 -110 98c0 12 2 26 5 40l60 286h-92z" />
    <glyph glyph-name="u" unicode="u" horiz-adv-x="605" 
d="M473 469h79l-74 -350c-9 -45 -16 -79 -17 -119h-74c-1 23 4 49 8 69c-46 -41 -108 -83 -178 -83c-88 0 -156 61 -156 152c0 23 4 42 10 69l56 262h80l-56 -263c-5 -24 -10 -43 -10 -62c0 -61 48 -88 102 -88c62 0 115 37 159 80z" />
    <glyph glyph-name="v" unicode="v" horiz-adv-x="545" 
d="M464 469h88l-308 -469h-70l-108 469h85l75 -360h6z" />
    <glyph glyph-name="w" unicode="w" horiz-adv-x="781" 
d="M694 469h89l-259 -469h-83l-33 354h-6l-185 -354h-83l-56 469h82l37 -364h6l188 364h78l38 -364h6z" />
    <glyph glyph-name="x" unicode="x" horiz-adv-x="557" 
d="M457 469h104l-239 -228l147 -241h-97l-107 190l-188 -190h-105l252 241l-145 228h99l102 -177z" />
    <glyph glyph-name="y" unicode="y" horiz-adv-x="542" 
d="M476 469h89l-472 -679h-88l169 237l-108 442h85l78 -358h5z" />
    <glyph glyph-name="z" unicode="z" horiz-adv-x="519" 
d="M431 63l-14 -63h-422l11 48l361 359h-282l14 62h392l-10 -48l-361 -358h311z" />
    <glyph glyph-name="ampersand" unicode="&#x26;" horiz-adv-x="793" 
d="M625 578l-51 -68c-28 19 -77 43 -136 43c-70 0 -122 -33 -122 -80c0 -46 55 -94 97 -138l146 -154c43 36 87 81 131 137l66 -36c-50 -63 -100 -113 -148 -153l123 -129h-113l-76 79c-104 -70 -195 -93 -255 -93c-77 0 -201 38 -201 176c0 126 99 180 185 209
c-28 36 -41 64 -41 98c0 99 107 161 218 161c79 0 140 -31 177 -52zM492 132c-158 165 -167 175 -175 184c-56 -19 -143 -53 -143 -146c0 -84 76 -107 126 -107c45 0 114 19 192 69z" />
    <glyph glyph-name="zero" unicode="0" horiz-adv-x="731" 
d="M60 249c0 178 163 322 340 322c155 0 273 -116 273 -266c0 -179 -164 -322 -343 -322c-153 0 -270 116 -270 266zM146 257c0 -110 81 -197 193 -197c129 0 247 108 247 238c0 110 -86 197 -197 197c-128 0 -243 -109 -243 -238z" />
    <glyph glyph-name="one" unicode="1" horiz-adv-x="380" 
d="M63 411l1 71l179 73h85l-120 -555h-86l105 477z" />
    <glyph glyph-name="one.alt" horiz-adv-x="311" 
d="M53 0l121 555h85l-121 -555h-85z" />
    <glyph glyph-name="two" unicode="2" horiz-adv-x="599" 
d="M159 434l-37 65c69 37 140 72 234 72c80 0 215 -35 215 -151c0 -147 -189 -174 -269 -188c-95 -17 -167 -45 -190 -137l-6 -27h378l-17 -68h-461l21 96c30 138 158 191 289 212c41 7 168 25 168 102c0 66 -86 85 -134 85c-75 0 -135 -28 -191 -61z" />
    <glyph glyph-name="three" unicode="3" horiz-adv-x="675" 
d="M173 426l-39 58c68 44 164 87 258 87c81 0 211 -46 211 -150c0 -55 -41 -108 -95 -125c35 -12 83 -49 83 -122c0 -136 -142 -191 -274 -191c-121 0 -235 44 -312 148l66 55c58 -82 149 -127 255 -127c86 0 180 32 180 115c0 63 -66 85 -97 85h-109l17 68h104
c47 0 90 29 90 78c0 64 -74 90 -127 90c-75 0 -151 -32 -211 -69z" />
    <glyph glyph-name="four" unicode="4" horiz-adv-x="690" 
d="M636 197l-17 -68h-110l-28 -129h-86l28 129h-421l15 61l508 365h79l-80 -358h112zM147 200l-1 -3h292l55 248h-9c-108 -80 -233 -167 -337 -245z" />
    <glyph glyph-name="five" unicode="5" horiz-adv-x="653" 
d="M595 555l-18 -76h-358l-31 -148c47 20 90 34 149 34c99 0 242 -42 242 -173c0 -147 -139 -209 -273 -209c-128 0 -220 41 -295 118l58 56c56 -64 144 -98 243 -98c74 0 181 29 181 125c0 83 -109 108 -176 108c-68 0 -121 -16 -171 -33l-43 44l55 252h437z" />
    <glyph glyph-name="six" unicode="6" horiz-adv-x="671" 
d="M630 490l-58 -55c-45 39 -113 60 -179 60c-114 0 -223 -75 -249 -190c55 27 134 58 221 58c106 0 233 -48 233 -168c0 -132 -128 -212 -259 -212c-139 0 -279 89 -279 261c0 186 153 327 342 327c85 0 167 -28 228 -81zM345 294c-78 0 -157 -29 -206 -51
c5 -117 100 -187 205 -184c73 3 166 41 166 129c0 81 -96 106 -165 106z" />
    <glyph glyph-name="seven" unicode="7" horiz-adv-x="599" 
d="M88 479l18 76h500l-17 -77l-416 -478h-112l429 479h-402z" />
    <glyph glyph-name="eight" unicode="8" horiz-adv-x="679" 
d="M39 165c0 96 88 149 183 156c-57 17 -90 51 -90 104c0 115 143 148 229 148c93 0 252 -40 252 -160c0 -78 -65 -116 -141 -120c63 -18 119 -65 119 -138c0 -129 -162 -173 -264 -173c-107 0 -288 51 -288 183zM136 180c-10 -87 126 -121 196 -121c56 0 166 21 166 102
c0 83 -129 113 -196 113c-51 0 -158 -17 -166 -94zM224 421c0 -73 119 -87 169 -87c46 0 125 11 125 74c0 69 -97 95 -157 95c-48 0 -137 -17 -137 -82z" />
    <glyph glyph-name="nine" unicode="9" horiz-adv-x="672" 
d="M43 65l59 55c44 -39 111 -61 178 -61c113 0 223 74 248 190c-54 -28 -135 -58 -221 -58c-103 0 -231 48 -231 169c0 132 126 211 260 211c136 0 277 -89 277 -260c0 -186 -154 -328 -342 -328c-84 0 -166 29 -228 82zM328 261c77 0 156 28 206 50
c-5 118 -98 187 -204 184c-73 -3 -167 -40 -167 -129c0 -81 96 -105 165 -105z" />
    <glyph glyph-name="period" unicode="." horiz-adv-x="279" 
d="M31 43c0 35 31 64 71 64c35 0 60 -25 60 -55c0 -35 -32 -64 -72 -64c-34 0 -59 24 -59 55z" />
    <glyph glyph-name="comma" unicode="," horiz-adv-x="305" 
d="M12 -182l-18 51c47 13 132 55 133 113c0 11 -3 18 -10 21c-8 -2 -17 -4 -26 -4c-33 0 -56 21 -56 49c0 33 30 59 68 59c49 0 91 -40 91 -96c0 -115 -107 -168 -182 -193z" />
    <glyph glyph-name="colon" unicode=":" horiz-adv-x="328" 
d="M55 43c0 35 32 64 71 64c35 0 61 -25 61 -55c0 -35 -32 -64 -72 -64c-35 0 -60 24 -60 55zM118 380c0 35 32 64 71 64c35 0 60 -25 60 -56c0 -35 -32 -63 -71 -63c-35 0 -60 24 -60 55z" />
    <glyph glyph-name="semicolon" unicode=";" horiz-adv-x="341" 
d="M34 -182l-19 51c47 13 132 55 134 113c0 11 -4 18 -10 21c-8 -2 -17 -4 -26 -4c-33 0 -57 21 -57 49c0 33 31 59 69 59c49 0 90 -40 90 -96c0 -115 -106 -168 -181 -193zM119 380c0 35 32 64 71 64c35 0 61 -25 61 -56c0 -35 -32 -63 -72 -63c-35 0 -60 24 -60 55z" />
    <glyph glyph-name="exclam" unicode="!" horiz-adv-x="302" 
d="M96 -12c-34 0 -59 24 -59 55c0 35 31 64 71 64c34 0 60 -25 60 -55c0 -35 -32 -64 -72 -64zM107 202l44 293l34 158h94l-34 -158l-81 -293h-57z" />
    <glyph glyph-name="question" unicode="?" horiz-adv-x="596" 
d="M155 523l-43 55c72 53 145 92 256 92c84 0 211 -31 211 -147c0 -64 -35 -113 -93 -151c-84 -53 -190 -75 -218 -170h-77c24 144 165 167 245 221c31 18 63 41 63 88c0 68 -79 90 -133 90c-89 0 -151 -33 -211 -78zM146 43c0 35 31 64 71 64c35 0 60 -25 60 -55
c0 -35 -32 -64 -71 -64c-35 0 -60 24 -60 55z" />
    <glyph glyph-name="exclamdown" unicode="&#xa1;" horiz-adv-x="292" 
d="M164 481c34 0 59 -24 59 -55c0 -35 -31 -64 -71 -64c-34 0 -60 25 -60 55c0 35 32 64 72 64zM153 267l-44 -293l-34 -158h-94l34 158l81 293h57z" />
    <glyph glyph-name="questiondown" unicode="&#xbf;" horiz-adv-x="593" 
d="M413 -54l43 -55c-72 -53 -145 -92 -256 -92c-84 0 -211 31 -211 147c0 64 35 113 93 151c84 53 190 75 218 170h77c-24 -144 -165 -167 -245 -221c-31 -18 -63 -41 -63 -88c0 -68 79 -90 133 -90c89 0 151 33 211 78zM422 426c0 -35 -31 -64 -71 -64c-35 0 -60 25 -60 55
c0 35 32 64 71 64c35 0 60 -24 60 -55z" />
    <glyph glyph-name="quotesingle" unicode="'" horiz-adv-x="224" 
d="M166 403h-49l8 150l18 100h86l-18 -100z" />
    <glyph glyph-name="quotedbl" unicode="&#x22;" horiz-adv-x="454" 
d="M166 403h-49l8 150l18 100h86l-18 -100zM396 403h-49l8 150l18 100h86l-17 -100z" />
    <glyph glyph-name="quoteleft" unicode="&#x2018;" horiz-adv-x="281" 
d="M275 680l19 -49c-46 -12 -126 -52 -128 -108c0 -9 4 -16 10 -19c8 2 17 5 25 5c32 0 55 -20 55 -47c0 -31 -29 -56 -65 -56c-48 0 -87 37 -87 89c0 111 100 161 171 185z" />
    <glyph glyph-name="quoteright" unicode="&#x2019;" horiz-adv-x="279" 
d="M115 396l-19 49c46 12 126 52 128 108c0 9 -4 16 -10 19c-8 -2 -17 -5 -26 -5c-31 0 -54 20 -54 47c0 31 29 56 65 56c48 0 87 -37 87 -89c0 -111 -100 -161 -171 -185z" />
    <glyph glyph-name="quotedblleft" unicode="&#x201c;" horiz-adv-x="527" 
d="M521 680l19 -49c-46 -12 -127 -52 -128 -108c0 -9 4 -16 10 -19c8 2 16 5 25 5c32 0 55 -20 55 -47c0 -31 -29 -56 -66 -56c-47 0 -87 37 -87 89c0 111 101 161 172 185zM275 680l19 -49c-46 -12 -126 -52 -128 -108c0 -9 4 -16 10 -19c8 2 17 5 25 5c32 0 55 -20 55 -47
c0 -31 -29 -56 -65 -56c-48 0 -87 37 -87 89c0 111 100 161 171 185z" />
    <glyph glyph-name="quotedblright" unicode="&#x201d;" horiz-adv-x="526" 
d="M115 396l-19 49c46 12 126 52 128 108c0 9 -4 16 -10 19c-8 -2 -17 -5 -26 -5c-31 0 -54 20 -54 47c0 31 29 56 65 56c48 0 87 -37 87 -89c0 -111 -100 -161 -171 -185zM361 396l-19 49c46 12 127 52 128 108c0 9 -4 16 -10 19c-8 -2 -16 -5 -25 -5c-32 0 -55 20 -55 47
c0 31 30 56 66 56c47 0 87 -37 87 -89c0 -111 -101 -161 -172 -185z" />
    <glyph glyph-name="quotesinglbase" unicode="&#x201a;" horiz-adv-x="300" 
d="M16 -168l-19 49c46 13 126 53 128 108c0 10 -4 17 -10 20c-8 -2 -17 -5 -26 -5c-31 0 -54 20 -54 47c0 31 29 56 65 56c48 0 87 -37 87 -89c0 -111 -100 -161 -171 -186z" />
    <glyph glyph-name="quotedblbase" unicode="&#x201e;" horiz-adv-x="546" 
d="M16 -168l-19 49c46 13 126 53 128 108c0 10 -4 17 -10 20c-8 -2 -17 -5 -26 -5c-31 0 -54 20 -54 47c0 31 29 56 65 56c48 0 87 -37 87 -89c0 -111 -100 -161 -171 -186zM262 -168l-19 49c46 13 127 53 128 108c0 10 -4 17 -10 20c-8 -2 -16 -5 -25 -5
c-32 0 -55 20 -55 47c0 31 29 56 66 56c47 0 87 -37 87 -89c0 -111 -101 -161 -172 -186z" />
    <glyph glyph-name="guilsinglleft" unicode="&#x2039;" horiz-adv-x="320" 
d="M178 387h97l-153 -144l-1 -7l93 -135h-89l-81 121l7 43z" />
    <glyph glyph-name="guilsinglright" unicode="&#x203a;" horiz-adv-x="321" 
d="M129 101h-96l152 144l1 7l-92 135h88l81 -121l-7 -43z" />
    <glyph glyph-name="guillemotleft" unicode="&#xab;" horiz-adv-x="559" 
d="M179 387h96l-152 -144l-1 -7l92 -135h-88l-83 121l9 43zM417 387h97l-153 -144l-1 -7l93 -135h-89l-92 138l1 9z" />
    <glyph glyph-name="guillemotright" unicode="&#xbb;" horiz-adv-x="560" 
d="M368 101h-97l152 144l1 7l-92 135h89l82 -121l-8 -43zM129 101h-96l152 144l1 7l-92 135h88l93 -138l-2 -9z" />
    <glyph glyph-name="hyphen" unicode="-" horiz-adv-x="397" 
d="M58 213l14 79h257l-14 -79h-257z" />
    <glyph glyph-name="endash" unicode="&#x2013;" horiz-adv-x="634" 
d="M59 221l14 71h494l-14 -71h-494z" />
    <glyph glyph-name="emdash" unicode="&#x2014;" horiz-adv-x="1114" 
d="M59 221l14 71h974l-14 -71h-974z" />
    <glyph glyph-name="underscore" unicode="_" horiz-adv-x="600" 
d="M-97 -156l12 56h611l-12 -56h-611z" />
    <glyph glyph-name="ellipsis" unicode="&#x2026;" horiz-adv-x="1000" 
d="M73 43c0 35 31 64 71 64c35 0 60 -25 60 -55c0 -35 -32 -64 -71 -64c-35 0 -60 24 -60 55zM392 43c0 35 32 64 71 64c35 0 61 -25 61 -55c0 -35 -33 -64 -72 -64c-35 0 -60 24 -60 55zM712 43c0 35 31 64 71 64c35 0 60 -25 60 -55c0 -35 -32 -64 -71 -64
c-35 0 -60 24 -60 55z" />
    <glyph glyph-name="parenleft" unicode="(" horiz-adv-x="381" 
d="M275 -118l-54 -48c-116 79 -177 218 -177 361c0 217 139 415 359 502l31 -58c-174 -68 -303 -248 -303 -441c0 -125 51 -250 144 -316z" />
    <glyph glyph-name="parenright" unicode=")" horiz-adv-x="380" 
d="M102 649l54 48c116 -79 177 -218 177 -361c0 -217 -139 -415 -359 -502l-31 57c174 69 303 248 303 442c0 125 -51 250 -144 316z" />
    <glyph glyph-name="bracketleft" unicode="[" horiz-adv-x="354" 
d="M239 -84l-15 -70h-218l179 843h218l-15 -70h-138l-150 -703h139z" />
    <glyph glyph-name="bracketright" unicode="]" horiz-adv-x="355" 
d="M113 619l15 70h218l-179 -843h-218l15 70h138l150 703h-139z" />
    <glyph glyph-name="braceleft" unicode="{" horiz-adv-x="379" 
d="M264 -84l-15 -70c-125 0 -175 17 -175 93c0 20 3 42 9 69l27 127c3 13 4 24 4 34c0 57 -44 71 -94 71l15 72c59 0 123 43 137 110l22 103c29 137 81 165 235 165l-15 -70c-93 0 -123 -14 -141 -95l-22 -103c-17 -83 -84 -138 -144 -142c0 -2 -1 -5 -1 -8
c48 -1 89 -20 89 -87c0 -15 -2 -31 -6 -50l-27 -127c-3 -16 -4 -29 -4 -40c0 -43 30 -52 106 -52z" />
    <glyph glyph-name="braceright" unicode="}" horiz-adv-x="378" 
d="M-53 -154l15 70c89 0 124 14 140 92l27 127c23 108 83 136 143 137l1 8c-48 3 -88 43 -88 106c0 11 1 24 4 36l22 103c3 15 5 28 5 39c0 47 -33 56 -105 56l15 70c124 0 173 -18 173 -96c0 -19 -3 -42 -9 -69l-22 -103c-1 -8 -2 -16 -2 -23c0 -54 42 -87 94 -87l-16 -72
c-58 0 -117 -20 -135 -105l-28 -127c-29 -135 -78 -162 -234 -162z" />
    <glyph glyph-name="backslash" unicode="\" horiz-adv-x="507" 
d="M385 -119h-74l-179 772h74z" />
    <glyph glyph-name="slash" unicode="/" horiz-adv-x="528" 
d="M51 -119h-87l507 772h87z" />
    <glyph glyph-name="asterisk" unicode="*" horiz-adv-x="589" 
d="M113 558l31 53l159 -85l44 175l61 -12l-31 -178l178 13l7 -61l-180 -25l69 -168l-55 -25l-80 163l-139 -117l-40 46l131 125z" />
    <glyph glyph-name="bullet" unicode="&#x2022;" horiz-adv-x="441" 
d="M223 144c-88 0 -159 67 -159 151s71 151 159 151c87 0 159 -67 159 -151s-72 -151 -159 -151z" />
    <glyph glyph-name="at" unicode="@" horiz-adv-x="988" 
d="M676 472h72l-118 -273c-4 -9 -6 -16 -6 -27c0 -31 20 -48 51 -48c78 0 206 104 206 251c0 138 -113 242 -298 242c-233 0 -456 -161 -456 -397c0 -204 173 -300 338 -300c93 0 209 29 262 56l16 -52c-55 -30 -180 -66 -288 -66c-189 0 -400 114 -400 358
c0 275 262 463 533 463c221 0 358 -126 358 -296c0 -193 -176 -321 -295 -321c-56 0 -92 29 -92 76c0 2 0 7 1 10c-53 -55 -114 -85 -169 -85c-66 0 -125 43 -125 140c0 162 159 287 268 287c64 0 103 -44 109 -93zM418 133c39 0 91 22 141 71l53 122c-4 50 -35 95 -85 95
c-69 0 -181 -81 -181 -202c0 -60 30 -86 72 -86z" />
    <glyph glyph-name="copyright" unicode="&#xa9;" horiz-adv-x="1017" 
d="M509 -140c-244 0 -444 182 -444 410c0 227 200 409 444 409c242 0 442 -182 442 -409c0 -228 -200 -410 -442 -410zM509 -84c208 0 377 158 377 354c0 194 -169 354 -377 354s-379 -160 -379 -354c0 -196 171 -354 379 -354zM709 415l-30 -54c-47 42 -107 64 -167 64
c-99 0 -165 -70 -165 -155s75 -140 168 -140c82 0 126 27 169 58l30 -53c-49 -38 -100 -68 -199 -68c-132 0 -241 81 -241 203c0 121 94 218 238 218c72 0 146 -32 197 -73z" />
    <glyph glyph-name="soundrecordingcopyright" unicode="&#x2117;" horiz-adv-x="1017" 
d="M951 270c0 -227 -200 -410 -444 -410s-442 183 -442 410c0 228 199 409 442 409c244 0 444 -181 444 -409zM886 271c0 195 -172 353 -379 353c-209 0 -377 -159 -377 -353c0 -195 168 -355 377 -355c207 0 379 159 379 355zM584 204h-166v-118h-72v386h211
c73 0 183 -21 183 -131c0 -95 -81 -137 -156 -137zM418 409v-142h166c38 0 83 19 83 73c0 55 -53 69 -92 69h-157z" />
    <glyph glyph-name="trademark" unicode="&#x2122;" horiz-adv-x="863" 
d="M782 326h-58l47 225h-2l-145 -180h-9l-69 180h-2l-48 -225h-56l70 327h55l71 -191h1l154 191h60zM124 606l9 47h286l-10 -47h-113l-60 -280h-58l59 280h-113z" />
    <glyph glyph-name="servicemark" unicode="&#x2120;" horiz-adv-x="903" 
d="M833 326h-58l47 225h-2l-145 -180h-9l-69 180h-3l-47 -225h-56l70 327h55l71 -191h1l154 191h60zM423 608l-41 -34c-25 29 -78 40 -122 40c-26 0 -70 -8 -70 -40s39 -40 78 -47c57 -11 145 -24 145 -100c0 -72 -63 -111 -145 -111c-71 0 -132 26 -177 79l40 34
c33 -40 85 -64 143 -64c34 0 79 12 79 50c0 33 -39 45 -98 55c-58 13 -125 27 -125 93c0 68 65 100 138 100c57 0 114 -19 155 -55z" />
    <glyph glyph-name="registered" unicode="&#xae;" horiz-adv-x="637" 
d="M326 205c-134 0 -229 94 -229 214c0 135 127 252 278 252c134 0 233 -98 233 -214c0 -139 -131 -252 -282 -252zM330 238c130 0 242 97 242 216c0 102 -84 186 -200 186c-129 0 -240 -101 -240 -218c0 -103 83 -184 198 -184zM254 327h-43l56 235h148c46 0 75 -30 75 -64
s-30 -66 -74 -74l38 -97h-47l-35 94h-95zM301 527l-16 -69h110c26 0 52 14 52 37c0 17 -15 32 -36 32h-110z" />
    <glyph glyph-name="paragraph" unicode="&#xb6;" horiz-adv-x="866" 
d="M462 -206h-72l100 469h-214c-92 0 -187 65 -187 178c0 129 83 212 224 212h517l-183 -859h-71l168 789h-114zM315 583c-75 0 -147 -37 -147 -132c0 -76 64 -118 123 -118h214l53 250h-243z" />
    <glyph glyph-name="dagger" unicode="&#x2020;" horiz-adv-x="506" 
d="M506 528l-14 -64h-164l-81 -384h-72l81 384h-163l13 64h163l37 172h72l-37 -172h165z" />
    <glyph glyph-name="daggerdbl" unicode="&#x2021;" horiz-adv-x="526" 
d="M185 80l38 178h-164l14 63h163l31 143h-164l14 64h164l36 172h72l-37 -172h164l-14 -64h-164l-30 -143h164l-13 -63h-165l-37 -178h-72z" />
    <glyph glyph-name="litre" unicode="&#x2113;" horiz-adv-x="536" 
d="M40 112l-9 58l114 58l44 205c35 166 119 201 195 201c85 0 131 -52 131 -125c0 -110 -104 -209 -273 -294l-23 -12l-14 -68c-2 -8 -5 -24 -5 -34c0 -38 36 -45 67 -45c44 0 83 15 115 29v-62c-54 -27 -91 -37 -134 -37c-64 0 -130 20 -130 100c0 12 2 25 5 39l7 33z
M268 432l-34 -158l16 8c123 63 183 142 183 213c0 43 -22 69 -62 69c-37 0 -79 -21 -103 -132z" />
    <glyph glyph-name="estimated" unicode="&#x212e;" horiz-adv-x="818" 
d="M221 443v-107c0 -3 4 -6 6 -6h383c4 0 8 1 8 6v107c0 6 -2 13 -6 21c-40 61 -108 95 -191 95c-68 0 -159 -39 -193 -95c-5 -8 -7 -15 -7 -21zM723 138c-78 -108 -190 -156 -302 -156c-172 0 -347 129 -345 312c0 190 174 311 345 311c183 0 342 -121 342 -320h-536
c-2 0 -6 -3 -6 -8v-127c0 -11 0 -19 7 -28c56 -64 123 -94 193 -94c82 0 155 39 211 110h91z" />
    <glyph glyph-name="degree" unicode="&#xb0;" horiz-adv-x="496" 
d="M266 296c-117 0 -175 70 -175 152c0 98 75 184 210 184c117 0 177 -69 177 -153c0 -96 -78 -183 -212 -183zM273 359c83 0 133 53 133 115c0 53 -38 96 -111 96c-85 0 -132 -54 -132 -116c0 -52 37 -95 110 -95z" />
    <glyph glyph-name="dollar" unicode="$" horiz-adv-x="700" 
d="M633 468l-60 -51c-35 37 -87 60 -143 72l-33 -164c102 -18 223 -49 223 -162c0 -117 -112 -179 -259 -179c-12 0 -23 1 -34 1l-25 -121h-58l26 128c-97 17 -180 64 -244 136l60 49c49 -57 117 -97 198 -114l40 194c-107 22 -213 50 -213 153c0 110 107 161 228 161
c16 0 32 -1 49 -2l19 94h59l-21 -103c70 -15 137 -45 188 -92zM536 147c0 59 -66 84 -155 101l-40 -192c9 -1 18 -1 28 -1c79 0 167 19 167 92zM194 424c0 -54 62 -73 146 -89l33 163c-14 1 -29 2 -43 2c-59 0 -136 -12 -136 -76z" />
    <glyph glyph-name="cent" unicode="&#xa2;" horiz-adv-x="575" 
d="M367 531h59l-31 -99c50 -13 94 -38 128 -73l-61 -47c-23 22 -54 41 -89 51l-97 -307h11c59 0 110 25 145 49l42 -55c-20 -18 -90 -63 -188 -63c-11 0 -21 1 -31 2l-39 -125h-59l42 135c-93 26 -152 98 -152 198c0 128 116 246 268 246c8 0 16 -1 24 -1zM135 197
c0 -55 32 -106 86 -128l96 303h-5c-102 0 -177 -85 -177 -175z" />
    <glyph glyph-name="Euro" unicode="&#x20ac;" horiz-adv-x="788" 
d="M744 446l-68 -43c-50 51 -131 91 -221 91c-88 0 -165 -51 -207 -122h307l-10 -55h-320c-6 -20 -8 -40 -8 -60v-14h313l-11 -55h-290c28 -74 101 -127 192 -127c83 0 160 32 216 73l48 -57c-68 -51 -162 -92 -269 -92c-136 0 -252 78 -282 203h-88l11 55h70v10
c0 21 2 43 7 64h-62l10 55h71c50 112 167 198 304 198c110 0 218 -44 287 -124z" />
    <glyph glyph-name="sterling" unicode="&#xa3;" horiz-adv-x="717" 
d="M69 266l12 62h128l14 78c20 114 141 165 232 165c68 0 151 -28 219 -71l-56 -59c-55 31 -126 54 -176 54c-55 0 -123 -27 -133 -89l-14 -78h260l-13 -62h-257l-15 -88c-11 -63 -36 -96 -102 -109h442l-12 -69h-584l13 69h38c80 0 103 25 119 109l15 88h-130z" />
    <glyph glyph-name="yen" unicode="&#xa5;" horiz-adv-x="764" 
d="M76 317l11 55h177l-113 183h102l136 -221l231 221h109l-190 -183h174l-10 -55h-221l-62 -60l-3 -14h270l-11 -55h-271l-41 -188h-86l41 188h-269l11 55h270l3 15l-36 59h-222z" />
    <glyph glyph-name="florin" unicode="&#x192;" horiz-adv-x="456" 
d="M56 328h108l36 113c31 98 119 131 182 131c41 0 85 -13 101 -24l-34 -66c-12 10 -48 20 -75 20c-41 0 -81 -19 -94 -60l-36 -114h128l-13 -62h-135l-84 -266c-38 -118 -133 -160 -212 -160l6 62c46 7 103 24 127 98l84 266h-102z" />
    <glyph glyph-name="colonmonetary" unicode="&#x20a1;" horiz-adv-x="741" 
d="M706 450l-63 -41c-25 24 -56 45 -91 61l-131 -413c69 8 132 37 181 71l44 -53c-64 -47 -150 -85 -248 -90l-38 -121h-51l38 122c-33 2 -64 8 -93 17l-44 -139h-50l49 157c-89 45 -149 127 -149 232c0 156 140 298 321 316l30 94h52l-29 -92c31 -1 63 -6 93 -14l34 106h52
l-39 -122c51 -20 96 -51 132 -91zM277 75c28 -12 59 -19 92 -20l136 432c-28 8 -58 13 -88 13h-6zM145 258c0 -65 33 -123 88 -160l125 396c-120 -25 -213 -125 -213 -236z" />
    <glyph glyph-name="franc" unicode="&#x20a3;" horiz-adv-x="694" 
d="M27 120l11 54h98l79 381h476l-16 -77h-389l-28 -129h239l-15 -76h-239l-21 -99h171l-10 -54h-172l-24 -120h-87l25 120h-98z" />
    <glyph glyph-name="lira" unicode="&#x20a4;" horiz-adv-x="721" 
d="M85 317l10 55h128l6 34c20 115 138 165 230 165c72 0 154 -30 220 -71l-56 -59c-55 31 -126 54 -176 54c-55 0 -123 -27 -133 -89l-6 -34h261l-11 -55h-260l-12 -74h257l-11 -55h-256l-1 -10c-11 -63 -36 -96 -102 -109h442l-12 -69h-584l13 69h38c79 0 104 25 119 109
l2 10h-133l11 55h131l13 74h-128z" />
    <glyph glyph-name="peso" unicode="&#x20b1;" horiz-adv-x="797" 
d="M58 335l11 54h98l35 166h303c65 0 105 -16 137 -48s49 -71 50 -118h90l-11 -54h-86c-9 -35 -28 -69 -63 -103c-42 -40 -92 -65 -176 -65h-237l-36 -167h-86l69 335h-98zM563 283c15 14 27 32 34 52h-355l-18 -91h230c43 0 79 11 109 39zM271 478l-18 -89h352
c-2 22 -11 43 -30 63c-21 20 -46 26 -85 26h-219z" />
    <glyph glyph-name="peseta" unicode="&#x20a7;" horiz-adv-x="1524" 
d="M130 0h-86l116 555h309c70 0 117 -16 150 -51c10 -10 19 -22 26 -35h110l31 142h80l-30 -142h141l-13 -62h-141l-59 -280c-3 -10 -5 -22 -5 -30c0 -30 23 -44 58 -44c21 0 61 6 77 13l-3 -63c-22 -12 -72 -20 -104 -20c-54 0 -110 23 -110 98c0 12 2 26 5 40l60 286h-79
v-9c0 -47 -23 -86 -52 -115c-43 -42 -102 -64 -184 -64h-251zM1458 407l-44 -57c-45 40 -122 69 -184 69c-51 0 -105 -20 -105 -66s54 -58 112 -68c89 -15 198 -35 198 -143c0 -103 -98 -157 -215 -157c-90 0 -183 33 -250 97l44 57c53 -52 133 -88 209 -88
c60 0 129 22 129 82c0 54 -55 67 -117 77c-93 16 -191 32 -191 134c0 91 82 142 188 142c81 0 166 -30 226 -79zM232 478l-40 -183h243c52 0 88 11 114 35c18 16 28 35 28 61c0 24 -10 46 -24 60c-20 21 -48 27 -100 27h-221z" />
    <glyph glyph-name="rupiah" unicode="&#xf6dd;" horiz-adv-x="1292" 
d="M747 -210h-80l120 558c7 38 15 79 15 121h74c2 -21 -1 -44 -5 -66c31 29 90 81 176 81c115 0 191 -95 191 -213c0 -139 -107 -284 -260 -285c-67 0 -125 26 -172 80zM864 334l-43 -205c31 -38 88 -73 151 -73c104 0 178 103 178 206c0 80 -45 152 -127 152
c-54 0 -108 -29 -159 -80zM125 0h-87l116 555h312c70 0 119 -16 154 -53c27 -29 42 -67 42 -105c0 -80 -68 -154 -173 -171l95 -226h-95l-87 219h-231zM226 478l-40 -183h269c62 0 121 38 121 98c0 18 -5 39 -24 59c-25 22 -48 26 -93 26h-233z" />
    <glyph glyph-name="Rupee" unicode="&#x20b9;" horiz-adv-x="779" 
d="M114 335l11 54h416c-2 22 -10 43 -29 63c-20 19 -43 26 -85 26h-283l16 77h611l-12 -54h-192c7 -3 16 -8 25 -16c25 -27 36 -59 37 -96h106l-11 -54h-102c-9 -35 -28 -69 -64 -103c-41 -35 -91 -57 -176 -57l-146 5l267 -180h-143l-276 190l11 54h295c44 0 80 11 109 39
c15 14 27 32 34 52h-419z" />
    <glyph glyph-name="section" unicode="&#xa7;" horiz-adv-x="707" 
d="M562 70c-22 -16 -48 -26 -80 -36c4 -5 9 -13 12 -20c5 -9 8 -21 8 -35c0 -96 -100 -136 -199 -136c-83 0 -166 26 -229 74l48 55c47 -34 110 -59 181 -59c49 0 112 12 112 62c0 11 -3 16 -7 21c-21 24 -78 32 -130 43c-64 14 -162 40 -207 99c-16 22 -26 48 -26 78
c0 48 25 95 72 129c22 17 52 29 81 37c-7 5 -11 12 -14 19c-4 7 -7 22 -7 36c0 95 107 136 203 136c79 0 162 -27 225 -75l-47 -54c-49 36 -116 60 -183 60c-46 0 -103 -11 -109 -56c-3 -13 -1 -21 5 -27c17 -22 66 -31 129 -44c63 -12 164 -40 209 -100
c16 -21 24 -46 24 -76c0 -52 -26 -100 -71 -131zM386 303c-43 9 -103 19 -146 41c-12 -3 -30 -8 -51 -23c-30 -22 -56 -53 -56 -94c0 -19 7 -36 17 -48c30 -39 91 -54 144 -66c51 -10 103 -19 145 -41c12 3 28 7 50 23c33 23 57 54 57 93c0 20 -6 36 -16 49
c-27 36 -88 53 -144 66z" />
    <glyph glyph-name="numbersign" unicode="#" horiz-adv-x="859" 
d="M612 603h64l-49 -179h204l-11 -61h-210l-53 -190h194l-12 -62h-199l-56 -205h-64l56 205h-183l-56 -205h-65l56 205h-202l12 62h207l52 190h-192l11 61h198l49 179h65l-49 -179h184zM362 363l-52 -190h183l53 190h-184z" />
    <glyph glyph-name="percent" unicode="%" horiz-adv-x="1065" 
d="M776 591l-407 -591h-69l408 591h68zM603 146c0 98 94 182 206 182c100 0 178 -73 178 -160c0 -98 -99 -181 -211 -181c-99 0 -173 70 -173 159zM677 150c0 -52 45 -98 106 -98c68 0 130 52 130 113c0 52 -49 97 -110 97c-68 0 -126 -51 -126 -112zM89 423
c0 97 95 181 207 181c100 0 178 -72 178 -159c0 -99 -100 -182 -211 -182c-99 0 -174 71 -174 160zM164 426c0 -52 45 -97 105 -97c69 0 131 51 131 112c0 53 -49 97 -110 97c-68 0 -126 -50 -126 -112z" />
    <glyph glyph-name="perthousand" unicode="&#x2030;" horiz-adv-x="1497" 
d="M89 423c0 97 95 181 207 181c100 0 178 -72 178 -159c0 -99 -100 -182 -211 -182c-99 0 -174 71 -174 160zM164 426c0 -52 45 -97 105 -97c69 0 131 51 131 112c0 53 -49 97 -110 97c-68 0 -126 -50 -126 -112zM776 591l-407 -591h-69l408 591h68zM603 146
c0 98 94 182 206 182c100 0 178 -73 178 -160c0 -98 -99 -181 -211 -181c-99 0 -173 70 -173 159zM677 150c0 -52 45 -98 106 -98c68 0 130 52 130 113c0 52 -49 97 -110 97c-68 0 -126 -51 -126 -112zM1035 146c0 98 95 182 206 182c101 0 179 -73 179 -160
c0 -98 -100 -181 -210 -181c-101 0 -175 70 -175 159zM1110 150c0 -52 45 -98 105 -98c69 0 130 52 130 113c0 52 -48 97 -109 97c-67 0 -126 -51 -126 -112z" />
    <glyph glyph-name="currency" unicode="&#xa4;" horiz-adv-x="811" 
d="M693 -19l-67 -41l-86 99c-49 -31 -106 -50 -165 -50c-67 0 -126 25 -169 66l-104 -81l-56 55l112 87c-20 35 -30 76 -30 119c0 73 30 140 79 191l-91 107l66 43l86 -99c47 31 104 50 163 50c66 0 126 -25 170 -66l107 83l55 -56l-113 -88c20 -35 32 -77 32 -120
c0 -74 -32 -140 -81 -192zM214 236c0 -93 72 -169 162 -169c115 0 218 96 218 212c0 94 -73 170 -164 170c-115 0 -216 -97 -216 -213z" />
    <glyph glyph-name="dollar.superior" horiz-adv-x="514" 
d="M506 586l-53 -45c-23 27 -59 44 -98 54l-25 -117c75 -15 164 -40 164 -127c0 -94 -86 -145 -198 -145h-24l-19 -92h-51l21 99c-70 15 -131 50 -178 107l53 43c35 -42 82 -72 138 -86l30 140c-76 16 -157 38 -157 119c0 89 83 131 177 131c11 0 21 0 32 -1l16 72h51
l-17 -80c52 -12 100 -36 138 -72zM420 335c0 40 -42 59 -105 72l-29 -138h19c51 0 115 13 115 66zM183 550c0 -37 42 -53 97 -64l25 117c-9 1 -19 1 -28 1c-38 0 -94 -6 -94 -54z" />
    <glyph glyph-name="cent.superior" horiz-adv-x="423" 
d="M427 505l-54 -41c-14 15 -35 29 -59 37l-72 -230h2c40 0 77 17 106 36l36 -48c-16 -14 -70 -50 -144 -50h-20l-30 -95h-52l33 105c-69 21 -111 77 -111 154c0 102 92 197 208 197c5 0 10 0 16 -1l22 69h50l-24 -76c36 -10 68 -30 93 -57zM139 374c0 -39 19 -75 55 -92
l72 227c-73 0 -127 -66 -127 -135z" />
    <glyph glyph-name="Euro.superior" horiz-adv-x="572" 
d="M583 568l-59 -38c-34 38 -93 68 -159 68c-59 0 -112 -35 -141 -85h218l-10 -47h-228c-4 -15 -6 -31 -6 -47v-8h223l-10 -47h-204c19 -52 66 -89 129 -89c62 0 119 24 161 57l40 -51c-51 -39 -124 -74 -207 -74c-101 0 -184 61 -206 157h-66l10 47h51v3c0 17 2 35 6 52
h-46l9 47h52c39 87 126 153 228 153c84 0 165 -36 215 -98z" />
    <glyph glyph-name="sterling.superior" horiz-adv-x="518" 
d="M78 424l11 55h91l11 58c16 90 108 130 177 130c52 0 114 -23 164 -56l-49 -53c-40 25 -91 41 -127 41c-38 0 -82 -19 -90 -62l-11 -58h188l-12 -55h-185l-11 -62c-8 -47 -28 -72 -78 -81h325l-13 -61h-435l13 61h28c57 0 73 19 84 81l11 62h-92z" />
    <glyph glyph-name="yen.superior" horiz-adv-x="560" 
d="M81 466l11 47h126l-79 140h90l92 -166l165 166h96l-141 -140h127l-10 -47h-164l-47 -47l-2 -8h201l-10 -47h-201l-32 -144h-76l32 144h-199l9 47h200l2 8l-27 47h-163z" />
    <glyph glyph-name="numbersign.superior" horiz-adv-x="625" 
d="M482 690h56l-39 -137h150l-12 -54h-153l-39 -140h141l-11 -54h-145l-44 -158h-56l44 158h-128l-44 -158h-56l44 158h-147l11 54h151l39 140h-139l11 54h143l39 137h56l-39 -137h128zM300 499l-39 -140h128l39 140h-128z" />
    <glyph glyph-name="percent.superior" horiz-adv-x="788" 
d="M617 681l-310 -461h-60l311 461h59zM480 332c0 77 73 143 157 143c74 0 131 -56 131 -123c0 -78 -76 -143 -159 -143c-74 0 -129 54 -129 123zM546 336c0 -37 29 -69 69 -69c46 0 88 38 88 82c0 37 -32 68 -72 68c-45 0 -85 -37 -85 -81zM96 550c0 76 72 143 156 143
c75 0 131 -56 131 -123c0 -78 -75 -143 -159 -143c-74 0 -128 54 -128 123zM161 553c0 -37 29 -69 69 -69c46 0 88 38 88 82c0 37 -32 68 -72 68c-45 0 -85 -36 -85 -81z" />
    <glyph glyph-name="period.superior" horiz-adv-x="227" 
d="M59 255c0 29 27 54 59 54c29 0 51 -21 51 -46c0 -29 -28 -53 -60 -53c-29 0 -50 20 -50 45z" />
    <glyph glyph-name="comma.superior" horiz-adv-x="245" 
d="M46 86l-16 45c36 9 109 43 100 80c1 4 1 6 0 7c-6 -1 -12 -2 -20 -2c-28 0 -49 18 -49 42c0 28 27 51 60 51c36 0 68 -30 68 -73c0 -89 -84 -130 -143 -150z" />
    <glyph glyph-name="hyphen.superior" horiz-adv-x="298" 
d="M78 359l12 69h181l-11 -69h-182z" />
    <glyph glyph-name="parenleft.superior" unicode="&#x207d;" horiz-adv-x="280" 
d="M238 145l-47 -42c-84 58 -129 154 -129 256c0 156 99 289 257 353l28 -50c-118 -47 -210 -165 -210 -300c0 -86 38 -171 101 -217z" />
    <glyph glyph-name="parenright.superior" unicode="&#x207e;" horiz-adv-x="280" 
d="M99 671l48 41c83 -58 128 -154 128 -256c0 -155 -99 -289 -257 -353l-27 50c118 48 208 165 208 300c0 87 -36 170 -100 218z" />
    <glyph glyph-name="plus" unicode="+" horiz-adv-x="728" 
d="M87 220v71h238v209h78v-209h238v-71h-238v-210h-78v210h-238z" />
    <glyph glyph-name="minus" unicode="&#x2212;" horiz-adv-x="728" 
d="M87 220v71h554v-71h-554z" />
    <glyph glyph-name="multiply" unicode="&#xd7;" horiz-adv-x="728" 
d="M100 439l55 52l209 -186l210 186l52 -51l-207 -184l208 -184l-54 -52l-210 186l-209 -186l-53 51l207 184z" />
    <glyph glyph-name="divide" unicode="&#xf7;" horiz-adv-x="728" 
d="M87 220v71h554v-71h-554zM303 52c0 30 27 56 62 56s61 -26 61 -56c0 -32 -27 -56 -61 -56c-35 0 -62 24 -62 56zM303 459c0 31 27 56 62 56c34 0 61 -25 61 -56s-26 -56 -61 -56s-62 25 -62 56z" />
    <glyph glyph-name="equal" unicode="=" horiz-adv-x="728" 
d="M87 341v72h554v-72h-554zM87 98v72h554v-72h-554z" />
    <glyph glyph-name="approxequal" unicode="&#x2248;" horiz-adv-x="728" 
d="M87 85v73c48 35 93 56 150 56c55 0 92 -18 124 -37s70 -39 120 -39c52 0 113 25 160 60v-74c-48 -35 -102 -57 -160 -57c-63 0 -102 24 -124 37c-33 19 -69 38 -121 38s-103 -21 -149 -57zM87 329v73c48 35 93 55 150 55c55 0 92 -18 124 -37s70 -39 120 -39
c52 0 113 25 160 61v-74c-48 -36 -102 -58 -160 -58c-63 0 -102 24 -124 37c-33 19 -69 38 -121 38s-103 -21 -149 -56z" />
    <glyph glyph-name="notequal" unicode="&#x2260;" horiz-adv-x="728" 
d="M87 341v72h326l66 106h79l-66 -106h149v-72h-194l-106 -171h300v-72h-345l-65 -105h-79l65 105h-130v72h175l106 171h-281z" />
    <glyph glyph-name="plusminus" unicode="&#xb1;" horiz-adv-x="728" 
d="M87 305v72h238v175h78v-175h238v-72h-238v-174h-78v174h-238zM87 0v72h554v-72h-554z" />
    <glyph glyph-name="less" unicode="&#x3c;" horiz-adv-x="728" 
d="M641 487v-81l-454 -146v-10l454 -145v-80l-554 191v79z" />
    <glyph glyph-name="greater" unicode="&#x3e;" horiz-adv-x="728" 
d="M87 406v81l554 -192v-79l-554 -191v80l454 145v10z" />
    <glyph glyph-name="lessequal" unicode="&#x2264;" horiz-adv-x="728" 
d="M87 0v72h554v-72h-554zM641 564v-81l-454 -139v-10l454 -139v-81l-554 185v80z" />
    <glyph glyph-name="greaterequal" unicode="&#x2265;" horiz-adv-x="728" 
d="M641 72v-72h-554v72h554zM87 483v81l554 -185v-80l-554 -185v81l454 139v10z" />
    <glyph glyph-name="logicalnot" unicode="&#xac;" horiz-adv-x="728" 
d="M641 109h-79v225h-475v72h554v-297z" />
    <glyph glyph-name="periodcentered" unicode="&#xb7;" horiz-adv-x="728" 
d="M291 255c0 37 31 67 73 67c41 0 72 -30 72 -67c0 -36 -31 -65 -72 -65s-73 29 -73 65z" />
    <glyph glyph-name="asciitilde" unicode="~" horiz-adv-x="728" 
d="M115 198l-59 38c63 71 118 113 182 113c69 0 115 -36 147 -66c22 -20 52 -48 96 -48c38 0 83 27 130 78l62 -38c-70 -80 -136 -117 -195 -117c-77 0 -122 45 -151 71c-27 23 -55 43 -92 43s-76 -28 -120 -74z" />
    <glyph glyph-name="asciicircum" unicode="^" horiz-adv-x="728" 
d="M194 212h-90l218 401h86l216 -401h-89l-166 317h-7z" />
    <glyph glyph-name="brokenbar" unicode="&#xa6;" horiz-adv-x="350" 
d="M139 383v413h74v-413h-74zM139 -227v420h74v-420h-74z" />
    <glyph glyph-name="bar" unicode="|" horiz-adv-x="350" 
d="M139 -306v1209h74v-1209h-74z" />
    <glyph glyph-name="mu" unicode="&#xb5;" horiz-adv-x="609" 
d="M472 469h80l-74 -350c-10 -45 -17 -79 -18 -119h-73c-2 23 4 49 8 69c-47 -41 -108 -83 -179 -83c-45 0 -85 18 -100 53l-58 -269h-80l148 699h81l-56 -263c-6 -24 -10 -44 -10 -61c0 -54 46 -89 103 -89c62 0 117 41 157 80z" />
    <glyph glyph-name="pi" unicode="&#x3c0;" horiz-adv-x="685" 
d="M65 399l13 63h605l-13 -63h-108l-66 -318c-6 -26 -8 -53 -9 -81h-79c1 28 3 53 9 81l66 318h-210l-83 -399h-79l83 399h-129z" />
    <glyph glyph-name="Delta" unicode="&#x2206;" horiz-adv-x="733" 
d="M622 0h-623l15 70l395 583h81l147 -583zM427 551l-320 -481h441l-115 481h-6z" />
    <glyph glyph-name="Omega" unicode="&#x2126;" horiz-adv-x="882" 
d="M53 0l14 70h178c-106 37 -167 133 -167 246c0 194 186 354 405 354c196 0 340 -134 340 -302c0 -134 -97 -253 -229 -298h184l-14 -70h-280l14 70c138 34 234 155 234 292c0 128 -109 231 -257 231c-166 0 -306 -123 -306 -277c0 -118 72 -217 177 -246l-14 -70h-279z
" />
    <glyph glyph-name="product" unicode="&#x220f;" horiz-adv-x="804" 
d="M120 576l16 77h696l-16 -77h-111l-145 -683h-87l145 683h-303l-145 -683h-86l145 683h-109z" />
    <glyph glyph-name="summation" unicode="&#x2211;" horiz-adv-x="705" 
d="M727 653l-16 -77h-459l280 -281l-11 -53l-385 -272h446l-16 -77h-596l11 55l457 323l1 6l-320 321l12 55h596z" />
    <glyph glyph-name="integral" unicode="&#x222b;" horiz-adv-x="417" 
d="M460 723l-15 -70h-55c-39 0 -65 -32 -72 -67l-140 -656c-14 -62 -71 -117 -169 -117h-48l14 70h55c39 0 65 32 72 67l141 656c12 61 60 117 135 117h82z" />
    <glyph glyph-name="partialdiff" unicode="&#x2202;" horiz-adv-x="641" 
d="M301 457c94 0 154 -48 194 -114c2 15 3 29 3 43c0 77 -44 184 -235 196l16 71c240 -18 298 -150 298 -283c0 -205 -104 -387 -304 -387c-121 0 -226 75 -226 213c0 151 112 261 254 261zM274 47c96 1 176 63 208 202c-28 74 -87 143 -180 143c-97 0 -176 -78 -176 -192
c0 -98 64 -154 148 -153z" />
    <glyph glyph-name="infinity" unicode="&#x221e;" horiz-adv-x="1043" 
d="M457 375l67 -68l82 68c72 57 127 75 174 75h12c108 0 181 -77 181 -164c0 -116 -92 -223 -221 -223h-12c-42 0 -99 17 -158 73l-69 67l-83 -67c-69 -55 -125 -73 -174 -73h-12c-106 0 -178 77 -179 163c0 117 91 224 220 224h12c45 0 100 -17 160 -75zM655 329l-88 -73
l74 -73c40 -39 76 -52 105 -52h12c82 0 139 66 139 149c0 55 -45 101 -111 101h-12c-29 0 -72 -14 -119 -52zM263 131c31 0 67 10 118 53l87 72l-71 73c-40 39 -79 52 -107 52h-12c-81 0 -138 -66 -138 -147c-1 -54 44 -103 111 -103h12z" />
    <glyph glyph-name="lozenge" unicode="&#x25ca;" horiz-adv-x="663" 
d="M387 653h50l191 -300l-11 -51l-319 -302h-50l-190 302l11 51zM400 569l-261 -247l-1 -3l147 -235h1l260 249l1 4l-146 232h-1z" />
    <glyph glyph-name="radical" unicode="&#x221a;" horiz-adv-x="656" 
d="M69 470h167l97 -353l301 637h84l-367 -754h-56l-118 407h-122z" />
    <glyph glyph-name="zero.tos" horiz-adv-x="674" 
d="M52 246c0 179 156 325 321 325c143 0 250 -114 250 -262c0 -181 -156 -326 -324 -326c-141 0 -247 114 -247 263zM138 254c0 -108 72 -194 172 -194c117 0 226 109 226 241c0 108 -75 194 -174 194c-117 0 -224 -111 -224 -241z" />
    <glyph glyph-name="one.tos" horiz-adv-x="674" 
d="M70 0l14 68h220l87 409l-227 -63l-6 70l249 71h86l-103 -487h171l-14 -68h-477z" />
    <glyph glyph-name="two.tos" horiz-adv-x="674" 
d="M177 434l-39 65c73 37 150 72 252 72c91 0 245 -35 245 -155c0 -143 -198 -170 -291 -184c-116 -17 -198 -46 -221 -137l-6 -27h429l-14 -68h-514l20 96c31 138 169 191 316 212c59 7 193 26 193 100c0 68 -102 87 -160 87c-84 0 -149 -28 -210 -61z" />
    <glyph glyph-name="three.tos" horiz-adv-x="674" 
d="M173 426l-40 58c69 44 164 87 258 87c81 0 211 -46 211 -150c0 -55 -42 -108 -95 -125c36 -12 84 -49 84 -122c0 -136 -143 -191 -275 -191c-119 0 -233 44 -310 148l66 55c58 -82 148 -127 254 -127c85 0 180 32 180 115c0 63 -67 85 -98 85h-108l16 68h105
c45 0 89 29 89 78c0 64 -74 90 -126 90c-75 0 -152 -32 -211 -69z" />
    <glyph glyph-name="four.tos" horiz-adv-x="674" 
d="M616 197l-16 -68h-107l-28 -129h-86l28 129h-409l16 61l495 365h78l-79 -358h108zM144 200l-1 -3h278l54 248h-9z" />
    <glyph glyph-name="five.tos" horiz-adv-x="674" 
d="M611 555l-16 -76h-370l-31 -148c48 20 92 34 154 34c102 0 251 -42 251 -175c0 -145 -142 -207 -279 -207c-131 0 -226 41 -304 118l57 56c59 -64 150 -98 252 -98c77 0 187 29 187 124c0 84 -114 109 -185 109c-69 0 -124 -16 -175 -33l-43 44l54 252h448z" />
    <glyph glyph-name="six.tos" horiz-adv-x="674" 
d="M631 490l-58 -55c-45 39 -113 60 -180 60c-115 0 -224 -75 -248 -191c54 28 134 59 221 59c106 0 234 -48 234 -168c0 -132 -128 -212 -260 -212c-138 0 -279 89 -279 262c0 185 153 326 341 326c86 0 168 -28 229 -81zM345 294c-78 0 -156 -29 -205 -51
c5 -118 100 -187 206 -184c73 3 166 41 166 129c0 81 -97 106 -167 106z" />
    <glyph glyph-name="seven.tos" horiz-adv-x="674" 
d="M100 479l16 76h554l-15 -77l-455 -478h-113l469 479h-456z" />
    <glyph glyph-name="eight.tos" horiz-adv-x="674" 
d="M36 165c0 96 88 149 182 156c-56 17 -90 51 -90 104c0 115 143 148 229 148c93 0 251 -40 251 -160c0 -78 -65 -116 -139 -120c62 -18 118 -65 118 -138c0 -129 -161 -173 -263 -173c-107 0 -288 51 -288 183zM133 180c-10 -87 126 -121 196 -121c55 0 165 21 165 102
c0 83 -128 113 -196 113c-50 0 -157 -17 -165 -94zM220 421c0 -73 120 -87 170 -87c44 0 124 11 124 74c0 69 -97 95 -157 95c-48 0 -137 -17 -137 -82z" />
    <glyph glyph-name="nine.tos" horiz-adv-x="674" 
d="M44 65l59 55c44 -39 112 -61 178 -61c114 0 223 74 248 190c-54 -28 -135 -58 -221 -58c-103 0 -232 48 -232 169c0 132 126 211 260 211c137 0 279 -89 279 -261c0 -186 -154 -327 -343 -327c-84 0 -166 29 -228 82zM329 261c77 0 156 28 206 50
c-5 118 -98 187 -205 184c-72 -3 -167 -40 -167 -128c0 -82 98 -106 166 -106z" />
    <glyph glyph-name="dollar.tos" horiz-adv-x="674" 
d="M614 468l-61 -51c-33 37 -82 60 -136 72l-33 -164c99 -18 216 -49 216 -162c0 -117 -109 -179 -253 -179c-11 0 -22 1 -33 1l-24 -121h-58l26 128c-94 18 -174 64 -236 136l61 49c48 -57 112 -97 189 -114l40 194c-103 22 -206 50 -206 153c0 110 105 161 223 161
c15 0 31 -1 47 -2l19 94h58l-21 -103c68 -15 132 -45 182 -92zM516 146c0 59 -62 85 -148 101l-39 -191c9 -1 18 -1 27 -1c75 0 160 19 160 91zM189 424c0 -54 60 -73 139 -89l33 163c-14 1 -28 2 -41 2c-57 0 -131 -12 -131 -76z" />
    <glyph glyph-name="cent.tos" horiz-adv-x="674" 
d="M415 531h60l-32 -98c59 -12 113 -38 155 -74l-60 -47c-31 24 -72 43 -117 53l-101 -309h19c73 0 134 25 170 49l46 -55c-23 -18 -102 -63 -215 -63c-14 0 -28 1 -42 2l-40 -125h-59l43 135c-111 26 -185 101 -185 204c0 125 128 240 299 240c10 0 20 -1 30 -1zM145 202
c0 -60 46 -114 119 -136l99 306h-8c-122 0 -210 -83 -210 -170z" />
    <glyph glyph-name="Euro.tos" horiz-adv-x="674" 
d="M647 446l-69 -43c-39 51 -106 91 -184 91c-73 0 -138 -51 -173 -122h259l-11 -55h-268c-5 -21 -8 -44 -8 -66v-8h262l-13 -55h-241c21 -74 77 -127 153 -127c72 0 139 32 188 73l46 -57c-61 -51 -145 -92 -241 -92c-119 0 -217 79 -240 203h-77l12 55h60v2
c0 24 3 48 8 72h-53l11 55h59c46 113 150 198 271 198c97 0 192 -44 249 -124z" />
    <glyph glyph-name="sterling.tos" horiz-adv-x="674" 
d="M62 266l13 62h120l14 78c21 114 136 165 223 165c66 0 145 -28 209 -71l-57 -59c-51 31 -118 54 -165 54c-51 0 -114 -27 -124 -89l-14 -78h245l-12 -62h-243l-15 -88c-10 -63 -35 -96 -99 -109h420l-13 -69h-556l14 69h36c74 0 97 25 112 109l15 88h-123z" />
    <glyph glyph-name="yen.tos" horiz-adv-x="674" 
d="M62 317l12 55h154l-95 183h102l111 -221l201 221h109l-173 -183h155l-12 -55h-195l-56 -60l-3 -14h240l-13 -55h-239l-41 -188h-86l40 188h-238l12 55h238l3 15l-31 59h-195z" />
    <glyph glyph-name="florin.tos" horiz-adv-x="674" 
d="M194 328h107l36 113c31 98 119 131 182 131c41 0 86 -13 102 -24l-35 -66c-12 10 -48 20 -74 20c-41 0 -82 -19 -94 -60l-37 -114h129l-14 -62h-135l-84 -266c-37 -118 -132 -160 -212 -160l6 62c46 7 104 24 127 98l84 266h-102z" />
    <glyph glyph-name="colonmonetary.tos" horiz-adv-x="674" 
d="M652 450l-64 -41c-20 22 -46 43 -75 58l-127 -409c61 9 118 37 163 70l42 -53c-58 -46 -138 -85 -228 -90l-37 -121h-50l37 122c-29 2 -57 8 -83 16l-42 -138h-50l48 158c-79 44 -131 124 -131 226c0 158 132 304 300 321l29 94h50l-29 -93c29 -1 57 -5 84 -13l33 106h52
l-38 -123c45 -21 85 -51 116 -90zM253 75c24 -11 52 -19 82 -20l133 432c-26 8 -53 13 -81 13h-3zM141 255c0 -61 26 -116 70 -153l121 391c-109 -26 -191 -127 -191 -238z" />
    <glyph glyph-name="franc.tos" horiz-adv-x="674" 
d="M23 120l11 54h96l79 381h466l-17 -77h-378l-28 -129h233l-16 -76h-232l-21 -99h167l-11 -54h-167l-25 -120h-86l25 120h-96z" />
    <glyph glyph-name="lira.tos" horiz-adv-x="674" 
d="M79 317l10 55h121l6 34c21 115 135 165 222 165c66 0 145 -28 208 -71l-56 -59c-51 31 -119 54 -165 54c-51 0 -113 -27 -124 -89l-6 -34h247l-11 -55h-246l-12 -74h243l-12 -55h-241l-1 -10c-11 -63 -35 -96 -99 -109h419l-13 -69h-555l14 69h35c74 0 97 24 113 109
l2 10h-127l12 55h124l13 74h-121z" />
    <glyph glyph-name="peso.tos" horiz-adv-x="674" 
d="M46 335l11 54h88l35 166h235c65 0 105 -16 137 -48s49 -71 50 -118h78l-11 -54h-74c-9 -35 -28 -69 -63 -103c-42 -40 -92 -65 -176 -65h-169l-36 -167h-86l69 335h-88zM472 283c15 14 27 32 34 52h-286l-18 -91h162c43 0 79 11 108 39zM250 478l-19 -89h283
c-2 22 -10 43 -29 63c-21 20 -46 26 -85 26h-150z" />
    <glyph glyph-name="Rupee.tos" horiz-adv-x="674" 
d="M47 335l12 54h416c-2 22 -11 43 -30 63c-20 19 -43 26 -85 26h-283l17 77h610l-12 -54h-192c7 -3 17 -8 25 -16c26 -27 36 -59 37 -96h107l-12 -54h-102c-9 -35 -28 -69 -63 -103c-42 -35 -92 -57 -176 -57l-146 5l266 -180h-142l-277 190l11 54h296c44 0 79 11 109 39
c15 14 27 32 34 52h-420z" />
    <glyph glyph-name="section.tos" horiz-adv-x="674" 
d="M535 70c-21 -16 -45 -26 -75 -36c4 -5 8 -13 11 -20c4 -8 7 -21 7 -33c0 -98 -97 -138 -194 -138c-80 0 -160 26 -220 74l49 55c45 -34 104 -59 172 -59c46 0 106 12 106 63c0 10 -3 15 -7 20c-19 24 -73 32 -122 43c-61 14 -156 40 -198 99c-16 22 -25 48 -25 77
c0 48 25 96 70 130c22 17 49 29 76 37c-5 5 -9 12 -12 19s-6 22 -6 35c0 96 103 137 197 137c77 0 157 -27 217 -75l-48 -54c-46 36 -110 60 -174 60c-43 0 -96 -11 -103 -56c-3 -13 -1 -21 5 -27c16 -22 62 -31 121 -44c60 -12 158 -40 200 -100c15 -21 23 -45 23 -75
c0 -52 -26 -101 -70 -132zM368 303c-42 9 -100 19 -141 41c-10 -3 -26 -8 -45 -23c-30 -22 -54 -53 -54 -95c0 -19 5 -35 14 -47c29 -39 87 -54 136 -66c49 -10 100 -19 139 -41c11 3 25 7 46 23c30 23 55 54 55 94c0 19 -6 35 -15 48c-25 36 -83 53 -135 66z" />
    <glyph glyph-name="numbersign.tos" horiz-adv-x="674" 
d="M491 603h65l-48 -179h161l-15 -61h-162l-51 -190h152l-15 -62h-154l-54 -205h-63l54 205h-135l-54 -205h-64l54 205h-158l15 62h160l51 190h-151l13 61h154l48 179h64l-48 -179h133zM294 363l-51 -190h134l50 190h-133z" />
    <glyph glyph-name="percent.tos" horiz-adv-x="674" 
d="M534 591l-314 -591h-68l314 591h68zM375 130c0 105 72 198 150 198c61 0 105 -66 105 -145c0 -106 -76 -196 -154 -196c-60 0 -101 62 -101 143zM441 135c0 -45 18 -83 47 -83c37 0 75 60 75 125c0 47 -21 85 -49 85c-37 0 -73 -59 -73 -127zM57 428c9 96 76 176 148 176
c62 0 105 -65 105 -145c0 -105 -75 -196 -152 -196c-67 0 -111 74 -101 165zM122 428c-5 -54 15 -99 48 -99c37 0 74 60 74 125c0 47 -21 84 -49 84c-34 0 -68 -50 -73 -110z" />
    <glyph glyph-name="zero.pl" horiz-adv-x="834" 
d="M72 281c0 192 183 349 385 349c180 0 320 -131 320 -297c0 -194 -186 -350 -389 -350c-179 0 -316 130 -316 298zM158 286c0 -125 102 -226 238 -226c154 0 293 120 293 267c0 125 -104 226 -241 226c-154 0 -290 -121 -290 -267z" />
    <glyph glyph-name="one.pl" horiz-adv-x="434" 
d="M73 461l-1 70l211 82h87l-129 -613h-87l114 535z" />
    <glyph glyph-name="one.pl.alt" horiz-adv-x="340" 
d="M60 0l129 613h86l-128 -613h-87z" />
    <glyph glyph-name="two.pl" horiz-adv-x="684" 
d="M179 487l-37 65c76 40 156 79 262 79c95 0 253 -40 253 -170c0 -156 -204 -184 -305 -201c-118 -18 -206 -56 -233 -161l-8 -29h451l-15 -70h-536l22 101c34 152 176 212 331 235c63 10 206 30 206 116c0 79 -107 101 -171 101c-87 0 -154 -30 -220 -66z" />
    <glyph glyph-name="three.pl" horiz-adv-x="776" 
d="M200 478l-41 58c78 48 187 94 295 94c94 0 245 -51 245 -167c0 -62 -50 -117 -113 -135c44 -14 107 -56 107 -140c0 -147 -167 -205 -314 -205c-140 0 -271 48 -363 161l64 55c73 -91 182 -139 308 -139c100 0 220 34 220 128c0 75 -87 102 -124 102h-127l15 69h122
c56 0 115 33 115 88c0 77 -96 106 -161 106c-89 0 -179 -34 -248 -75z" />
    <glyph glyph-name="four.pl" horiz-adv-x="793" 
d="M735 214l-15 -69h-125l-31 -145h-87l31 145h-496l14 62l587 406h81l-85 -399h126zM156 218l-1 -4h368l62 289h-11c-137 -93 -284 -193 -418 -285z" />
    <glyph glyph-name="five.pl" horiz-adv-x="747" 
d="M690 613l-17 -77h-425l-34 -162c53 22 105 37 174 37c116 0 287 -46 287 -193c0 -167 -160 -236 -310 -236c-148 0 -258 50 -347 146l63 54c69 -79 172 -124 289 -124c91 0 217 37 217 152c0 99 -133 128 -219 128c-77 0 -138 -21 -195 -44l-46 45l58 274h505z" />
    <glyph glyph-name="six.pl" horiz-adv-x="767" 
d="M726 525l-65 -54c-53 54 -130 82 -211 82c-139 0 -267 -86 -294 -218c61 30 157 66 260 66c122 0 274 -54 274 -189c0 -145 -147 -229 -296 -229c-160 0 -323 100 -323 291c0 202 172 356 387 356c101 0 196 -35 268 -105zM397 331c-95 0 -190 -34 -246 -59
c6 -136 119 -216 248 -212c90 2 204 46 204 145c0 96 -120 126 -206 126z" />
    <glyph glyph-name="seven.pl" horiz-adv-x="666" 
d="M93 536l17 77h575l-17 -77l-479 -536h-113l492 536h-475z" />
    <glyph glyph-name="eight.pl" horiz-adv-x="767" 
d="M45 185c0 107 111 163 218 170c-68 18 -113 56 -113 117c0 124 160 160 258 160c106 0 289 -45 289 -175c0 -89 -82 -127 -168 -131c79 -21 151 -73 151 -157c0 -140 -186 -189 -302 -189c-122 0 -333 58 -333 205zM142 198c-9 -101 153 -141 240 -141
c70 0 205 26 205 118c0 98 -159 133 -241 133c-65 0 -197 -21 -204 -110zM243 467c0 -84 146 -101 209 -101c55 0 149 13 149 87c0 79 -118 110 -191 110c-59 0 -167 -20 -167 -96z" />
    <glyph glyph-name="nine.pl" horiz-adv-x="767" 
d="M54 87l65 55c53 -54 130 -82 211 -82c138 0 267 86 294 218c-62 -31 -157 -66 -260 -66c-122 0 -274 54 -274 189c0 145 147 229 296 229c160 0 323 -100 323 -291c0 -202 -172 -356 -387 -356c-101 0 -196 35 -268 104zM383 282c94 0 189 34 246 59
c-6 135 -120 216 -248 212c-90 -2 -204 -46 -204 -146c0 -95 120 -125 206 -125z" />
    <glyph glyph-name="dollar.pl" horiz-adv-x="708" 
d="M662 516l-60 -51c-37 42 -92 68 -152 81l-40 -189c108 -21 234 -54 234 -176c0 -131 -121 -198 -277 -198c-12 0 -24 0 -36 1l-28 -134h-59l30 141c-104 19 -191 71 -257 150l61 50c52 -64 123 -110 211 -128l48 225c-114 24 -225 53 -225 164c0 122 115 178 244 178
c17 0 35 -1 52 -3l23 106h59l-25 -115c74 -16 144 -49 197 -102zM559 163c0 68 -71 96 -165 115l-47 -222c10 -1 20 -1 30 -1c86 0 182 24 182 108zM197 468c0 -62 66 -83 156 -101l40 189c-16 1 -32 2 -48 2c-65 0 -148 -16 -148 -90z" />
    <glyph glyph-name="cent.pl" horiz-adv-x="569" 
d="M381 582h58l-35 -109c53 -14 101 -41 137 -81l-63 -47c-25 26 -57 48 -96 59l-110 -348h15c64 0 118 29 155 55l41 -56c-21 -19 -96 -69 -198 -69c-12 0 -24 1 -35 2l-44 -138h-59l47 149c-96 28 -157 105 -157 213c0 142 126 272 286 272c9 0 18 -1 26 -1zM125 213
c0 -63 35 -118 92 -143l110 344h-8c-110 0 -194 -97 -194 -201z" />
    <glyph glyph-name="Euro.pl" horiz-adv-x="803" 
d="M781 493l-68 -43c-53 59 -140 102 -235 102c-98 0 -184 -60 -229 -144h333l-12 -54h-342c-7 -23 -10 -47 -10 -72v-16h334l-12 -55h-312c28 -88 107 -150 206 -150c88 0 170 34 231 80l46 -57c-72 -56 -172 -100 -283 -100c-143 0 -265 88 -294 227h-94l12 55h76v10
c0 26 3 52 9 78h-67l12 54h73c53 126 180 221 326 221c116 0 229 -49 300 -136z" />
    <glyph glyph-name="sterling.pl" horiz-adv-x="734" 
d="M71 297l13 63h137l17 89c24 126 150 181 246 181c72 0 159 -31 229 -77l-56 -60c-58 35 -133 60 -186 60c-60 0 -134 -31 -147 -104l-16 -89h276l-13 -63h-274l-18 -103c-14 -72 -40 -110 -109 -124h469l-15 -70h-616l15 70h40c85 0 111 27 128 124l19 103h-139z" />
    <glyph glyph-name="yen.pl" horiz-adv-x="794" 
d="M82 354l12 54h189l-118 205h103l142 -250l252 250h109l-208 -205h189l-11 -54h-232l-69 -68l-5 -20h287l-12 -55h-287l-46 -211h-87l46 211h-283l11 55h284l5 21l-39 67h-232z" />
    <glyph glyph-name="florin.pl" horiz-adv-x="412" 
d="M61 360h114l40 125c35 109 128 146 194 146c44 0 90 -15 107 -29l-37 -66c-11 12 -49 25 -78 25c-44 0 -89 -23 -106 -76l-40 -125h136l-14 -63h-142l-95 -297c-42 -130 -142 -176 -225 -176l7 63c50 7 111 28 138 113l95 297h-108z" />
    <glyph glyph-name="colonmonetary.pl" horiz-adv-x="734" 
d="M732 497l-64 -41c-26 28 -60 52 -99 70l-148 -469c74 8 143 39 196 79l44 -55c-69 -51 -161 -93 -264 -97l-42 -134h-52l42 135c-34 2 -68 9 -98 20l-49 -155h-52l55 175c-92 49 -154 137 -154 251c0 176 153 333 345 352l34 105h52l-33 -104c34 -1 68 -6 100 -15l38 119
h52l-43 -135c55 -22 103 -56 140 -101zM133 282c0 -73 35 -137 93 -179l142 449c-131 -27 -235 -140 -235 -270zM270 78c30 -13 62 -21 98 -23l155 489c-30 9 -62 14 -95 14h-6z" />
    <glyph glyph-name="franc.pl" horiz-adv-x="693" 
d="M17 139l11 55h104l90 419h500l-16 -77h-414l-33 -152h255l-17 -77h-254l-24 -113h180l-12 -55h-180l-30 -139h-86l29 139h-103z" />
    <glyph glyph-name="lira.pl" horiz-adv-x="741" 
d="M92 354l11 54h136l8 41c22 126 147 181 245 181c75 0 162 -32 229 -77l-56 -60c-58 35 -133 60 -186 60c-60 0 -134 -31 -147 -104l-8 -41h279l-11 -54h-277l-16 -88h274l-12 -55h-271l-3 -17c-13 -72 -40 -110 -109 -124h469l-15 -70h-616l15 70h40c84 0 111 27 129 124
l3 17h-142l12 55h140l16 88h-137z" />
    <glyph glyph-name="peso.pl" horiz-adv-x="836" 
d="M70 377l12 54h104l39 182h306c74 0 121 -21 156 -56c32 -33 51 -77 52 -126h94l-11 -54h-89c-11 -42 -34 -81 -70 -115c-43 -41 -95 -68 -185 -68h-256l-42 -194h-86l80 377h-104zM602 312c22 21 35 43 42 65h-383l-22 -105h248c58 0 89 15 115 40zM295 536l-22 -105h377
c-2 29 -15 52 -31 70c-23 23 -55 35 -104 35h-220z" />
    <glyph glyph-name="peseta.pl" horiz-adv-x="1578" 
d="M143 0h-86l134 613h330c71 0 120 -16 156 -54c25 -27 39 -59 43 -90h99l31 142h80l-30 -142h141l-13 -62h-141l-59 -280c-3 -10 -5 -22 -5 -30c0 -30 23 -44 58 -44c21 0 61 6 77 13l-3 -63c-22 -12 -71 -20 -104 -20c-54 0 -110 23 -110 98c0 12 2 26 5 40l60 286h-89
c-8 -36 -28 -68 -55 -94c-46 -44 -105 -67 -192 -67h-273zM1522 407l-44 -57c-45 40 -122 69 -184 69c-51 0 -105 -20 -105 -65c0 -47 55 -59 112 -69c89 -15 198 -35 198 -143c0 -103 -98 -157 -215 -157c-90 0 -183 33 -249 97l43 57c53 -52 133 -88 209 -88
c60 0 129 22 129 83c0 53 -55 65 -117 76c-93 16 -191 32 -191 134c0 91 82 142 188 142c81 0 166 -30 226 -79zM262 536l-48 -212h257c58 0 104 14 135 44c19 18 31 40 31 73c0 22 -7 44 -28 65c-20 21 -46 30 -96 30h-251z" />
    <glyph glyph-name="rupiah.pl" horiz-adv-x="1340" 
d="M143 0h-86l135 613h334c80 0 122 -20 156 -55c28 -30 45 -69 45 -110c0 -91 -77 -172 -184 -189l94 -259h-96l-86 255h-255zM262 536l-45 -204h286c72 0 138 45 138 109c0 23 -10 47 -27 64c-25 25 -55 31 -96 31h-256zM795 -210h-80l120 558c15 72 17 108 15 121h74
c2 -21 -1 -44 -5 -66c31 29 91 81 177 81c114 0 191 -95 191 -213c0 -139 -108 -284 -260 -285c-68 0 -126 26 -173 80zM913 334l-44 -205c32 -38 88 -73 151 -73c103 0 178 101 178 206c0 80 -45 152 -127 152c-54 0 -107 -29 -158 -80z" />
    <glyph glyph-name="Rupee.pl" horiz-adv-x="831" 
d="M138 377l12 54h460c-2 29 -15 52 -31 70c-24 23 -56 35 -104 35h-302l16 77h644l-12 -55h-195c7 -2 18 -7 29 -18c28 -29 42 -69 43 -109h96l-12 -54h-90c-11 -42 -34 -81 -69 -115c-43 -36 -96 -60 -186 -60l-169 6l292 -208h-143l-312 215l12 57h329c58 0 89 15 115 40
c23 21 36 43 43 65h-466z" />
    <glyph glyph-name="section.pl" horiz-adv-x="706" 
d="M575 76c-25 -18 -53 -30 -88 -40c5 -6 10 -14 14 -22c6 -10 8 -24 8 -38c0 -106 -107 -148 -212 -148c-87 0 -174 30 -239 83l49 55c50 -40 116 -67 192 -67c53 0 123 13 123 72c0 12 -3 19 -8 25c-22 27 -83 36 -139 49c-69 15 -170 45 -216 109c-17 22 -27 52 -27 84
c0 54 28 105 78 143c25 20 58 33 89 42c-8 7 -12 14 -16 22c-4 9 -6 24 -6 39c0 104 114 148 214 148c84 0 172 -30 237 -84l-49 -54c-50 41 -121 69 -194 69c-50 0 -112 -14 -120 -68c-2 -14 1 -22 7 -30c18 -25 69 -35 138 -50c68 -15 173 -45 218 -110
c16 -23 25 -50 25 -82c0 -57 -30 -111 -78 -147zM394 340c-44 10 -108 21 -152 45c-16 -3 -37 -11 -60 -29c-34 -25 -62 -62 -62 -106c0 -23 8 -41 19 -55c30 -44 94 -62 153 -76c53 -12 108 -20 153 -44c14 3 34 9 58 27c35 27 62 64 62 108c0 22 -6 40 -17 54
c-28 41 -92 62 -154 76z" />
    <glyph glyph-name="numbersign.pl" horiz-adv-x="880" 
d="M646 666h66l-56 -199h216l-13 -63h-221l-61 -216h207l-13 -63h-211l-64 -229h-65l64 229h-197l-64 -229h-65l64 229h-216l13 63h220l61 216h-206l13 63h210l56 199h65l-56 -199h197zM376 404l-61 -216h197l61 216h-197z" />
    <glyph glyph-name="percent.pl" horiz-adv-x="1079" 
d="M804 653l-439 -653h-69l440 653h68zM615 160c0 109 103 203 222 203c105 0 185 -79 185 -174c0 -110 -108 -203 -225 -203c-105 0 -182 77 -182 174zM690 164c0 -61 48 -112 114 -112c75 0 143 61 143 132c0 62 -52 112 -117 112c-75 0 -140 -60 -140 -132zM79 464
c0 109 103 203 222 203c105 0 185 -79 185 -174c0 -110 -108 -203 -225 -203c-105 0 -182 77 -182 174zM154 469c0 -61 48 -112 114 -112c75 0 143 61 143 132c0 62 -52 112 -117 112c-75 0 -140 -60 -140 -132z" />
    <glyph glyph-name="perthousand.pl" horiz-adv-x="1533" 
d="M804 653l-439 -653h-69l440 653h68zM615 160c0 109 103 203 222 203c105 0 185 -79 185 -174c0 -110 -108 -203 -225 -203c-105 0 -182 77 -182 174zM690 164c0 -61 48 -112 114 -112c75 0 143 61 143 132c0 62 -52 112 -117 112c-75 0 -140 -60 -140 -132zM1072 160
c0 109 103 203 222 203c105 0 185 -79 185 -174c0 -110 -107 -203 -225 -203c-105 0 -182 77 -182 174zM1147 164c0 -61 48 -112 114 -112c75 0 143 61 143 132c0 62 -51 112 -117 112c-75 0 -140 -60 -140 -132zM79 464c0 109 103 203 222 203c105 0 185 -79 185 -174
c0 -110 -108 -203 -225 -203c-105 0 -182 77 -182 174zM154 469c0 -61 48 -112 114 -112c75 0 143 61 143 132c0 62 -52 112 -117 112c-75 0 -140 -60 -140 -132z" />
    <glyph glyph-name="zero.tl" horiz-adv-x="767" 
d="M62 276c0 195 175 354 364 354c166 0 292 -129 292 -293c0 -196 -176 -354 -366 -354c-165 0 -290 128 -290 293zM149 283c0 -124 90 -223 212 -223c140 0 270 122 270 270c0 124 -92 223 -215 223c-141 0 -267 -123 -267 -270z" />
    <glyph glyph-name="one.tl" horiz-adv-x="767" 
d="M83 0l15 70h256l98 465l-267 -71l-5 70l289 79h87l-116 -543h212l-15 -70h-554z" />
    <glyph glyph-name="two.tl" horiz-adv-x="767" 
d="M195 487l-39 65c83 40 171 79 286 79c110 0 288 -41 288 -174c0 -152 -215 -180 -333 -197c-140 -18 -241 -56 -271 -161l-7 -29h514l-13 -70h-600l21 101c35 152 190 212 365 235c81 10 238 30 238 115c0 80 -127 102 -205 102c-97 0 -171 -30 -244 -66z" />
    <glyph glyph-name="three.tl" horiz-adv-x="767" 
d="M198 478l-42 58c77 48 186 94 294 94c92 0 243 -51 243 -166c0 -63 -50 -118 -112 -136c44 -14 106 -56 106 -141c0 -146 -167 -204 -312 -204c-140 0 -270 48 -362 161l64 55c72 -91 180 -139 306 -139c99 0 219 34 219 129c0 74 -87 101 -122 101h-127l15 69h120
c56 0 115 33 115 88c0 77 -94 106 -159 106c-89 0 -178 -34 -246 -75z" />
    <glyph glyph-name="four.tl" horiz-adv-x="767" 
d="M713 214l-16 -69h-122l-31 -145h-86l30 145h-482l14 62l573 406h81l-85 -399h124zM150 218l-1 -4h354l61 289h-11z" />
    <glyph glyph-name="five.tl" horiz-adv-x="767" 
d="M708 613l-16 -77h-442l-34 -162c54 22 108 37 179 37c122 0 299 -46 299 -195c0 -166 -164 -234 -317 -234c-152 0 -267 50 -360 146l64 54c71 -79 179 -124 299 -124c95 0 227 37 227 152c0 99 -139 128 -230 128c-80 0 -143 -21 -202 -44l-46 45l57 274h522z" />
    <glyph glyph-name="six.tl" horiz-adv-x="767" 
d="M728 525l-64 -54c-54 54 -132 82 -213 82c-140 0 -269 -86 -296 -219c62 31 158 67 262 67c123 0 276 -54 276 -189c0 -145 -148 -229 -298 -229c-161 0 -324 100 -324 291c0 202 172 356 387 356c102 0 197 -35 270 -105zM397 331c-95 0 -191 -35 -247 -60
c6 -136 120 -215 250 -211c91 2 205 46 205 146c0 95 -120 125 -208 125z" />
    <glyph glyph-name="seven.tl" horiz-adv-x="767" 
d="M102 536l14 77h659l-14 -77l-543 -536h-113l556 536h-559z" />
    <glyph glyph-name="eight.tl" horiz-adv-x="767" 
d="M43 185c0 107 112 163 220 170c-69 18 -114 56 -114 117c0 124 161 160 260 160c106 0 290 -45 290 -175c0 -89 -83 -127 -169 -131c80 -21 153 -73 153 -157c0 -140 -186 -189 -304 -189c-123 0 -336 58 -336 205zM140 198c-9 -101 155 -141 243 -141
c71 0 207 26 207 118c0 98 -161 133 -244 133c-65 0 -199 -21 -206 -110zM241 467c0 -84 148 -101 213 -101c55 0 150 13 150 87c0 79 -120 110 -193 110c-60 0 -170 -20 -170 -96z" />
    <glyph glyph-name="nine.tl" horiz-adv-x="767" 
d="M53 87l64 55c54 -54 132 -82 212 -82c141 0 269 86 296 218c-62 -30 -158 -66 -261 -66c-123 0 -276 54 -276 188c0 146 148 230 298 230c161 0 323 -100 323 -292c0 -201 -172 -355 -387 -355c-102 0 -197 35 -269 104zM384 282c94 0 189 34 246 59
c-7 136 -121 216 -249 212c-91 -2 -205 -46 -205 -146c0 -95 120 -125 208 -125z" />
    <glyph glyph-name="dollar.tl" horiz-adv-x="767" 
d="M712 516l-60 -51c-42 43 -105 69 -172 82l-40 -190c119 -21 258 -54 258 -179c0 -129 -129 -195 -296 -195c-14 0 -28 0 -41 1l-28 -134h-59l30 141c-115 18 -210 70 -282 150l60 50c58 -65 137 -111 237 -129l48 226c-128 24 -246 53 -246 167c0 120 122 175 258 175
c19 0 39 -1 59 -3l23 106h59l-25 -114c81 -16 158 -50 217 -103zM613 162c0 71 -83 98 -189 116l-47 -222c11 -1 22 -1 34 -1c97 0 202 24 202 107zM204 469c0 -63 76 -85 179 -102l40 188c-18 2 -36 3 -53 3c-74 0 -166 -16 -166 -89z" />
    <glyph glyph-name="cent.tl" horiz-adv-x="767" 
d="M690 392l-60 -47c-39 28 -90 51 -148 62l-121 -350c10 -1 20 -1 30 -1c91 0 163 29 203 55l46 -56c-27 -19 -117 -69 -248 -69c-19 0 -37 1 -54 3l-48 -139h-60l51 148c-128 29 -215 111 -215 224c0 138 149 262 344 262c12 0 25 -1 37 -2l35 100h61l-37 -107
c70 -14 133 -42 184 -83zM154 220c0 -70 60 -130 150 -154l120 348h-13c-148 0 -257 -93 -257 -194z" />
    <glyph glyph-name="Euro.tl" horiz-adv-x="767" 
d="M748 493l-69 -43c-50 59 -131 102 -222 102c-92 0 -173 -60 -216 -144h315l-12 -54h-323c-7 -24 -10 -49 -10 -75v-13h315l-12 -55h-294c24 -88 97 -150 191 -150c84 0 162 34 221 80l45 -57c-69 -56 -165 -100 -272 -100c-138 0 -253 88 -279 227h-90l12 55h72v7
c0 27 3 54 9 81h-63l12 54h69c52 127 174 221 314 221c111 0 220 -49 287 -136z" />
    <glyph glyph-name="sterling.tl" horiz-adv-x="767" 
d="M77 297l12 63h143l17 89c24 126 154 181 254 181c74 0 165 -31 238 -77l-56 -60c-61 35 -139 60 -194 60c-63 0 -142 -31 -156 -104l-16 -89h289l-13 -63h-287l-18 -103c-13 -72 -40 -110 -112 -124h488l-14 -70h-638l13 70h42c89 0 116 27 133 124l19 103h-144z" />
    <glyph glyph-name="yen.tl" horiz-adv-x="767" 
d="M81 354l12 54h181l-112 205h103l132 -250l241 250h109l-201 -205h181l-12 -54h-222l-66 -68l-5 -20h275l-13 -55h-274l-46 -211h-87l46 211h-272l12 55h272l5 21l-37 67h-222z" />
    <glyph glyph-name="florin.tl" horiz-adv-x="767" 
d="M239 360h113l40 125c35 109 128 146 195 146c43 0 89 -15 106 -29l-36 -66c-12 12 -50 25 -79 25c-44 0 -89 -23 -106 -76l-40 -125h137l-14 -63h-143l-95 -297c-42 -130 -142 -176 -224 -176l7 63c49 7 111 28 138 113l94 297h-107z" />
    <glyph glyph-name="colonmonetary.tl" horiz-adv-x="767" 
d="M759 497l-63 -41c-29 29 -66 54 -107 72l-151 -472c78 8 149 40 207 80l43 -55c-71 -51 -167 -93 -274 -97l-42 -134h-52l43 135c-37 3 -71 9 -104 20l-49 -155h-52l56 174c-98 49 -163 140 -163 255c0 174 158 331 356 349l34 105h52l-33 -103c36 -1 72 -7 106 -16
l38 119h51l-43 -134c57 -23 108 -57 147 -102zM137 284c0 -75 39 -141 102 -182l144 450c-137 -27 -246 -139 -246 -268zM283 78c31 -13 65 -21 103 -23l157 489c-31 9 -64 14 -98 14h-8z" />
    <glyph glyph-name="franc.tl" horiz-adv-x="767" 
d="M23 139l10 55h114l90 419h550l-15 -77h-463l-35 -152h286l-14 -77h-287l-24 -113h199l-11 -55h-200l-30 -139h-87l29 139h-112z" />
    <glyph glyph-name="lira.tl" horiz-adv-x="767" 
d="M95 354l11 54h142l8 41c23 126 153 181 253 181c74 0 163 -31 237 -77l-56 -60c-61 35 -139 60 -194 60c-62 0 -141 -31 -155 -104l-8 -41h290l-11 -54h-288l-16 -88h286l-12 -55h-283l-3 -17c-13 -72 -40 -110 -111 -124h486l-14 -70h-636l14 70h41c88 0 116 27 133 124
l3 17h-147l11 55h146l16 88h-143z" />
    <glyph glyph-name="peso.tl" horiz-adv-x="767" 
d="M61 377l12 54h98l39 182h270c75 0 121 -21 156 -56c32 -33 51 -77 52 -126h88l-12 -54h-82c-11 -42 -36 -81 -70 -115c-43 -41 -95 -68 -185 -68h-220l-42 -194h-86l80 377h-98zM224 272h212c58 0 89 15 115 40c22 21 36 43 43 65h-348zM279 536l-22 -105h342
c-2 28 -14 52 -30 70c-24 23 -56 35 -104 35h-186z" />
    <glyph glyph-name="Rupee.tl" horiz-adv-x="767" 
d="M89 377l12 54h460c-2 29 -14 52 -30 70c-24 23 -56 35 -104 35h-302l16 77h643l-11 -55h-195c7 -2 18 -8 30 -19c28 -29 41 -69 42 -108h96l-12 -54h-90c-11 -42 -34 -81 -69 -115c-43 -36 -96 -60 -186 -60l-169 6l292 -208h-143l-312 215l12 57h329c58 0 89 15 115 40
c22 21 35 43 42 65h-466z" />
    <glyph glyph-name="section.tl" horiz-adv-x="767" 
d="M627 76c-28 -18 -60 -30 -99 -40c6 -6 12 -14 17 -22c7 -11 11 -25 11 -40c0 -104 -116 -146 -224 -146c-95 0 -189 30 -261 83l49 55c55 -40 129 -67 212 -67c57 0 136 13 136 72c0 12 -4 19 -9 25c-25 27 -95 36 -155 49c-78 15 -186 45 -235 109c-19 23 -31 52 -31 86
c0 52 28 103 81 141c28 20 66 33 100 42c-8 7 -14 14 -19 22c-5 9 -8 25 -8 40c0 104 121 147 226 147c91 0 187 -30 257 -84l-47 -54c-56 41 -135 69 -214 69c-56 0 -128 -14 -134 -68c-2 -14 1 -22 8 -30c20 -25 77 -35 155 -50c76 -15 188 -45 237 -110
c19 -24 29 -51 29 -84c0 -57 -32 -110 -82 -145zM428 340c-47 10 -117 21 -165 45c-19 -3 -46 -11 -72 -29c-36 -25 -65 -61 -65 -105c0 -23 8 -42 21 -56c34 -44 105 -62 172 -76c57 -12 117 -20 165 -44c19 3 43 9 71 27c38 27 66 63 66 106c0 23 -8 42 -20 56
c-31 41 -102 62 -173 76z" />
    <glyph glyph-name="numbersign.tl" horiz-adv-x="767" 
d="M572 666h64l-54 -199h189l-15 -63h-191l-58 -216h179l-15 -63h-181l-62 -229h-65l62 229h-166l-62 -229h-64l62 229h-187l13 63h191l58 216h-178l14 63h181l54 199h65l-55 -199h166zM334 404l-58 -216h166l58 216h-166z" />
    <glyph glyph-name="percent.tl" horiz-adv-x="767" 
d="M609 653l-361 -653h-69l363 653h67zM434 149c0 114 84 214 176 214c75 0 129 -74 129 -164c0 -115 -88 -213 -179 -213c-74 0 -126 71 -126 163zM502 155c0 -56 28 -103 69 -103c51 0 101 65 101 140c0 58 -30 104 -72 104c-50 0 -98 -65 -98 -141zM50 454
c0 114 85 213 177 213c74 0 128 -73 128 -163c0 -115 -88 -214 -179 -214c-74 0 -126 72 -126 164zM118 460c0 -57 28 -103 69 -103c51 0 101 65 101 140c0 58 -30 104 -72 104c-50 0 -98 -65 -98 -141z" />
    <glyph glyph-name="zero.superior" unicode="&#x2070;" horiz-adv-x="581" 
d="M75 418c0 137 130 249 273 249c129 0 227 -94 227 -212c0 -138 -131 -249 -275 -249c-128 0 -225 93 -225 212zM150 423c0 -83 67 -149 157 -149c101 0 192 80 192 176c0 82 -68 149 -158 149c-101 0 -191 -80 -191 -176z" />
    <glyph glyph-name="one.superior" unicode="&#xb9;" horiz-adv-x="305" 
d="M76 535v62l143 56h76l-90 -433h-76l77 365z" />
    <glyph glyph-name="two.superior" unicode="&#xb2;" horiz-adv-x="475" 
d="M153 552l-32 57c56 29 115 58 192 58c65 0 178 -27 178 -120c0 -118 -157 -140 -218 -149c-73 -12 -129 -32 -147 -99l-5 -18h304l-13 -61h-378l17 81c24 107 128 149 233 164c28 4 130 18 130 74c0 48 -68 60 -105 60c-61 0 -109 -21 -156 -47z" />
    <glyph glyph-name="three.superior" unicode="&#xb3;" horiz-adv-x="539" 
d="M171 547l-36 51c55 34 133 69 211 69c66 0 175 -36 175 -120c0 -42 -31 -82 -73 -96c29 -10 68 -38 68 -97c0 -103 -114 -148 -225 -148c-98 0 -191 34 -255 117l55 48c49 -63 122 -97 208 -97c70 0 142 23 142 81c0 48 -54 63 -79 63h-88l14 61h85c36 0 69 20 69 54
c0 48 -60 66 -102 66c-60 0 -122 -24 -169 -52z" />
    <glyph glyph-name="four.superior" unicode="&#x2074;" horiz-adv-x="563" 
d="M554 379l-14 -61h-87l-21 -98h-75l20 98h-341l11 53l410 282h67l-58 -274h88zM162 381l-1 -2h229l38 177h-8c-84 -57 -175 -118 -258 -175z" />
    <glyph glyph-name="five.superior" unicode="&#x2075;" horiz-adv-x="516" 
d="M508 653l-15 -67h-289l-21 -102c38 16 73 27 121 27c79 0 197 -33 197 -136c0 -119 -111 -169 -221 -169c-105 0 -180 26 -244 76l48 56c47 -43 119 -66 200 -66c58 0 141 23 141 96c0 62 -86 79 -139 79c-55 0 -99 -16 -139 -33l-40 39l43 200h358z" />
    <glyph glyph-name="six.superior" unicode="&#x2076;" horiz-adv-x="537" 
d="M548 594l-57 -48c-38 34 -93 53 -147 53c-89 0 -177 -53 -196 -140c44 22 108 45 178 45c85 0 192 -37 192 -132c0 -104 -101 -166 -210 -166c-113 0 -233 71 -233 208c0 145 123 253 276 253c72 0 142 -25 197 -73zM309 444c-61 0 -123 -21 -164 -39
c9 -84 84 -135 168 -131c57 2 128 29 128 92c0 61 -78 78 -132 78z" />
    <glyph glyph-name="seven.superior" unicode="&#x2077;" horiz-adv-x="471" 
d="M93 586l15 67h411l-15 -67l-330 -366h-99l342 366h-324z" />
    <glyph glyph-name="eight.superior" unicode="&#x2078;" horiz-adv-x="537" 
d="M57 351c0 71 66 113 143 120c-46 13 -72 40 -72 81c0 89 116 116 187 116c77 0 210 -31 210 -128c0 -58 -48 -89 -110 -93c51 -14 96 -50 96 -108c0 -99 -130 -134 -215 -134c-88 0 -239 39 -239 146zM141 362c-8 -65 102 -90 159 -90c43 0 130 15 130 72
c0 64 -105 86 -158 86c-40 0 -125 -12 -131 -68zM208 548c0 -56 97 -66 137 -66c35 0 97 8 97 55c0 51 -77 70 -125 70c-38 0 -109 -12 -109 -59z" />
    <glyph glyph-name="nine.superior" unicode="&#x2079;" horiz-adv-x="538" 
d="M58 280l57 48c38 -36 93 -54 147 -54c90 0 176 52 195 139c-44 -22 -108 -44 -177 -44c-86 0 -191 37 -191 132c0 104 100 166 209 166c113 0 234 -71 234 -208c0 -145 -124 -253 -277 -253c-72 0 -142 25 -197 74zM297 429c60 0 122 20 163 38c-9 85 -84 136 -166 132
c-57 -2 -129 -28 -129 -92c0 -61 78 -78 132 -78z" />
    <glyph glyph-name="zero.inferior" unicode="&#x2080;" horiz-adv-x="580" 
d="M-8 30c0 137 131 249 274 249c128 0 227 -94 227 -212c0 -138 -132 -249 -276 -249c-128 0 -225 93 -225 212zM67 35c0 -83 67 -149 157 -149c101 0 193 80 193 176c0 82 -69 149 -159 149c-101 0 -191 -80 -191 -176z" />
    <glyph glyph-name="one.inferior" unicode="&#x2081;" horiz-adv-x="303" 
d="M-8 147v62l144 56h76l-91 -433h-76l77 365z" />
    <glyph glyph-name="two.inferior" unicode="&#x2082;" horiz-adv-x="475" 
d="M71 164l-32 57c56 29 115 58 191 58c66 0 178 -27 178 -120c0 -118 -157 -140 -218 -149c-73 -12 -128 -32 -147 -99l-4 -18h304l-13 -61h-379l18 81c23 107 127 149 232 164c28 4 130 18 130 74c0 48 -68 60 -104 60c-61 0 -110 -21 -156 -47z" />
    <glyph glyph-name="three.inferior" unicode="&#x2083;" horiz-adv-x="539" 
d="M88 159l-36 51c54 34 133 69 210 69c67 0 175 -36 175 -120c0 -42 -30 -82 -72 -96c28 -10 67 -38 67 -97c0 -103 -114 -148 -225 -148c-97 0 -190 34 -255 117l56 48c48 -63 122 -97 207 -97c70 0 143 23 143 81c0 48 -54 63 -80 63h-87l13 61h85c36 0 70 20 70 54
c0 48 -61 66 -102 66c-61 0 -123 -24 -169 -52z" />
    <glyph glyph-name="four.inferior" unicode="&#x2084;" horiz-adv-x="560" 
d="M472 -9l-14 -61h-87l-21 -98h-75l20 98h-341l11 53l410 282h67l-58 -274h88zM80 -7l-1 -2h229l38 177h-8c-84 -57 -175 -118 -258 -175z" />
    <glyph glyph-name="five.inferior" unicode="&#x2085;" horiz-adv-x="516" 
d="M425 265l-15 -67h-288l-22 -102c39 16 74 27 121 27c80 0 197 -33 197 -136c0 -119 -111 -169 -221 -169c-105 0 -180 26 -244 76l49 56c47 -43 118 -66 200 -66c57 0 140 23 140 96c0 62 -85 79 -139 79c-55 0 -99 -16 -139 -33l-40 39l43 200h358z" />
    <glyph glyph-name="six.inferior" unicode="&#x2086;" horiz-adv-x="537" 
d="M466 206l-57 -48c-38 34 -93 53 -147 53c-89 0 -177 -53 -196 -140c44 22 108 45 178 45c85 0 192 -37 192 -132c0 -104 -101 -166 -210 -166c-113 0 -233 71 -233 208c0 145 123 253 276 253c72 0 142 -25 197 -73zM227 56c-61 0 -123 -21 -164 -39
c9 -84 84 -134 168 -131c57 2 128 29 128 92c0 61 -78 78 -132 78z" />
    <glyph glyph-name="seven.inferior" unicode="&#x2087;" horiz-adv-x="468" 
d="M11 198l15 67h412l-15 -67l-330 -366h-100l342 366h-324z" />
    <glyph glyph-name="eight.inferior" unicode="&#x2088;" horiz-adv-x="538" 
d="M-25 -37c0 71 66 113 143 120c-46 13 -72 40 -72 81c0 89 116 116 187 116c77 0 210 -31 210 -128c0 -58 -48 -89 -110 -93c51 -14 96 -50 96 -108c0 -99 -130 -134 -215 -134c-88 0 -239 39 -239 146zM59 -26c-8 -65 102 -90 159 -90c43 0 130 15 130 72
c0 64 -105 86 -158 86c-40 0 -125 -12 -131 -68zM126 160c0 -56 97 -66 137 -66c35 0 97 8 97 55c0 51 -77 70 -125 70c-38 0 -109 -12 -109 -59z" />
    <glyph glyph-name="nine.inferior" unicode="&#x2089;" horiz-adv-x="536" 
d="M-25 -108l57 48c37 -36 93 -54 146 -54c90 0 177 52 196 139c-44 -21 -108 -44 -177 -44c-86 0 -192 37 -192 132c0 104 101 166 210 166c113 0 233 -71 233 -208c0 -145 -123 -253 -277 -253c-72 0 -142 25 -196 74zM214 41c60 0 122 20 163 38c-9 85 -85 136 -167 132
c-57 -2 -129 -28 -129 -92c0 -61 78 -78 133 -78z" />
    <glyph glyph-name="zero.numerator" horiz-adv-x="579" 
d="M73 418c0 137 131 249 274 249c128 0 227 -94 227 -212c0 -138 -132 -249 -276 -249c-127 0 -225 93 -225 212zM149 423c0 -83 67 -149 156 -149c101 0 193 80 193 176c0 82 -69 149 -159 149c-101 0 -190 -80 -190 -176z" />
    <glyph glyph-name="one.numerator" horiz-adv-x="303" 
d="M75 535v62l144 56h76l-91 -433h-76l77 365z" />
    <glyph glyph-name="two.numerator" horiz-adv-x="475" 
d="M154 552l-32 57c56 29 114 58 191 58c66 0 178 -27 178 -120c0 -118 -157 -140 -218 -149c-73 -12 -129 -32 -147 -99l-5 -18h304l-12 -61h-379l17 81c24 107 128 149 233 164c28 4 130 18 130 74c0 48 -68 60 -105 60c-60 0 -109 -21 -155 -47z" />
    <glyph glyph-name="three.numerator" horiz-adv-x="539" 
d="M171 547l-36 51c54 34 133 69 210 69c67 0 175 -36 175 -120c0 -42 -30 -82 -72 -96c28 -10 67 -38 67 -97c0 -103 -114 -148 -225 -148c-97 0 -190 34 -255 117l56 48c48 -63 122 -97 207 -97c70 0 143 23 143 81c0 48 -54 63 -80 63h-87l13 61h85c36 0 70 20 70 54
c0 48 -61 66 -102 66c-61 0 -123 -24 -169 -52z" />
    <glyph glyph-name="four.numerator" horiz-adv-x="560" 
d="M554 379l-13 -61h-87l-21 -98h-76l20 98h-341l11 53l410 282h68l-58 -274h87zM162 381v-2h228l38 177h-7c-85 -57 -176 -118 -259 -175z" />
    <glyph glyph-name="five.numerator" horiz-adv-x="517" 
d="M509 653l-15 -67h-289l-21 -102c38 16 73 27 121 27c79 0 197 -33 197 -136c0 -119 -111 -169 -222 -169c-104 0 -179 26 -243 76l48 56c47 -43 119 -66 200 -66c58 0 141 23 141 96c0 62 -86 79 -139 79c-56 0 -99 -16 -140 -33l-39 39l42 200h359z" />
    <glyph glyph-name="six.numerator" horiz-adv-x="536" 
d="M547 594l-57 -48c-38 34 -93 53 -147 53c-89 0 -177 -53 -196 -140c44 22 109 45 179 45c85 0 191 -37 191 -132c0 -104 -101 -166 -210 -166c-113 0 -233 71 -233 208c0 145 123 253 276 253c72 0 142 -25 197 -73zM308 444c-61 0 -123 -21 -164 -39
c9 -84 85 -135 168 -131c57 2 128 29 128 92c0 61 -78 78 -132 78z" />
    <glyph glyph-name="seven.numerator" horiz-adv-x="468" 
d="M94 586l14 67h412l-15 -67l-330 -366h-100l343 366h-324z" />
    <glyph glyph-name="eight.numerator" horiz-adv-x="538" 
d="M57 351c0 71 66 113 143 120c-46 13 -72 40 -72 81c0 89 116 116 187 116c77 0 211 -31 211 -128c0 -58 -49 -89 -111 -93c51 -14 96 -50 96 -108c0 -99 -130 -134 -215 -134c-88 0 -239 39 -239 146zM141 362c-8 -65 103 -90 159 -90c43 0 130 15 130 72
c0 64 -105 86 -158 86c-39 0 -125 -12 -131 -68zM208 548c0 -56 97 -66 137 -66c35 0 97 8 97 55c0 51 -77 70 -125 70c-38 0 -109 -12 -109 -59z" />
    <glyph glyph-name="nine.numerator" horiz-adv-x="536" 
d="M58 280l57 48c37 -36 92 -54 146 -54c90 0 177 52 196 139c-44 -21 -109 -44 -178 -44c-85 0 -191 37 -191 132c0 104 100 166 210 166c112 0 233 -71 233 -208c0 -145 -123 -253 -277 -253c-72 0 -142 25 -196 74zM297 429c60 0 122 20 163 38c-9 85 -85 136 -167 132
c-57 -2 -129 -28 -129 -92c0 -61 78 -78 133 -78z" />
    <glyph glyph-name="zero.denominator" horiz-adv-x="581" 
d="M28 198c0 137 131 249 274 249c128 0 227 -94 227 -212c0 -138 -132 -249 -276 -249c-128 0 -225 93 -225 212zM103 203c0 -83 67 -149 157 -149c101 0 193 80 193 176c0 82 -69 149 -159 149c-101 0 -191 -80 -191 -176z" />
    <glyph glyph-name="one.denominator" horiz-adv-x="302" 
d="M28 315l-1 62l144 56h76l-91 -433h-76l78 365z" />
    <glyph glyph-name="two.denominator" horiz-adv-x="475" 
d="M107 332l-32 57c56 29 114 58 191 58c66 0 178 -27 178 -120c0 -118 -157 -140 -218 -149c-73 -12 -129 -32 -147 -99l-5 -18h304l-12 -61h-379l17 81c24 107 128 149 233 164c28 4 130 18 130 74c0 48 -68 60 -105 60c-60 0 -109 -21 -155 -47z" />
    <glyph glyph-name="three.denominator" horiz-adv-x="538" 
d="M123 327l-36 51c54 34 133 69 210 69c67 0 175 -36 175 -120c0 -42 -30 -82 -72 -96c28 -10 68 -38 68 -97c0 -103 -114 -148 -226 -148c-97 0 -190 34 -255 117l56 48c49 -63 122 -97 208 -97c69 0 142 23 142 81c0 48 -54 63 -79 63h-88l13 61h86c35 0 69 20 69 54
c0 48 -61 66 -102 66c-60 0 -122 -24 -169 -52z" />
    <glyph glyph-name="four.denominator" horiz-adv-x="560" 
d="M508 159l-14 -61h-87l-21 -98h-75l20 98h-341l11 53l410 282h67l-58 -274h88zM116 161l-1 -2h229l38 177h-8c-84 -57 -175 -118 -258 -175z" />
    <glyph glyph-name="five.denominator" horiz-adv-x="515" 
d="M460 433l-15 -67h-288l-21 -102c38 16 73 27 121 27c79 0 196 -33 196 -136c0 -119 -111 -169 -221 -169c-105 0 -179 26 -243 76l48 56c47 -43 119 -66 200 -66c58 0 140 23 140 96c0 62 -85 79 -139 79c-55 0 -99 -16 -139 -33l-40 39l43 200h358z" />
    <glyph glyph-name="six.denominator" horiz-adv-x="536" 
d="M502 374l-57 -48c-38 34 -94 53 -147 53c-90 0 -177 -53 -196 -140c44 22 108 45 178 45c85 0 192 -37 192 -132c0 -104 -102 -166 -210 -166c-114 0 -233 71 -233 208c0 145 123 253 275 253c72 0 143 -25 198 -73zM263 224c-62 0 -123 -21 -164 -39
c9 -84 84 -135 168 -131c56 2 128 29 128 92c0 61 -78 78 -132 78z" />
    <glyph glyph-name="seven.denominator" horiz-adv-x="468" 
d="M47 366l14 67h412l-15 -67l-330 -366h-100l343 366h-324z" />
    <glyph glyph-name="eight.denominator" horiz-adv-x="538" 
d="M10 131c0 71 66 113 143 120c-46 13 -72 40 -72 81c0 89 116 116 187 116c77 0 211 -31 211 -128c0 -58 -49 -89 -111 -93c51 -14 96 -50 96 -108c0 -99 -130 -134 -215 -134c-88 0 -239 39 -239 146zM94 142c-8 -65 103 -90 159 -90c43 0 130 15 130 72
c0 64 -105 86 -158 86c-39 0 -125 -12 -131 -68zM161 328c0 -56 97 -66 137 -66c35 0 97 8 97 55c0 51 -77 70 -125 70c-38 0 -109 -12 -109 -59z" />
    <glyph glyph-name="nine.denominator" horiz-adv-x="536" 
d="M11 60l57 48c37 -36 93 -54 146 -54c90 0 177 52 196 139c-44 -21 -108 -44 -177 -44c-86 0 -192 37 -192 132c0 104 101 166 210 166c113 0 233 -71 233 -208c0 -145 -123 -253 -277 -253c-72 0 -142 25 -196 74zM250 209c60 0 122 20 163 38c-9 85 -85 136 -167 132
c-57 -2 -129 -28 -129 -92c0 -61 78 -78 133 -78z" />
    <glyph glyph-name="onehalf" unicode="&#xbd;" horiz-adv-x="998" 
d="M75 535v62l144 56h76l-91 -433h-76l77 365zM679 653l-439 -653h-69l439 653h69zM630 332l-32 57c56 29 114 58 191 58c66 0 178 -27 178 -120c0 -118 -157 -140 -218 -149c-73 -12 -129 -32 -147 -99l-5 -18h304l-12 -61h-379l17 81c24 107 128 149 233 164
c28 4 130 18 130 74c0 48 -68 60 -105 60c-60 0 -109 -21 -155 -47z" />
    <glyph glyph-name="onequarter" unicode="&#xbc;" horiz-adv-x="1050" 
d="M75 535v62l144 56h76l-91 -433h-76l77 365zM679 653l-439 -653h-69l439 653h69zM998 159l-14 -61h-87l-21 -98h-75l20 98h-341l11 53l410 282h67l-58 -274h88zM606 161l-1 -2h229l38 177h-8c-84 -57 -175 -118 -258 -175z" />
    <glyph glyph-name="threequarters" unicode="&#xbe;" horiz-adv-x="1286" 
d="M171 547l-36 51c54 34 133 69 210 69c67 0 175 -36 175 -120c0 -42 -30 -82 -72 -96c28 -10 67 -38 67 -97c0 -103 -114 -148 -225 -148c-97 0 -190 34 -255 117l56 48c48 -63 122 -97 207 -97c70 0 143 23 143 81c0 48 -54 63 -80 63h-87l13 61h85c36 0 70 20 70 54
c0 48 -61 66 -102 66c-61 0 -123 -24 -169 -52zM915 653l-439 -653h-69l439 653h69zM1234 159l-14 -61h-87l-21 -98h-75l20 98h-341l11 53l410 282h67l-58 -274h88zM842 161l-1 -2h229l38 177h-8c-84 -57 -175 -118 -258 -175z" />
    <glyph glyph-name="onethird" unicode="&#x2153;" horiz-adv-x="1061" 
d="M75 535v62l144 56h76l-91 -433h-76l77 365zM679 653l-439 -653h-69l439 653h69zM646 327l-36 51c54 34 133 69 210 69c67 0 175 -36 175 -120c0 -42 -30 -82 -72 -96c28 -10 68 -38 68 -97c0 -103 -114 -148 -226 -148c-97 0 -190 34 -255 117l56 48
c49 -63 122 -97 208 -97c69 0 142 23 142 81c0 48 -54 63 -79 63h-88l13 61h86c35 0 69 20 69 54c0 48 -61 66 -102 66c-60 0 -122 -24 -169 -52z" />
    <glyph glyph-name="twothirds" unicode="&#x2154;" horiz-adv-x="1233" 
d="M154 552l-32 57c56 29 114 58 191 58c66 0 178 -27 178 -120c0 -118 -157 -140 -218 -149c-73 -12 -129 -32 -147 -99l-5 -18h304l-12 -61h-379l17 81c24 107 128 149 233 164c28 4 130 18 130 74c0 48 -68 60 -105 60c-60 0 -109 -21 -155 -47zM851 653l-439 -653h-69
l439 653h69zM818 327l-36 51c54 34 133 69 210 69c67 0 175 -36 175 -120c0 -42 -30 -82 -72 -96c28 -10 68 -38 68 -97c0 -103 -114 -148 -226 -148c-97 0 -190 34 -255 117l56 48c49 -63 122 -97 208 -97c69 0 142 23 142 81c0 48 -54 63 -79 63h-88l13 61h86
c35 0 69 20 69 54c0 48 -61 66 -102 66c-60 0 -122 -24 -169 -52z" />
    <glyph glyph-name="oneeighth" unicode="&#x215b;" horiz-adv-x="1061" 
d="M75 535v62l144 56h76l-91 -433h-76l77 365zM679 653l-439 -653h-69l439 653h69zM533 131c0 71 66 113 143 120c-46 13 -72 40 -72 81c0 89 116 116 187 116c77 0 211 -31 211 -128c0 -58 -49 -89 -111 -93c51 -14 96 -50 96 -108c0 -99 -130 -134 -215 -134
c-88 0 -239 39 -239 146zM617 142c-8 -65 103 -90 159 -90c43 0 130 15 130 72c0 64 -105 86 -158 86c-39 0 -125 -12 -131 -68zM684 328c0 -56 97 -66 137 -66c35 0 97 8 97 55c0 51 -77 70 -125 70c-38 0 -109 -12 -109 -59z" />
    <glyph glyph-name="threeeighths" unicode="&#x215c;" horiz-adv-x="1297" 
d="M171 547l-36 51c54 34 133 69 210 69c67 0 175 -36 175 -120c0 -42 -30 -82 -72 -96c28 -10 67 -38 67 -97c0 -103 -114 -148 -225 -148c-97 0 -190 34 -255 117l56 48c48 -63 122 -97 207 -97c70 0 143 23 143 81c0 48 -54 63 -80 63h-87l13 61h85c36 0 70 20 70 54
c0 48 -61 66 -102 66c-61 0 -123 -24 -169 -52zM915 653l-439 -653h-69l439 653h69zM769 131c0 71 66 113 143 120c-46 13 -72 40 -72 81c0 89 116 116 187 116c77 0 211 -31 211 -128c0 -58 -49 -89 -111 -93c51 -14 96 -50 96 -108c0 -99 -130 -134 -215 -134
c-88 0 -239 39 -239 146zM853 142c-8 -65 103 -90 159 -90c43 0 130 15 130 72c0 64 -105 86 -158 86c-39 0 -125 -12 -131 -68zM920 328c0 -56 97 -66 137 -66c35 0 97 8 97 55c0 51 -77 70 -125 70c-38 0 -109 -12 -109 -59z" />
    <glyph glyph-name="fiveeighths" unicode="&#x215d;" horiz-adv-x="1275" 
d="M509 653l-15 -67h-289l-21 -102c38 16 73 27 121 27c79 0 197 -33 197 -136c0 -119 -111 -169 -222 -169c-104 0 -179 26 -243 76l48 56c47 -43 119 -66 200 -66c58 0 141 23 141 96c0 62 -86 79 -139 79c-56 0 -99 -16 -140 -33l-39 39l42 200h359zM893 653l-439 -653
h-69l439 653h69zM747 131c0 71 66 113 143 120c-46 13 -72 40 -72 81c0 89 116 116 187 116c77 0 211 -31 211 -128c0 -58 -49 -89 -111 -93c51 -14 96 -50 96 -108c0 -99 -130 -134 -215 -134c-88 0 -239 39 -239 146zM831 142c-8 -65 103 -90 159 -90c43 0 130 15 130 72
c0 64 -105 86 -158 86c-39 0 -125 -12 -131 -68zM898 328c0 -56 97 -66 137 -66c35 0 97 8 97 55c0 51 -77 70 -125 70c-38 0 -109 -12 -109 -59z" />
    <glyph glyph-name="seveneighths" unicode="&#x215e;" horiz-adv-x="1178" 
d="M94 586l14 67h412l-15 -67l-330 -366h-100l343 366h-324zM796 653l-439 -653h-69l439 653h69zM650 131c0 71 66 113 143 120c-46 13 -72 40 -72 81c0 89 116 116 187 116c77 0 211 -31 211 -128c0 -58 -49 -89 -111 -93c51 -14 96 -50 96 -108c0 -99 -130 -134 -215 -134
c-88 0 -239 39 -239 146zM734 142c-8 -65 103 -90 159 -90c43 0 130 15 130 72c0 64 -105 86 -158 86c-39 0 -125 -12 -131 -68zM801 328c0 -56 97 -66 137 -66c35 0 97 8 97 55c0 51 -77 70 -125 70c-38 0 -109 -12 -109 -59z" />
    <glyph glyph-name="fraction" unicode="&#x2044;" horiz-adv-x="220" 
d="M376 653l-439 -653h-69l439 653h69z" />
    <glyph glyph-name="Aacute" unicode="&#xc1;" horiz-adv-x="747" 
d="M67 0h-96l442 653h82l164 -653h-90l-47 196h-325zM432 551l-189 -285h262l-68 285h-5zM476 734l-75 2l120 123l103 -2z" />
    <glyph glyph-name="Agrave" unicode="&#xc0;" horiz-adv-x="747" 
d="M67 0h-96l442 653h82l164 -653h-90l-47 196h-325zM432 551l-189 -285h262l-68 285h-5zM546 736l-76 -2l-148 123l103 2z" />
    <glyph glyph-name="Acircumflex" unicode="&#xc2;" horiz-adv-x="747" 
d="M67 0h-96l442 653h82l164 -653h-90l-47 196h-325zM432 551l-189 -285h262l-68 285h-5zM390 733l-68 2l134 126h88l80 -126l-60 -1l-69 80z" />
    <glyph glyph-name="Adieresis" unicode="&#xc4;" horiz-adv-x="747" 
d="M67 0h-96l442 653h82l164 -653h-90l-47 196h-325zM432 551l-189 -285h262l-68 285h-5zM335 788c0 27 24 50 55 50c26 0 45 -20 45 -43c0 -27 -25 -49 -55 -49c-27 0 -45 18 -45 42zM536 788c0 27 24 50 55 50c26 0 45 -20 45 -43c0 -27 -24 -49 -55 -49
c-26 0 -45 18 -45 42z" />
    <glyph glyph-name="Atilde" unicode="&#xc3;" horiz-adv-x="747" 
d="M67 0h-96l442 653h82l164 -653h-90l-47 196h-325zM432 551l-189 -285h262l-68 285h-5zM610 834l43 -27c-39 -51 -78 -80 -119 -80c-27 0 -48 12 -64 26c-19 16 -31 29 -49 29c-23 0 -44 -25 -64 -46l-46 28c44 55 80 79 119 79c26 0 43 -11 63 -28c16 -14 31 -27 51 -27
c24 0 46 23 66 46z" />
    <glyph glyph-name="Aring" unicode="&#xc5;" horiz-adv-x="747" 
d="M67 0h-96l442 653h82l164 -653h-90l-47 196h-325zM432 551l-189 -285h262l-68 285h-5zM477 733c44 0 78 27 78 64c0 32 -26 57 -65 57c-44 0 -76 -30 -76 -68c0 -31 25 -53 63 -53zM473 695c-71 0 -108 40 -108 88c0 58 48 108 129 108c72 0 111 -41 111 -91
c0 -57 -51 -105 -132 -105z" />
    <glyph glyph-name="Abreve" unicode="&#x102;" horiz-adv-x="747" 
d="M67 0h-96l442 653h82l164 -653h-90l-47 196h-325zM432 551l-189 -285h262l-68 285h-5zM360 858h57c-8 -36 -3 -78 64 -78c68 0 91 42 98 78h61c-12 -58 -54 -133 -168 -133c-115 0 -124 75 -112 133z" />
    <glyph glyph-name="Amacron" unicode="&#x100;" horiz-adv-x="747" 
d="M67 0h-96l442 653h82l164 -653h-90l-47 196h-325zM432 551l-189 -285h262l-68 285h-5zM365 825h254l-13 -62h-255z" />
    <glyph glyph-name="Aogonek" unicode="&#x104;" horiz-adv-x="747" 
d="M67 0h-96l442 653h82l164 -653h-27c-40 -16 -146 -60 -146 -124c0 -30 27 -49 71 -49c20 0 43 4 67 8l-4 -50c-29 -7 -60 -11 -87 -11c-76 0 -121 32 -121 81c0 75 92 128 154 154l-44 187h-325zM432 551l-189 -285h262l-68 285h-5z" />
    <glyph glyph-name="Aringacute" unicode="&#x1fa;" horiz-adv-x="747" 
d="M67 0h-96l442 653h82l164 -653h-90l-47 196h-325zM432 551l-189 -285h262l-68 285h-5zM477 733c44 0 78 27 78 64c0 32 -26 57 -65 57c-44 0 -76 -30 -76 -68c0 -31 25 -53 63 -53zM473 695c-71 0 -108 40 -108 88c0 58 48 108 129 108c72 0 111 -41 111 -91
c0 -57 -51 -105 -132 -105zM517 927l-75 2l120 123l103 -2z" />
    <glyph glyph-name="Ccedilla" unicode="&#xc7;" horiz-adv-x="776" 
d="M136 -186l22 43c47 -16 96 -34 146 -34c46 0 80 14 80 42c0 25 -26 36 -61 36c-13 0 -27 -2 -38 -2l-17 27l46 69c-141 34 -245 145 -245 300c0 199 180 375 395 375c121 0 237 -52 310 -145l-68 -43c-56 65 -145 111 -245 111c-161 0 -301 -135 -301 -292
c0 -136 109 -241 257 -241c89 0 175 36 239 86l46 -57c-76 -60 -178 -106 -291 -106c-16 0 -31 1 -46 3l-34 -51c9 1 21 2 32 2c46 0 94 -25 94 -73c0 -58 -66 -90 -151 -90c-67 0 -118 21 -170 40z" />
    <glyph glyph-name="Cacute" unicode="&#x106;" horiz-adv-x="776" 
d="M774 525l-68 -43c-56 65 -145 111 -245 111c-161 0 -301 -135 -301 -292c0 -136 109 -241 257 -241c89 0 175 36 239 86l46 -57c-76 -60 -178 -106 -291 -106c-188 0 -342 124 -342 312c0 199 180 375 395 375c121 0 237 -52 310 -145zM506 734l-75 2l120 123l103 -2z
" />
    <glyph glyph-name="Ccaron" unicode="&#x10c;" horiz-adv-x="776" 
d="M774 525l-68 -43c-56 65 -145 111 -245 111c-161 0 -301 -135 -301 -292c0 -136 109 -241 257 -241c89 0 175 36 239 86l46 -57c-76 -60 -178 -106 -291 -106c-188 0 -342 124 -342 312c0 199 180 375 395 375c121 0 237 -52 310 -145zM614 861l68 -2l-134 -125h-88
l-80 126l60 1l69 -80z" />
    <glyph glyph-name="Ccircumflex" unicode="&#x108;" horiz-adv-x="776" 
d="M774 525l-68 -43c-56 65 -145 111 -245 111c-161 0 -301 -135 -301 -292c0 -136 109 -241 257 -241c89 0 175 36 239 86l46 -57c-76 -60 -178 -106 -291 -106c-188 0 -342 124 -342 312c0 199 180 375 395 375c121 0 237 -52 310 -145zM420 733l-68 2l134 126h88l80 -126
l-60 -1l-69 80z" />
    <glyph glyph-name="Cdotaccent" unicode="&#x10a;" horiz-adv-x="776" 
d="M774 525l-68 -43c-56 65 -145 111 -245 111c-161 0 -301 -135 -301 -292c0 -136 109 -241 257 -241c89 0 175 36 239 86l46 -57c-76 -60 -178 -106 -291 -106c-188 0 -342 124 -342 312c0 199 180 375 395 375c121 0 237 -52 310 -145zM465 788c0 27 24 50 55 50
c26 0 46 -20 46 -43c0 -27 -25 -49 -55 -49c-27 0 -46 18 -46 42z" />
    <glyph glyph-name="Dcaron" unicode="&#x10e;" horiz-adv-x="819" 
d="M62 0l139 653h246c123 0 186 -34 241 -85c54 -54 82 -128 82 -203c0 -92 -41 -186 -112 -255c-72 -66 -154 -110 -296 -110h-300zM165 77h209c111 0 164 33 221 83c53 53 85 123 85 199c0 58 -21 114 -61 155c-41 38 -82 62 -177 62h-170zM602 861l68 -2l-134 -125h-88
l-80 126l60 1l69 -80z" />
    <glyph glyph-name="Dcroat" unicode="&#x110;" horiz-adv-x="847" 
d="M55 305l15 70h100l59 278h245c123 0 187 -34 242 -85c54 -54 81 -128 81 -203c0 -92 -41 -186 -112 -255c-72 -66 -154 -110 -295 -110h-300l65 305h-100zM193 77h209c110 0 164 33 221 83c52 53 84 123 84 199c0 58 -21 114 -61 155c-41 38 -82 62 -176 62h-171
l-43 -201h208l-15 -70h-208z" />
    <glyph glyph-name="Eacute" unicode="&#xc9;" horiz-adv-x="711" 
d="M495 382l-17 -77h-264l-49 -228h461l-16 -77h-548l139 653h525l-16 -77h-438l-42 -194h265zM484 734l-75 2l120 123l103 -2z" />
    <glyph glyph-name="Egrave" unicode="&#xc8;" horiz-adv-x="711" 
d="M495 382l-17 -77h-264l-49 -228h461l-16 -77h-548l139 653h525l-16 -77h-438l-42 -194h265zM555 736l-76 -2l-148 123l103 2z" />
    <glyph glyph-name="Ecircumflex" unicode="&#xca;" horiz-adv-x="711" 
d="M495 382l-17 -77h-264l-49 -228h461l-16 -77h-548l139 653h525l-16 -77h-438l-42 -194h265zM398 733l-68 2l134 126h88l80 -126l-60 -1l-69 80z" />
    <glyph glyph-name="Edieresis" unicode="&#xcb;" horiz-adv-x="711" 
d="M495 382l-17 -77h-264l-49 -228h461l-16 -77h-548l139 653h525l-16 -77h-438l-42 -194h265zM343 788c0 27 24 50 55 50c26 0 45 -20 45 -43c0 -27 -25 -49 -55 -49c-27 0 -45 18 -45 42zM544 788c0 27 24 50 55 50c26 0 45 -20 45 -43c0 -27 -24 -49 -55 -49
c-26 0 -45 18 -45 42z" />
    <glyph glyph-name="Ebreve" unicode="&#x114;" horiz-adv-x="711" 
d="M495 382l-17 -77h-264l-49 -228h461l-16 -77h-548l139 653h525l-16 -77h-438l-42 -194h265zM368 858h57c-8 -36 -3 -78 64 -78c68 0 91 42 98 78h61c-12 -58 -54 -133 -168 -133c-115 0 -124 75 -112 133z" />
    <glyph glyph-name="Ecaron" unicode="&#x11a;" horiz-adv-x="711" 
d="M495 382l-17 -77h-264l-49 -228h461l-16 -77h-548l139 653h525l-16 -77h-438l-42 -194h265zM592 861l68 -2l-134 -125h-88l-80 126l60 1l69 -80z" />
    <glyph glyph-name="Edotaccent" unicode="&#x116;" horiz-adv-x="711" 
d="M495 382l-17 -77h-264l-49 -228h461l-16 -77h-548l139 653h525l-16 -77h-438l-42 -194h265zM443 788c0 27 24 50 55 50c26 0 46 -20 46 -43c0 -27 -25 -49 -55 -49c-27 0 -46 18 -46 42z" />
    <glyph glyph-name="Emacron" unicode="&#x112;" horiz-adv-x="711" 
d="M495 382l-17 -77h-264l-49 -228h461l-16 -77h-548l139 653h525l-16 -77h-438l-42 -194h265zM373 825h254l-13 -62h-255z" />
    <glyph glyph-name="Eogonek" unicode="&#x118;" horiz-adv-x="711" 
d="M495 382l-17 -77h-264l-49 -228h461l-16 -77h-55c-40 -16 -146 -60 -146 -124c0 -30 27 -49 71 -49c20 0 43 4 67 8l-4 -50c-29 -7 -60 -11 -87 -11c-76 0 -121 32 -121 81c0 67 74 116 134 145h-407l139 653h525l-16 -77h-438l-42 -194h265z" />
    <glyph glyph-name="Gbreve" unicode="&#x11e;" horiz-adv-x="818" 
d="M772 550l-62 -54c-54 58 -149 97 -247 97c-159 0 -304 -133 -304 -295c0 -143 114 -238 271 -238c64 0 132 15 180 44l38 175h-214l17 77h292l-64 -304c-78 -44 -174 -69 -262 -69c-188 0 -348 122 -348 314c0 198 186 373 399 373c117 0 224 -46 304 -120zM396 858h57
c-8 -36 -3 -78 64 -78c68 0 91 42 98 78h61c-12 -58 -54 -133 -168 -133c-115 0 -124 75 -112 133z" />
    <glyph glyph-name="Gcircumflex" unicode="&#x11c;" horiz-adv-x="818" 
d="M772 550l-62 -54c-54 58 -149 97 -247 97c-159 0 -304 -133 -304 -295c0 -143 114 -238 271 -238c64 0 132 15 180 44l38 175h-214l17 77h292l-64 -304c-78 -44 -174 -69 -262 -69c-188 0 -348 122 -348 314c0 198 186 373 399 373c117 0 224 -46 304 -120zM426 733
l-68 2l134 126h88l80 -126l-60 -1l-69 80z" />
    <glyph glyph-name="uni0122" unicode="&#x122;" horiz-adv-x="818" 
d="M772 550l-62 -54c-54 58 -149 97 -247 97c-159 0 -304 -133 -304 -295c0 -143 114 -238 271 -238c64 0 132 15 180 44l38 175h-214l17 77h292l-64 -304c-78 -44 -174 -69 -262 -69c-188 0 -348 122 -348 314c0 198 186 373 399 373c117 0 224 -46 304 -120zM189 -231
l18 50c19 -3 38 -6 57 -6c60 0 98 26 98 70c0 24 -12 44 -25 57l67 17c16 -15 32 -40 32 -74c0 -74 -70 -124 -170 -124c-26 0 -52 3 -77 10z" />
    <glyph glyph-name="Gdotaccent" unicode="&#x120;" horiz-adv-x="818" 
d="M772 550l-62 -54c-54 58 -149 97 -247 97c-159 0 -304 -133 -304 -295c0 -143 114 -238 271 -238c64 0 132 15 180 44l38 175h-214l17 77h292l-64 -304c-78 -44 -174 -69 -262 -69c-188 0 -348 122 -348 314c0 198 186 373 399 373c117 0 224 -46 304 -120zM471 788
c0 27 24 50 55 50c26 0 46 -20 46 -43c0 -27 -25 -49 -55 -49c-27 0 -46 18 -46 42z" />
    <glyph glyph-name="Hbar" unicode="&#x126;" horiz-adv-x="827" 
d="M70 473l15 69h99l24 111h87l-24 -111h401l24 111h86l-24 -111h100l-14 -69h-100l-101 -473h-86l61 287h-401l-61 -287h-87l100 473h-99zM233 365h401l23 108h-401z" />
    <glyph glyph-name="Hcircumflex" unicode="&#x124;" horiz-adv-x="815" 
d="M149 0h-87l139 653h87l-56 -260h401l56 260h86l-139 -653h-86l67 316h-401zM422 733l-68 2l134 126h88l80 -126l-60 -1l-69 80z" />
    <glyph glyph-name="Iacute" unicode="&#xcd;" horiz-adv-x="328" 
d="M62 0l139 653h87l-139 -653h-87zM189 736l121 123l103 -2l-148 -123z" />
    <glyph glyph-name="Igrave" unicode="&#xcc;" horiz-adv-x="328" 
d="M149 0h-87l139 653h87zM335 736l-76 -2l-147 123l103 2z" />
    <glyph glyph-name="Icircumflex" unicode="&#xce;" horiz-adv-x="328" 
d="M149 0h-87l139 653h87zM179 733l-69 2l135 126h88l79 -126l-59 -1l-70 80z" />
    <glyph glyph-name="Idieresis" unicode="&#xcf;" horiz-adv-x="328" 
d="M149 0h-87l139 653h87zM124 788c0 27 24 50 55 50c25 0 45 -20 45 -43c0 -27 -25 -49 -55 -49c-27 0 -45 18 -45 42zM325 788c0 27 24 50 55 50c26 0 45 -20 45 -43c0 -27 -25 -49 -55 -49c-27 0 -45 18 -45 42z" />
    <glyph glyph-name="Ibreve" unicode="&#x12c;" horiz-adv-x="328" 
d="M149 0h-87l139 653h87zM149 858h56c-7 -36 -2 -78 65 -78s91 42 98 78h60c-12 -58 -53 -133 -168 -133c-114 0 -124 75 -111 133z" />
    <glyph glyph-name="Idotaccent" unicode="&#x130;" horiz-adv-x="328" 
d="M149 0h-87l139 653h87zM224 788c0 27 24 50 55 50c26 0 45 -20 45 -43c0 -27 -25 -49 -55 -49c-26 0 -45 18 -45 42z" />
    <glyph glyph-name="Imacron" unicode="&#x12a;" horiz-adv-x="328" 
d="M149 0h-87l139 653h87zM395 763h-255l13 62h255z" />
    <glyph glyph-name="Iogonek" unicode="&#x12e;" horiz-adv-x="328" 
d="M62 0l139 653h87l-139 -653c-40 -16 -146 -60 -146 -124c0 -30 27 -49 71 -49c20 0 43 4 67 8l-4 -50c-29 -7 -60 -11 -87 -11c-76 0 -121 32 -121 81c0 67 74 116 133 145z" />
    <glyph glyph-name="Itilde" unicode="&#x128;" horiz-adv-x="328" 
d="M149 0h-87l139 653h87zM399 834l43 -27c-39 -51 -78 -80 -119 -80c-28 0 -49 12 -65 26c-18 16 -30 29 -48 29c-24 0 -44 -25 -64 -46l-47 28c45 55 81 79 120 79c26 0 43 -11 63 -28c16 -14 31 -27 51 -27c24 0 46 23 66 46z" />
    <glyph glyph-name="IJ" unicode="&#x132;" horiz-adv-x="989" 
d="M149 0h-87l139 653h87zM875 653h87l-95 -449c-30 -144 -144 -221 -281 -221c-136 0 -234 61 -262 193l78 29c20 -94 85 -145 190 -145c91 0 169 55 190 153z" />
    <glyph glyph-name="Jcircumflex" unicode="&#x134;" horiz-adv-x="661" 
d="M547 653h87l-95 -449c-30 -144 -144 -221 -281 -221c-136 0 -234 61 -262 193l78 29c20 -94 85 -145 190 -145c91 0 169 55 190 153zM526 733l-68 2l134 126h88l80 -126l-60 -1l-69 80z" />
    <glyph glyph-name="uni0136" unicode="&#x136;" horiz-adv-x="739" 
d="M649 653h108l-310 -256l225 -397h-100l-191 346l-191 -153l-41 -193h-87l139 653h87l-77 -355zM153 -231l18 50c19 -3 38 -6 57 -6c60 0 98 26 98 70c0 24 -12 44 -25 57l67 17c16 -15 32 -40 32 -74c0 -74 -70 -124 -170 -124c-26 0 -52 3 -77 10z" />
    <glyph glyph-name="Lacute" unicode="&#x139;" horiz-adv-x="627" 
d="M201 653h87l-123 -576h412l-16 -77h-498zM265 734l-75 2l120 123l103 -2z" />
    <glyph glyph-name="Lcaron" unicode="&#x13d;" horiz-adv-x="627" 
d="M63 0l139 653h86l-123 -576h412l-16 -77h-498zM428 481l-46 1c20 53 46 162 58 218h80c-20 -90 -45 -153 -92 -219z" />
    <glyph glyph-name="uni013B" unicode="&#x13b;" horiz-adv-x="627" 
d="M201 653h87l-123 -576h412l-16 -77h-498zM95 -231l18 50c19 -3 38 -6 57 -6c60 0 98 26 98 70c0 24 -12 44 -25 57l67 17c16 -15 32 -40 32 -74c0 -74 -70 -124 -170 -124c-26 0 -52 3 -77 10z" />
    <glyph glyph-name="Ldot" unicode="&#x13f;" horiz-adv-x="646" 
d="M201 653h87l-123 -576h412l-16 -77h-498zM451 389c0 27 24 50 55 50c26 0 46 -20 46 -43c0 -27 -25 -49 -55 -49c-27 0 -46 18 -46 42z" />
    <glyph glyph-name="Lslash" unicode="&#x141;" horiz-adv-x="648" 
d="M224 653h86l-55 -261l215 114l-14 -77l-218 -115l-50 -237h411l-16 -77h-498l56 263l-112 -59l13 76l115 61z" />
    <glyph glyph-name="Ntilde" unicode="&#xd1;" horiz-adv-x="823" 
d="M696 653h87l-139 -653h-79l-306 516h-1l-109 -516h-87l139 653h79l306 -516h1zM645 834l43 -27c-39 -51 -78 -80 -119 -80c-27 0 -48 12 -64 26c-19 16 -31 29 -49 29c-23 0 -44 -25 -64 -46l-46 28c44 55 80 79 119 79c26 0 43 -11 63 -28c16 -14 31 -27 51 -27
c24 0 46 23 66 46z" />
    <glyph glyph-name="Nacute" unicode="&#x143;" horiz-adv-x="823" 
d="M696 653h87l-139 -653h-79l-306 516h-1l-109 -516h-87l139 653h79l306 -516h1zM511 734l-75 2l120 123l103 -2z" />
    <glyph glyph-name="Ncaron" unicode="&#x147;" horiz-adv-x="823" 
d="M696 653h87l-139 -653h-79l-306 516h-1l-109 -516h-87l139 653h79l306 -516h1zM619 861l68 -2l-134 -125h-88l-80 126l60 1l69 -80z" />
    <glyph glyph-name="uni0145" unicode="&#x145;" horiz-adv-x="823" 
d="M696 653h87l-139 -653h-79l-306 516h-1l-109 -516h-87l139 653h79l306 -516h1zM170 -231l18 50c19 -3 38 -6 57 -6c60 0 98 26 98 70c0 24 -12 44 -25 57l67 17c16 -15 32 -40 32 -74c0 -74 -70 -124 -170 -124c-26 0 -52 3 -77 10z" />
    <glyph glyph-name="Eng" unicode="&#x14a;" horiz-adv-x="823" 
d="M587 137l109 516h87l-139 -651c-32 -148 -150 -229 -302 -229l15 78c96 0 181 56 202 162h-2l-298 503h-1l-109 -516h-87l139 653h79l306 -516h1z" />
    <glyph glyph-name="Oacute" unicode="&#xd3;" horiz-adv-x="848" 
d="M70 299c0 203 181 371 391 371c195 0 339 -139 339 -314c0 -205 -185 -373 -394 -373c-196 0 -336 139 -336 316zM162 299c0 -132 103 -239 244 -239c162 0 302 133 302 296c0 131 -107 237 -247 237c-163 0 -299 -132 -299 -294zM505 734l-75 2l120 123l103 -2z" />
    <glyph glyph-name="Ograve" unicode="&#xd2;" horiz-adv-x="848" 
d="M70 299c0 203 181 371 391 371c195 0 339 -139 339 -314c0 -205 -185 -373 -394 -373c-196 0 -336 139 -336 316zM162 299c0 -132 103 -239 244 -239c162 0 302 133 302 296c0 131 -107 237 -247 237c-163 0 -299 -132 -299 -294zM576 736l-76 -2l-148 123l103 2z" />
    <glyph glyph-name="Ocircumflex" unicode="&#xd4;" horiz-adv-x="848" 
d="M70 299c0 203 181 371 391 371c195 0 339 -139 339 -314c0 -205 -185 -373 -394 -373c-196 0 -336 139 -336 316zM162 299c0 -132 103 -239 244 -239c162 0 302 133 302 296c0 131 -107 237 -247 237c-163 0 -299 -132 -299 -294zM419 733l-68 2l134 126h88l80 -126
l-60 -1l-69 80z" />
    <glyph glyph-name="Odieresis" unicode="&#xd6;" horiz-adv-x="848" 
d="M70 299c0 203 181 371 391 371c195 0 339 -139 339 -314c0 -205 -185 -373 -394 -373c-196 0 -336 139 -336 316zM162 299c0 -132 103 -239 244 -239c162 0 302 133 302 296c0 131 -107 237 -247 237c-163 0 -299 -132 -299 -294zM364 788c0 27 24 50 55 50
c26 0 45 -20 45 -43c0 -27 -25 -49 -55 -49c-27 0 -45 18 -45 42zM565 788c0 27 24 50 55 50c26 0 45 -20 45 -43c0 -27 -24 -49 -55 -49c-26 0 -45 18 -45 42z" />
    <glyph glyph-name="Otilde" unicode="&#xd5;" horiz-adv-x="848" 
d="M70 299c0 203 181 371 391 371c195 0 339 -139 339 -314c0 -205 -185 -373 -394 -373c-196 0 -336 139 -336 316zM162 299c0 -132 103 -239 244 -239c162 0 302 133 302 296c0 131 -107 237 -247 237c-163 0 -299 -132 -299 -294zM639 834l43 -27
c-39 -51 -78 -80 -119 -80c-27 0 -48 12 -64 26c-19 16 -31 29 -49 29c-23 0 -44 -25 -64 -46l-46 28c44 55 80 79 119 79c26 0 43 -11 63 -28c16 -14 31 -27 51 -27c24 0 46 23 66 46z" />
    <glyph glyph-name="Obreve" unicode="&#x14e;" horiz-adv-x="848" 
d="M70 299c0 203 181 371 391 371c195 0 339 -139 339 -314c0 -205 -185 -373 -394 -373c-196 0 -336 139 -336 316zM162 299c0 -132 103 -239 244 -239c162 0 302 133 302 296c0 131 -107 237 -247 237c-163 0 -299 -132 -299 -294zM389 858h57c-8 -36 -3 -78 64 -78
c68 0 91 42 98 78h61c-12 -58 -54 -133 -168 -133c-115 0 -124 75 -112 133z" />
    <glyph glyph-name="Ohungarumlaut" unicode="&#x150;" horiz-adv-x="848" 
d="M70 299c0 203 181 371 391 371c195 0 339 -139 339 -314c0 -205 -185 -373 -394 -373c-196 0 -336 139 -336 316zM162 299c0 -132 103 -239 244 -239c162 0 302 133 302 296c0 131 -107 237 -247 237c-163 0 -299 -132 -299 -294zM429 729l-52 2l70 137l73 -1zM600 729
l-52 2l71 137l73 -1z" />
    <glyph glyph-name="Omacron" unicode="&#x14c;" horiz-adv-x="848" 
d="M70 299c0 203 181 371 391 371c195 0 339 -139 339 -314c0 -205 -185 -373 -394 -373c-196 0 -336 139 -336 316zM162 299c0 -132 103 -239 244 -239c162 0 302 133 302 296c0 131 -107 237 -247 237c-163 0 -299 -132 -299 -294zM394 825h254l-13 -62h-255z" />
    <glyph glyph-name="Oslash" unicode="&#xd8;" horiz-adv-x="848" 
d="M733 717l50 -39l-84 -95c63 -57 101 -138 101 -227c0 -205 -185 -373 -394 -373c-73 0 -138 19 -191 52l-86 -98l-50 38l86 98c-60 57 -95 137 -95 226c0 203 181 371 391 371c70 0 134 -18 187 -50zM708 356c0 63 -25 120 -66 162l-371 -420c38 -24 84 -38 135 -38
c162 0 302 133 302 296zM162 299c0 -62 22 -118 61 -161l369 419c-37 23 -82 36 -131 36c-163 0 -299 -132 -299 -294z" />
    <glyph glyph-name="Oslashacute" unicode="&#x1fe;" horiz-adv-x="848" 
d="M733 717l50 -39l-84 -95c63 -57 101 -138 101 -227c0 -205 -185 -373 -394 -373c-73 0 -138 19 -191 52l-86 -98l-50 38l86 98c-60 57 -95 137 -95 226c0 203 181 371 391 371c70 0 134 -18 187 -50zM708 356c0 63 -25 120 -66 162l-371 -420c38 -24 84 -38 135 -38
c162 0 302 133 302 296zM162 299c0 -62 22 -118 61 -161l369 419c-37 23 -82 36 -131 36c-163 0 -299 -132 -299 -294zM505 734l-75 2l120 123l103 -2z" />
    <glyph glyph-name="Racute" unicode="&#x154;" horiz-adv-x="788" 
d="M149 0h-86l138 653h347c68 0 119 -16 156 -53c32 -34 50 -79 50 -125c0 -97 -80 -183 -194 -201l100 -274h-95l-92 266h-267zM272 576l-50 -233h298c79 0 148 51 148 127c0 23 -7 51 -31 74c-23 23 -50 32 -105 32h-260zM496 734l-75 2l120 123l103 -2z" />
    <glyph glyph-name="Rcaron" unicode="&#x158;" horiz-adv-x="788" 
d="M149 0h-86l138 653h347c68 0 119 -16 156 -53c32 -34 50 -79 50 -125c0 -97 -80 -183 -194 -201l100 -274h-95l-92 266h-267zM272 576l-50 -233h298c79 0 148 51 148 127c0 23 -7 51 -31 74c-23 23 -50 32 -105 32h-260zM604 861l68 -2l-134 -125h-88l-80 126l60 1
l69 -80z" />
    <glyph glyph-name="uni0156" unicode="&#x156;" horiz-adv-x="788" 
d="M149 0h-86l138 653h347c68 0 119 -16 156 -53c32 -34 50 -79 50 -125c0 -97 -80 -183 -194 -201l100 -274h-95l-92 266h-267zM272 576l-50 -233h298c79 0 148 51 148 127c0 23 -7 51 -31 74c-23 23 -50 32 -105 32h-260zM169 -231l18 50c19 -3 38 -6 57 -6
c60 0 98 26 98 70c0 24 -12 44 -25 57l67 17c16 -15 32 -40 32 -74c0 -74 -70 -124 -170 -124c-26 0 -52 3 -77 10z" />
    <glyph glyph-name="Scaron" unicode="&#x160;" horiz-adv-x="738" 
d="M692 546l-65 -54c-59 72 -168 104 -262 104c-67 0 -152 -24 -152 -99c0 -74 83 -90 178 -110c116 -20 280 -48 280 -194c0 -140 -122 -210 -278 -210c-154 0 -279 60 -368 168l65 54c69 -89 172 -148 305 -148c89 0 187 30 187 118c0 84 -93 108 -209 129
c-126 25 -249 56 -249 177c0 130 115 189 244 189c117 0 240 -40 324 -124zM563 861l68 -2l-134 -125h-88l-80 126l60 1l69 -80z" />
    <glyph glyph-name="Sacute" unicode="&#x15a;" horiz-adv-x="738" 
d="M692 546l-65 -54c-59 72 -168 104 -262 104c-67 0 -152 -24 -152 -99c0 -74 83 -90 178 -110c116 -20 280 -48 280 -194c0 -140 -122 -210 -278 -210c-154 0 -279 60 -368 168l65 54c69 -89 172 -148 305 -148c89 0 187 30 187 118c0 84 -93 108 -209 129
c-126 25 -249 56 -249 177c0 130 115 189 244 189c117 0 240 -40 324 -124zM455 734l-75 2l120 123l103 -2z" />
    <glyph glyph-name="Scedilla" unicode="&#x15e;" horiz-adv-x="738" 
d="M112 -186l22 43c47 -16 96 -34 146 -34c46 0 80 14 80 42c0 25 -26 36 -61 36c-13 0 -27 -2 -38 -2l-17 27l45 67c-107 21 -196 75 -264 158l65 54c69 -89 172 -148 305 -148c89 0 187 30 187 118c0 84 -93 108 -209 129c-126 25 -249 56 -249 177c0 130 115 189 244 189
c117 0 240 -40 324 -124l-65 -54c-59 72 -168 104 -262 104c-67 0 -152 -24 -152 -99c0 -74 83 -90 178 -110c116 -20 280 -48 280 -194c0 -140 -122 -210 -278 -210c-18 0 -35 1 -52 3l-34 -51c9 1 21 2 32 2c46 0 94 -25 94 -73c0 -58 -66 -90 -151 -90
c-67 0 -118 21 -170 40z" />
    <glyph glyph-name="Scircumflex" unicode="&#x15c;" horiz-adv-x="738" 
d="M692 546l-65 -54c-59 72 -168 104 -262 104c-67 0 -152 -24 -152 -99c0 -74 83 -90 178 -110c116 -20 280 -48 280 -194c0 -140 -122 -210 -278 -210c-154 0 -279 60 -368 168l65 54c69 -89 172 -148 305 -148c89 0 187 30 187 118c0 84 -93 108 -209 129
c-126 25 -249 56 -249 177c0 130 115 189 244 189c117 0 240 -40 324 -124zM369 733l-68 2l134 126h88l80 -126l-60 -1l-69 80z" />
    <glyph glyph-name="uni0218" unicode="&#x218;" horiz-adv-x="738" 
d="M692 546l-65 -54c-59 72 -168 104 -262 104c-67 0 -152 -24 -152 -99c0 -74 83 -90 178 -110c116 -20 280 -48 280 -194c0 -140 -122 -210 -278 -210c-154 0 -279 60 -368 168l65 54c69 -89 172 -148 305 -148c89 0 187 30 187 118c0 84 -93 108 -209 129
c-126 25 -249 56 -249 177c0 130 115 189 244 189c117 0 240 -40 324 -124zM141 -231l18 50c19 -3 38 -6 57 -6c60 0 98 26 98 70c0 24 -12 44 -25 57l67 17c16 -15 32 -40 32 -74c0 -74 -70 -124 -170 -124c-26 0 -52 3 -77 10z" />
    <glyph glyph-name="Tbar" unicode="&#x166;" horiz-adv-x="644" 
d="M82 576l18 77h594l-17 -77h-253l-43 -201h150l-15 -70h-150l-64 -305h-87l64 305h-150l15 70h150l43 201h-255z" />
    <glyph glyph-name="Tcaron" unicode="&#x164;" horiz-adv-x="644" 
d="M82 576l17 77h595l-18 -77h-253l-122 -576h-86l122 576h-255zM524 861l68 -2l-134 -125h-88l-80 126l60 1l69 -80z" />
    <glyph glyph-name="uni0162" unicode="&#x162;" horiz-adv-x="644" 
d="M62 -186l22 43c47 -16 96 -34 146 -34c46 0 80 14 80 42c0 25 -26 36 -61 36c-13 0 -27 -2 -38 -2l-17 27l50 74h-29l122 576h-255l17 77h595l-18 -77h-253l-122 -576l-44 -65c9 1 21 2 32 2c46 0 94 -25 94 -73c0 -58 -66 -90 -151 -90c-67 0 -118 21 -170 40z" />
    <glyph glyph-name="uni021A" unicode="&#x21a;" horiz-adv-x="644" 
d="M82 576l17 77h595l-18 -77h-253l-122 -576h-86l122 576h-255zM96 -231l18 50c19 -3 38 -6 57 -6c60 0 98 26 98 70c0 24 -12 44 -25 57l67 17c16 -15 32 -40 32 -74c0 -74 -70 -124 -170 -124c-26 0 -52 3 -77 10z" />
    <glyph glyph-name="Uacute" unicode="&#xda;" horiz-adv-x="788" 
d="M674 653h87l-93 -444c-32 -153 -151 -226 -293 -226c-150 0 -274 82 -274 218c0 26 4 69 17 135c6 24 47 221 67 317h86l-68 -326c-13 -61 -17 -90 -17 -113c0 -101 87 -154 190 -154c101 0 184 51 207 158zM494 734l-75 2l120 123l103 -2z" />
    <glyph glyph-name="Ugrave" unicode="&#xd9;" horiz-adv-x="788" 
d="M674 653h87l-93 -444c-32 -153 -151 -226 -293 -226c-150 0 -274 82 -274 218c0 26 4 69 17 135c6 24 47 221 67 317h86l-68 -326c-13 -61 -17 -90 -17 -113c0 -101 87 -154 190 -154c101 0 184 51 207 158zM565 736l-76 -2l-148 123l103 2z" />
    <glyph glyph-name="Ucircumflex" unicode="&#xdb;" horiz-adv-x="788" 
d="M674 653h87l-93 -444c-32 -153 -151 -226 -293 -226c-150 0 -274 82 -274 218c0 26 4 69 17 135c6 24 47 221 67 317h86l-68 -326c-13 -61 -17 -90 -17 -113c0 -101 87 -154 190 -154c101 0 184 51 207 158zM408 733l-68 2l134 126h88l80 -126l-60 -1l-69 80z" />
    <glyph glyph-name="Udieresis" unicode="&#xdc;" horiz-adv-x="788" 
d="M674 653h87l-93 -444c-32 -153 -151 -226 -293 -226c-150 0 -274 82 -274 218c0 26 4 69 17 135c6 24 47 221 67 317h86l-68 -326c-13 -61 -17 -90 -17 -113c0 -101 87 -154 190 -154c101 0 184 51 207 158zM353 788c0 27 24 50 55 50c26 0 45 -20 45 -43
c0 -27 -25 -49 -55 -49c-27 0 -45 18 -45 42zM554 788c0 27 24 50 55 50c26 0 45 -20 45 -43c0 -27 -24 -49 -55 -49c-26 0 -45 18 -45 42z" />
    <glyph glyph-name="Ubreve" unicode="&#x16c;" horiz-adv-x="788" 
d="M674 653h87l-93 -444c-32 -153 -151 -226 -293 -226c-150 0 -274 82 -274 218c0 26 4 69 17 135c6 24 47 221 67 317h86l-68 -326c-13 -61 -17 -90 -17 -113c0 -101 87 -154 190 -154c101 0 184 51 207 158zM378 858h57c-8 -36 -3 -78 64 -78c68 0 91 42 98 78h61
c-12 -58 -54 -133 -168 -133c-115 0 -124 75 -112 133z" />
    <glyph glyph-name="Uhungarumlaut" unicode="&#x170;" horiz-adv-x="788" 
d="M674 653h87l-93 -444c-32 -153 -151 -226 -293 -226c-150 0 -274 82 -274 218c0 26 4 69 17 135c6 24 47 221 67 317h86l-68 -326c-13 -61 -17 -90 -17 -113c0 -101 87 -154 190 -154c101 0 184 51 207 158zM418 729l-52 2l70 137l73 -1zM589 729l-52 2l71 137l73 -1z
" />
    <glyph glyph-name="Umacron" unicode="&#x16a;" horiz-adv-x="788" 
d="M674 653h87l-93 -444c-32 -153 -151 -226 -293 -226c-150 0 -274 82 -274 218c0 26 4 69 17 135c6 24 47 221 67 317h86l-68 -326c-13 -61 -17 -90 -17 -113c0 -101 87 -154 190 -154c101 0 184 51 207 158zM383 825h254l-13 -62h-255z" />
    <glyph glyph-name="Uogonek" unicode="&#x172;" horiz-adv-x="788" 
d="M674 653h87l-93 -444c-32 -150 -147 -223 -285 -226c-46 -22 -106 -59 -106 -107c0 -30 27 -49 71 -49c20 0 43 4 67 8l-4 -50c-29 -7 -60 -11 -87 -11c-76 0 -121 32 -121 81c0 59 56 104 110 133c-121 19 -212 96 -212 213c0 26 4 69 17 135c6 24 47 221 67 317h86
l-68 -326c-13 -61 -17 -90 -17 -113c0 -101 87 -154 190 -154c101 0 184 51 207 158z" />
    <glyph glyph-name="Uring" unicode="&#x16e;" horiz-adv-x="788" 
d="M674 653h87l-93 -444c-32 -153 -151 -226 -293 -226c-150 0 -274 82 -274 218c0 26 4 69 17 135c6 24 47 221 67 317h86l-68 -326c-13 -61 -17 -90 -17 -113c0 -101 87 -154 190 -154c101 0 184 51 207 158zM496 733c44 0 78 27 78 64c0 32 -26 57 -65 57
c-44 0 -76 -30 -76 -68c0 -31 25 -53 63 -53zM492 695c-71 0 -108 40 -108 88c0 58 48 108 129 108c72 0 111 -41 111 -91c0 -57 -51 -105 -132 -105z" />
    <glyph glyph-name="Utilde" unicode="&#x168;" horiz-adv-x="788" 
d="M674 653h87l-93 -444c-32 -153 -151 -226 -293 -226c-150 0 -274 82 -274 218c0 26 4 69 17 135c6 24 47 221 67 317h86l-68 -326c-13 -61 -17 -90 -17 -113c0 -101 87 -154 190 -154c101 0 184 51 207 158zM628 834l43 -27c-39 -51 -78 -80 -119 -80
c-27 0 -48 12 -64 26c-19 16 -31 29 -49 29c-23 0 -44 -25 -64 -46l-46 28c44 55 80 79 119 79c26 0 43 -11 63 -28c16 -14 31 -27 51 -27c24 0 46 23 66 46z" />
    <glyph glyph-name="Wacute" unicode="&#x1e82;" horiz-adv-x="1007" 
d="M949 653h93l-349 -653h-88l-55 490h-6c-86 -163 -175 -328 -262 -490h-89l-71 653h92l51 -522h6l278 522h65l56 -522h6zM603 734l-75 2l120 123l103 -2z" />
    <glyph glyph-name="Wcircumflex" unicode="&#x174;" horiz-adv-x="1007" 
d="M949 653h93l-349 -653h-88l-55 490h-6c-86 -163 -175 -328 -262 -490h-89l-71 653h92l51 -522h6l278 522h65l56 -522h6zM517 733l-68 2l134 126h88l80 -126l-60 -1l-69 80z" />
    <glyph glyph-name="Wdieresis" unicode="&#x1e84;" horiz-adv-x="1007" 
d="M949 653h93l-349 -653h-88l-55 490h-6c-86 -163 -175 -328 -262 -490h-89l-71 653h92l51 -522h6l278 522h65l56 -522h6zM462 788c0 27 24 50 55 50c26 0 45 -20 45 -43c0 -27 -25 -49 -55 -49c-27 0 -45 18 -45 42zM663 788c0 27 24 50 55 50c26 0 45 -20 45 -43
c0 -27 -24 -49 -55 -49c-26 0 -45 18 -45 42z" />
    <glyph glyph-name="Wgrave" unicode="&#x1e80;" horiz-adv-x="1007" 
d="M949 653h93l-349 -653h-88l-55 490h-6c-86 -163 -175 -328 -262 -490h-89l-71 653h92l51 -522h6l278 522h65l56 -522h6zM674 736l-76 -2l-148 123l103 2z" />
    <glyph glyph-name="Yacute" unicode="&#xdd;" horiz-adv-x="665" 
d="M615 653h109l-342 -347l-65 -306h-86l65 307l-194 346h102l148 -270zM436 734l-75 2l120 123l103 -2z" />
    <glyph glyph-name="Ydieresis" unicode="&#x178;" horiz-adv-x="665" 
d="M615 653h109l-342 -347l-65 -306h-86l65 307l-194 346h102l148 -270zM295 788c0 27 24 50 55 50c26 0 45 -20 45 -43c0 -27 -25 -49 -55 -49c-27 0 -45 18 -45 42zM496 788c0 27 24 50 55 50c26 0 45 -20 45 -43c0 -27 -24 -49 -55 -49c-26 0 -45 18 -45 42z" />
    <glyph glyph-name="Ycircumflex" unicode="&#x176;" horiz-adv-x="665" 
d="M615 653h109l-342 -347l-65 -306h-86l65 307l-194 346h102l148 -270zM350 733l-68 2l134 126h88l80 -126l-60 -1l-69 80z" />
    <glyph glyph-name="Ygrave" unicode="&#x1ef2;" horiz-adv-x="665" 
d="M615 653h109l-342 -347l-65 -306h-86l65 307l-194 346h102l148 -270zM507 736l-76 -2l-148 123l103 2z" />
    <glyph glyph-name="Zcaron" unicode="&#x17d;" horiz-adv-x="670" 
d="M586 77l-17 -77h-569l12 55l519 521h-411l17 77h536l-12 -55l-518 -521h443zM519 861l68 -2l-134 -125h-88l-80 126l60 1l69 -80z" />
    <glyph glyph-name="Zacute" unicode="&#x179;" horiz-adv-x="670" 
d="M586 77l-17 -77h-569l12 55l519 521h-411l17 77h536l-12 -55l-518 -521h443zM411 734l-75 2l120 123l103 -2z" />
    <glyph glyph-name="Zdotaccent" unicode="&#x17b;" horiz-adv-x="670" 
d="M586 77l-17 -77h-569l12 55l519 521h-411l17 77h536l-12 -55l-518 -521h443zM370 788c0 27 24 50 55 50c26 0 46 -20 46 -43c0 -27 -25 -49 -55 -49c-27 0 -46 18 -46 42z" />
    <glyph glyph-name="Eth" unicode="&#xd0;" horiz-adv-x="847" 
d="M54 305l14 70h100l59 278h246c123 0 186 -34 241 -85c54 -54 82 -128 82 -203c0 -92 -41 -186 -112 -255c-72 -66 -154 -110 -296 -110h-300l65 305h-99zM191 77h209c110 0 164 33 221 83c53 53 85 123 85 199c0 58 -21 114 -61 155c-41 38 -82 62 -177 62h-170l-43 -201
h207l-14 -70h-208z" />
    <glyph glyph-name="Thorn" unicode="&#xde;" horiz-adv-x="763" 
d="M201 653h87l-28 -130h268c78 0 122 -19 156 -54c35 -35 52 -79 52 -128c0 -60 -26 -104 -65 -141c-49 -47 -104 -69 -193 -69h-302l-27 -131h-86zM244 446l-51 -238h287c57 0 103 14 135 45c23 23 35 51 35 82c0 29 -11 58 -31 79c-25 26 -63 32 -100 32h-275z" />
    <glyph glyph-name="AE" unicode="&#xc6;" horiz-adv-x="1074" 
d="M-57 0l569 653h577l-16 -77h-438l-42 -195h265l-17 -77h-264l-49 -227h461l-16 -77h-547l42 196h-251l-166 -196h-108zM276 266h207l68 310h-13z" />
    <glyph glyph-name="AEacute" unicode="&#x1fc;" horiz-adv-x="1075" 
d="M-56 0l569 653h577l-16 -77h-438l-42 -195h265l-17 -77h-264l-49 -227h461l-16 -77h-547l42 196h-251l-166 -196h-108zM277 266h207l68 310h-13zM696 734l-75 2l120 123l103 -2z" />
    <glyph glyph-name="OE" unicode="&#x152;" horiz-adv-x="1297" 
d="M1080 381l-17 -77h-264l-49 -227h461l-16 -77h-540l25 121c-68 -93 -171 -138 -274 -138c-196 0 -336 139 -336 316c0 203 181 371 391 371c135 0 242 -59 290 -184l36 167h525l-17 -77h-438l-42 -195h265zM162 299c0 -132 103 -239 244 -239c166 0 310 133 310 296
c0 131 -111 237 -255 237c-163 0 -299 -132 -299 -294z" />
    <glyph glyph-name="Schwa" unicode="&#x18f;" horiz-adv-x="795" 
d="M165 496l-53 58c73 67 192 116 317 116c203 0 317 -138 317 -308c0 -213 -176 -379 -390 -379c-145 0 -290 81 -290 271c0 23 2 45 6 69h580c2 9 3 16 3 25c-2 140 -85 245 -234 245c-102 0 -198 -46 -256 -97zM368 60c124 0 228 78 268 190h-479
c-13 -123 95 -190 211 -190z" />
    <glyph glyph-name="acute.cap" 
d="M348 734l-75 2l120 123l103 -2z" />
    <glyph glyph-name="grave.cap" 
d="M419 736l-76 -2l-148 123l103 2z" />
    <glyph glyph-name="circumflex.cap" 
d="M262 733l-68 2l134 126h88l80 -126l-60 -1l-69 80z" />
    <glyph glyph-name="dieresis.cap" 
d="M207 788c0 27 24 50 55 50c26 0 45 -20 45 -43c0 -27 -25 -49 -55 -49c-27 0 -45 18 -45 42zM408 788c0 27 24 50 55 50c26 0 45 -20 45 -43c0 -27 -24 -49 -55 -49c-26 0 -45 18 -45 42z" />
    <glyph glyph-name="tilde.cap" 
d="M482 834l43 -27c-39 -51 -78 -80 -119 -80c-27 0 -48 12 -64 26c-19 16 -31 29 -49 29c-23 0 -44 -25 -64 -46l-46 28c44 55 80 79 119 79c26 0 43 -11 63 -28c16 -14 31 -27 51 -27c24 0 46 23 66 46z" />
    <glyph glyph-name="ring.cap" 
d="M350 733c44 0 78 27 78 64c0 32 -26 57 -65 57c-44 0 -76 -30 -76 -68c0 -31 25 -53 63 -53zM346 695c-71 0 -108 40 -108 88c0 58 48 108 129 108c72 0 111 -41 111 -91c0 -57 -51 -105 -132 -105z" />
    <glyph glyph-name="cedilla.cap" 
d="M3 -186l22 43c47 -16 96 -34 146 -34c46 0 80 14 80 42c0 25 -26 36 -61 36c-13 0 -27 -2 -38 -2l-17 27l60 88h56l-53 -79c9 1 21 2 32 2c46 0 94 -25 94 -73c0 -58 -66 -90 -151 -90c-67 0 -118 21 -170 40z" />
    <glyph glyph-name="breve.cap" 
d="M232 858h57c-8 -36 -3 -78 64 -78c68 0 91 42 98 78h61c-12 -58 -54 -133 -168 -133c-115 0 -124 75 -112 133z" />
    <glyph glyph-name="caron.cap" 
d="M456 861l68 -2l-134 -125h-88l-80 126l60 1l69 -80z" />
    <glyph glyph-name="dotaccent.cap" 
d="M307 788c0 27 24 50 55 50c26 0 46 -20 46 -43c0 -27 -25 -49 -55 -49c-27 0 -46 18 -46 42z" />
    <glyph glyph-name="hungarumlaut.cap" 
d="M272 729l-52 2l70 137l73 -1zM443 729l-52 2l71 137l73 -1z" />
    <glyph glyph-name="macron.cap" 
d="M237 825h254l-13 -62h-255z" />
    <glyph glyph-name="ogonek.cap" 
d="M215 23l31 -23c-40 -16 -146 -60 -146 -124c0 -30 27 -49 71 -49c20 0 43 4 67 8l-4 -50c-29 -7 -60 -11 -87 -11c-76 0 -121 32 -121 81c0 91 137 149 189 168z" />
    <glyph glyph-name="commaaccent.cap" 
d="M24 -231l18 50c19 -3 38 -6 57 -6c60 0 98 26 98 70c0 24 -12 44 -25 57l67 17c16 -15 32 -40 32 -74c0 -74 -70 -124 -170 -124c-26 0 -52 3 -77 10z" />
    <glyph glyph-name="caron.cap.alt" 
d="M297 481l-46 1c19 53 46 162 57 218h80c-19 -90 -44 -153 -91 -219z" />
    <glyph glyph-name="ampersand.cap" horiz-adv-x="759" 
d="M578 615l-50 -68c-30 22 -79 47 -136 47c-71 0 -122 -39 -122 -88c0 -45 43 -86 96 -146l152 -172c40 37 82 85 125 145l66 -36c-49 -67 -98 -120 -145 -162l120 -135h-113l-72 81c-98 -72 -185 -96 -246 -96c-78 0 -213 39 -213 191c0 132 103 188 186 218
c-28 37 -43 68 -43 107c0 104 108 170 219 170c77 0 137 -32 176 -56zM451 134l-181 205c-55 -20 -143 -59 -143 -156s88 -121 138 -121c44 0 111 19 186 72z" />
    <glyph glyph-name="zero.cap" horiz-adv-x="830" 
d="M73 295c0 207 187 376 390 376c180 0 316 -138 316 -312c0 -209 -189 -377 -393 -377c-178 0 -313 137 -313 313zM160 301c0 -134 99 -242 234 -242c156 0 298 132 298 293c0 133 -102 242 -238 242c-155 0 -294 -133 -294 -293z" />
    <glyph glyph-name="one.cap" horiz-adv-x="428" 
d="M75 495v70l212 88h87l-138 -653h-86l121 575z" />
    <glyph glyph-name="one.cap.alt" horiz-adv-x="433" 
d="M202 0h-87l139 653h87z" />
    <glyph glyph-name="two.cap" horiz-adv-x="677" 
d="M181 523l-36 65c77 43 157 84 262 84c96 0 252 -43 252 -179c0 -167 -208 -195 -308 -214c-119 -20 -207 -62 -236 -177l-8 -32h451l-16 -70h-535l23 104c36 162 180 226 333 252c64 11 208 32 208 127c0 86 -105 111 -169 111c-87 0 -154 -32 -221 -71z" />
    <glyph glyph-name="three.cap" horiz-adv-x="768" 
d="M201 513l-40 58c79 51 188 100 296 100c93 0 243 -55 243 -176c0 -68 -52 -127 -115 -146c43 -14 105 -59 105 -147c0 -158 -170 -220 -317 -220c-140 0 -271 52 -361 171l64 55c72 -97 180 -149 307 -149c101 0 222 37 222 142c0 80 -86 111 -123 111h-127l16 69h121
c58 0 117 36 117 97c0 83 -95 116 -159 116c-89 0 -180 -37 -249 -81z" />
    <glyph glyph-name="four.cap" horiz-adv-x="787" 
d="M735 225l-16 -69h-125l-33 -156h-87l33 156h-496l14 63l594 434h81l-92 -428h127zM155 229l-1 -4h367l68 318h-11c-139 -102 -286 -212 -423 -314z" />
    <glyph glyph-name="five.cap" horiz-adv-x="743" 
d="M698 653l-18 -77h-425l-36 -178c53 23 104 40 173 40c116 0 284 -49 284 -204c0 -179 -161 -253 -312 -253c-148 0 -257 53 -346 155l65 54c67 -85 169 -133 286 -133c92 0 220 41 220 169c0 107 -131 139 -217 139c-77 0 -139 -23 -196 -47l-46 46l62 289h506z" />
    <glyph glyph-name="six.cap" horiz-adv-x="763" 
d="M733 558l-66 -54c-52 59 -129 90 -210 90c-139 0 -269 -94 -298 -238c63 32 158 71 262 71c121 0 271 -57 271 -200c0 -155 -149 -245 -300 -245c-158 0 -318 106 -318 305c0 217 175 383 391 383c102 0 196 -37 268 -112zM401 357c-95 0 -190 -36 -247 -63
c1 -150 114 -239 244 -235c92 2 207 51 207 161c0 103 -119 137 -204 137z" />
    <glyph glyph-name="seven.cap" horiz-adv-x="645" 
d="M88 576l17 77h575l-17 -77l-487 -576h-114l501 576h-475z" />
    <glyph glyph-name="eight.cap" horiz-adv-x="764" 
d="M46 195c0 117 112 176 220 183c-67 19 -111 59 -111 124c0 133 162 171 260 171c106 0 287 -48 287 -184c0 -97 -83 -137 -170 -141c78 -22 149 -77 149 -166c0 -151 -188 -203 -305 -203c-122 0 -330 63 -330 216zM143 209c-10 -109 151 -153 238 -153
c69 0 207 29 207 131c0 105 -158 144 -240 144c-65 0 -197 -23 -205 -122zM248 497c0 -90 145 -108 208 -108c55 0 150 14 150 96c0 85 -117 119 -189 119c-60 0 -169 -22 -169 -107z" />
    <glyph glyph-name="nine.cap" horiz-adv-x="764" 
d="M54 94l66 55c52 -59 129 -90 210 -90c138 0 269 94 297 237c-62 -32 -158 -70 -260 -70c-122 0 -272 57 -272 200c0 155 150 244 300 244c158 0 318 -105 318 -304c0 -217 -176 -384 -392 -384c-102 0 -195 38 -267 112zM387 296c94 0 189 36 246 62
c-1 151 -115 240 -244 236c-92 -2 -207 -51 -207 -161c0 -104 119 -137 205 -137z" />
    <glyph glyph-name="exclamdown.cap" horiz-adv-x="343" 
d="M229 665c34 0 59 -24 59 -55c0 -35 -31 -64 -71 -64c-34 0 -60 25 -60 55c0 35 32 64 72 64zM218 451l-44 -293l-34 -158h-94l34 158l81 293h57z" />
    <glyph glyph-name="questiondown.cap" horiz-adv-x="596" 
d="M443 130l43 -55c-72 -53 -145 -92 -256 -92c-84 0 -211 31 -211 147c0 64 35 113 93 151c84 53 190 75 218 170h77c-24 -144 -165 -167 -245 -221c-31 -18 -63 -41 -63 -88c0 -68 79 -90 133 -90c89 0 151 33 211 78zM452 610c0 -35 -31 -64 -71 -64c-35 0 -60 25 -60 55
c0 35 32 64 71 64c35 0 60 -24 60 -55z" />
    <glyph glyph-name="guilsinglleft.cap" horiz-adv-x="321" 
d="M199 489h96l-152 -144l-1 -8l92 -135h-88l-81 122l7 42z" />
    <glyph glyph-name="guilsinglright.cap" horiz-adv-x="324" 
d="M152 202h-97l153 144l1 8l-93 135h89l81 -122l-7 -42z" />
    <glyph glyph-name="guillemotleft.cap" horiz-adv-x="560" 
d="M199 489h97l-152 -144l-1 -8l92 -135h-89l-82 122l9 42zM438 489h96l-152 -144l-1 -8l92 -135h-88l-93 138l2 10z" />
    <glyph glyph-name="guillemotright.cap" horiz-adv-x="563" 
d="M390 202h-96l152 144l1 8l-92 135h88l83 -122l-9 -42zM152 202h-97l153 144l1 8l-93 135h89l92 -138l-1 -10z" />
    <glyph glyph-name="hyphen.cap" horiz-adv-x="394" 
d="M77 315l13 78h257l-13 -78h-257z" />
    <glyph glyph-name="endash.cap" horiz-adv-x="631" 
d="M77 322l13 71h494l-13 -71h-494z" />
    <glyph glyph-name="emdash.cap" horiz-adv-x="1111" 
d="M77 322l13 71h974l-13 -71h-974z" />
    <glyph glyph-name="parenleft.cap" horiz-adv-x="380" 
d="M287 -65l-54 -48c-116 79 -177 218 -177 361c0 217 139 415 358 502l31 -58c-174 -68 -303 -248 -303 -441c0 -125 52 -250 145 -316z" />
    <glyph glyph-name="parenright.cap" horiz-adv-x="379" 
d="M111 702l54 48c116 -79 177 -219 177 -361c0 -217 -139 -415 -359 -502l-31 57c174 69 303 248 303 442c0 125 -51 249 -144 316z" />
    <glyph glyph-name="bracketleft.cap" horiz-adv-x="354" 
d="M250 -31l-15 -70h-217l179 843h218l-15 -70h-138l-150 -703h138z" />
    <glyph glyph-name="bracketright.cap" horiz-adv-x="354" 
d="M124 672l15 70h217l-179 -843h-218l15 70h139l149 703h-138z" />
    <glyph glyph-name="braceleft.cap" horiz-adv-x="381" 
d="M278 -31l-15 -70c-126 0 -175 17 -175 93c0 20 3 42 9 69l27 127c2 13 3 24 3 34c0 57 -43 71 -93 71l15 72c58 0 123 43 137 110l22 103c29 137 81 165 234 165l-15 -70c-92 0 -122 -14 -140 -95l-22 -103c-18 -84 -85 -138 -144 -142c0 -2 -1 -5 -1 -8
c48 -1 89 -20 89 -87c0 -15 -2 -31 -6 -50l-27 -127c-3 -16 -5 -29 -5 -40c1 -43 31 -52 107 -52z" />
    <glyph glyph-name="braceright.cap" horiz-adv-x="381" 
d="M-41 -101l15 70c89 0 123 14 140 92l27 127c23 108 82 136 143 137l1 8c-49 3 -88 43 -88 106c0 11 1 24 4 36l22 103c3 15 5 28 5 39c0 47 -33 56 -105 56l15 70c123 0 172 -18 172 -96c0 -19 -2 -42 -8 -69l-22 -103c-1 -8 -3 -16 -3 -23c0 -54 42 -87 94 -87l-15 -72
c-59 0 -117 -20 -135 -105l-28 -127c-30 -135 -79 -162 -234 -162z" />
    <glyph glyph-name="bullet.cap" horiz-adv-x="477" 
d="M251 197c-87 0 -159 67 -159 151s72 151 159 151s159 -67 159 -151s-72 -151 -159 -151z" />
    <glyph glyph-name="at.cap" horiz-adv-x="986" 
d="M688 511h72l-118 -273c-4 -9 -6 -16 -6 -27c0 -31 19 -48 51 -48c78 0 205 104 205 251c0 138 -112 242 -298 242c-233 0 -455 -161 -455 -397c0 -204 173 -300 338 -300c92 0 208 29 262 56l16 -52c-55 -30 -180 -66 -288 -66c-190 0 -400 114 -400 358
c0 275 262 463 533 463c221 0 357 -126 357 -296c0 -193 -175 -321 -294 -321c-57 0 -92 29 -92 76v10c-52 -55 -113 -85 -169 -85c-65 0 -124 43 -124 140c0 162 158 287 267 287c64 0 104 -44 110 -93zM429 172c40 0 92 22 142 71l53 122c-4 50 -36 95 -85 95
c-69 0 -182 -81 -182 -202c0 -60 31 -86 72 -86z" />
    <glyph glyph-name="copyright.cap" horiz-adv-x="1017" 
d="M509 -101c-244 0 -444 182 -444 409c0 228 200 410 444 410c242 0 442 -182 442 -410c0 -227 -200 -409 -442 -409zM509 -46c208 0 377 159 377 354c0 194 -169 355 -377 355s-379 -161 -379 -355c0 -195 171 -354 379 -354zM709 453l-30 -53c-47 42 -107 63 -167 63
c-99 0 -165 -69 -165 -154s75 -141 168 -141c82 0 126 27 169 59l30 -53c-49 -38 -100 -68 -199 -68c-132 0 -241 80 -241 203c0 121 94 217 238 217c72 0 146 -32 197 -73z" />
    <glyph glyph-name="soundrecordingcopyright.cap" horiz-adv-x="1017" 
d="M951 309c0 -228 -200 -410 -444 -410s-442 182 -442 410s199 409 442 409c244 0 444 -181 444 -409zM886 310c0 195 -172 353 -379 353c-209 0 -377 -159 -377 -353c0 -195 168 -356 377 -356c207 0 379 160 379 356zM584 242h-166v-117h-72v385h211
c73 0 183 -20 183 -130c0 -95 -81 -138 -156 -138zM418 448v-143h166c38 0 83 20 83 74c0 55 -53 69 -92 69h-157z" />
    <glyph glyph-name="dollar.cap" horiz-adv-x="732" 
d="M680 549l-62 -51c-35 45 -90 73 -149 87l-44 -207c107 -22 231 -57 231 -184c0 -140 -122 -212 -279 -212c-12 0 -24 1 -36 2l-30 -144h-59l32 151c-104 20 -191 76 -255 159l62 50c51 -68 121 -117 208 -136l53 246c-114 26 -223 56 -223 171c0 130 116 189 246 189
c17 0 35 -1 53 -3l24 114h59l-26 -124c73 -17 142 -52 195 -108zM571 176c0 74 -70 103 -163 122l-51 -242c10 -1 20 -1 31 -1c86 0 183 27 183 121zM214 498c0 -67 66 -90 155 -109l43 206c-16 2 -33 3 -49 3c-65 0 -149 -19 -149 -100z" />
    <glyph glyph-name="cent.cap" horiz-adv-x="597" 
d="M559 414l-63 -47c-24 28 -56 52 -94 64l-118 -376h17c64 0 118 33 155 60l41 -56c-22 -20 -97 -74 -199 -74c-12 0 -24 1 -35 2l-46 -147h-59l49 159c-95 29 -154 109 -154 222c0 152 129 291 290 291c8 0 17 -1 25 -1l34 107h59l-37 -117c53 -15 99 -44 135 -87z
M141 224c0 -69 33 -127 89 -154l116 372h-8c-111 0 -197 -105 -197 -218z" />
    <glyph glyph-name="Euro.cap" horiz-adv-x="817" 
d="M795 525l-68 -43c-53 65 -139 111 -234 111c-99 0 -188 -66 -233 -160h334l-12 -54h-342c-7 -27 -11 -55 -11 -83v-14h333l-12 -55h-313c25 -98 103 -167 204 -167c88 0 171 36 233 86l45 -58c-74 -59 -173 -105 -285 -105c-144 0 -264 94 -291 244h-93l12 55h76v9
c0 30 3 59 10 88h-66l12 54h72c55 136 184 237 330 237c117 0 230 -52 299 -145z" />
    <glyph glyph-name="sterling.cap" horiz-adv-x="743" 
d="M79 319l14 63h138l18 96c25 134 152 193 248 193c72 0 159 -33 228 -82l-57 -60c-57 38 -132 65 -185 65c-60 0 -133 -35 -148 -116l-18 -96h276l-14 -63h-273l-21 -115c-14 -78 -41 -119 -111 -134h469l-15 -70h-616l15 70h40c85 0 112 29 131 134l21 115h-140z" />
    <glyph glyph-name="yen.cap" horiz-adv-x="786" 
d="M84 379l13 54h190l-116 220h103l138 -270l256 270h109l-213 -220h191l-12 -54h-232l-70 -73l-10 -46l5 22h287l-12 -55h-288l-49 -227h-87l49 227h-283l12 55h283l6 25l-38 72h-232z" />
    <glyph glyph-name="florin.cap" horiz-adv-x="410" 
d="M65 382h113l42 133c37 117 131 157 197 157c44 0 90 -17 107 -33l-38 -66c-11 14 -49 29 -78 29c-44 0 -88 -27 -108 -88l-42 -132h137l-15 -63h-141l-100 -319c-43 -138 -145 -187 -228 -187l8 64c50 6 111 30 140 123l99 319h-108z" />
    <glyph glyph-name="colonmonetary.cap" horiz-adv-x="772" 
d="M757 529l-64 -41c-26 30 -59 57 -97 76l-158 -507c75 8 144 40 200 84l42 -55c-70 -55 -161 -98 -265 -103l-44 -143h-51l44 144c-35 3 -68 10 -99 21l-51 -165h-51l58 186c-92 51 -152 145 -152 265c0 190 157 357 352 377l35 113h51l-35 -112c34 -1 68 -6 101 -16
l40 128h51l-45 -144c54 -24 102 -60 138 -108zM155 297c0 -78 35 -146 91 -190l151 485c-134 -29 -242 -152 -242 -295zM289 80c29 -14 62 -23 98 -25l164 527c-30 10 -63 16 -96 16h-5z" />
    <glyph glyph-name="franc.cap" horiz-adv-x="716" 
d="M33 152l13 55h103l96 446h501l-18 -77h-414l-35 -169h255l-18 -76h-254l-27 -124h181l-12 -55h-180l-32 -152h-87l32 152h-104z" />
    <glyph glyph-name="lira.cap" horiz-adv-x="750" 
d="M99 379l12 54h136l9 45c25 134 149 193 247 193c76 0 162 -34 229 -82l-58 -60c-57 38 -131 65 -184 65c-60 0 -134 -35 -149 -116l-8 -45h278l-12 -54h-276l-17 -97h273l-12 -55h-271l-4 -23c-14 -78 -42 -119 -111 -134h469l-15 -70h-616l15 70h40c84 0 111 29 131 134
l4 23h-142l12 55h140l18 97h-138z" />
    <glyph glyph-name="peso.cap" horiz-adv-x="827" 
d="M71 406l13 54h104l42 193h305c64 0 116 -16 154 -56c34 -37 51 -86 51 -137h95l-12 -54h-90c-10 -45 -34 -89 -70 -124c-43 -42 -104 -69 -195 -69h-247l-44 -213h-87l87 406h-106zM602 331c21 20 36 46 44 75h-383l-24 -115h240c60 0 97 16 123 40zM298 576l-24 -116
h379c-2 32 -13 58 -34 81c-17 18 -43 35 -101 35h-220z" />
    <glyph glyph-name="peseta.cap" horiz-adv-x="1584" 
d="M139 0h-86l139 653h341c73 0 118 -16 154 -52c34 -35 52 -78 52 -127v-5h77l31 142h80l-30 -142h141l-13 -62h-141l-59 -280c-3 -10 -5 -22 -5 -30c0 -30 23 -44 58 -44c21 0 61 6 78 13l-4 -63c-22 -12 -71 -20 -104 -20c-54 0 -110 23 -110 98c0 12 2 26 5 40l60 286
h-77c-11 -28 -29 -52 -51 -73c-48 -46 -108 -68 -197 -68h-282zM1519 407l-44 -57c-45 40 -122 69 -184 69c-51 0 -105 -20 -105 -65c0 -47 55 -59 112 -69c89 -15 198 -35 198 -143c0 -103 -98 -157 -215 -157c-90 0 -183 33 -249 97l43 57c53 -52 133 -88 209 -88
c60 0 130 22 130 82c0 54 -56 66 -118 77c-93 16 -191 32 -191 134c0 91 82 142 188 142c81 0 167 -30 226 -79zM262 576l-49 -233h270c57 0 104 13 136 44c22 22 34 50 34 81c0 29 -10 58 -31 78c-25 25 -62 30 -98 30h-262z" />
    <glyph glyph-name="rupiah.cap" horiz-adv-x="1356" 
d="M814 -210h-80l119 558c15 72 17 108 16 121h74c1 -21 -2 -44 -5 -66c31 30 92 81 175 81c116 0 192 -95 192 -212c0 -140 -107 -285 -260 -286c-67 0 -126 26 -172 80zM931 334l-43 -205c31 -38 88 -74 150 -73c104 0 178 101 178 207c0 79 -44 151 -127 151
c-54 0 -108 -30 -158 -80zM145 0h-87l139 653h346c69 0 119 -16 156 -53c33 -34 50 -79 50 -125c0 -97 -80 -183 -194 -201l101 -274h-95l-93 266h-267zM267 576l-49 -233h298c79 0 147 51 147 127c0 23 -6 51 -30 74s-51 32 -106 32h-260z" />
    <glyph glyph-name="Rupee.cap" horiz-adv-x="821" 
d="M136 406l12 54h463c-2 33 -14 59 -33 80c-18 19 -45 36 -103 36h-304l17 77h648l-12 -55h-199c15 -5 23 -11 29 -17c31 -33 45 -75 45 -121h96l-12 -54h-91c-10 -45 -34 -89 -71 -124c-43 -37 -104 -62 -195 -62l-165 8l319 -228h-142l-339 234l13 57h325
c61 0 97 16 123 40c21 20 36 46 44 75h-468z" />
    <glyph glyph-name="section.cap" horiz-adv-x="737" 
d="M592 81c-25 -20 -54 -33 -89 -44c5 -6 10 -14 14 -23c5 -11 7 -24 7 -39c0 -113 -109 -158 -213 -158c-88 0 -174 33 -239 90l50 55c49 -44 115 -74 191 -74c53 0 124 15 124 81c0 12 -3 20 -8 27c-21 30 -82 39 -137 53c-70 17 -170 49 -215 116c-15 23 -25 54 -25 87
c0 58 28 112 79 154c25 22 59 36 90 46c-7 7 -12 14 -15 23c-4 9 -6 25 -6 40c0 112 115 158 217 158c83 0 171 -33 235 -91l-50 -54c-50 45 -120 76 -192 76c-51 0 -113 -16 -122 -76c-2 -15 0 -23 6 -32c18 -27 69 -38 138 -55c68 -16 172 -49 216 -117
c16 -23 25 -52 25 -85c0 -61 -32 -118 -81 -158zM414 366c-44 11 -107 23 -151 48c-15 -4 -37 -13 -60 -33c-34 -28 -63 -69 -63 -117c0 -24 7 -43 17 -58c30 -47 93 -68 151 -83c53 -13 109 -21 154 -46c14 3 34 10 58 30c36 30 65 71 65 118c0 24 -7 43 -17 58
c-28 44 -92 68 -154 83z" />
    <glyph glyph-name="numbersign.cap" horiz-adv-x="896" 
d="M664 709h65l-59 -213h217l-14 -63h-221l-64 -235h206l-14 -63h-210l-67 -246h-65l68 246h-198l-68 -246h-65l68 246h-216l13 63h220l65 235h-206l14 63h210l59 213h65l-59 -213h197zM390 433l-65 -235h198l65 235h-198z" />
    <glyph glyph-name="percent.cap" horiz-adv-x="1113" 
d="M821 653l-439 -653h-69l440 653h68zM632 160c0 109 103 203 222 203c105 0 185 -79 185 -174c0 -110 -107 -203 -225 -203c-105 0 -182 77 -182 174zM707 164c0 -61 48 -112 114 -112c75 0 143 61 143 132c0 62 -51 112 -117 112c-75 0 -140 -60 -140 -132zM96 464
c0 109 103 203 222 203c105 0 185 -79 185 -174c0 -110 -107 -203 -225 -203c-105 0 -182 77 -182 174zM171 469c0 -61 48 -112 114 -112c75 0 143 61 143 132c0 62 -51 112 -117 112c-75 0 -140 -60 -140 -132z" />
    <glyph glyph-name="perthousand.cap" horiz-adv-x="1569" 
d="M822 653l-439 -653h-69l439 653h69zM633 160c0 109 103 203 222 203c105 0 185 -79 185 -174c0 -110 -108 -203 -225 -203c-105 0 -182 77 -182 174zM708 164c0 -61 48 -112 113 -112c75 0 144 61 144 132c0 62 -52 112 -117 112c-75 0 -140 -60 -140 -132zM1090 160
c0 109 103 203 222 203c105 0 185 -79 185 -174c0 -110 -107 -203 -225 -203c-105 0 -182 77 -182 174zM1165 164c0 -61 48 -112 114 -112c75 0 143 61 143 132c0 62 -51 112 -117 112c-75 0 -140 -60 -140 -132zM97 464c0 109 103 203 222 203c105 0 185 -79 185 -174
c0 -110 -108 -203 -225 -203c-105 0 -182 77 -182 174zM172 469c0 -61 48 -112 114 -112c75 0 143 61 143 132c0 62 -52 112 -117 112c-75 0 -140 -60 -140 -132z" />
    <glyph glyph-name="aacute" unicode="&#xe1;" horiz-adv-x="599" 
d="M134 376l-15 68c39 18 108 40 181 40c86 0 224 -31 225 -130c0 -21 -7 -44 -13 -76l-41 -198c-6 -26 -10 -51 -6 -80h-80c-3 18 -1 42 2 59c-38 -30 -105 -69 -186 -69c-90 0 -180 48 -180 150c0 106 101 164 214 164c52 0 136 -13 187 -68l16 67c2 12 3 20 3 27
c0 62 -79 85 -143 85s-131 -22 -164 -39zM230 55c85 1 157 54 167 64l11 56c-36 50 -115 67 -168 67c-71 0 -138 -29 -138 -96c0 -64 64 -91 128 -91zM372 546l-72 1l86 146l91 -1z" />
    <glyph glyph-name="agrave" unicode="&#xe0;" horiz-adv-x="599" 
d="M134 376l-15 68c39 18 108 40 181 40c86 0 224 -31 225 -130c0 -21 -7 -44 -13 -76l-41 -198c-6 -26 -10 -51 -6 -80h-80c-3 18 -1 42 2 59c-38 -30 -105 -69 -186 -69c-90 0 -180 48 -180 150c0 106 101 164 214 164c52 0 136 -13 187 -68l16 67c2 12 3 20 3 27
c0 62 -79 85 -143 85s-131 -22 -164 -39zM230 55c85 1 157 54 167 64l11 56c-36 50 -115 67 -168 67c-71 0 -138 -29 -138 -96c0 -64 64 -91 128 -91zM415 547l-72 -1l-104 146l91 1z" />
    <glyph glyph-name="acircumflex" unicode="&#xe2;" horiz-adv-x="599" 
d="M134 376l-15 68c39 18 108 40 181 40c86 0 224 -31 225 -130c0 -21 -7 -44 -13 -76l-41 -198c-6 -26 -10 -51 -6 -80h-80c-3 18 -1 42 2 59c-38 -30 -105 -69 -186 -69c-90 0 -180 48 -180 150c0 106 101 164 214 164c52 0 136 -13 187 -68l16 67c2 12 3 20 3 27
c0 62 -79 85 -143 85s-131 -22 -164 -39zM230 55c85 1 157 54 167 64l11 56c-36 50 -115 67 -168 67c-71 0 -138 -29 -138 -96c0 -64 64 -91 128 -91zM273 547l-66 2l134 130h89l79 -131l-62 -1l-68 86z" />
    <glyph glyph-name="adieresis" unicode="&#xe4;" horiz-adv-x="599" 
d="M134 376l-15 68c39 18 108 40 181 40c86 0 224 -31 225 -130c0 -21 -7 -44 -13 -76l-41 -198c-6 -26 -10 -51 -6 -80h-80c-3 18 -1 42 2 59c-38 -30 -105 -69 -186 -69c-90 0 -180 48 -180 150c0 106 101 164 214 164c52 0 136 -13 187 -68l16 67c2 12 3 20 3 27
c0 62 -79 85 -143 85s-131 -22 -164 -39zM230 55c85 1 157 54 167 64l11 56c-36 50 -115 67 -168 67c-71 0 -138 -29 -138 -96c0 -64 64 -91 128 -91zM220 601c0 27 24 51 54 51c27 0 45 -21 45 -43c0 -28 -25 -49 -55 -49c-26 0 -44 18 -44 41zM421 601c0 27 24 51 54 51
c27 0 46 -21 46 -43c0 -28 -25 -49 -55 -49c-27 0 -45 18 -45 41z" />
    <glyph glyph-name="atilde" unicode="&#xe3;" horiz-adv-x="599" 
d="M134 376l-15 68c39 18 108 40 181 40c86 0 224 -31 225 -130c0 -21 -7 -44 -13 -76l-41 -198c-6 -26 -10 -51 -6 -80h-80c-3 18 -1 42 2 59c-38 -30 -105 -69 -186 -69c-90 0 -180 48 -180 150c0 106 101 164 214 164c52 0 136 -13 187 -68l16 67c2 12 3 20 3 27
c0 62 -79 85 -143 85s-131 -22 -164 -39zM230 55c85 1 157 54 167 64l11 56c-36 50 -115 67 -168 67c-71 0 -138 -29 -138 -96c0 -64 64 -91 128 -91zM494 647l43 -27c-39 -50 -78 -80 -119 -80c-28 0 -49 12 -65 26c-18 16 -30 29 -48 29c-24 0 -44 -25 -64 -46l-47 28
c45 55 81 79 120 79c26 0 43 -11 63 -28c16 -14 31 -27 51 -27c24 0 46 24 66 46z" />
    <glyph glyph-name="aring" unicode="&#xe5;" horiz-adv-x="599" 
d="M134 376l-15 68c39 18 108 40 181 40c86 0 224 -31 225 -130c0 -21 -7 -44 -13 -76l-41 -198c-6 -26 -10 -51 -6 -80h-80c-3 18 -1 42 2 59c-38 -30 -105 -69 -186 -69c-90 0 -180 48 -180 150c0 106 101 164 214 164c52 0 136 -13 187 -68l16 67c2 12 3 20 3 27
c0 62 -79 85 -143 85s-131 -22 -164 -39zM230 55c85 1 157 54 167 64l11 56c-36 50 -115 67 -168 67c-71 0 -138 -29 -138 -96c0 -64 64 -91 128 -91zM367 576c44 0 77 27 77 64c0 32 -25 57 -64 57c-44 0 -77 -30 -77 -68c0 -31 25 -53 64 -53zM363 538
c-71 0 -109 40 -109 88c0 57 48 107 130 107c71 0 110 -40 110 -90c0 -57 -50 -105 -131 -105z" />
    <glyph glyph-name="abreve" unicode="&#x103;" horiz-adv-x="599" 
d="M134 376l-15 68c39 18 108 40 181 40c86 0 224 -31 225 -130c0 -21 -7 -44 -13 -76l-41 -198c-6 -26 -10 -51 -6 -80h-80c-3 18 -1 42 2 59c-38 -30 -105 -69 -186 -69c-90 0 -180 48 -180 150c0 106 101 164 214 164c52 0 136 -13 187 -68l16 67c2 12 3 20 3 27
c0 62 -79 85 -143 85s-131 -22 -164 -39zM230 55c85 1 157 54 167 64l11 56c-36 50 -115 67 -168 67c-71 0 -138 -29 -138 -96c0 -64 64 -91 128 -91zM245 676h57c-8 -38 -3 -83 64 -83c68 0 91 45 98 83h61c-12 -59 -54 -138 -168 -138c-115 0 -124 79 -112 138z" />
    <glyph glyph-name="amacron" unicode="&#x101;" horiz-adv-x="599" 
d="M134 376l-15 68c39 18 108 40 181 40c86 0 224 -31 225 -130c0 -21 -7 -44 -13 -76l-41 -198c-6 -26 -10 -51 -6 -80h-80c-3 18 -1 42 2 59c-38 -30 -105 -69 -186 -69c-90 0 -180 48 -180 150c0 106 101 164 214 164c52 0 136 -13 187 -68l16 67c2 12 3 20 3 27
c0 62 -79 85 -143 85s-131 -22 -164 -39zM230 55c85 1 157 54 167 64l11 56c-36 50 -115 67 -168 67c-71 0 -138 -29 -138 -96c0 -64 64 -91 128 -91zM491 576h-255l13 63h255z" />
    <glyph glyph-name="aogonek" unicode="&#x105;" horiz-adv-x="599" 
d="M134 376l-15 68c39 18 108 40 181 40c86 0 224 -31 225 -130c0 -21 -7 -44 -13 -76l-41 -198c-6 -26 -10 -51 -6 -80c-40 -16 -146 -60 -146 -124c0 -30 27 -49 71 -49c20 0 43 4 67 8l-4 -50c-29 -7 -60 -11 -87 -11c-76 0 -121 32 -121 81c0 69 78 119 139 147
c-2 18 0 41 3 57c-38 -30 -105 -69 -186 -69c-90 0 -180 48 -180 150c0 106 101 164 214 164c52 0 136 -13 187 -68l16 67c2 12 3 20 3 27c0 62 -79 85 -143 85s-131 -22 -164 -39zM230 55c85 1 157 54 167 64l11 56c-36 50 -115 67 -168 67c-71 0 -138 -29 -138 -96
c0 -64 64 -91 128 -91z" />
    <glyph glyph-name="aringacute" unicode="&#x1fb;" horiz-adv-x="599" 
d="M134 376l-15 68c39 18 108 40 181 40c86 0 224 -31 225 -130c0 -21 -7 -44 -13 -76l-41 -198c-6 -26 -10 -51 -6 -80h-80c-3 18 -1 42 2 59c-38 -30 -105 -69 -186 -69c-90 0 -180 48 -180 150c0 106 101 164 214 164c52 0 136 -13 187 -68l16 67c2 12 3 20 3 27
c0 62 -79 85 -143 85s-131 -22 -164 -39zM230 55c85 1 157 54 167 64l11 56c-36 50 -115 67 -168 67c-71 0 -138 -29 -138 -96c0 -64 64 -91 128 -91zM367 576c44 0 77 27 77 64c0 32 -25 57 -64 57c-44 0 -77 -30 -77 -68c0 -31 25 -53 64 -53zM363 538
c-71 0 -109 40 -109 88c0 57 48 107 130 107c71 0 110 -40 110 -90c0 -57 -50 -105 -131 -105zM408 773l-75 2l120 123l103 -2z" />
    <glyph glyph-name="ccedilla" unicode="&#xe7;" horiz-adv-x="558" 
d="M30 -186l22 43c47 -16 96 -34 146 -34c46 0 80 14 80 42c0 25 -26 36 -61 36c-13 0 -27 -2 -38 -2l-17 27l47 69c-99 25 -162 104 -162 217c0 142 123 272 279 272c82 0 157 -32 210 -92l-63 -47c-35 40 -90 69 -152 69c-105 0 -186 -97 -186 -201
c0 -86 62 -157 154 -157c61 0 114 29 148 55l41 -56c-21 -19 -96 -69 -198 -69c-7 0 -14 0 -21 1l-34 -52c9 1 21 2 32 2c46 0 94 -25 94 -73c0 -58 -66 -90 -151 -90c-67 0 -118 21 -170 40z" />
    <glyph glyph-name="cacute" unicode="&#x107;" horiz-adv-x="558" 
d="M536 392l-63 -47c-35 40 -90 69 -152 69c-105 0 -186 -97 -186 -201c0 -86 62 -157 154 -157c61 0 114 29 148 55l41 -56c-21 -19 -96 -69 -198 -69c-138 0 -233 88 -233 226c0 142 123 272 279 272c82 0 157 -32 210 -92zM376 546l-72 1l86 146l91 -1z" />
    <glyph glyph-name="ccaron" unicode="&#x10d;" horiz-adv-x="558" 
d="M536 392l-63 -47c-35 40 -90 69 -152 69c-105 0 -186 -97 -186 -201c0 -86 62 -157 154 -157c61 0 114 29 148 55l41 -56c-21 -19 -96 -69 -198 -69c-138 0 -233 88 -233 226c0 142 123 272 279 272c82 0 157 -32 210 -92zM475 680l66 -2l-135 -131h-88l-79 131l62 1
l68 -86z" />
    <glyph glyph-name="ccircumflex" unicode="&#x109;" horiz-adv-x="558" 
d="M536 392l-63 -47c-35 40 -90 69 -152 69c-105 0 -186 -97 -186 -201c0 -86 62 -157 154 -157c61 0 114 29 148 55l41 -56c-21 -19 -96 -69 -198 -69c-138 0 -233 88 -233 226c0 142 123 272 279 272c82 0 157 -32 210 -92zM277 547l-66 2l134 130h89l79 -131l-62 -1
l-68 86z" />
    <glyph glyph-name="cdotaccent" unicode="&#x10b;" horiz-adv-x="558" 
d="M536 392l-63 -47c-35 40 -90 69 -152 69c-105 0 -186 -97 -186 -201c0 -86 62 -157 154 -157c61 0 114 29 148 55l41 -56c-21 -19 -96 -69 -198 -69c-138 0 -233 88 -233 226c0 142 123 272 279 272c82 0 157 -32 210 -92zM326 601c0 27 24 51 54 51c27 0 45 -21 45 -43
c0 -28 -24 -49 -55 -49c-26 0 -44 18 -44 41z" />
    <glyph glyph-name="dcaron" unicode="&#x10f;" horiz-adv-x="624" 
d="M262 56c36 0 91 12 159 81l43 205c-31 39 -88 72 -152 72c-107 -1 -177 -106 -177 -207c0 -78 44 -151 127 -151zM406 0c-1 20 4 49 8 68c-32 -31 -92 -82 -177 -82c-115 0 -191 95 -191 212c0 138 107 285 260 286c73 0 128 -31 172 -81l63 297h79l-123 -581
c-9 -44 -16 -79 -17 -119h-74zM680 481l-45 1c23 75 44 155 57 218h80c-19 -90 -44 -153 -92 -219z" />
    <glyph glyph-name="dcroat" unicode="&#x111;" horiz-adv-x="624" 
d="M541 700h79l-19 -87h81l-12 -54h-80l-93 -440c-9 -44 -16 -79 -17 -119h-74c-1 20 4 49 8 68c-32 -31 -92 -82 -177 -82c-115 0 -191 95 -191 212c0 138 107 285 260 286c73 0 128 -31 172 -81l33 156h-152l11 54h152zM262 56c36 0 91 12 159 81l43 205
c-31 39 -88 72 -152 72c-107 -1 -177 -106 -177 -207c0 -78 44 -151 127 -151z" />
    <glyph glyph-name="eacute" unicode="&#xe9;" horiz-adv-x="590" 
d="M445 109l42 -56c-59 -36 -130 -67 -225 -67c-134 0 -215 97 -215 219c0 154 124 279 272 279c116 0 217 -64 217 -206c0 -16 -1 -34 -5 -54h-404v-13c0 -85 58 -155 150 -155c71 0 125 27 168 53zM319 417c-86 0 -153 -55 -179 -130h310c7 85 -55 130 -131 130zM366 546
l-72 1l86 146l91 -1z" />
    <glyph glyph-name="egrave" unicode="&#xe8;" horiz-adv-x="590" 
d="M445 109l42 -56c-59 -36 -130 -67 -225 -67c-134 0 -215 97 -215 219c0 154 124 279 272 279c116 0 217 -64 217 -206c0 -16 -1 -34 -5 -54h-404v-13c0 -85 58 -155 150 -155c71 0 125 27 168 53zM319 417c-86 0 -153 -55 -179 -130h310c7 85 -55 130 -131 130zM409 547
l-72 -1l-104 146l91 1z" />
    <glyph glyph-name="ecircumflex" unicode="&#xea;" horiz-adv-x="590" 
d="M445 109l42 -56c-59 -36 -130 -67 -225 -67c-134 0 -215 97 -215 219c0 154 124 279 272 279c116 0 217 -64 217 -206c0 -16 -1 -34 -5 -54h-404v-13c0 -85 58 -155 150 -155c71 0 125 27 168 53zM319 417c-86 0 -153 -55 -179 -130h310c7 85 -55 130 -131 130zM267 547
l-66 2l134 130h89l79 -131l-62 -1l-68 86z" />
    <glyph glyph-name="edieresis" unicode="&#xeb;" horiz-adv-x="590" 
d="M445 109l42 -56c-59 -36 -130 -67 -225 -67c-134 0 -215 97 -215 219c0 154 124 279 272 279c116 0 217 -64 217 -206c0 -16 -1 -34 -5 -54h-404v-13c0 -85 58 -155 150 -155c71 0 125 27 168 53zM319 417c-86 0 -153 -55 -179 -130h310c7 85 -55 130 -131 130zM214 601
c0 27 24 51 54 51c27 0 45 -21 45 -43c0 -28 -25 -49 -55 -49c-26 0 -44 18 -44 41zM415 601c0 27 24 51 54 51c27 0 46 -21 46 -43c0 -28 -25 -49 -55 -49c-27 0 -45 18 -45 41z" />
    <glyph glyph-name="ebreve" unicode="&#x115;" horiz-adv-x="590" 
d="M445 109l42 -56c-59 -36 -130 -67 -225 -67c-134 0 -215 97 -215 219c0 154 124 279 272 279c116 0 217 -64 217 -206c0 -16 -1 -34 -5 -54h-404v-13c0 -85 58 -155 150 -155c71 0 125 27 168 53zM319 417c-86 0 -153 -55 -179 -130h310c7 85 -55 130 -131 130zM239 676
h57c-8 -38 -3 -83 64 -83c68 0 91 45 98 83h61c-12 -59 -54 -138 -168 -138c-115 0 -124 79 -112 138z" />
    <glyph glyph-name="ecaron" unicode="&#x11b;" horiz-adv-x="590" 
d="M445 109l42 -56c-59 -36 -130 -67 -225 -67c-134 0 -215 97 -215 219c0 154 124 279 272 279c116 0 217 -64 217 -206c0 -16 -1 -34 -5 -54h-404v-13c0 -85 58 -155 150 -155c71 0 125 27 168 53zM319 417c-86 0 -153 -55 -179 -130h310c7 85 -55 130 -131 130zM465 680
l66 -2l-135 -131h-88l-79 131l62 1l68 -86z" />
    <glyph glyph-name="edotaccent" unicode="&#x117;" horiz-adv-x="590" 
d="M445 109l42 -56c-59 -36 -130 -67 -225 -67c-134 0 -215 97 -215 219c0 154 124 279 272 279c116 0 217 -64 217 -206c0 -16 -1 -34 -5 -54h-404v-13c0 -85 58 -155 150 -155c71 0 125 27 168 53zM319 417c-86 0 -153 -55 -179 -130h310c7 85 -55 130 -131 130zM316 601
c0 27 24 51 54 51c27 0 45 -21 45 -43c0 -28 -24 -49 -55 -49c-26 0 -44 18 -44 41z" />
    <glyph glyph-name="emacron" unicode="&#x113;" horiz-adv-x="590" 
d="M445 109l42 -56c-59 -36 -130 -67 -225 -67c-134 0 -215 97 -215 219c0 154 124 279 272 279c116 0 217 -64 217 -206c0 -16 -1 -34 -5 -54h-404v-13c0 -85 58 -155 150 -155c71 0 125 27 168 53zM319 417c-86 0 -153 -55 -179 -130h310c7 85 -55 130 -131 130zM485 576
h-255l13 63h255z" />
    <glyph glyph-name="eogonek" unicode="&#x119;" horiz-adv-x="590" 
d="M445 109l42 -56c-36 -22 -77 -42 -124 -54c-43 -17 -142 -61 -142 -123c0 -30 27 -49 71 -49c20 0 43 4 67 8l-4 -50c-29 -7 -60 -11 -87 -11c-76 0 -121 32 -121 81c0 57 54 102 107 131c-129 4 -207 99 -207 219c0 154 124 279 272 279c116 0 217 -64 217 -206
c0 -16 -1 -34 -5 -54h-404v-13c0 -85 58 -155 150 -155c71 0 125 27 168 53zM319 417c-86 0 -153 -55 -179 -130h310c7 85 -55 130 -131 130z" />
    <glyph glyph-name="gbreve" unicode="&#x11f;" horiz-adv-x="624" 
d="M509 469h74c-18 -40 -29 -81 -37 -119l-86 -402c-24 -112 -118 -175 -240 -175c-81 0 -161 25 -215 82l43 55c39 -45 109 -70 177 -70c92 0 143 50 157 116l24 107c-48 -46 -102 -77 -169 -77c-116 0 -191 93 -191 213c0 145 108 284 257 285c79 1 144 -37 179 -90
c5 23 15 54 27 75zM258 56c51 0 113 26 163 80l43 203c-31 41 -91 75 -154 75c-106 -1 -176 -103 -176 -210c0 -84 46 -148 124 -148zM253 676h57c-8 -38 -3 -83 64 -83c68 0 91 45 98 83h61c-12 -59 -54 -138 -168 -138c-115 0 -124 79 -112 138z" />
    <glyph glyph-name="gcircumflex" unicode="&#x11d;" horiz-adv-x="624" 
d="M509 469h74c-18 -40 -29 -81 -37 -119l-86 -402c-24 -112 -118 -175 -240 -175c-81 0 -161 25 -215 82l43 55c39 -45 109 -70 177 -70c92 0 143 50 157 116l24 107c-48 -46 -102 -77 -169 -77c-116 0 -191 93 -191 213c0 145 108 284 257 285c79 1 144 -37 179 -90
c5 23 15 54 27 75zM258 56c51 0 113 26 163 80l43 203c-31 41 -91 75 -154 75c-106 -1 -176 -103 -176 -210c0 -84 46 -148 124 -148zM281 547l-66 2l134 130h89l79 -131l-62 -1l-68 86z" />
    <glyph glyph-name="uni0123" unicode="&#x123;" horiz-adv-x="624" 
d="M514 734l-10 -50c-17 3 -35 4 -50 4c-54 0 -88 -24 -88 -71c0 -25 14 -45 30 -61l-68 -15c-18 17 -37 41 -37 76c0 72 66 123 166 123c20 0 37 -1 57 -6zM509 469h74c-18 -40 -29 -81 -37 -119l-86 -402c-24 -112 -118 -175 -240 -175c-81 0 -161 25 -215 82l43 55
c39 -45 109 -70 177 -70c92 0 143 50 157 116l24 107c-48 -46 -102 -77 -169 -77c-116 0 -191 93 -191 213c0 145 108 284 257 285c79 1 144 -37 179 -90c5 23 15 54 27 75zM258 56c51 0 113 26 163 80l43 203c-31 41 -91 75 -154 75c-106 -1 -176 -103 -176 -210
c0 -84 46 -148 124 -148z" />
    <glyph glyph-name="gdotaccent" unicode="&#x121;" horiz-adv-x="624" 
d="M509 469h74c-18 -40 -29 -81 -37 -119l-86 -402c-24 -112 -118 -175 -240 -175c-81 0 -161 25 -215 82l43 55c39 -45 109 -70 177 -70c92 0 143 50 157 116l24 107c-48 -46 -102 -77 -169 -77c-116 0 -191 93 -191 213c0 145 108 284 257 285c79 1 144 -37 179 -90
c5 23 15 54 27 75zM258 56c51 0 113 26 163 80l43 203c-31 41 -91 75 -154 75c-106 -1 -176 -103 -176 -210c0 -84 46 -148 124 -148zM330 601c0 27 24 51 54 51c27 0 45 -21 45 -43c0 -28 -24 -49 -55 -49c-26 0 -44 18 -44 41z" />
    <glyph glyph-name="hbar" unicode="&#x127;" horiz-adv-x="604" 
d="M74 559l12 54h78l19 87h80l-19 -87h153l-12 -54h-153l-32 -152c45 38 104 77 171 77c86 0 155 -60 155 -151c0 -23 -4 -42 -10 -69l-56 -264h-80l57 273c5 20 9 42 9 57c0 51 -47 84 -103 84c-61 0 -117 -40 -158 -81l-71 -333h-80l119 559h-79z" />
    <glyph glyph-name="hcircumflex" unicode="&#x125;" horiz-adv-x="604" 
d="M34 0l149 700h80l-63 -293c45 38 104 77 171 77c86 0 155 -60 155 -151c0 -23 -4 -42 -10 -69l-56 -264h-80l57 273c5 20 9 42 9 58c0 57 -48 83 -100 83c-66 0 -119 -40 -161 -81l-71 -333h-80zM162 762l-68 2l134 126h88l80 -126l-60 -1l-69 80z" />
    <glyph glyph-name="iacute" unicode="&#xed;" horiz-adv-x="266" 
d="M35 0l99 469h79l-98 -469h-80zM205 546l-72 1l85 146l91 -1z" />
    <glyph glyph-name="igrave" unicode="&#xec;" horiz-adv-x="266" 
d="M115 0h-80l99 469h79zM248 547l-72 -1l-105 146l92 1z" />
    <glyph glyph-name="icircumflex" unicode="&#xee;" horiz-adv-x="266" 
d="M115 0h-80l99 469h79zM105 547l-66 2l135 130h88l79 -131l-61 -1l-69 86z" />
    <glyph glyph-name="idieresis" unicode="&#xef;" horiz-adv-x="266" 
d="M115 0h-80l99 469h79zM52 601c0 27 25 51 55 51c26 0 45 -21 45 -43c0 -28 -25 -49 -55 -49c-27 0 -45 18 -45 41zM254 601c0 27 24 51 54 51c27 0 45 -21 45 -43c0 -28 -25 -49 -55 -49c-26 0 -44 18 -44 41z" />
    <glyph glyph-name="ibreve" unicode="&#x12d;" horiz-adv-x="266" 
d="M115 0h-80l99 469h79zM78 676h56c-7 -38 -2 -83 65 -83s91 45 98 83h60c-12 -59 -53 -138 -168 -138c-114 0 -124 79 -111 138z" />
    <glyph glyph-name="imacron" unicode="&#x12b;" horiz-adv-x="266" 
d="M115 0h-80l99 469h79zM324 576h-255l13 63h255z" />
    <glyph glyph-name="iogonek" unicode="&#x12f;" horiz-adv-x="266" 
d="M115 0c-41 -16 -147 -60 -147 -124c0 -30 27 -49 71 -49c21 0 44 4 67 8l-3 -50c-30 -7 -61 -11 -88 -11c-76 0 -120 32 -120 81c0 70 80 121 141 148l98 466h79zM157 637c0 28 26 52 58 52c28 0 48 -20 48 -44c0 -29 -27 -52 -58 -52c-28 0 -48 19 -48 44z" />
    <glyph glyph-name="itilde" unicode="&#x129;" horiz-adv-x="266" 
d="M115 0h-80l99 469h79zM327 647l43 -27c-40 -50 -78 -80 -119 -80c-28 0 -49 12 -65 26c-19 16 -31 29 -48 29c-24 0 -44 -25 -65 -46l-46 28c45 55 80 79 119 79c27 0 44 -11 63 -28c17 -14 32 -27 52 -27c24 0 46 24 66 46z" />
    <glyph glyph-name="ij" unicode="&#x133;" horiz-adv-x="532" 
d="M157 637c0 28 26 52 58 52c28 0 48 -20 48 -44c0 -29 -27 -52 -58 -52c-28 0 -48 19 -48 44zM115 0h-80l99 469h79zM176 -227l-9 63c42 7 102 25 120 109l113 524h80l-113 -524c-27 -128 -126 -172 -191 -172zM423 637c0 28 25 52 58 52c27 0 48 -20 48 -44
c0 -29 -27 -52 -59 -52c-28 0 -47 19 -47 44z" />
    <glyph glyph-name="dotlessi" unicode="&#x131;" horiz-adv-x="266" 
d="M115 0h-80l99 469h79z" />
    <glyph glyph-name="jcircumflex" unicode="&#x135;" horiz-adv-x="266" 
d="M-89 -227l-9 63c42 7 102 25 120 109l113 524h80l-113 -524c-27 -128 -126 -172 -191 -172zM103 547l-66 2l134 130h89l78 -131l-61 -1l-68 86z" />
    <glyph glyph-name="dotlessj" unicode="&#x237;" horiz-adv-x="266" 
d="M-90 -227l-9 63c42 7 102 25 120 109l113 524h80l-113 -524c-27 -128 -126 -172 -191 -172z" />
    <glyph glyph-name="uni0137" unicode="&#x137;" horiz-adv-x="552" 
d="M446 469h108l-224 -170l154 -299h-90l-126 252l-119 -91l-34 -161h-81l149 700h81l-96 -448zM68 -235l10 50c16 -3 34 -4 50 -4c54 0 87 24 87 70c0 26 -13 46 -29 62l68 14c17 -16 37 -40 37 -75c0 -72 -66 -123 -167 -123c-19 0 -37 1 -56 6z" />
    <glyph glyph-name="kgreenlandic" unicode="&#x138;" horiz-adv-x="552" 
d="M446 470h108l-224 -171l154 -299h-90l-126 252l-119 -91l-34 -161h-81l101 470h80l-47 -218z" />
    <glyph glyph-name="lacute" unicode="&#x13a;" horiz-adv-x="279" 
d="M121 0h-80l149 700h80zM247 763l-75 2l120 123l103 -2z" />
    <glyph glyph-name="lcaron" unicode="&#x13e;" horiz-adv-x="279" 
d="M41 0l149 700h80l-149 -700h-80zM330 481l-46 1c24 75 44 155 58 218h79c-19 -90 -44 -153 -91 -219z" />
    <glyph glyph-name="uni013C" unicode="&#x13c;" horiz-adv-x="279" 
d="M121 0h-80l149 700h80zM-62 -235l10 50c16 -3 34 -4 50 -4c54 0 87 24 87 70c0 26 -13 46 -29 62l68 14c17 -16 37 -40 37 -75c0 -72 -66 -123 -167 -123c-19 0 -37 1 -56 6z" />
    <glyph glyph-name="ldot" unicode="&#x140;" horiz-adv-x="309" 
d="M247 357c0 27 24 50 54 50c27 0 46 -20 46 -43c0 -27 -25 -48 -55 -48c-27 0 -45 17 -45 41zM121 0h-80l149 700h80z" />
    <glyph glyph-name="lslash" unicode="&#x142;" horiz-adv-x="314" 
d="M139 0h-80l68 318l-79 -40l-17 47l109 56l68 319h80l-58 -273l99 52l17 -47l-130 -67z" />
    <glyph glyph-name="ntilde" unicode="&#xf1;" horiz-adv-x="606" 
d="M116 0h-80l76 359c7 36 12 73 11 110h72c2 -24 0 -42 -3 -70c46 41 109 85 180 85c87 0 156 -61 156 -151c0 -23 -4 -43 -10 -70l-56 -263h-81l57 264c1 9 10 43 10 65c0 56 -47 85 -103 85c-61 0 -114 -38 -158 -80zM497 647l43 -27c-39 -50 -78 -80 -119 -80
c-28 0 -49 12 -65 26c-18 16 -30 29 -48 29c-24 0 -44 -25 -64 -46l-47 28c45 55 81 79 120 79c26 0 43 -11 63 -28c16 -14 31 -27 51 -27c24 0 46 24 66 46z" />
    <glyph glyph-name="nacute" unicode="&#x144;" horiz-adv-x="606" 
d="M116 0h-80l76 359c7 36 12 73 11 110h72c2 -24 0 -42 -3 -70c46 41 109 85 180 85c87 0 156 -61 156 -151c0 -23 -4 -43 -10 -70l-56 -263h-81l57 264c1 9 10 43 10 65c0 56 -47 85 -103 85c-61 0 -114 -38 -158 -80zM375 546l-72 1l86 146l91 -1z" />
    <glyph glyph-name="ncaron" unicode="&#x148;" horiz-adv-x="606" 
d="M116 0h-80l76 359c7 36 12 73 11 110h72c2 -24 0 -42 -3 -70c46 41 109 85 180 85c87 0 156 -61 156 -151c0 -23 -4 -43 -10 -70l-56 -263h-81l57 264c1 9 10 43 10 65c0 56 -47 85 -103 85c-61 0 -114 -38 -158 -80zM474 680l66 -2l-135 -131h-88l-79 131l62 1l68 -86z
" />
    <glyph glyph-name="uni0146" unicode="&#x146;" horiz-adv-x="606" 
d="M116 0h-80l76 359c7 36 12 73 11 110h72c2 -24 0 -42 -3 -70c46 41 109 85 180 85c87 0 156 -61 156 -151c0 -23 -4 -43 -10 -70l-56 -263h-81l57 264c1 9 10 43 10 65c0 56 -47 85 -103 85c-61 0 -114 -38 -158 -80zM87 -235l10 50c16 -3 34 -4 50 -4c54 0 87 24 87 70
c0 26 -13 46 -29 62l68 14c17 -16 37 -40 37 -75c0 -72 -66 -123 -167 -123c-19 0 -37 1 -56 6z" />
    <glyph glyph-name="eng" unicode="&#x14b;" horiz-adv-x="606" 
d="M518 263l-68 -318c-27 -128 -126 -172 -191 -172l-9 63c42 7 102 25 120 109l68 319c1 9 10 44 10 63c-1 53 -47 87 -104 87c-62 0 -117 -42 -157 -80l-71 -334h-80l76 359c7 36 12 73 11 110h72c2 -24 0 -42 -3 -70c46 41 109 85 180 85c87 0 156 -61 156 -151
c0 -23 -4 -43 -10 -70z" />
    <glyph glyph-name="napostrophe" unicode="&#x149;" horiz-adv-x="606" 
d="M49 521l-23 40c36 12 99 44 100 93c0 10 -4 16 -10 18c-6 -2 -13 -4 -21 -4c-21 0 -37 17 -37 39c0 26 24 46 54 46c40 0 73 -32 73 -76c0 -93 -79 -136 -136 -156zM116 0h-80l76 359c7 36 12 73 11 110h72c2 -24 0 -42 -3 -70c46 41 109 85 180 85
c87 0 156 -61 156 -151c0 -23 -4 -43 -10 -70l-56 -263h-81l57 264c1 9 10 43 10 65c0 56 -47 85 -103 85c-61 0 -114 -38 -158 -80z" />
    <glyph glyph-name="oacute" unicode="&#xf3;" horiz-adv-x="617" 
d="M48 215c0 147 118 269 275 269c139 0 230 -100 230 -229c0 -147 -120 -269 -277 -269c-138 0 -228 99 -228 229zM131 218c0 -91 58 -165 151 -165c111 0 189 94 189 199c0 90 -59 165 -155 165c-109 0 -185 -95 -185 -199zM369 546l-72 1l86 146l91 -1z" />
    <glyph glyph-name="ograve" unicode="&#xf2;" horiz-adv-x="617" 
d="M48 215c0 147 118 269 275 269c139 0 230 -100 230 -229c0 -147 -120 -269 -277 -269c-138 0 -228 99 -228 229zM131 218c0 -91 58 -165 151 -165c111 0 189 94 189 199c0 90 -59 165 -155 165c-109 0 -185 -95 -185 -199zM412 547l-72 -1l-104 146l91 1z" />
    <glyph glyph-name="ocircumflex" unicode="&#xf4;" horiz-adv-x="617" 
d="M48 215c0 147 118 269 275 269c139 0 230 -100 230 -229c0 -147 -120 -269 -277 -269c-138 0 -228 99 -228 229zM131 218c0 -91 58 -165 151 -165c111 0 189 94 189 199c0 90 -59 165 -155 165c-109 0 -185 -95 -185 -199zM270 547l-66 2l134 130h89l79 -131l-62 -1
l-68 86z" />
    <glyph glyph-name="odieresis" unicode="&#xf6;" horiz-adv-x="617" 
d="M48 215c0 147 118 269 275 269c139 0 230 -100 230 -229c0 -147 -120 -269 -277 -269c-138 0 -228 99 -228 229zM131 218c0 -91 58 -165 151 -165c111 0 189 94 189 199c0 90 -59 165 -155 165c-109 0 -185 -95 -185 -199zM217 601c0 27 24 51 54 51c27 0 45 -21 45 -43
c0 -28 -25 -49 -55 -49c-26 0 -44 18 -44 41zM418 601c0 27 24 51 54 51c27 0 46 -21 46 -43c0 -28 -25 -49 -55 -49c-27 0 -45 18 -45 41z" />
    <glyph glyph-name="otilde" unicode="&#xf5;" horiz-adv-x="617" 
d="M48 215c0 147 118 269 275 269c139 0 230 -100 230 -229c0 -147 -120 -269 -277 -269c-138 0 -228 99 -228 229zM131 218c0 -91 58 -165 151 -165c111 0 189 94 189 199c0 90 -59 165 -155 165c-109 0 -185 -95 -185 -199zM491 647l43 -27c-39 -50 -78 -80 -119 -80
c-28 0 -49 12 -65 26c-18 16 -30 29 -48 29c-24 0 -44 -25 -64 -46l-47 28c45 55 81 79 120 79c26 0 43 -11 63 -28c16 -14 31 -27 51 -27c24 0 46 24 66 46z" />
    <glyph glyph-name="obreve" unicode="&#x14f;" horiz-adv-x="617" 
d="M48 215c0 147 118 269 275 269c139 0 230 -100 230 -229c0 -147 -120 -269 -277 -269c-138 0 -228 99 -228 229zM131 218c0 -91 58 -165 151 -165c111 0 189 94 189 199c0 90 -59 165 -155 165c-109 0 -185 -95 -185 -199zM242 676h57c-8 -38 -3 -83 64 -83
c68 0 91 45 98 83h61c-12 -59 -54 -138 -168 -138c-115 0 -124 79 -112 138z" />
    <glyph glyph-name="ohungarumlaut" unicode="&#x151;" horiz-adv-x="617" 
d="M48 215c0 147 118 269 275 269c139 0 230 -100 230 -229c0 -147 -120 -269 -277 -269c-138 0 -228 99 -228 229zM131 218c0 -91 58 -165 151 -165c111 0 189 94 189 199c0 90 -59 165 -155 165c-109 0 -185 -95 -185 -199zM281 542l-52 2l70 138l73 -2zM452 542l-52 2
l71 138l73 -2z" />
    <glyph glyph-name="omacron" unicode="&#x14d;" horiz-adv-x="617" 
d="M48 215c0 147 118 269 275 269c139 0 230 -100 230 -229c0 -147 -120 -269 -277 -269c-138 0 -228 99 -228 229zM131 218c0 -91 58 -165 151 -165c111 0 189 94 189 199c0 90 -59 165 -155 165c-109 0 -185 -95 -185 -199zM488 576h-255l13 63h255z" />
    <glyph glyph-name="oslash" unicode="&#xf8;" horiz-adv-x="617" 
d="M65 -56l-39 32l77 84c-35 40 -54 94 -54 155c0 147 118 269 274 269c52 0 97 -14 133 -38l73 80l39 -31l-74 -81c38 -41 59 -97 59 -159c0 -147 -119 -269 -277 -269c-54 0 -100 14 -136 40zM282 53c111 0 189 94 189 199c0 39 -11 74 -31 103l-249 -272
c24 -19 55 -30 91 -30zM131 218c0 -37 10 -70 27 -98l247 270c-24 17 -54 27 -88 27c-109 0 -186 -95 -186 -199z" />
    <glyph glyph-name="oslashacute" unicode="&#x1ff;" horiz-adv-x="617" 
d="M369 546l-72 1l86 146l91 -1zM65 -56l-39 32l77 84c-35 40 -54 94 -54 155c0 147 118 269 274 269c52 0 97 -14 133 -38l73 80l39 -31l-74 -81c38 -41 59 -97 59 -159c0 -147 -119 -269 -277 -269c-54 0 -100 14 -136 40zM282 53c111 0 189 94 189 199
c0 39 -11 74 -31 103l-249 -272c24 -19 55 -30 91 -30zM131 218c0 -37 10 -70 27 -98l247 270c-24 17 -54 27 -88 27c-109 0 -186 -95 -186 -199z" />
    <glyph glyph-name="racute" unicode="&#x155;" horiz-adv-x="393" 
d="M116 0h-80l74 350c8 39 13 78 13 119h73c2 -27 -1 -49 -6 -81c40 48 79 96 143 96c29 0 58 -8 70 -24l-18 -73c-14 12 -44 19 -62 19c-50 0 -103 -46 -139 -86zM270 546l-72 1l86 146l91 -1z" />
    <glyph glyph-name="rcaron" unicode="&#x159;" horiz-adv-x="393" 
d="M116 0h-80l74 350c8 39 13 78 13 119h73c2 -27 -1 -49 -6 -81c40 48 79 96 143 96c29 0 58 -8 70 -24l-18 -73c-14 12 -44 19 -62 19c-50 0 -103 -46 -139 -86zM369 680l66 -2l-135 -131h-88l-79 131l62 1l68 -86z" />
    <glyph glyph-name="uni0157" unicode="&#x157;" horiz-adv-x="393" 
d="M116 0h-80l74 350c8 39 13 78 13 119h73c2 -27 -1 -49 -6 -81c40 48 79 96 143 96c29 0 58 -8 70 -24l-18 -73c-14 12 -44 19 -62 19c-50 0 -103 -46 -139 -86zM-57 -235l10 50c16 -3 34 -4 50 -4c54 0 87 24 87 70c0 26 -13 46 -29 62l68 14c17 -16 37 -40 37 -75
c0 -72 -66 -123 -167 -123c-19 0 -37 1 -56 6z" />
    <glyph glyph-name="scaron" unicode="&#x161;" horiz-adv-x="553" 
d="M497 407l-43 -57c-46 40 -122 69 -184 69c-51 0 -105 -20 -105 -66s54 -58 111 -68c89 -15 199 -35 199 -143c0 -103 -99 -157 -215 -157c-91 0 -183 33 -250 97l43 57c53 -52 133 -88 210 -88c60 0 129 22 129 82c0 54 -56 67 -117 77c-93 16 -192 32 -192 134
c0 91 82 142 188 142c81 0 167 -30 226 -79zM440 680l66 -2l-135 -131h-88l-79 131l62 1l68 -86z" />
    <glyph glyph-name="sacute" unicode="&#x15b;" horiz-adv-x="553" 
d="M497 407l-43 -57c-46 40 -122 69 -184 69c-51 0 -105 -20 -105 -66s54 -58 111 -68c89 -15 199 -35 199 -143c0 -103 -99 -157 -215 -157c-91 0 -183 33 -250 97l43 57c53 -52 133 -88 210 -88c60 0 129 22 129 82c0 54 -56 67 -117 77c-93 16 -192 32 -192 134
c0 91 82 142 188 142c81 0 167 -30 226 -79zM341 546l-72 1l86 146l91 -1z" />
    <glyph glyph-name="scedilla" unicode="&#x15f;" horiz-adv-x="553" 
d="M19 -186l22 43c47 -16 96 -34 146 -34c46 0 80 14 80 42c0 25 -26 36 -61 36c-13 0 -27 -2 -38 -2l-17 27l44 65c-69 11 -134 42 -185 91l43 57c53 -52 133 -88 210 -88c60 0 129 22 129 82c0 54 -56 67 -117 77c-93 16 -192 32 -192 134c0 91 82 142 188 142
c81 0 167 -30 226 -79l-43 -57c-46 40 -122 69 -184 69c-51 0 -105 -20 -105 -66s54 -58 111 -68c89 -15 199 -35 199 -143c0 -103 -99 -157 -215 -157h-13l-33 -50c9 1 21 2 32 2c46 0 94 -25 94 -73c0 -58 -66 -90 -151 -90c-67 0 -118 21 -170 40z" />
    <glyph glyph-name="scircumflex" unicode="&#x15d;" horiz-adv-x="553" 
d="M497 407l-43 -57c-46 40 -122 69 -184 69c-51 0 -105 -20 -105 -66s54 -58 111 -68c89 -15 199 -35 199 -143c0 -103 -99 -157 -215 -157c-91 0 -183 33 -250 97l43 57c53 -52 133 -88 210 -88c60 0 129 22 129 82c0 54 -56 67 -117 77c-93 16 -192 32 -192 134
c0 91 82 142 188 142c81 0 167 -30 226 -79zM242 547l-66 2l134 130h89l79 -131l-62 -1l-68 86z" />
    <glyph glyph-name="uni0219" unicode="&#x219;" horiz-adv-x="553" 
d="M497 407l-43 -57c-46 40 -122 69 -184 69c-51 0 -105 -20 -105 -66s54 -58 111 -68c89 -15 199 -35 199 -143c0 -103 -99 -157 -215 -157c-91 0 -183 33 -250 97l43 57c53 -52 133 -88 210 -88c60 0 129 22 129 82c0 54 -56 67 -117 77c-93 16 -192 32 -192 134
c0 91 82 142 188 142c81 0 167 -30 226 -79zM37 -235l10 50c16 -3 34 -4 50 -4c54 0 87 24 87 70c0 26 -13 46 -29 62l68 14c17 -16 37 -40 37 -75c0 -72 -66 -123 -167 -123c-19 0 -37 1 -56 6z" />
    <glyph glyph-name="tbar" unicode="&#x167;" horiz-adv-x="382" 
d="M53 407l14 62h91l31 142h80l-30 -142h141l-13 -62h-141l-29 -137h146l-12 -55h-146l-18 -88c-3 -10 -5 -22 -5 -30c0 -30 23 -44 58 -44c21 0 61 6 77 13l-3 -63c-22 -12 -71 -20 -104 -20c-54 0 -110 23 -110 98c0 12 2 26 5 40l20 94h-87l11 55h87l29 137h-92z" />
    <glyph glyph-name="tcaron" unicode="&#x165;" horiz-adv-x="382" 
d="M53 407l14 62h91l31 142h80l-30 -142h141l-13 -62h-141l-59 -280c-3 -10 -5 -22 -5 -30c0 -30 23 -44 58 -44c21 0 61 6 77 13l-3 -63c-22 -12 -71 -20 -104 -20c-54 0 -110 23 -110 98c0 12 2 26 5 40l60 286h-92zM377 537l-46 1c20 53 46 161 58 218h80
c-19 -90 -44 -153 -92 -219z" />
    <glyph glyph-name="uni0163" unicode="&#x163;" horiz-adv-x="382" 
d="M-54 -186l22 43c47 -16 96 -34 146 -34c46 0 80 14 80 42c0 25 -26 36 -61 36c-13 0 -27 -2 -38 -2l-17 27l48 71c-27 13 -46 40 -46 84c0 12 2 26 5 40l60 286h-92l14 62h91l31 142h80l-30 -142h141l-13 -62h-141l-59 -280c-3 -10 -5 -22 -5 -30c0 -30 23 -44 58 -44
c21 0 61 6 77 13l-3 -63c-22 -12 -71 -20 -104 -20c-6 0 -11 0 -17 1l-32 -49c9 1 21 2 32 2c46 0 94 -25 94 -73c0 -58 -66 -90 -151 -90c-67 0 -118 21 -170 40z" />
    <glyph glyph-name="uni021B" unicode="&#x21b;" horiz-adv-x="382" 
d="M53 407l14 62h91l31 142h80l-30 -142h141l-13 -62h-141l-59 -280c-3 -10 -5 -22 -5 -30c0 -30 23 -44 58 -44c21 0 61 6 77 13l-3 -63c-22 -12 -71 -20 -104 -20c-54 0 -110 23 -110 98c0 12 2 26 5 40l60 286h-92zM13 -235l10 50c16 -3 34 -4 50 -4c54 0 87 24 87 70
c0 26 -13 46 -29 62l68 14c17 -16 37 -40 37 -75c0 -72 -66 -123 -167 -123c-19 0 -37 1 -56 6z" />
    <glyph glyph-name="uacute" unicode="&#xfa;" horiz-adv-x="605" 
d="M473 469h79l-74 -350c-9 -45 -16 -79 -17 -119h-74c-1 23 4 49 8 69c-46 -41 -108 -83 -178 -83c-88 0 -156 61 -156 152c0 23 4 42 10 69l56 262h80l-56 -263c-5 -24 -10 -43 -10 -62c0 -61 48 -88 102 -88c62 0 115 37 159 80zM374 546l-72 1l86 146l91 -1z" />
    <glyph glyph-name="ugrave" unicode="&#xf9;" horiz-adv-x="605" 
d="M473 469h79l-74 -350c-9 -45 -16 -79 -17 -119h-74c-1 23 4 49 8 69c-46 -41 -108 -83 -178 -83c-88 0 -156 61 -156 152c0 23 4 42 10 69l56 262h80l-56 -263c-5 -24 -10 -43 -10 -62c0 -61 48 -88 102 -88c62 0 115 37 159 80zM417 547l-72 -1l-104 146l91 1z" />
    <glyph glyph-name="ucircumflex" unicode="&#xfb;" horiz-adv-x="605" 
d="M473 469h79l-74 -350c-9 -45 -16 -79 -17 -119h-74c-1 23 4 49 8 69c-46 -41 -108 -83 -178 -83c-88 0 -156 61 -156 152c0 23 4 42 10 69l56 262h80l-56 -263c-5 -24 -10 -43 -10 -62c0 -61 48 -88 102 -88c62 0 115 37 159 80zM275 547l-66 2l134 130h89l79 -131
l-62 -1l-68 86z" />
    <glyph glyph-name="udieresis" unicode="&#xfc;" horiz-adv-x="605" 
d="M473 469h79l-74 -350c-9 -45 -16 -79 -17 -119h-74c-1 23 4 49 8 69c-46 -41 -108 -83 -178 -83c-88 0 -156 61 -156 152c0 23 4 42 10 69l56 262h80l-56 -263c-5 -24 -10 -43 -10 -62c0 -61 48 -88 102 -88c62 0 115 37 159 80zM222 601c0 27 24 51 54 51
c27 0 45 -21 45 -43c0 -28 -25 -49 -55 -49c-26 0 -44 18 -44 41zM423 601c0 27 24 51 54 51c27 0 46 -21 46 -43c0 -28 -25 -49 -55 -49c-27 0 -45 18 -45 41z" />
    <glyph glyph-name="ubreve" unicode="&#x16d;" horiz-adv-x="605" 
d="M473 469h79l-74 -350c-9 -45 -16 -79 -17 -119h-74c-1 23 4 49 8 69c-46 -41 -108 -83 -178 -83c-88 0 -156 61 -156 152c0 23 4 42 10 69l56 262h80l-56 -263c-5 -24 -10 -43 -10 -62c0 -61 48 -88 102 -88c62 0 115 37 159 80zM247 676h57c-8 -38 -3 -83 64 -83
c68 0 91 45 98 83h61c-12 -59 -54 -138 -168 -138c-115 0 -124 79 -112 138z" />
    <glyph glyph-name="uhungarumlaut" unicode="&#x171;" horiz-adv-x="605" 
d="M473 469h79l-74 -350c-9 -45 -16 -79 -17 -119h-74c-1 23 4 49 8 69c-46 -41 -108 -83 -178 -83c-88 0 -156 61 -156 152c0 23 4 42 10 69l56 262h80l-56 -263c-5 -24 -10 -43 -10 -62c0 -61 48 -88 102 -88c62 0 115 37 159 80zM286 542l-52 2l70 138l73 -2zM457 542
l-52 2l71 138l73 -2z" />
    <glyph glyph-name="umacron" unicode="&#x16b;" horiz-adv-x="605" 
d="M473 469h79l-74 -350c-9 -45 -16 -79 -17 -119h-74c-1 23 4 49 8 69c-46 -41 -108 -83 -178 -83c-88 0 -156 61 -156 152c0 23 4 42 10 69l56 262h80l-56 -263c-5 -24 -10 -43 -10 -62c0 -61 48 -88 102 -88c62 0 115 37 159 80zM493 576h-255l13 63h255z" />
    <glyph glyph-name="uogonek" unicode="&#x173;" horiz-adv-x="605" 
d="M473 469h79l-74 -350c-9 -45 -16 -79 -17 -119c-40 -16 -146 -60 -146 -124c0 -30 27 -49 71 -49c20 0 43 4 67 8l-4 -50c-29 -7 -60 -11 -87 -11c-76 0 -121 32 -121 81c0 72 84 123 146 150c0 22 4 45 8 64c-46 -41 -108 -83 -178 -83c-88 0 -156 61 -156 152
c0 23 4 42 10 69l56 262h80l-56 -263c-5 -24 -10 -43 -10 -62c0 -61 48 -88 102 -88c62 0 115 37 159 80z" />
    <glyph glyph-name="uring" unicode="&#x16f;" horiz-adv-x="605" 
d="M473 469h79l-74 -350c-9 -45 -16 -79 -17 -119h-74c-1 23 4 49 8 69c-46 -41 -108 -83 -178 -83c-88 0 -156 61 -156 152c0 23 4 42 10 69l56 262h80l-56 -263c-5 -24 -10 -43 -10 -62c0 -61 48 -88 102 -88c62 0 115 37 159 80zM369 576c44 0 77 27 77 64
c0 32 -25 57 -64 57c-44 0 -77 -30 -77 -68c0 -31 25 -53 64 -53zM365 538c-71 0 -109 40 -109 88c0 57 48 107 130 107c71 0 110 -40 110 -90c0 -57 -50 -105 -131 -105z" />
    <glyph glyph-name="utilde" unicode="&#x169;" horiz-adv-x="605" 
d="M473 469h79l-74 -350c-9 -45 -16 -79 -17 -119h-74c-1 23 4 49 8 69c-46 -41 -108 -83 -178 -83c-88 0 -156 61 -156 152c0 23 4 42 10 69l56 262h80l-56 -263c-5 -24 -10 -43 -10 -62c0 -61 48 -88 102 -88c62 0 115 37 159 80zM496 647l43 -27
c-39 -50 -78 -80 -119 -80c-28 0 -49 12 -65 26c-18 16 -30 29 -48 29c-24 0 -44 -25 -64 -46l-47 28c45 55 81 79 120 79c26 0 43 -11 63 -28c16 -14 31 -27 51 -27c24 0 46 24 66 46z" />
    <glyph glyph-name="wacute" unicode="&#x1e83;" horiz-adv-x="781" 
d="M694 469h89l-259 -469h-83l-33 354h-6l-185 -354h-83l-56 469h82l37 -364h6l188 364h78l38 -364h6zM460 546l-72 1l86 146l91 -1z" />
    <glyph glyph-name="wcircumflex" unicode="&#x175;" horiz-adv-x="781" 
d="M694 469h89l-259 -469h-83l-33 354h-6l-185 -354h-83l-56 469h82l37 -364h6l188 364h78l38 -364h6zM361 547l-66 2l134 130h89l79 -131l-62 -1l-68 86z" />
    <glyph glyph-name="wdieresis" unicode="&#x1e85;" horiz-adv-x="781" 
d="M694 469h89l-259 -469h-83l-33 354h-6l-185 -354h-83l-56 469h82l37 -364h6l188 364h78l38 -364h6zM308 601c0 27 24 51 54 51c27 0 45 -21 45 -43c0 -28 -25 -49 -55 -49c-26 0 -44 18 -44 41zM509 601c0 27 24 51 54 51c27 0 46 -21 46 -43c0 -28 -25 -49 -55 -49
c-27 0 -45 18 -45 41z" />
    <glyph glyph-name="wgrave" unicode="&#x1e81;" horiz-adv-x="781" 
d="M694 469h89l-259 -469h-83l-33 354h-6l-185 -354h-83l-56 469h82l37 -364h6l188 364h78l38 -364h6zM503 547l-72 -1l-104 146l91 1z" />
    <glyph glyph-name="yacute" unicode="&#xfd;" horiz-adv-x="542" 
d="M476 469h89l-472 -679h-88l169 237l-108 442h85l78 -358h5zM345 546l-72 1l86 146l91 -1z" />
    <glyph glyph-name="ydieresis" unicode="&#xff;" horiz-adv-x="542" 
d="M476 469h89l-472 -679h-88l169 237l-108 442h85l78 -358h5zM193 601c0 27 24 51 54 51c27 0 45 -21 45 -43c0 -28 -25 -49 -55 -49c-26 0 -44 18 -44 41zM394 601c0 27 24 51 54 51c27 0 46 -21 46 -43c0 -28 -25 -49 -55 -49c-27 0 -45 18 -45 41z" />
    <glyph glyph-name="ycircumflex" unicode="&#x177;" horiz-adv-x="542" 
d="M476 469h89l-472 -679h-88l169 237l-108 442h85l78 -358h5zM246 547l-66 2l134 130h89l79 -131l-62 -1l-68 86z" />
    <glyph glyph-name="ygrave" unicode="&#x1ef3;" horiz-adv-x="542" 
d="M476 469h89l-472 -679h-88l169 237l-108 442h85l78 -358h5zM388 547l-72 -1l-104 146l91 1z" />
    <glyph glyph-name="zcaron" unicode="&#x17e;" horiz-adv-x="519" 
d="M431 63l-14 -63h-422l11 48l361 359h-282l14 62h392l-10 -48l-361 -358h311zM423 680l66 -2l-135 -131h-88l-79 131l62 1l68 -86z" />
    <glyph glyph-name="zacute" unicode="&#x17a;" horiz-adv-x="519" 
d="M431 63l-14 -63h-422l11 48l361 359h-282l14 62h392l-10 -48l-361 -358h311zM324 546l-72 1l86 146l91 -1z" />
    <glyph glyph-name="zdotaccent" unicode="&#x17c;" horiz-adv-x="519" 
d="M431 63l-14 -63h-422l11 48l361 359h-282l14 62h392l-10 -48l-361 -358h311zM274 601c0 27 24 51 54 51c27 0 45 -21 45 -43c0 -28 -24 -49 -55 -49c-26 0 -44 18 -44 41z" />
    <glyph glyph-name="eth" unicode="&#xf0;" horiz-adv-x="623" 
d="M201 518l-12 54l136 46c-32 28 -69 51 -103 71l89 17c30 -18 61 -38 90 -63l129 44l14 -53l-100 -34c57 -65 106 -158 106 -292c0 -107 -28 -193 -88 -250c-50 -48 -119 -72 -191 -72c-137 0 -222 99 -222 221c0 147 111 262 254 262c81 0 136 -37 160 -89
c-11 75 -47 142 -94 195zM132 211c0 -86 58 -154 144 -154c51 0 98 20 132 55c33 34 55 80 55 135c0 88 -62 152 -152 152c-100 0 -179 -85 -179 -188z" />
    <glyph glyph-name="thorn" unicode="&#xfe;" horiz-adv-x="623" 
d="M186 334l-44 -205c32 -38 89 -73 152 -73c104 0 178 103 178 206c0 80 -45 152 -127 152c-54 0 -108 -29 -159 -80zM264 700l-63 -290c30 28 86 74 168 74c115 0 191 -95 191 -213c0 -139 -107 -284 -260 -285c-67 0 -125 26 -172 80l-59 -276h-80l195 910h80z" />
    <glyph glyph-name="ae" unicode="&#xe6;" horiz-adv-x="966" 
d="M226 55c80 0 173 50 209 75c-4 11 -8 26 -9 38c-52 54 -113 74 -186 74c-60 0 -138 -23 -138 -96c0 -64 66 -91 124 -91zM209 -14c-98 0 -188 52 -188 153c0 107 101 165 213 165c54 0 140 -13 192 -65c2 24 15 61 15 89c0 65 -79 87 -143 87s-131 -22 -164 -39l-15 68
c39 18 107 40 183 40c61 0 165 -16 193 -87c3 -5 4 -11 5 -16c45 70 121 103 198 103c108 0 214 -61 215 -204c0 -17 -2 -36 -5 -56h-406c-1 -5 -2 -10 -2 -15c0 -76 53 -153 158 -153c65 0 127 30 163 53l43 -56c-50 -32 -124 -67 -214 -67c-98 0 -159 41 -190 92
c-57 -45 -158 -92 -251 -92zM512 287h314c7 83 -53 130 -131 130c-91 0 -156 -56 -183 -130z" />
    <glyph glyph-name="aeacute" unicode="&#x1fd;" horiz-adv-x="966" 
d="M226 55c80 0 173 50 209 75c-4 11 -8 26 -9 38c-52 54 -113 74 -186 74c-60 0 -138 -23 -138 -96c0 -64 66 -91 124 -91zM209 -14c-98 0 -188 52 -188 153c0 107 101 165 213 165c54 0 140 -13 192 -65c2 24 15 61 15 89c0 65 -79 87 -143 87s-131 -22 -164 -39l-15 68
c39 18 107 40 183 40c61 0 165 -16 193 -87c3 -5 4 -11 5 -16c45 70 121 103 198 103c108 0 214 -61 215 -204c0 -17 -2 -36 -5 -56h-406c-1 -5 -2 -10 -2 -15c0 -76 53 -153 158 -153c65 0 127 30 163 53l43 -56c-50 -32 -124 -67 -214 -67c-98 0 -159 41 -190 92
c-57 -45 -158 -92 -251 -92zM512 287h314c7 83 -53 130 -131 130c-91 0 -156 -56 -183 -130zM555 546l-72 1l86 146l91 -1z" />
    <glyph glyph-name="oe" unicode="&#x153;" horiz-adv-x="1011" 
d="M279 53c111 0 192 93 192 201c0 88 -58 163 -152 163c-109 0 -188 -93 -188 -200c0 -90 56 -164 148 -164zM273 -14c-127 0 -225 99 -225 228c0 149 132 270 277 270c87 0 168 -52 196 -129c38 78 129 129 219 129c115 0 217 -63 217 -204c0 -17 -1 -36 -5 -56h-402
c-1 -5 -2 -11 -2 -16c2 -84 59 -152 150 -152c71 0 125 27 168 53l42 -56c-56 -36 -125 -67 -218 -67c-95 0 -170 49 -195 126c-40 -76 -133 -126 -222 -126zM560 287h311c7 85 -59 130 -138 130c-83 0 -148 -55 -173 -130z" />
    <glyph glyph-name="schwa" unicode="&#x259;" horiz-adv-x="592" 
d="M131 361l-43 56c57 36 126 67 219 67c138 0 222 -97 222 -219c0 -154 -124 -279 -272 -279c-129 0 -241 78 -213 260h403c0 4 1 8 1 13c0 85 -57 155 -149 155c-71 0 -126 -27 -168 -53zM256 53c87 0 152 54 179 130h-309c-7 -85 55 -130 130 -130z" />
    <glyph glyph-name="ij.alt" horiz-adv-x="532" 
d="M157 637c0 28 26 52 58 52c28 0 48 -20 48 -44c0 -29 -27 -52 -58 -52c-28 0 -48 19 -48 44zM115 0h-80l99 469h79zM94 -198l30 66c14 -15 49 -25 72 -25c41 0 76 24 87 76l118 550h79l-117 -550c-23 -109 -103 -146 -167 -146c-37 0 -83 12 -102 29zM423 637
c0 28 26 52 58 52c28 0 49 -20 49 -44c0 -29 -27 -52 -59 -52c-28 0 -48 19 -48 44z" />
    <glyph glyph-name="j.alt" horiz-adv-x="266" 
d="M-172 -198l30 66c14 -15 49 -25 72 -25c41 0 76 24 87 76l118 550h79l-117 -550c-23 -109 -103 -146 -167 -146c-37 0 -83 12 -102 29zM157 637c0 28 26 52 58 52c28 0 49 -20 49 -44c0 -29 -27 -52 -59 -52c-28 0 -48 19 -48 44z" />
    <glyph glyph-name="jcircumflex.alt" horiz-adv-x="266" 
d="M-172 -198l30 66c14 -15 49 -25 72 -25c41 0 76 24 87 76l118 550h79l-117 -550c-23 -109 -103 -146 -167 -146c-37 0 -83 12 -102 29zM102 547l-66 2l135 130h88l79 -131l-61 -1l-69 86z" />
    <glyph glyph-name="dotlessj.alt" horiz-adv-x="266" 
d="M-172 -198l30 66c14 -15 49 -25 72 -25c41 0 76 24 87 76l118 550h79l-117 -550c-23 -109 -103 -146 -167 -146c-37 0 -83 12 -102 29z" />
    <glyph glyph-name="r.alt" horiz-adv-x="476" 
d="M318 410c-49 0 -99 -50 -134 -90l-68 -320h-80l75 350c8 35 12 69 13 106c0 5 -1 9 -1 13h73c1 -4 1 -9 1 -14c0 -22 -2 -41 -7 -67c40 48 92 96 160 96c69 0 108 -45 108 -115c0 -16 -2 -33 -6 -51h-76c2 8 3 17 3 25c0 40 -23 67 -61 67z" />
    <glyph glyph-name="racute.alt" horiz-adv-x="476" 
d="M318 410c-49 0 -99 -50 -134 -90l-68 -320h-80l75 350c8 35 12 69 13 106c0 5 -1 9 -1 13h73c1 -4 1 -9 1 -14c0 -22 -2 -41 -7 -67c40 48 92 96 160 96c69 0 108 -45 108 -115c0 -16 -2 -33 -6 -51h-76c2 8 3 17 3 25c0 40 -23 67 -61 67zM310 546l-72 1l86 146l91 -1z
" />
    <glyph glyph-name="rcaron.alt" horiz-adv-x="476" 
d="M318 410c-49 0 -99 -50 -134 -90l-68 -320h-80l75 350c8 35 12 69 13 106c0 5 -1 9 -1 13h73c1 -4 1 -9 1 -14c0 -22 -2 -41 -7 -67c40 48 92 96 160 96c69 0 108 -45 108 -115c0 -16 -2 -33 -6 -51h-76c2 8 3 17 3 25c0 40 -23 67 -61 67zM409 680l66 -2l-135 -131h-88
l-79 131l62 1l68 -86z" />
    <glyph glyph-name="uni0157.alt" horiz-adv-x="476" 
d="M318 410c-49 0 -99 -50 -134 -90l-68 -320h-80l75 350c8 35 12 69 13 106c0 5 -1 9 -1 13h73c1 -4 1 -9 1 -14c0 -22 -2 -41 -7 -67c40 48 92 96 160 96c69 0 108 -45 108 -115c0 -16 -2 -33 -6 -51h-76c2 8 3 17 3 25c0 40 -23 67 -61 67zM-24 -235l10 50
c16 -3 34 -4 50 -4c54 0 87 24 87 70c0 26 -13 46 -29 62l68 14c17 -16 37 -40 37 -75c0 -72 -66 -123 -167 -123c-19 0 -37 1 -56 6z" />
    <glyph glyph-name="y.alt" horiz-adv-x="542" 
d="M135 -26l38 53l-107 442h83l79 -358h5l243 358h88l-366 -529c-74 -109 -142 -167 -227 -167c-44 0 -95 12 -123 32l30 65c20 -17 59 -30 95 -30c61 0 104 49 162 134z" />
    <glyph glyph-name="yacute.alt" horiz-adv-x="542" 
d="M135 -26l38 53l-107 442h83l79 -358h5l243 358h88l-366 -529c-74 -109 -142 -167 -227 -167c-44 0 -95 12 -123 32l30 65c20 -17 59 -30 95 -30c61 0 104 49 162 134zM345 546l-72 1l86 146l91 -1z" />
    <glyph glyph-name="ydieresis.alt" horiz-adv-x="542" 
d="M135 -26l38 53l-107 442h83l79 -358h5l243 358h88l-366 -529c-74 -109 -142 -167 -227 -167c-44 0 -95 12 -123 32l30 65c20 -17 59 -30 95 -30c61 0 104 49 162 134zM193 601c0 27 24 51 54 51c27 0 45 -21 45 -43c0 -28 -25 -49 -55 -49c-26 0 -44 18 -44 41zM394 601
c0 27 24 51 54 51c27 0 46 -21 46 -43c0 -28 -25 -49 -55 -49c-27 0 -45 18 -45 41z" />
    <glyph glyph-name="ycircumflex.alt" horiz-adv-x="542" 
d="M135 -26l38 53l-107 442h83l79 -358h5l243 358h88l-366 -529c-74 -109 -142 -167 -227 -167c-44 0 -95 12 -123 32l30 65c20 -17 59 -30 95 -30c61 0 104 49 162 134zM246 547l-66 2l134 130h89l79 -131l-62 -1l-68 86z" />
    <glyph glyph-name="ygrave.alt" horiz-adv-x="542" 
d="M135 -26l38 53l-107 442h83l79 -358h5l243 358h88l-366 -529c-74 -109 -142 -167 -227 -167c-44 0 -95 12 -123 32l30 65c20 -17 59 -30 95 -30c61 0 104 49 162 134zM388 547l-72 -1l-104 146l91 1z" />
    <glyph glyph-name="acute" unicode="&#xb4;" 
d="M320 546l-72 1l86 146l91 -1z" />
    <glyph glyph-name="grave" unicode="`" 
d="M363 547l-72 -1l-104 146l91 1z" />
    <glyph glyph-name="circumflex" unicode="&#x2c6;" 
d="M221 547l-66 2l134 130h89l79 -131l-62 -1l-68 86z" />
    <glyph glyph-name="dieresis" unicode="&#xa8;" 
d="M168 601c0 27 24 51 54 51c27 0 45 -21 45 -43c0 -28 -25 -49 -55 -49c-26 0 -44 18 -44 41zM369 601c0 27 24 51 54 51c27 0 46 -21 46 -43c0 -28 -25 -49 -55 -49c-27 0 -45 18 -45 41z" />
    <glyph glyph-name="tilde" unicode="&#x2dc;" 
d="M442 647l43 -27c-39 -50 -78 -80 -119 -80c-28 0 -49 12 -65 26c-18 16 -30 29 -48 29c-24 0 -44 -25 -64 -46l-47 28c45 55 81 79 120 79c26 0 43 -11 63 -28c16 -14 31 -27 51 -27c24 0 46 24 66 46z" />
    <glyph glyph-name="ring" unicode="&#x2da;" 
d="M315 576c44 0 77 27 77 64c0 32 -25 57 -64 57c-44 0 -77 -30 -77 -68c0 -31 25 -53 64 -53zM311 538c-71 0 -109 40 -109 88c0 57 48 107 130 107c71 0 110 -40 110 -90c0 -57 -50 -105 -131 -105z" />
    <glyph glyph-name="cedilla" unicode="&#xb8;" 
d="M3 -186l22 43c47 -16 96 -34 146 -34c46 0 80 14 80 42c0 25 -26 36 -61 36c-13 0 -27 -2 -38 -2l-17 27l60 88h56l-53 -79c9 1 21 2 32 2c46 0 94 -25 94 -73c0 -58 -66 -90 -151 -90c-67 0 -118 21 -170 40z" />
    <glyph glyph-name="breve" unicode="&#x2d8;" 
d="M193 676h57c-8 -38 -3 -83 64 -83c68 0 91 45 98 83h61c-12 -59 -54 -138 -168 -138c-115 0 -124 79 -112 138z" />
    <glyph glyph-name="caron" unicode="&#x2c7;" 
d="M419 680l66 -2l-135 -131h-88l-79 131l62 1l68 -86z" />
    <glyph glyph-name="dotaccent" unicode="&#x2d9;" 
d="M270 601c0 27 24 51 54 51c27 0 45 -21 45 -43c0 -28 -24 -49 -55 -49c-26 0 -44 18 -44 41z" />
    <glyph glyph-name="hungarumlaut" unicode="&#x2dd;" 
d="M232 542l-52 2l70 138l73 -2zM403 542l-52 2l71 138l73 -2z" />
    <glyph glyph-name="macron" unicode="&#xaf;" 
d="M439 576h-255l13 63h255z" />
    <glyph glyph-name="ogonek" unicode="&#x2db;" 
d="M215 23l31 -23c-40 -16 -146 -60 -146 -124c0 -30 27 -49 71 -49c20 0 43 4 67 8l-4 -50c-29 -7 -60 -11 -87 -11c-76 0 -121 32 -121 81c0 91 137 149 189 168z" />
    <glyph glyph-name="commaaccent" unicode="&#xf6c3;" 
d="M39 -235l10 50c16 -3 34 -4 50 -4c54 0 87 24 87 70c0 26 -13 46 -29 62l68 14c17 -16 37 -40 37 -75c0 -72 -66 -123 -167 -123c-19 0 -37 1 -56 6z" />
    <glyph glyph-name="caron.alt" 
d="M296 481l-45 1c24 75 44 155 57 218h80c-19 -90 -45 -153 -92 -219z" />
    <glyph glyph-name="germandbls" unicode="&#xdf;" horiz-adv-x="591" 
d="M246 -9l-1 62c121 0 189 61 189 148c0 96 -85 145 -129 159l15 63c59 9 125 71 125 138c0 48 -34 84 -91 84c-51 0 -109 -33 -126 -113l-114 -532h-79l115 540c27 129 126 171 206 171c92 0 173 -53 173 -141c0 -79 -66 -152 -148 -178c45 -17 136 -75 136 -187
c0 -120 -103 -215 -250 -216c-10 0 -15 1 -21 2z" />
    <glyph glyph-name="fi" horiz-adv-x="614" 
d="M74 469h93l21 96c22 109 106 146 169 146c32 0 71 -10 88 -20l-29 -66c-12 8 -41 15 -60 15c-40 0 -77 -23 -89 -75l-20 -96h138l-14 -62h-137l-86 -407h-80l86 407h-93zM464 0h-80l99 469h80zM506 637c0 28 26 52 58 52c28 0 49 -20 49 -44c0 -29 -28 -52 -59 -52
c-28 0 -48 19 -48 44z" />
    <glyph glyph-name="fl" horiz-adv-x="630" 
d="M74 469h93l21 96c22 109 106 146 169 146c32 0 71 -10 88 -20l-29 -66c-12 8 -41 15 -60 15c-40 0 -77 -23 -89 -75l-20 -96h138l-14 -62h-137l-86 -407h-80l86 407h-93zM472 0h-79l149 700h79z" />
    <glyph glyph-name="f_j.alt" horiz-adv-x="614" 
d="M74 469h93l21 96c22 109 106 146 169 146c32 0 71 -10 88 -20l-29 -66c-12 8 -41 15 -60 15c-40 0 -77 -23 -89 -75l-20 -96h138l-14 -62h-137l-86 -407h-80l86 407h-93zM178 -198l30 66c12 -12 47 -25 73 -25c39 0 75 24 86 76l117 550h80l-117 -550
c-23 -109 -105 -146 -166 -146c-41 0 -86 15 -103 29zM507 637c0 28 26 52 58 52c27 0 48 -20 48 -44c0 -29 -27 -52 -58 -52c-28 0 -48 19 -48 44z" />
    <glyph glyph-name="f_f_j.alt" horiz-adv-x="942" 
d="M68 0l86 407h-93l13 62h93l22 105c21 101 101 137 163 137c39 0 84 -14 102 -30l-30 -65c-13 13 -48 24 -72 24c-40 0 -74 -22 -83 -67l-22 -104h248l21 96c23 109 106 146 169 146c33 0 71 -10 88 -20l-29 -66c-12 8 -40 15 -60 15c-39 0 -77 -23 -88 -75l-21 -96h138
l-13 -62h-138l-86 -407h-80l86 407h-248l-86 -407h-80zM505 -198l30 66c12 -12 47 -25 74 -25c38 0 74 24 86 76l117 550h80l-118 -550c-23 -109 -104 -146 -166 -146c-40 0 -86 15 -103 29zM835 637c0 28 25 52 58 52c27 0 48 -20 48 -44c0 -29 -27 -52 -59 -52
c-28 0 -47 19 -47 44z" />
    <glyph glyph-name="ordfeminine" unicode="&#xaa;" horiz-adv-x="457" 
d="M131 486l-12 58c29 13 82 28 138 28c65 0 175 -22 175 -95c0 -16 -5 -35 -9 -56l-31 -141c-4 -19 -6 -38 -3 -60h-70c-1 12 0 29 1 41c-29 -22 -75 -51 -134 -51c-68 0 -139 38 -139 112c0 77 77 119 163 119c36 0 98 -8 137 -44l12 44c1 5 2 11 2 16
c0 42 -58 58 -106 58s-99 -16 -124 -29zM207 267c63 0 115 39 123 47l7 32c-23 27 -84 42 -125 42c-40 0 -92 -14 -94 -58c-3 -45 45 -63 89 -63z" />
    <glyph glyph-name="ordmasculine" unicode="&#xba;" horiz-adv-x="467" 
d="M65 377c0 108 100 195 210 195c99 0 176 -72 176 -166c0 -109 -99 -196 -212 -196c-98 0 -174 72 -174 167zM137 379c0 -62 41 -110 108 -110c81 0 135 62 135 134c0 62 -42 110 -111 110c-80 0 -132 -63 -132 -134z" />
    <glyph glyph-name="a.superior" horiz-adv-x="457" 
d="M131 486l-12 58c29 13 82 28 138 28c65 0 175 -22 175 -95c0 -16 -5 -35 -9 -56l-31 -141c-4 -19 -6 -38 -3 -60h-70c-1 12 0 29 1 41c-29 -22 -75 -51 -134 -51c-68 0 -139 38 -139 112c0 77 77 119 163 119c36 0 98 -8 137 -44l12 44c1 5 2 11 2 16
c0 42 -58 58 -106 58s-99 -16 -124 -29zM207 267c63 0 115 39 123 47l7 32c-23 27 -84 42 -125 42c-40 0 -92 -14 -94 -58c-3 -45 45 -63 89 -63z" />
    <glyph glyph-name="b.superior" horiz-adv-x="475" 
d="M115 220h-64c14 32 21 63 27 92l85 388h69l-40 -182c34 32 74 54 126 54c88 0 142 -68 142 -154c0 -105 -80 -208 -196 -208c-56 0 -106 23 -131 64c-3 -16 -11 -39 -18 -54zM298 513c-38 0 -83 -18 -120 -56l-29 -139c21 -26 65 -50 110 -50c76 0 125 72 125 146
c0 56 -31 99 -86 99z" />
    <glyph glyph-name="d.superior" horiz-adv-x="474" 
d="M428 700h69l-86 -389c-7 -34 -12 -61 -13 -91h-63c-1 14 2 35 5 48c-21 -18 -65 -58 -132 -58c-88 0 -144 69 -144 153c0 100 81 209 197 209c53 1 94 -22 127 -57zM231 268c23 0 63 7 114 57l31 140c-23 24 -63 48 -108 48c-79 0 -127 -75 -127 -142
c0 -51 29 -103 90 -103z" />
    <glyph glyph-name="e.superior" horiz-adv-x="449" 
d="M365 305l38 -47c-45 -26 -97 -48 -170 -48c-105 0 -168 72 -168 159c0 113 93 203 206 203c98 0 187 -55 164 -194h-301v-3c0 -58 40 -106 106 -106c53 0 94 19 125 36zM265 516c-59 0 -103 -36 -121 -85h220c5 58 -44 85 -99 85z" />
    <glyph glyph-name="h.superior" horiz-adv-x="459" 
d="M57 220l106 480h68l-40 -181c33 27 76 53 125 53c63 0 116 -43 116 -110c0 -17 -3 -32 -7 -52l-42 -190h-70l43 197c3 15 6 31 6 42c0 34 -33 54 -71 54c-43 0 -82 -27 -114 -56l-52 -237h-68z" />
    <glyph glyph-name="i.superior" horiz-adv-x="209" 
d="M145 664c0 23 22 43 49 43c24 0 41 -16 41 -36c0 -24 -23 -42 -50 -42c-24 0 -40 15 -40 35zM127 220h-69l74 341h69z" />
    <glyph glyph-name="l.superior" horiz-adv-x="208" 
d="M125 220h-68l106 480h68z" />
    <glyph glyph-name="m.superior" horiz-adv-x="683" 
d="M59 220l55 258c6 27 11 54 10 83h62c2 -17 0 -29 -2 -49c31 28 75 60 126 60c50 0 87 -29 100 -71c42 41 92 71 139 71c58 0 107 -44 107 -111c0 -17 -3 -31 -8 -51l-41 -190h-70l42 190c5 24 7 37 7 47c0 31 -27 56 -61 56c-41 1 -81 -30 -108 -58l-50 -235h-70l50 228
c6 37 -23 65 -62 65c-40 0 -78 -28 -106 -56l-52 -237h-68z" />
    <glyph glyph-name="n.superior" unicode="&#x207f;" horiz-adv-x="462" 
d="M127 220h-68l55 258c6 27 11 55 10 83h62c2 -17 0 -29 -2 -49c34 29 80 60 133 60c65 0 117 -44 117 -111c0 -17 -3 -31 -7 -51l-42 -190h-69l41 190c2 5 8 33 8 47c-1 34 -34 56 -73 56c-44 0 -83 -28 -113 -56z" />
    <glyph glyph-name="o.superior" horiz-adv-x="467" 
d="M65 377c0 108 100 195 210 195c99 0 176 -72 176 -166c0 -109 -99 -196 -212 -196c-98 0 -174 72 -174 167zM137 379c0 -62 41 -110 108 -110c81 0 135 62 135 134c0 62 -42 110 -111 110c-80 0 -132 -63 -132 -134z" />
    <glyph glyph-name="r.superior" horiz-adv-x="308" 
d="M127 220h-68l54 250c7 30 11 60 11 91h63c1 -19 -2 -35 -5 -57c30 35 57 68 106 68c22 0 43 -5 52 -15l-15 -62c-10 7 -33 12 -46 12c-36 0 -75 -32 -102 -59z" />
    <glyph glyph-name="s.superior" horiz-adv-x="424" 
d="M414 518l-37 -48c-34 27 -95 48 -140 48c-34 0 -73 -12 -73 -42c0 -31 44 -38 78 -44c67 -10 155 -26 155 -108c0 -74 -74 -116 -166 -116c-69 0 -141 25 -192 70l37 49c40 -36 101 -63 157 -63c41 0 92 14 92 53c0 36 -44 43 -84 50c-70 11 -147 24 -147 102
c0 67 60 105 143 105c63 0 130 -22 177 -56z" />
    <glyph glyph-name="t.superior" horiz-adv-x="312" 
d="M80 509l11 52h68l23 103h69l-23 -103h102l-11 -52h-102l-43 -197c-2 -6 -3 -14 -3 -18c0 -19 16 -28 40 -28c16 0 46 3 57 7l-4 -53c-16 -8 -54 -14 -78 -14c-42 0 -85 18 -85 75c0 8 1 16 3 25l44 203h-68z" />
    <glyph glyph-name="a.sc" horiz-adv-x="698" 
d="M-23 0l391 555h80l159 -555h-90l-44 158h-291l-110 -158h-95zM387 451l-157 -225h224l-62 225h-5z" />
    <glyph glyph-name="b.sc" horiz-adv-x="759" 
d="M65 0l115 555h323c67 0 112 -20 141 -50c23 -24 35 -54 35 -83c0 -55 -44 -109 -105 -127c53 -14 85 -64 85 -120c0 -42 -19 -82 -50 -113c-40 -39 -98 -62 -183 -62h-361zM165 76h256c52 0 93 9 120 36c17 17 26 39 26 61c0 43 -40 80 -85 80h-278zM252 478l-34 -157
h265c62 0 102 43 102 85c0 18 -7 34 -19 47c-17 18 -44 25 -79 25h-235z" />
    <glyph glyph-name="c.sc" horiz-adv-x="731" 
d="M704 445l-67 -43c-50 52 -130 94 -220 94c-141 0 -261 -112 -261 -238c0 -109 97 -199 229 -199c81 0 158 34 214 75l47 -57c-67 -51 -160 -94 -266 -94c-173 0 -314 108 -314 271c0 166 157 318 353 318c110 0 217 -46 285 -127z" />
    <glyph glyph-name="d.sc" horiz-adv-x="771" 
d="M64 0l117 555h240c103 0 165 -26 214 -74c47 -48 70 -107 70 -172c0 -77 -32 -156 -96 -217c-57 -54 -132 -92 -256 -92h-289zM166 76h182c94 0 154 28 199 70c43 42 68 99 68 157c0 42 -14 84 -47 119c-36 36 -81 56 -165 56h-151z" />
    <glyph glyph-name="e.sc" horiz-adv-x="671" 
d="M457 329l-14 -76h-238l-39 -177h412l-15 -76h-499l117 555h478l-15 -77h-392l-33 -149h238z" />
    <glyph glyph-name="f.sc" horiz-adv-x="625" 
d="M151 0h-87l117 555h470l-15 -77h-384l-33 -151h235l-15 -77h-235z" />
    <glyph glyph-name="g.sc" horiz-adv-x="763" 
d="M703 468l-62 -55c-47 47 -134 83 -223 83c-138 0 -262 -110 -262 -240c0 -118 101 -197 242 -197c56 0 116 14 157 35l31 137h-191l15 76h270l-55 -265c-71 -38 -158 -59 -239 -59c-172 0 -320 106 -320 272c0 167 164 317 356 317c109 0 207 -42 281 -104z" />
    <glyph glyph-name="h.sc" horiz-adv-x="766" 
d="M151 0h-87l117 555h86l-45 -215h349l45 215h87l-116 -555h-87l55 264h-349z" />
    <glyph glyph-name="i.sc" horiz-adv-x="331" 
d="M151 0h-87l117 555h86z" />
    <glyph glyph-name="j.sc" horiz-adv-x="625" 
d="M487 555h86l-78 -381c-26 -124 -127 -191 -251 -191s-214 53 -242 166l78 31c19 -76 75 -121 168 -121c78 0 145 46 161 124z" />
    <glyph glyph-name="k.sc" horiz-adv-x="700" 
d="M553 555h127l-268 -210l213 -345h-100l-180 293l-158 -123l-36 -170h-87l117 555h86l-63 -289z" />
    <glyph glyph-name="l.sc" horiz-adv-x="602" 
d="M180 555h87l-101 -479h370l-15 -76h-457z" />
    <glyph glyph-name="m.sc" horiz-adv-x="855" 
d="M674 0h-86l86 408h-4l-278 -327h-16l-140 327h-5l-85 -408h-82l117 555h85l144 -341h2l288 341h91z" />
    <glyph glyph-name="n.sc" horiz-adv-x="774" 
d="M624 555h86l-117 -555h-78l-275 428h-1l-90 -428h-86l118 555h77l275 -428h1z" />
    <glyph glyph-name="o.sc" horiz-adv-x="783" 
d="M68 259c0 173 163 313 340 313c158 0 310 -111 310 -277c0 -172 -166 -312 -345 -312c-159 0 -305 111 -305 276zM159 264c0 -113 94 -205 213 -205c127 0 253 101 253 231c0 114 -96 206 -216 206c-127 0 -250 -102 -250 -232z" />
    <glyph glyph-name="p.sc" horiz-adv-x="709" 
d="M151 0h-87l116 555h310c69 0 117 -16 150 -51c25 -25 43 -63 43 -106c0 -47 -22 -86 -52 -115c-42 -42 -101 -64 -183 -64h-251zM252 478l-39 -183h243c52 0 88 11 114 35c18 16 28 35 28 61c0 24 -10 46 -24 60c-21 21 -49 27 -100 27h-222z" />
    <glyph glyph-name="q.sc" horiz-adv-x="783" 
d="M68 259c0 173 163 313 340 313c158 0 310 -111 310 -277c0 -103 -59 -194 -145 -251l93 -124l-83 -27l-85 113c-40 -15 -82 -23 -125 -23c-159 0 -305 111 -305 276zM374 171l83 27l67 -90c59 42 101 107 101 182c0 114 -96 206 -216 206c-127 0 -250 -102 -250 -232
c0 -113 94 -205 213 -205c26 0 52 4 77 12z" />
    <glyph glyph-name="r.sc" horiz-adv-x="742" 
d="M151 0h-87l116 555h312c70 0 119 -16 154 -53c27 -29 42 -67 42 -105c0 -80 -68 -154 -173 -171l95 -226h-95l-87 219h-231zM252 478l-40 -183h269c62 0 121 38 121 98c0 18 -5 39 -24 59c-24 22 -47 26 -93 26h-233z" />
    <glyph glyph-name="s.sc" horiz-adv-x="697" 
d="M631 465l-65 -55c-52 60 -150 87 -236 87c-55 0 -129 -16 -129 -74c0 -60 74 -73 156 -88c105 -19 259 -41 259 -170c0 -120 -108 -182 -247 -182c-140 0 -256 51 -340 146l63 54c64 -76 158 -126 277 -126c74 0 159 22 159 90c0 65 -80 86 -187 104
c-112 21 -229 44 -229 157c0 111 103 164 220 164c109 0 220 -36 299 -107z" />
    <glyph glyph-name="t.sc" horiz-adv-x="616" 
d="M71 478l15 77h549l-15 -77h-231l-102 -478h-86l102 478h-232z" />
    <glyph glyph-name="u.sc" horiz-adv-x="742" 
d="M604 555h87l-78 -377c-27 -132 -135 -195 -264 -195c-137 0 -252 72 -252 192c0 22 3 60 14 117c4 19 40 184 55 263h86l-56 -273c-10 -49 -14 -77 -14 -97c0 -83 78 -126 168 -126c87 0 160 40 178 128z" />
    <glyph glyph-name="v.sc" horiz-adv-x="696" 
d="M623 555h99l-391 -555h-81l-159 555h94l121 -452h5z" />
    <glyph glyph-name="w.sc" horiz-adv-x="943" 
d="M855 555h94l-307 -555h-90l-52 404h-5l-226 -404h-85l-74 555h91l50 -437h4l241 437h64l55 -437h5z" />
    <glyph glyph-name="x.sc" horiz-adv-x="681" 
d="M578 555h109l-288 -265l186 -290h-104l-144 229l-248 -229h-111l312 286l-170 269h105l129 -208z" />
    <glyph glyph-name="y.sc" horiz-adv-x="624" 
d="M548 555h109l-305 -298l-54 -257h-86l53 258l-180 297h103l133 -220z" />
    <glyph glyph-name="z.sc" horiz-adv-x="639" 
d="M543 76l-16 -76h-514l11 54l448 424h-364l16 77h488l-11 -55l-448 -424h390z" />
    <glyph glyph-name="ampersand.sc" horiz-adv-x="745" 
d="M549 522l-50 -68c-28 19 -77 40 -130 40c-64 0 -111 -29 -111 -68c0 -42 56 -87 96 -127l134 -133c40 33 81 76 123 130l66 -36c-47 -59 -93 -107 -137 -144l118 -116h-113l-70 67c-91 -60 -172 -81 -230 -81c-76 0 -206 35 -206 165c0 110 90 158 169 184
c-24 30 -37 58 -37 89c0 88 99 147 206 147c74 0 133 -27 172 -49zM422 119l-165 161c-51 -16 -130 -46 -130 -122c0 -75 81 -95 129 -95c41 0 100 15 166 56z" />
    <glyph glyph-name="aacute.sc" horiz-adv-x="698" 
d="M-23 0l391 555h80l159 -555h-90l-44 158h-291l-110 -158h-95zM387 451l-157 -225h224l-62 225h-5zM426 626l-75 2l121 123l102 -2z" />
    <glyph glyph-name="agrave.sc" horiz-adv-x="698" 
d="M-23 0l391 555h80l159 -555h-90l-44 158h-291l-110 -158h-95zM387 451l-157 -225h224l-62 225h-5zM497 628l-76 -2l-147 123l103 2z" />
    <glyph glyph-name="acircumflex.sc" horiz-adv-x="698" 
d="M-23 0l391 555h80l159 -555h-90l-44 158h-291l-110 -158h-95zM387 451l-157 -225h224l-62 225h-5zM340 626l-68 2l134 125h89l79 -125l-59 -2l-70 80z" />
    <glyph glyph-name="adieresis.sc" horiz-adv-x="698" 
d="M-23 0l391 555h80l159 -555h-90l-44 158h-291l-110 -158h-95zM387 451l-157 -225h224l-62 225h-5zM287 680c0 27 24 51 54 51c27 0 45 -21 45 -43c0 -28 -25 -49 -55 -49c-26 0 -44 18 -44 41zM488 680c0 27 24 51 54 51c27 0 46 -21 46 -43c0 -28 -25 -49 -55 -49
c-27 0 -45 18 -45 41z" />
    <glyph glyph-name="atilde.sc" horiz-adv-x="698" 
d="M-23 0l391 555h80l159 -555h-90l-44 158h-291l-110 -158h-95zM387 451l-157 -225h224l-62 225h-5zM561 726l43 -27c-39 -50 -78 -79 -119 -79c-28 0 -49 12 -65 25c-19 17 -31 30 -48 30c-24 0 -44 -25 -65 -47l-46 28c45 55 80 79 119 79c27 0 44 -11 63 -28
c17 -14 32 -27 52 -27c24 0 46 24 66 46z" />
    <glyph glyph-name="aring.sc" horiz-adv-x="698" 
d="M-23 0l391 555h80l159 -555h-90l-44 158h-291l-110 -158h-95zM387 451l-157 -225h224l-62 225h-5zM428 626c45 0 77 26 77 63c0 32 -25 57 -64 57c-43 0 -76 -30 -76 -67c0 -31 25 -53 63 -53zM424 587c-71 0 -108 41 -108 89c0 57 47 107 129 107c72 0 111 -41 111 -90
c0 -57 -51 -106 -132 -106z" />
    <glyph glyph-name="abreve.sc" horiz-adv-x="698" 
d="M-23 0l391 555h80l159 -555h-90l-44 158h-291l-110 -158h-95zM387 451l-157 -225h224l-62 225h-5zM310 750h57c-7 -35 -2 -78 65 -78s90 43 98 78h60c-12 -57 -53 -132 -168 -132c-114 0 -124 75 -112 132z" />
    <glyph glyph-name="amacron.sc" horiz-adv-x="698" 
d="M-23 0l391 555h80l159 -555h-90l-44 158h-291l-110 -158h-95zM387 451l-157 -225h224l-62 225h-5zM556 656h-254l13 62h255z" />
    <glyph glyph-name="aogonek.sc" horiz-adv-x="698" 
d="M-23 0l391 555h80l159 -555h-14c-40 -16 -146 -60 -146 -124c0 -30 27 -49 71 -49c20 0 43 4 67 8l-4 -50c-29 -7 -60 -11 -87 -11c-76 0 -121 32 -121 81c0 71 82 121 143 149l-43 154h-291l-110 -158h-95zM387 451l-157 -225h224l-62 225h-5z" />
    </font>
</defs>
</svg>
