<?xml version="1.0" standalone="no"?>
<!DOCTYPE svg PUBLIC "-//W3C//DTD SVG 1.1//EN" "http://www.w3.org/Graphics/SVG/1.1/DTD/svg11.dtd" >
<svg>
<metadata>
Created by FontForge 20120731 at Thu Sep 18 21:47:59 2014
 By World Wide Web Server
Copyright (C) 2011 Markanna Studios Inc.www.SweetFonts.com
</metadata>
<defs>
<font id="SweetSansPro-Bold" horiz-adv-x="496" >
  <font-face 
    font-family="Sweet Sans Pro"
    font-weight="700"
    font-stretch="normal"
    units-per-em="1000"
    panose-1="2 0 0 0 0 0 0 0 0 0"
    ascent="770"
    descent="-230"
    x-height="488"
    cap-height="653"
    bbox="-134 -307 1558 1097"
    underline-thickness="56"
    underline-position="-72"
    stemh="112"
    stemv="118"
    unicode-range="U+000D-FB04"
  />
<missing-glyph horiz-adv-x="579" 
d="M0 0v653h579v-653h-579zM289 252l-142 -160h284zM147 561l142 -160l142 160h-284zM355 326l122 -136v273zM223 326l-121 137v-273z" />
    <glyph glyph-name="f_i" unicode="fi" horiz-adv-x="666" 
d="M33 488h84v77c0 110 83 146 158 146c33 0 85 -8 103 -17l-14 -102c-18 6 -53 11 -68 11c-28 0 -46 -14 -46 -38v-77h120v-99h-120v-389h-133v389h-84v99zM590 0h-134v488h134v-488zM443 636c0 40 34 73 79 73s81 -34 81 -73s-36 -71 -81 -71s-79 32 -79 71z" />
    <glyph glyph-name="f_l" unicode="fl" horiz-adv-x="672" 
d="M33 488h84v77c0 110 83 146 158 146c33 0 85 -8 103 -17l-14 -102c-18 6 -53 11 -68 11c-28 0 -46 -14 -46 -38v-77h120v-99h-120v-389h-133v389h-84v99zM592 0h-133v700h133v-700z" />
    <glyph glyph-name="f_f" unicode="ff" horiz-adv-x="714" 
d="M586 565v-77h120v-99h-120v-389h-133v389h-203v-389h-133v389h-84v99h84v77c0 110 83 146 158 146c33 0 85 -8 103 -17l-14 -102c-18 6 -53 11 -68 11c-28 0 -46 -14 -46 -38v-77h203v77c0 110 83 146 158 146c33 0 85 -8 103 -17l-14 -102c-18 6 -53 11 -68 11
c-28 0 -46 -14 -46 -38z" />
    <glyph glyph-name="f_f_i" unicode="ffi" horiz-adv-x="1002" 
d="M453 0v389h-203v-389h-133v389h-84v99h84v77c0 110 83 146 158 146c33 0 85 -8 103 -17l-14 -102c-18 6 -53 11 -68 11c-28 0 -46 -14 -46 -38v-77h203v77c0 110 83 146 158 146c33 0 85 -8 103 -17l-14 -102c-18 6 -53 11 -68 11c-28 0 -46 -14 -46 -38v-77h120v-99
h-120v-389h-133zM792 0v488h134v-488h-134zM858 565c-45 0 -79 32 -79 71c0 40 34 73 79 73s81 -34 81 -73s-36 -71 -81 -71z" />
    <glyph glyph-name="f_f_l" unicode="ffl" horiz-adv-x="1008" 
d="M453 0v389h-203v-389h-133v389h-84v99h84v77c0 110 83 146 158 146c33 0 85 -8 103 -17l-14 -102c-18 6 -53 11 -68 11c-28 0 -46 -14 -46 -38v-77h203v77c0 110 83 146 158 146c33 0 85 -8 103 -17l-14 -102c-18 6 -53 11 -68 11c-28 0 -46 -14 -46 -38v-77h120v-99
h-120v-389h-133zM795 0v700h133v-700h-133z" />
    <glyph glyph-name="f_j" unicode="fj" horiz-adv-x="666" 
d="M33 488h84v77c0 110 83 146 158 146c33 0 85 -8 103 -17l-14 -102c-18 6 -53 11 -68 11c-28 0 -46 -14 -46 -38v-77h120v-99h-120v-389h-133v389h-84v99zM401 -228l-37 99c44 10 92 23 92 85v532h134v-532c0 -136 -107 -184 -189 -184zM443 636c0 40 34 73 79 73
s81 -34 81 -73s-36 -71 -81 -71s-79 32 -79 71z" />
    <glyph glyph-name="f_f_j" unicode="ffj" horiz-adv-x="1002" 
d="M453 0v389h-203v-389h-133v389h-84v99h84v77c0 110 83 146 158 146c33 0 85 -8 103 -17l-14 -102c-18 6 -53 11 -68 11c-28 0 -46 -14 -46 -38v-77h203v77c0 110 83 146 158 146c33 0 85 -8 103 -17l-14 -102c-18 6 -53 11 -68 11c-28 0 -46 -14 -46 -38v-77h120v-99
h-120v-389h-133zM737 -228l-37 99c44 10 92 23 92 85v532h134v-532c0 -136 -107 -184 -189 -184zM859 565c-46 0 -80 32 -80 71c0 40 34 73 80 73c45 0 80 -34 80 -73s-35 -71 -80 -71z" />
    <glyph glyph-name="f_t" unicode="ft" horiz-adv-x="744" 
d="M250 565v-77h207v138h134v-138h120v-99h-120v-253c0 -30 18 -43 52 -43c20 0 45 4 63 7l10 -100c-20 -15 -81 -19 -106 -19c-72 0 -153 36 -153 145v263h-207v-389h-133v389h-84v99h84v77c0 110 83 146 158 146c33 0 85 -8 103 -17l-14 -102c-18 6 -53 11 -68 11
c-28 0 -46 -14 -46 -38z" />
    <glyph glyph-name="f_f_t" unicode="fft" horiz-adv-x="1080" 
d="M33 389v99h84v77c0 110 83 146 158 146c33 0 85 -8 103 -17l-14 -102c-18 6 -53 11 -68 11c-28 0 -46 -14 -46 -38v-77h203v77c0 110 83 146 158 146c33 0 85 -8 103 -17l-14 -102c-18 6 -53 11 -68 11c-28 0 -46 -14 -46 -38v-77h207v138h134v-138h120v-99h-120v-253
c0 -30 18 -43 52 -43c20 0 45 4 63 7l10 -100c-20 -15 -81 -19 -106 -19c-72 0 -153 36 -153 145v263h-207v-389h-133v389h-203v-389h-133v389h-84z" />
    <glyph glyph-name="t_t" unicode="tt" horiz-adv-x="773" 
d="M22 389v99h85v138h133v-138h237v138h133v-138h120v-99h-120v-253c0 -30 19 -43 53 -43c20 0 45 4 62 7l10 -100c-19 -15 -80 -19 -106 -19c-72 0 -152 36 -152 145v263h-237v-253c0 -30 19 -43 53 -43c19 0 45 4 62 7l10 -100c-19 -15 -80 -19 -106 -19
c-72 0 -152 36 -152 145v263h-85z" />
    <glyph glyph-name=".notdef" horiz-adv-x="579" 
d="M0 0v653h579v-653h-579zM289 252l-142 -160h284zM147 561l142 -160l142 160h-284zM355 326l122 -136v273zM223 326l-121 137v-273z" />
    <glyph glyph-name="space" unicode=" " horiz-adv-x="225" 
 />
    <glyph glyph-name="A" unicode="A" horiz-adv-x="753" 
d="M12 0l303 653h123l303 -653h-157l-60 138h-302l-59 -138h-151zM370 482l-99 -231h204l-99 231h-6z" />
    <glyph glyph-name="B" unicode="B" horiz-adv-x="806" 
d="M506 0h-403v653h391c81 0 139 -25 175 -63c26 -27 41 -61 41 -98c0 -56 -34 -106 -82 -131c76 -26 117 -86 117 -162c0 -52 -20 -100 -61 -140c-40 -38 -89 -59 -178 -59zM501 283h-254v-165h254c30 0 55 9 72 25c14 15 23 36 23 57s-9 40 -23 55c-18 18 -41 28 -72 28z
M477 534h-230v-143h230c27 0 48 6 63 21c14 14 22 33 22 53c0 19 -8 35 -20 47c-14 15 -33 22 -65 22z" />
    <glyph glyph-name="C" unicode="C" horiz-adv-x="766" 
d="M649 207l91 -93c-75 -70 -189 -134 -332 -134c-217 0 -360 155 -360 347c0 188 144 346 355 346c120 0 238 -47 316 -114l-90 -94c-60 52 -144 84 -214 84c-132 0 -217 -101 -217 -223c0 -123 87 -223 222 -223c89 0 172 47 229 104z" />
    <glyph glyph-name="D" unicode="D" horiz-adv-x="806" 
d="M410 0h-307v653h307c120 0 198 -34 256 -93c57 -59 88 -141 88 -233c0 -95 -33 -181 -94 -241c-56 -53 -127 -86 -250 -86zM246 123h159c75 0 106 17 140 47c38 38 60 90 60 156c0 62 -19 114 -55 151c-33 33 -68 52 -145 52h-159v-406z" />
    <glyph glyph-name="E" unicode="E" horiz-adv-x="711" 
d="M487 402v-123h-241v-156h424v-123h-567v653h544v-124h-401v-127h241z" />
    <glyph glyph-name="F" unicode="F" horiz-adv-x="663" 
d="M246 0h-143v653h539v-124h-396v-132h241v-123h-241v-274z" />
    <glyph glyph-name="G" unicode="G" horiz-adv-x="801" 
d="M717 556l-95 -89c-57 52 -146 82 -214 82c-125 0 -212 -101 -212 -223c0 -114 76 -222 222 -222c59 0 125 16 166 44v110h-197v118h331v-293c-85 -63 -204 -102 -306 -102c-209 0 -365 154 -365 346c0 191 158 346 360 346c103 0 216 -41 310 -117z" />
    <glyph glyph-name="H" unicode="H" horiz-adv-x="802" 
d="M247 0h-144v653h144v-242h308v242h144v-653h-144v290h-308v-290z" />
    <glyph glyph-name="I" unicode="I" horiz-adv-x="349" 
d="M246 0h-143v653h143v-653z" />
    <glyph glyph-name="J" unicode="J" horiz-adv-x="650" 
d="M415 653h144v-417c0 -163 -117 -255 -280 -255c-168 0 -238 105 -273 179l121 63c22 -50 63 -119 151 -119c80 0 137 46 137 132v417z" />
    <glyph glyph-name="K" unicode="K" horiz-adv-x="772" 
d="M247 653v-284l299 284h180l-272 -255l321 -398h-181l-242 304l-105 -99v-205h-144v653h144z" />
    <glyph glyph-name="L" unicode="L" horiz-adv-x="649" 
d="M103 653h143v-530h384v-123h-527v653z" />
    <glyph glyph-name="M" unicode="M" horiz-adv-x="905" 
d="M802 0h-144v379h-5l-183 -305h-40l-183 305h-5v-379h-139v653h137l214 -358h2l213 358h133v-653z" />
    <glyph glyph-name="N" unicode="N" horiz-adv-x="807" 
d="M560 653h144v-653h-124l-332 404h-1v-404h-144v653h123l333 -405h1v405z" />
    <glyph glyph-name="O" unicode="O" horiz-adv-x="835" 
d="M47 328c0 190 162 345 369 345s373 -155 373 -345c0 -194 -166 -348 -373 -348s-369 154 -369 348zM197 328c0 -123 96 -225 219 -225c125 0 223 102 223 225c0 121 -98 221 -223 221c-123 0 -219 -100 -219 -221z" />
    <glyph glyph-name="P" unicode="P" horiz-adv-x="744" 
d="M246 0h-143v653h362c92 0 154 -26 197 -72c34 -38 53 -84 53 -134c0 -57 -24 -107 -62 -144c-41 -39 -99 -63 -188 -63h-219v-240zM470 532h-224v-171h224c25 0 53 4 75 25c16 16 26 38 26 60c0 23 -9 43 -24 59c-22 23 -51 27 -77 27z" />
    <glyph glyph-name="Q" unicode="Q" horiz-adv-x="835" 
d="M47 328c0 190 162 345 369 345s373 -155 373 -345c0 -117 -60 -219 -153 -282l81 -122l-132 -42l-73 110c-31 -8 -63 -12 -96 -12c-207 0 -369 154 -369 348zM363 217l131 43l68 -103c47 42 77 103 77 171c0 121 -98 221 -223 221c-123 0 -219 -100 -219 -221
c0 -123 96 -225 219 -225c7 0 14 0 22 1z" />
    <glyph glyph-name="R" unicode="R" horiz-adv-x="780" 
d="M246 0h-143v653h362c93 0 154 -27 196 -71c34 -36 54 -83 54 -135c0 -84 -52 -149 -132 -184l153 -263h-164l-132 240h-194v-240zM470 532h-224v-171h234c50 0 91 36 91 86c0 22 -8 42 -23 57c-23 25 -52 28 -78 28z" />
    <glyph glyph-name="S" unicode="S" horiz-adv-x="730" 
d="M647 585l-82 -100c-39 29 -121 70 -229 70c-65 0 -123 -24 -123 -80c0 -58 86 -62 171 -69c119 -8 305 -22 305 -202c0 -161 -134 -224 -294 -224c-169 0 -283 67 -359 129l81 98c55 -44 148 -110 280 -110c83 0 149 32 149 93c0 63 -67 77 -165 85
c-143 9 -311 25 -311 191c0 158 147 207 270 207c136 0 251 -50 307 -88z" />
    <glyph glyph-name="T" unicode="T" horiz-adv-x="668" 
d="M26 529v124h616v-124h-236v-529h-143v529h-237z" />
    <glyph glyph-name="U" unicode="U" horiz-adv-x="778" 
d="M543 653h144v-418c0 -163 -126 -255 -299 -255c-168 0 -297 92 -297 255v418h144v-418c0 -86 69 -132 153 -132c89 0 155 46 155 132v418z" />
    <glyph glyph-name="V" unicode="V" horiz-adv-x="748" 
d="M583 653h156l-303 -653h-124l-303 653h162l203 -474h6z" />
    <glyph glyph-name="W" unicode="W" horiz-adv-x="999" 
d="M29 653h156l125 -429h6l134 429h105l133 -429h6l126 429h150l-209 -653h-136l-123 388h-6l-122 -388h-136z" />
    <glyph glyph-name="X" unicode="X" horiz-adv-x="751" 
d="M549 653h173l-258 -313l270 -340h-180l-181 237l-189 -237h-174l277 335l-250 318h180l162 -215z" />
    <glyph glyph-name="Y" unicode="Y" horiz-adv-x="670" 
d="M498 653h168l-259 -355v-298h-144v298l-260 355h178l159 -227z" />
    <glyph glyph-name="Z" unicode="Z" horiz-adv-x="682" 
d="M625 123v-123h-578v84l370 445h-351v124h559v-85l-370 -445h370z" />
    <glyph glyph-name="a" unicode="a" horiz-adv-x="598" 
d="M113 353l-41 99c46 23 134 52 228 52c112 0 225 -38 225 -148v-261c0 -22 2 -58 14 -95h-132c-5 15 -9 38 -12 56c-36 -35 -79 -68 -164 -68c-118 0 -193 71 -193 166c0 91 78 162 214 162c52 0 104 -12 140 -40v49c0 51 -44 74 -103 74c-62 0 -140 -27 -176 -46zM260 86
c70 0 117 40 132 54v47c-21 18 -63 35 -113 35c-79 0 -108 -31 -108 -68c0 -41 33 -68 89 -68z" />
    <glyph glyph-name="b" unicode="b" horiz-adv-x="632" 
d="M193 0h-126c11 57 11 99 11 139v561h134v-261c40 40 90 65 138 65c129 0 237 -102 237 -258c0 -157 -107 -260 -237 -260c-68 0 -121 38 -151 72c-1 -17 -3 -41 -6 -58zM330 391c-40 0 -83 -21 -118 -55v-184c17 -18 60 -54 118 -54c63 0 113 59 113 148
s-49 145 -113 145z" />
    <glyph glyph-name="c" unicode="c" horiz-adv-x="558" 
d="M524 421l-83 -88c-40 39 -86 58 -125 58c-72 0 -130 -56 -130 -145s62 -149 135 -149c49 0 94 30 131 66l82 -82c-21 -25 -103 -96 -228 -96c-141 0 -262 104 -262 261c0 156 117 258 262 258c75 0 154 -26 218 -83z" />
    <glyph glyph-name="d" unicode="d" horiz-adv-x="632" 
d="M565 0h-126c-3 17 -5 41 -6 58c-30 -34 -83 -72 -151 -72c-130 0 -237 103 -237 260c0 156 108 258 237 258c48 0 98 -23 138 -60v256h134v-561c0 -40 0 -82 11 -139zM302 391c-64 0 -113 -56 -113 -145s50 -148 113 -148c58 0 101 36 118 54v184c-35 34 -78 55 -118 55z
" />
    <glyph glyph-name="e" unicode="e" horiz-adv-x="590" 
d="M466 142l63 -85c-54 -41 -142 -72 -230 -72c-165 0 -255 118 -255 255c0 148 108 264 259 264c119 0 245 -72 245 -252c0 -8 0 -18 -2 -41h-371c11 -69 59 -119 141 -119c53 0 111 21 150 50zM302 402c-71 0 -109 -47 -124 -102h235c-1 69 -60 102 -111 102z" />
    <glyph glyph-name="f" unicode="f" horiz-adv-x="378" 
d="M33 488h84v77c0 110 83 146 158 146c33 0 85 -8 103 -17l-14 -102c-18 6 -53 11 -68 11c-28 0 -46 -14 -46 -38v-77h120v-99h-120v-389h-133v389h-84v99z" />
    <glyph glyph-name="g" unicode="g" horiz-adv-x="632" 
d="M420 -28v83c-40 -41 -90 -64 -138 -64c-130 0 -237 101 -237 252c0 159 106 261 237 261c65 0 123 -45 151 -77c0 18 3 45 7 63h124c-11 -58 -11 -100 -11 -140v-373c0 -112 -85 -204 -252 -204c-112 0 -183 35 -232 79l70 77c38 -28 88 -51 162 -51c78 0 119 42 119 94z
M301 103c41 0 83 21 119 54v179c-18 18 -60 55 -119 55c-62 0 -113 -57 -113 -148c0 -84 51 -140 113 -140z" />
    <glyph glyph-name="h" unicode="h" horiz-adv-x="608" 
d="M210 0h-133v700h133v-263c35 35 82 67 141 67c111 0 186 -74 186 -176v-328h-134v323c0 37 -34 68 -82 68c-47 0 -88 -33 -111 -63v-328z" />
    <glyph glyph-name="i" unicode="i" horiz-adv-x="287" 
d="M210 0h-133v488h133v-488zM64 636c0 40 34 73 79 73s80 -34 80 -73s-35 -71 -80 -71s-79 32 -79 71z" />
    <glyph glyph-name="j" unicode="j" horiz-adv-x="287" 
d="M21 -228l-36 99c43 10 92 23 92 85v532h133v-532c0 -136 -106 -184 -189 -184zM63 636c0 40 34 73 80 73c45 0 80 -34 80 -73s-35 -71 -80 -71c-46 0 -80 32 -80 71z" />
    <glyph glyph-name="k" unicode="k" horiz-adv-x="584" 
d="M388 488h175l-191 -178l211 -310h-165l-141 221l-66 -61v-160h-134v700h134v-389z" />
    <glyph glyph-name="l" unicode="l" horiz-adv-x="292" 
d="M213 0h-134v700h134v-700z" />
    <glyph glyph-name="m" unicode="m" horiz-adv-x="899" 
d="M520 328v-328h-135v323c0 37 -31 68 -76 68c-42 0 -74 -31 -98 -63v-328h-133v350c0 41 -3 84 -14 138h123c4 -19 7 -42 9 -64c36 40 83 80 153 80c63 0 116 -34 143 -86c35 47 93 86 164 86c97 0 172 -74 172 -176v-328h-134v323c0 38 -34 68 -77 68
c-42 0 -75 -31 -97 -63z" />
    <glyph glyph-name="n" unicode="n" horiz-adv-x="610" 
d="M196 424c37 44 88 80 164 80c99 0 178 -74 178 -176v-328h-134v323c0 37 -33 68 -81 68s-84 -32 -112 -63v-328h-133v349c0 41 -3 85 -14 139h122c4 -19 8 -41 10 -64z" />
    <glyph glyph-name="o" unicode="o" horiz-adv-x="620" 
d="M44 246c0 145 107 258 265 258c159 0 267 -113 267 -258s-108 -261 -267 -261c-158 0 -265 116 -265 261zM181 246c0 -81 47 -151 128 -151c83 0 131 70 131 151c0 80 -48 147 -131 147c-81 0 -128 -67 -128 -147z" />
    <glyph glyph-name="p" unicode="p" horiz-adv-x="632" 
d="M67 488h126c3 -19 4 -41 5 -61c30 36 84 77 152 77c130 0 237 -101 237 -260c0 -154 -108 -258 -237 -258c-49 0 -98 20 -139 63v-256h-133v557c0 40 0 80 -11 138zM330 98c63 0 113 59 113 146c0 91 -51 147 -113 147c-59 0 -101 -37 -118 -55v-185
c36 -33 77 -53 118 -53z" />
    <glyph glyph-name="q" unicode="q" horiz-adv-x="632" 
d="M439 488h126c-11 -58 -11 -98 -11 -138v-557h-133v256c-41 -43 -90 -63 -139 -63c-129 0 -237 104 -237 258c0 159 107 260 237 260c68 0 122 -41 152 -77c1 20 2 42 5 61zM302 98c41 0 82 20 118 53v185c-17 18 -59 55 -118 55c-62 0 -113 -56 -113 -147
c0 -87 50 -146 113 -146z" />
    <glyph glyph-name="r" unicode="r" horiz-adv-x="409" 
d="M296 376c-35 0 -57 -27 -84 -62v-314h-134v350c0 41 -4 84 -14 138h122c4 -21 8 -48 10 -73c30 50 65 89 128 89c25 0 58 -7 75 -20l-37 -122c-15 6 -48 14 -66 14z" />
    <glyph glyph-name="s" unicode="s" horiz-adv-x="557" 
d="M491 454l-47 -95c-54 25 -124 44 -176 44c-50 0 -81 -16 -81 -47c0 -41 54 -44 96 -46c88 -4 235 -14 235 -155c0 -116 -101 -172 -232 -172c-113 0 -197 42 -248 74l47 95c47 -29 126 -66 203 -66c62 0 97 23 97 57c0 46 -60 51 -103 54c-106 6 -227 13 -227 145
c0 124 109 164 208 164c88 0 187 -32 228 -52z" />
    <glyph glyph-name="t" unicode="t" horiz-adv-x="403" 
d="M22 389v99h85v138h133v-138h120v-99h-120v-253c0 -30 19 -43 53 -43c19 0 45 4 62 7l10 -100c-19 -15 -80 -19 -106 -19c-72 0 -152 36 -152 145v263h-85z" />
    <glyph glyph-name="u" unicode="u" horiz-adv-x="609" 
d="M413 63c-38 -43 -88 -79 -164 -79c-99 0 -178 74 -178 176v328h134v-323c0 -38 33 -68 81 -68s84 31 112 63v328h133v-350c0 -40 2 -84 12 -138h-124c-3 17 -5 44 -6 63z" />
    <glyph glyph-name="v" unicode="v" horiz-adv-x="558" 
d="M405 488h138l-211 -488h-107l-210 488h148l115 -308h6z" />
    <glyph glyph-name="w" unicode="w" horiz-adv-x="792" 
d="M338 488h121l88 -312h6l76 312h137l-155 -488h-127l-85 299h-6l-86 -299h-126l-155 488h140l78 -312h6z" />
    <glyph glyph-name="x" unicode="x" horiz-adv-x="595" 
d="M403 488h166l-191 -238l202 -250h-165l-118 158l-116 -158h-166l202 250l-192 238h168l104 -147z" />
    <glyph glyph-name="y" unicode="y" horiz-adv-x="557" 
d="M281 197h6l129 291h137l-329 -695h-139l127 252l-198 443h149z" />
    <glyph glyph-name="z" unicode="z" horiz-adv-x="533" 
d="M482 103v-103h-440v74l255 310h-236v104h421v-75l-255 -310h255z" />
    <glyph glyph-name="ampersand" unicode="&#x26;" horiz-adv-x="785" 
d="M587 584l-60 -107c-29 16 -85 37 -127 37c-44 0 -65 -23 -65 -47c0 -43 66 -101 85 -120l122 -127c35 37 72 84 109 143l106 -52c-46 -71 -92 -127 -136 -172l134 -139h-177l-55 56c-74 -51 -156 -71 -220 -71c-109 0 -235 58 -235 199c0 103 68 159 154 192
c-19 28 -29 56 -29 89c0 104 97 168 208 168c74 0 143 -28 186 -49zM442 139l-156 161c-39 -19 -77 -52 -77 -106c0 -70 64 -93 113 -93c32 0 73 10 120 38z" />
    <glyph glyph-name="zero" unicode="0" horiz-adv-x="721" 
d="M46 284c0 169 142 303 314 303c171 0 315 -134 315 -303c0 -168 -144 -303 -315 -303c-172 0 -314 135 -314 303zM182 284c0 -100 79 -186 178 -186c97 0 179 86 179 186c0 102 -82 185 -179 185c-99 0 -178 -83 -178 -185z" />
    <glyph glyph-name="one" unicode="1" horiz-adv-x="408" 
d="M46 382l-29 110l174 76h123v-568h-137v439z" />
    <glyph glyph-name="one.alt" horiz-adv-x="325" 
d="M94 0v568h137v-568h-137z" />
    <glyph glyph-name="two" unicode="2" horiz-adv-x="605" 
d="M55 0v91c0 140 117 206 255 244c33 9 106 31 106 82c0 43 -50 57 -95 57c-82 0 -137 -39 -194 -87l-75 90c73 57 144 110 265 110c116 0 235 -49 235 -169c0 -129 -130 -168 -226 -198c-84 -27 -133 -55 -133 -106v-6h348v-108h-486z" />
    <glyph glyph-name="three" unicode="3" horiz-adv-x="669" 
d="M278 245v104h91c43 0 73 23 73 57c0 50 -56 68 -100 68c-69 0 -141 -42 -194 -89l-77 84c67 58 161 118 273 118c99 0 235 -44 235 -164c0 -48 -34 -87 -65 -105c48 -17 107 -56 107 -137c0 -128 -132 -201 -297 -201c-117 0 -214 38 -300 120l76 90
c59 -56 129 -97 224 -97c89 0 160 35 160 95c0 48 -57 57 -92 57h-114z" />
    <glyph glyph-name="four" unicode="4" horiz-adv-x="704" 
d="M667 221v-103h-104v-118h-137v118h-399v82l413 368h123v-347h104zM220 225v-4h206v183h-9c-64 -58 -133 -122 -197 -179z" />
    <glyph glyph-name="five" unicode="5" horiz-adv-x="658" 
d="M324 -20c-145 0 -241 55 -293 86l61 95c42 -26 125 -68 232 -68c78 0 152 31 152 98c0 56 -57 80 -116 80c-78 0 -137 -26 -190 -55l-80 57v295h463v-113h-340v-133c47 32 93 57 168 57c116 0 236 -59 236 -187c0 -152 -151 -212 -293 -212z" />
    <glyph glyph-name="six" unicode="6" horiz-adv-x="671" 
d="M599 536l-61 -95c-44 21 -101 34 -157 34c-104 0 -197 -66 -204 -183c54 42 126 81 218 81c155 0 233 -93 233 -182c0 -118 -109 -210 -264 -210c-161 0 -316 100 -316 293c0 197 158 313 331 313c101 0 179 -33 220 -51zM376 269c-71 0 -138 -29 -188 -58
c26 -76 96 -118 175 -118c76 0 129 48 129 98c0 35 -31 78 -116 78z" />
    <glyph glyph-name="seven" unicode="7" horiz-adv-x="609" 
d="M41 450v118h528v-108l-304 -460h-172l312 450h-364z" />
    <glyph glyph-name="eight" unicode="8" horiz-adv-x="679" 
d="M340 -21c-149 0 -291 69 -291 188c0 77 55 127 122 147c-55 19 -91 56 -91 114c0 107 145 160 261 160c113 0 258 -51 258 -163c0 -56 -28 -93 -91 -111c67 -20 122 -70 122 -147c0 -119 -143 -188 -290 -188zM340 91c73 0 145 31 145 85c0 55 -80 81 -145 81
s-146 -26 -146 -81c0 -54 74 -85 146 -85zM340 356c73 0 113 22 113 60c0 47 -63 69 -113 69c-51 0 -114 -22 -114 -69c0 -38 40 -60 114 -60z" />
    <glyph glyph-name="nine" unicode="9" horiz-adv-x="669" 
d="M70 32l60 94c44 -20 101 -33 157 -33c105 0 196 65 203 181c-54 -42 -126 -80 -217 -80c-154 0 -233 93 -233 183c0 117 110 210 265 210c161 0 315 -101 315 -293c0 -197 -158 -313 -330 -313c-101 0 -179 33 -220 51zM293 298c70 0 137 29 187 58
c-26 76 -97 118 -175 118c-75 0 -129 -48 -129 -97c0 -36 31 -79 117 -79z" />
    <glyph glyph-name="period" unicode="." horiz-adv-x="298" 
d="M56 69c0 46 40 85 92 85c53 0 94 -39 94 -85c0 -47 -41 -84 -94 -84c-52 0 -92 37 -92 84z" />
    <glyph glyph-name="comma" unicode="," horiz-adv-x="316" 
d="M75 -192l-36 76c46 13 124 58 124 114v8c-8 -2 -17 -5 -29 -5c-43 0 -78 32 -78 73c0 45 41 80 93 80c61 0 115 -52 115 -130c0 -127 -109 -189 -189 -216z" />
    <glyph glyph-name="colon" unicode=":" horiz-adv-x="333" 
d="M74 69c0 46 40 84 92 84c53 0 94 -38 94 -84c0 -47 -41 -84 -94 -84c-52 0 -92 37 -92 84zM74 410c0 47 40 85 92 85c53 0 94 -39 94 -85c0 -47 -41 -84 -94 -84c-52 0 -92 37 -92 84z" />
    <glyph glyph-name="semicolon" unicode=";" horiz-adv-x="336" 
d="M91 -192l-36 76c46 13 124 58 124 114v8c-8 -2 -18 -5 -29 -5c-44 0 -78 32 -78 73c0 45 40 80 92 80c61 0 116 -52 116 -130c0 -127 -109 -189 -189 -216zM74 410c0 47 40 85 92 85c53 0 94 -39 94 -85c0 -47 -41 -84 -94 -84c-52 0 -92 37 -92 84z" />
    <glyph glyph-name="exclam" unicode="!" horiz-adv-x="323" 
d="M68 69c0 46 40 85 93 85c52 0 94 -39 94 -85c0 -47 -42 -84 -94 -84c-53 0 -93 37 -93 84zM207 218h-92l-30 262v173h152v-173z" />
    <glyph glyph-name="question" unicode="?" horiz-adv-x="574" 
d="M126 474l-85 77c64 65 132 121 267 121c113 0 214 -43 214 -162c0 -73 -40 -114 -89 -148c-53 -43 -127 -64 -131 -144h-130c-4 129 102 170 172 224c25 18 47 36 47 64c0 39 -39 59 -90 59c-76 0 -125 -37 -175 -91zM162 69c0 46 40 85 93 85s94 -39 94 -85
c0 -47 -42 -84 -94 -84s-93 37 -93 84z" />
    <glyph glyph-name="exclamdown" unicode="&#xa1;" horiz-adv-x="317" 
d="M236 411c0 -46 -40 -85 -93 -85c-52 0 -94 39 -94 85c0 47 42 84 94 84c53 0 93 -37 93 -84zM97 262h92l30 -262v-173h-152v173z" />
    <glyph glyph-name="questiondown" unicode="&#xbf;" horiz-adv-x="566" 
d="M431 6l85 -77c-64 -65 -132 -121 -267 -121c-113 0 -214 43 -214 162c0 73 40 114 89 148c53 43 127 64 131 144h130c4 -129 -102 -170 -172 -224c-25 -18 -47 -36 -47 -64c0 -39 39 -59 90 -59c76 0 125 37 175 91zM395 411c0 -46 -40 -85 -93 -85s-94 39 -94 85
c0 47 42 84 94 84s93 -37 93 -84z" />
    <glyph glyph-name="quotesingle" unicode="'" horiz-adv-x="259" 
d="M175 357h-91l-26 175v121h142v-121z" />
    <glyph glyph-name="quotedbl" unicode="&#x22;" horiz-adv-x="523" 
d="M174 357h-91l-25 175v121h142v-121zM439 357h-91l-25 175v121h142v-121z" />
    <glyph glyph-name="quoteleft" unicode="&#x2018;" horiz-adv-x="304" 
d="M230 683l30 -70c-45 -11 -120 -51 -120 -98v-8c8 2 17 5 29 5c42 0 76 -31 76 -71c0 -44 -40 -78 -90 -78c-58 0 -109 47 -109 115c0 121 106 179 184 205z" />
    <glyph glyph-name="quoteright" unicode="&#x2019;" horiz-adv-x="302" 
d="M79 353l-31 69c45 11 120 51 120 98v8c-8 -2 -17 -5 -28 -5c-43 0 -76 31 -76 72c0 44 40 78 90 78c57 0 108 -47 108 -116c0 -120 -106 -179 -183 -204z" />
    <glyph glyph-name="quotedblleft" unicode="&#x201c;" horiz-adv-x="580" 
d="M230 683l30 -70c-45 -11 -120 -51 -120 -98v-8c8 2 17 5 29 5c42 0 76 -31 76 -71c0 -44 -40 -78 -90 -78c-58 0 -109 47 -109 115c0 121 106 179 184 205zM506 683l30 -70c-45 -11 -120 -51 -120 -98v-8c8 2 17 5 29 5c42 0 76 -31 76 -71c0 -44 -40 -78 -90 -78
c-58 0 -109 47 -109 115c0 121 106 179 184 205z" />
    <glyph glyph-name="quotedblright" unicode="&#x201d;" horiz-adv-x="578" 
d="M355 353l-31 69c45 11 120 51 120 98v8c-8 -2 -17 -5 -28 -5c-43 0 -76 31 -76 72c0 44 40 78 90 78c57 0 108 -47 108 -116c0 -120 -106 -179 -183 -204zM79 353l-31 69c45 11 120 51 120 98v8c-8 -2 -17 -5 -28 -5c-43 0 -76 31 -76 72c0 44 40 78 90 78
c57 0 108 -47 108 -116c0 -120 -106 -179 -183 -204z" />
    <glyph glyph-name="quotesinglbase" unicode="&#x201a;" horiz-adv-x="309" 
d="M71 -171l-30 69c45 11 120 51 120 98v8c-8 -2 -17 -5 -29 -5c-42 0 -76 31 -76 72c0 44 40 78 90 78c58 0 109 -47 109 -116c0 -120 -106 -179 -184 -204z" />
    <glyph glyph-name="quotedblbase" unicode="&#x201e;" horiz-adv-x="585" 
d="M347 -171l-30 69c45 11 120 51 120 98v8c-8 -2 -17 -5 -29 -5c-42 0 -76 31 -76 72c0 44 40 78 90 78c58 0 109 -47 109 -116c0 -120 -106 -179 -184 -204zM71 -171l-30 69c45 11 120 51 120 98v8c-8 -2 -17 -5 -29 -5c-42 0 -76 31 -76 72c0 44 40 78 90 78
c58 0 109 -47 109 -116c0 -120 -106 -179 -184 -204z" />
    <glyph glyph-name="guilsinglleft" unicode="&#x2039;" horiz-adv-x="359" 
d="M147 406h150l-126 -151v-8l126 -149h-150l-101 125v57z" />
    <glyph glyph-name="guilsinglright" unicode="&#x203a;" horiz-adv-x="359" 
d="M62 406h149l102 -126v-57l-102 -125h-149l125 149v8z" />
    <glyph glyph-name="guillemotleft" unicode="&#xab;" horiz-adv-x="628" 
d="M147 406h150l-126 -151v-8l126 -149h-150l-101 125v57zM295 247v8l121 151h150l-126 -151v-8l126 -149h-150z" />
    <glyph glyph-name="guillemotright" unicode="&#xbb;" horiz-adv-x="628" 
d="M331 406h149l102 -126v-57l-102 -125h-149l125 149v8zM333 255v-8l-122 -149h-149l125 149v8l-125 151h149z" />
    <glyph glyph-name="hyphen" unicode="-" horiz-adv-x="404" 
d="M62 198v124h279v-124h-279z" />
    <glyph glyph-name="endash" unicode="&#x2013;" horiz-adv-x="629" 
d="M63 208v114h503v-114h-503z" />
    <glyph glyph-name="emdash" unicode="&#x2014;" horiz-adv-x="1083" 
d="M63 208v114h957v-114h-957z" />
    <glyph glyph-name="underscore" unicode="_" horiz-adv-x="603" 
d="M-6 -207v95h615v-95h-615z" />
    <glyph glyph-name="ellipsis" unicode="&#x2026;" horiz-adv-x="1000" 
d="M82 69c0 46 40 85 93 85c52 0 93 -39 93 -85c0 -47 -41 -84 -93 -84c-53 0 -93 37 -93 84zM406 69c0 46 40 85 93 85c52 0 93 -39 93 -85c0 -47 -41 -84 -93 -84c-53 0 -93 37 -93 84zM730 69c0 46 40 85 93 85c52 0 93 -39 93 -85c0 -47 -41 -84 -93 -84
c-53 0 -93 37 -93 84z" />
    <glyph glyph-name="parenleft" unicode="(" horiz-adv-x="402" 
d="M314 696l67 -82c-121 -69 -202 -202 -202 -351s81 -279 202 -348l-67 -82c-174 90 -277 247 -277 430s103 343 277 433z" />
    <glyph glyph-name="parenright" unicode=")" horiz-adv-x="402" 
d="M21 614l67 82c174 -90 277 -250 277 -433s-103 -340 -277 -430l-67 82c121 69 202 199 202 348s-81 282 -202 351z" />
    <glyph glyph-name="bracketleft" unicode="[" horiz-adv-x="382" 
d="M343 -52v-102h-262v843h262v-102h-130v-639h130z" />
    <glyph glyph-name="bracketright" unicode="]" horiz-adv-x="382" 
d="M39 689h262v-843h-262v102h130v639h-130v102z" />
    <glyph glyph-name="braceleft" unicode="{" horiz-adv-x="403" 
d="M364 -154c-186 0 -237 27 -237 167v134c0 64 -49 78 -102 78v100c53 0 103 32 103 84v111c1 141 53 170 236 170v-102c-81 0 -103 -10 -104 -63v-116c0 -68 -48 -115 -104 -129v-5c58 -9 103 -41 103 -128v-139c0 -51 24 -60 105 -60v-102z" />
    <glyph glyph-name="braceright" unicode="}" horiz-adv-x="403" 
d="M38 -154v102c79 0 105 9 105 60v139c0 87 46 119 103 128v5c-56 14 -104 61 -104 129v116c-1 53 -25 63 -104 63v102c183 0 236 -29 237 -170v-111c0 -52 50 -84 103 -84v-100c-53 0 -103 -14 -103 -78v-134c0 -140 -51 -167 -237 -167z" />
    <glyph glyph-name="backslash" unicode="\" horiz-adv-x="560" 
d="M395 -119l-344 772h135l343 -772h-134z" />
    <glyph glyph-name="slash" unicode="/" horiz-adv-x="557" 
d="M516 653l-343 -772h-135l344 772h134z" />
    <glyph glyph-name="asterisk" unicode="*" horiz-adv-x="582" 
d="M187 241l-74 55l94 138l-159 59l28 85l160 -47l7 169h97l8 -168l159 46l28 -84l-159 -60l93 -138l-73 -55l-105 129z" />
    <glyph glyph-name="bullet" unicode="&#x2022;" horiz-adv-x="453" 
d="M226 130c-95 0 -172 72 -172 162c0 91 77 163 172 163c94 0 172 -72 172 -163c0 -90 -78 -162 -172 -162z" />
    <glyph glyph-name="at" unicode="@" horiz-adv-x="1035" 
d="M651 487h124l-84 -256c-6 -18 -9 -29 -9 -40c0 -26 14 -39 41 -39c68 0 152 84 152 206c0 146 -122 254 -307 254c-214 0 -404 -143 -404 -364c0 -219 187 -323 355 -323c93 0 203 32 264 63l32 -83c-59 -33 -183 -75 -301 -75c-213 0 -467 135 -467 417
c0 279 247 460 521 460c250 0 414 -151 414 -343c0 -190 -159 -312 -290 -312c-56 0 -113 23 -120 87c-45 -55 -98 -86 -152 -86c-71 0 -143 53 -143 172c0 159 131 278 234 278c55 0 96 -38 117 -87zM462 168c29 0 67 17 102 55l30 90c-10 41 -40 75 -74 75
c-43 0 -111 -55 -111 -147c0 -51 21 -73 53 -73z" />
    <glyph glyph-name="copyright" unicode="&#xa9;" horiz-adv-x="1030" 
d="M727 433l-51 -89c-47 36 -97 52 -142 52c-79 0 -131 -57 -131 -127c0 -69 61 -113 134 -113c62 0 103 20 146 44l48 -86c-52 -36 -106 -64 -205 -64c-141 0 -255 87 -255 219c0 129 99 232 252 232c73 0 149 -30 204 -68zM517 706c256 0 466 -194 466 -438
s-210 -438 -466 -438c-258 0 -470 194 -470 438s212 438 470 438zM517 617c-201 0 -370 -160 -370 -349c0 -193 169 -348 370 -348c204 0 366 155 366 348c0 189 -162 349 -366 349z" />
    <glyph glyph-name="soundrecordingcopyright" unicode="&#x2117;" horiz-adv-x="1030" 
d="M514 -169c-258 0 -469 194 -469 438s211 438 469 438c256 0 467 -194 467 -438s-211 -438 -467 -438zM513 -79c204 0 368 155 368 349c0 189 -164 347 -368 347c-201 0 -368 -158 -368 -347c0 -193 167 -349 368 -349zM589 183h-130v-113h-128v416h233
c80 0 201 -24 201 -149c0 -107 -91 -154 -176 -154zM459 387v-105h119c27 0 59 12 59 54c0 37 -32 51 -59 51h-119z" />
    <glyph glyph-name="trademark" unicode="&#x2122;" horiz-adv-x="852" 
d="M776 326h-87v173h-3l-85 -146h-9l-86 146h-3v-173h-82v327h85l93 -163h1l94 163h82v-327zM49 583v70h301v-70h-107v-257h-87v257h-107z" />
    <glyph glyph-name="servicemark" unicode="&#x2120;" horiz-adv-x="875" 
d="M805 326h-87v173h-3l-85 -146h-9l-86 146h-3v-173h-82v327h85l93 -163h1l94 163h82v-327zM354 629l-41 -60c-16 11 -56 27 -112 27c-28 0 -48 -8 -48 -28c0 -24 26 -26 76 -31c67 -7 142 -18 142 -110c0 -83 -68 -113 -149 -113c-79 0 -136 30 -169 57l37 57
c21 -17 70 -45 132 -45c39 0 64 12 64 35c0 24 -17 34 -62 38c-72 6 -155 16 -155 102c0 85 72 108 134 108c67 0 125 -21 151 -37z" />
    <glyph glyph-name="registered" unicode="&#xae;" horiz-adv-x="628" 
d="M312 196c-147 0 -260 106 -260 240c0 131 113 242 260 242s264 -111 264 -242c0 -134 -117 -240 -264 -240zM312 243c120 0 213 87 213 194c0 105 -93 196 -213 196c-118 0 -210 -90 -210 -196c0 -108 92 -194 210 -194zM263 324h-62v240h152c54 0 94 -32 94 -78
c0 -28 -18 -54 -52 -67l59 -95h-72l-50 85h-69v-85zM351 516h-88v-57h87c19 0 34 15 34 28c0 15 -14 29 -33 29z" />
    <glyph glyph-name="paragraph" unicode="&#xb6;" horiz-adv-x="892" 
d="M571 -207h-122v459h-174c-108 0 -232 56 -232 204c0 158 110 197 229 197h526v-860h-123v748h-104v-748zM175 456c0 -67 55 -92 100 -92h174v177h-177c-49 0 -97 -17 -97 -85z" />
    <glyph glyph-name="dagger" unicode="&#x2020;" horiz-adv-x="507" 
d="M196 700h113v-161h151v-94h-151v-366h-113v366h-149v94h149v161z" />
    <glyph glyph-name="daggerdbl" unicode="&#x2021;" horiz-adv-x="521" 
d="M316 245v-166h-113v166h-149v95h149v105h-149v94h149v161h113v-161h151v-94h-151v-105h151v-95h-151z" />
    <glyph glyph-name="litre" unicode="&#x2113;" horiz-adv-x="570" 
d="M324 -15c-81 0 -169 26 -177 134v14l-73 -39l-29 92l101 54v192c0 169 92 205 184 205c113 0 181 -69 181 -164c0 -99 -89 -194 -233 -270v-64c0 -42 33 -47 64 -47c39 0 82 18 118 36l21 -99c-71 -36 -110 -44 -157 -44zM278 320c73 43 106 100 106 145
c0 43 -20 70 -53 70c-27 0 -53 -13 -53 -103v-112z" />
    <glyph glyph-name="estimated" unicode="&#x212e;" horiz-adv-x="814" 
d="M226 438v-82c0 -3 4 -6 6 -6h353c4 0 8 1 8 6v82c0 6 -2 13 -6 21c-37 56 -99 88 -176 88c-64 0 -147 -37 -178 -88c-5 -8 -7 -15 -7 -21zM741 156c-86 -121 -207 -174 -330 -174c-178 0 -359 130 -357 315c0 191 180 313 357 313c189 0 355 -124 355 -327h-534
c-2 0 -6 -4 -6 -8v-110c0 -11 0 -19 7 -28c52 -62 114 -92 178 -92c79 0 150 41 203 111h127z" />
    <glyph glyph-name="degree" unicode="&#xb0;" 
d="M248 635c122 0 205 -82 205 -181c0 -98 -83 -180 -205 -180c-124 0 -204 82 -204 180c0 99 80 181 204 181zM248 372c53 0 87 37 87 82c0 46 -34 83 -87 83s-86 -37 -86 -83c0 -45 33 -82 86 -82z" />
    <glyph glyph-name="dollar" unicode="$" horiz-adv-x="716" 
d="M267 -129l13 119c-104 18 -182 62 -237 103l77 90c51 -36 109 -70 179 -86l16 143c-118 11 -240 37 -240 165c0 139 136 182 258 182h16l9 82h94l-12 -92c84 -14 156 -44 199 -69l-77 -92c-27 18 -77 41 -139 53l-13 -117c113 -9 248 -36 248 -176
c0 -139 -124 -195 -276 -195h-9l-12 -110h-94zM523 163c0 47 -44 62 -126 70l-16 -145h4c82 0 138 26 138 75zM211 414c0 -40 60 -51 117 -56l13 121h-11c-74 0 -119 -23 -119 -65z" />
    <glyph glyph-name="cent" unicode="&#xa2;" horiz-adv-x="611" 
d="M204 -129l28 127c-106 30 -186 115 -186 231c0 146 120 241 270 241c7 0 14 0 21 -1l16 72h94l-19 -87c44 -12 86 -33 124 -62l-81 -85c-24 17 -49 30 -73 39l-56 -251c49 4 96 28 135 60l81 -79c-22 -24 -107 -90 -236 -91l-25 -114h-93zM187 229c0 -54 31 -97 75 -119
l55 249c-74 -4 -130 -52 -130 -130z" />
    <glyph glyph-name="Euro" unicode="&#x20ac;" horiz-adv-x="781" 
d="M52 316v73h101c45 114 163 197 311 197c94 0 190 -31 254 -79l-75 -90c-46 34 -111 54 -169 54c-71 0 -129 -33 -164 -82h227v-73h-257c-2 -11 -3 -22 -3 -33c0 -10 0 -19 2 -28h258v-72h-230c34 -52 95 -87 170 -87c65 0 134 28 179 67l75 -89
c-66 -53 -157 -93 -265 -93c-151 0 -271 85 -314 202h-100v72h83c-1 9 -1 19 -1 29c0 11 1 21 2 32h-84z" />
    <glyph glyph-name="sterling" unicode="&#xa3;" horiz-adv-x="710" 
d="M55 262v82h129v72c0 118 117 171 231 171c63 0 161 -26 238 -65l-60 -96c-58 28 -128 48 -173 48c-46 0 -96 -23 -96 -75v-55h216v-82h-216v-50c0 -65 -24 -93 -86 -104h415v-108h-598v108h39c67 0 90 18 90 104v50h-129z" />
    <glyph glyph-name="yen" unicode="&#xa5;" horiz-adv-x="777" 
d="M59 316v73h156l-141 179h173l146 -191l144 191h164l-141 -179h159v-73h-216l-45 -58v-3h261v-72h-261v-183h-140v183h-259v72h259v3l-46 58h-213z" />
    <glyph glyph-name="florin" unicode="&#x192;" horiz-adv-x="497" 
d="M51 344h114l27 119c21 93 112 124 183 124c42 0 83 -5 100 -14l-30 -97c-18 4 -54 7 -69 7c-28 0 -50 -12 -54 -30l-25 -109h123v-82h-141l-58 -261c-28 -124 -138 -168 -227 -168l-10 96c43 10 94 24 106 78l57 255h-96v82z" />
    <glyph glyph-name="colonmonetary" unicode="&#x20a1;" horiz-adv-x="743" 
d="M517 669h69l-26 -115c48 -18 92 -43 128 -72l-85 -82c-21 16 -44 30 -68 41l-75 -339c58 15 112 50 153 88l85 -82c-64 -57 -155 -111 -264 -123l-25 -114h-69l25 112c-29 2 -55 5 -81 12l-27 -124h-69l32 146c-109 50 -174 151 -174 267c0 156 120 286 300 300l19 85h69
l-19 -84c27 -2 54 -6 80 -12zM310 109c23 -9 50 -14 79 -15l82 370c-26 6 -54 10 -80 10zM188 283c0 -54 21 -103 61 -137l70 317c-80 -27 -131 -98 -131 -180z" />
    <glyph glyph-name="franc" unicode="&#x20a3;" horiz-adv-x="708" 
d="M50 95v78h101v395h509v-110h-369v-92h228v-109h-228v-84h166v-78h-166v-95h-140v95h-101z" />
    <glyph glyph-name="lira" unicode="&#x20a4;" horiz-adv-x="713" 
d="M58 316v73h130v27c0 118 117 171 231 171c63 0 160 -26 237 -65l-59 -96c-58 28 -129 48 -173 48c-46 0 -96 -23 -96 -75v-10h215v-73h-215v-61h215v-72h-217c-7 -45 -33 -66 -85 -75h415v-108h-598v108h39c59 0 84 13 90 75h-129v72h130v61h-130z" />
    <glyph glyph-name="peso" unicode="&#x20b1;" horiz-adv-x="807" 
d="M37 319v72h85v177h315c90 0 152 -25 195 -70c27 -29 47 -65 54 -107h90v-72h-88c-7 -49 -31 -88 -63 -119c-43 -42 -98 -65 -188 -65h-175v-135h-140v319h-85zM519 272c13 13 23 27 28 47h-285v-73h179c37 0 58 7 78 26zM442 458h-180v-67h284c-4 12 -11 24 -22 37
c-20 22 -44 30 -82 30z" />
    <glyph glyph-name="peseta" unicode="&#x20a7;" horiz-adv-x="1563" 
d="M222 0h-140v568h338c79 0 142 -19 186 -65l13 -15h97v138h134v-138h120v-99h-120v-253c0 -30 18 -43 52 -43c20 0 45 4 63 7l10 -100c-20 -15 -81 -19 -106 -19c-72 0 -153 36 -153 145v263h-62v-4c0 -48 -19 -88 -50 -119c-44 -44 -103 -63 -186 -63h-196v-203z
M1487 454l-46 -95c-55 25 -125 44 -177 44c-49 0 -80 -16 -80 -47c0 -41 54 -44 96 -46c87 -4 234 -14 234 -155c0 -116 -101 -172 -231 -172c-114 0 -197 42 -248 74l46 95c48 -29 126 -66 204 -66c62 0 96 23 96 57c0 46 -60 51 -103 54c-105 6 -226 13 -226 145
c0 124 109 164 207 164c88 0 187 -32 228 -52zM425 453h-203v-135h201c27 0 53 4 72 23c12 12 20 28 20 44s-7 32 -17 43c-21 22 -51 25 -73 25z" />
    <glyph glyph-name="rupiah" unicode="&#xf6dd;" horiz-adv-x="1320" 
d="M86 0v568h336c92 0 148 -26 186 -64c31 -32 50 -73 50 -118c0 -73 -49 -131 -121 -160l141 -226h-160l-121 203h-171v-203h-140zM226 318h209c25 0 47 8 62 21c13 12 21 29 21 46c0 16 -7 31 -17 43c-20 21 -47 25 -74 25h-201v-135zM770 -207v557c0 40 0 81 -11 138h126
c3 -19 4 -41 5 -61c30 36 84 77 152 77c130 0 237 -101 237 -260c0 -154 -108 -258 -237 -258c-49 0 -98 20 -139 63v-256h-133zM904 151c36 -33 77 -53 118 -53c63 0 113 59 113 146c0 91 -51 147 -113 147c-59 0 -101 -37 -118 -55v-185z" />
    <glyph glyph-name="Rupee" unicode="&#x20b9;" horiz-adv-x="797" 
d="M107 319v72h399c-5 13 -12 25 -22 37c-20 22 -44 30 -82 30h-295v110h629v-73h-156c34 -26 57 -63 66 -104h90v-72h-88c-7 -48 -30 -87 -63 -119c-40 -32 -87 -50 -170 -52l-71 4l266 -152h-223l-280 173v73h294c35 0 57 6 78 26c13 13 23 27 28 47h-400z" />
    <glyph glyph-name="section" unicode="&#xa7;" horiz-adv-x="707" 
d="M607 99c-14 -13 -30 -24 -48 -33c5 -7 9 -13 12 -21c6 -14 10 -31 10 -50c0 -115 -124 -158 -227 -158c-70 0 -152 19 -214 51l56 89c47 -21 107 -38 160 -38c34 0 86 8 86 45c0 9 -2 15 -8 21c-18 17 -63 21 -119 27c-58 7 -161 25 -219 80c-26 24 -44 56 -44 98
c0 46 21 84 51 114c14 14 31 25 50 35l-10 17c-7 16 -11 33 -11 54c0 115 123 158 228 158c70 0 154 -18 217 -50l-55 -90c-48 21 -110 38 -164 38c-34 0 -87 -6 -87 -44c0 -9 2 -15 9 -20c18 -16 62 -19 118 -26c59 -7 164 -26 222 -84c25 -25 41 -56 41 -96
c0 -47 -21 -87 -54 -117zM379 281c-42 5 -98 8 -144 24c-9 -6 -15 -13 -22 -20c-16 -17 -26 -36 -26 -58c0 -18 7 -32 18 -43c29 -27 87 -34 129 -38s98 -9 144 -25c8 5 15 11 20 17c18 18 28 38 28 61c0 18 -7 31 -18 42c-29 28 -87 36 -129 40z" />
    <glyph glyph-name="numbersign" unicode="#" horiz-adv-x="884" 
d="M584 617h90l-30 -163h192v-100h-211l-29 -159h182v-102h-200l-35 -190h-90l35 190h-162l-35 -190h-90l35 190h-189v102h207l29 159h-179v100h198l30 163h90l-30 -163h162zM373 354l-29 -159h162l29 159h-162z" />
    <glyph glyph-name="percent" unicode="%" horiz-adv-x="1044" 
d="M47 444c0 96 89 176 202 176c111 0 204 -80 204 -176c0 -98 -93 -178 -204 -178c-113 0 -202 80 -202 178zM760 605l-360 -605h-114l361 605h113zM166 444c0 -44 37 -80 83 -80c47 0 85 36 85 80c0 43 -38 78 -85 78c-46 0 -83 -35 -83 -78zM593 162c0 96 89 177 201 177
c111 0 205 -81 205 -177c0 -98 -94 -177 -205 -177c-112 0 -201 79 -201 177zM712 162c0 -43 37 -79 82 -79c47 0 86 36 86 79s-39 79 -86 79c-45 0 -82 -36 -82 -79z" />
    <glyph glyph-name="perthousand" unicode="&#x2030;" horiz-adv-x="1490" 
d="M49 444c0 96 88 176 201 176c111 0 204 -80 204 -176c0 -98 -93 -178 -204 -178c-113 0 -201 80 -201 178zM761 605l-360 -605h-113l360 605h113zM168 444c0 -44 37 -80 82 -80c47 0 85 36 85 80c0 43 -38 78 -85 78c-45 0 -82 -35 -82 -78zM595 162c0 96 89 177 201 177
c111 0 204 -81 204 -177c0 -98 -93 -177 -204 -177c-112 0 -201 79 -201 177zM713 162c0 -43 37 -79 83 -79c47 0 85 36 85 79s-38 79 -85 79c-46 0 -83 -36 -83 -79zM1039 162c0 96 89 177 201 177s205 -81 205 -177c0 -98 -93 -177 -205 -177s-201 79 -201 177zM1158 162
c0 -43 37 -79 82 -79c47 0 87 36 87 79s-40 79 -87 79c-45 0 -82 -36 -82 -79z" />
    <glyph glyph-name="currency" unicode="&#xa4;" horiz-adv-x="767" 
d="M93 263c0 53 15 102 42 144l-82 77l90 89l82 -77c45 29 100 46 157 46c58 0 113 -17 159 -46l84 77l89 -89l-83 -77c27 -42 43 -92 43 -144c0 -53 -16 -102 -43 -144l83 -76l-89 -90l-84 77c-46 -29 -101 -46 -159 -46c-57 0 -112 17 -157 46l-82 -77l-90 90l82 76
c-27 42 -42 91 -42 144zM235 263c0 -86 66 -158 147 -158c83 0 150 72 150 158c0 87 -67 158 -150 158c-81 0 -147 -71 -147 -158z" />
    <glyph glyph-name="dollar.superior" horiz-adv-x="526" 
d="M187 124l11 89c-74 14 -131 44 -170 72l54 75c30 -19 75 -46 135 -59l12 97c-88 9 -178 29 -178 129c0 108 102 141 196 141h13l8 60h80l-9 -70c60 -12 112 -32 141 -49l-54 -77c-21 12 -59 28 -106 38l-10 -79c90 -8 182 -32 182 -136c0 -107 -92 -150 -208 -150h-8
l-10 -81h-79zM382 343c0 32 -29 43 -86 49l-13 -98h5c60 0 94 17 94 49zM162 535c0 -28 41 -36 80 -39l10 82h-8c-53 0 -82 -14 -82 -43z" />
    <glyph glyph-name="cent.superior" horiz-adv-x="451" 
d="M150 124l20 95c-80 24 -140 89 -140 178c0 113 91 185 205 185h14l11 51h80l-14 -65c32 -10 63 -25 91 -46l-68 -71c-16 11 -32 20 -48 27l-38 -177c30 4 61 20 90 44l68 -66c-18 -19 -79 -67 -173 -70l-18 -85h-80zM149 397c0 -37 19 -67 47 -83l39 175
c-49 -4 -86 -38 -86 -92z" />
    <glyph glyph-name="Euro.superior" horiz-adv-x="573" 
d="M35 459v59h76c34 86 121 149 232 149c70 0 141 -23 188 -58l-61 -75c-33 24 -78 37 -117 37c-47 0 -85 -21 -109 -53h152v-59h-177c-1 -8 -2 -15 -2 -23c0 -7 0 -14 1 -20h178v-59h-155c24 -34 64 -56 114 -56c46 0 94 20 126 48l62 -74c-49 -39 -116 -70 -197 -70
c-114 0 -202 63 -236 152h-75v59h62c-1 7 -1 14 -1 21s0 15 1 22h-62z" />
    <glyph glyph-name="sterling.superior" horiz-adv-x="517" 
d="M37 417v68h93v52c0 90 89 131 174 131c47 0 120 -19 179 -48l-50 -82c-42 21 -93 36 -124 36c-29 0 -61 -16 -61 -52v-37h150v-68h-150v-30c0 -47 -18 -68 -66 -77h300v-90h-445v90h29c47 0 64 14 64 77v30h-93z" />
    <glyph glyph-name="yen.superior" horiz-adv-x="570" 
d="M36 459v59h111l-102 135h145l98 -138l98 138h137l-102 -135h113v-59h-158l-32 -43h190v-59h-191v-137h-118v137h-189v59h188l-33 43h-155z" />
    <glyph glyph-name="numbersign.superior" horiz-adv-x="649" 
d="M427 690h74l-22 -120h140v-85h-155l-20 -113h132v-85h-147l-25 -141h-75l25 141h-113l-25 -141h-74l25 141h-137v85h153l20 113h-130v85h145l22 120h74l-22 -120h113zM277 485l-20 -113h113l20 113h-113z" />
    <glyph glyph-name="percent.superior" horiz-adv-x="773" 
d="M30 558c0 74 67 135 151 135c83 0 153 -61 153 -135c0 -75 -70 -136 -153 -136c-84 0 -151 61 -151 136zM568 681l-268 -461h-96l269 461h95zM129 558c0 -29 24 -54 52 -54c30 0 54 25 54 54c0 30 -24 53 -54 53c-28 0 -52 -23 -52 -53zM438 344c0 73 67 134 151 134
s154 -61 154 -134c0 -75 -70 -136 -154 -136s-151 61 -151 136zM537 344c0 -30 24 -54 52 -54c30 0 54 24 54 54c0 29 -24 53 -54 53c-28 0 -52 -24 -52 -53z" />
    <glyph glyph-name="period.superior" horiz-adv-x="235" 
d="M42 274c0 36 32 66 75 66c42 0 76 -30 76 -66c0 -37 -34 -66 -76 -66c-43 0 -75 29 -75 66z" />
    <glyph glyph-name="comma.superior" horiz-adv-x="246" 
d="M59 81l-29 61c33 9 90 40 91 79c-5 -1 -11 -2 -17 -2c-35 0 -62 25 -62 58c0 35 33 63 75 63c47 0 89 -39 89 -97c0 -96 -85 -142 -147 -162z" />
    <glyph glyph-name="hyphen.superior" horiz-adv-x="301" 
d="M47 351v101h207v-101h-207z" />
    <glyph glyph-name="parenleft.superior" unicode="&#x207d;" horiz-adv-x="304" 
d="M289 168l-55 -66c-128 65 -205 174 -205 304s77 240 205 305l55 -66c-84 -49 -142 -136 -142 -239s58 -189 142 -238z" />
    <glyph glyph-name="parenright.superior" unicode="&#x207e;" horiz-adv-x="304" 
d="M14 645l55 66c128 -65 205 -175 205 -305s-77 -239 -205 -304l-55 66c84 49 142 135 142 238s-58 190 -142 239z" />
    <glyph glyph-name="plus" unicode="+" horiz-adv-x="753" 
d="M75 208v114h226v188h131v-188h224v-114h-224v-188h-131v188h-226z" />
    <glyph glyph-name="minus" unicode="&#x2212;" horiz-adv-x="753" 
d="M75 208v114h581v-114h-581z" />
    <glyph glyph-name="multiply" unicode="&#xd7;" horiz-adv-x="753" 
d="M77 431l89 85l201 -172l200 172l87 -84l-195 -167l196 -167l-89 -84l-201 171l-201 -171l-86 83l195 167z" />
    <glyph glyph-name="divide" unicode="&#xf7;" horiz-adv-x="753" 
d="M75 208v114h581v-114h-581zM279 69c0 42 38 77 88 77s88 -35 88 -77c0 -44 -38 -77 -88 -77s-88 33 -88 77zM279 460c0 43 38 77 88 77s88 -34 88 -77s-38 -77 -88 -77s-88 34 -88 77z" />
    <glyph glyph-name="equal" unicode="=" horiz-adv-x="753" 
d="M75 328v115h581v-115h-581zM75 87v115h581v-115h-581z" />
    <glyph glyph-name="approxequal" unicode="&#x2248;" horiz-adv-x="753" 
d="M75 64v118c50 35 97 56 156 56c57 0 95 -18 129 -37c33 -19 73 -39 125 -39c53 0 118 25 166 59v-120c-49 -35 -106 -57 -166 -57c-65 0 -106 24 -128 37c-36 20 -73 39 -127 39s-107 -21 -155 -56zM75 307v118c50 35 97 55 156 55c57 0 95 -18 129 -37
c33 -19 73 -39 125 -39c53 0 118 25 166 60v-120c-49 -36 -106 -58 -166 -58c-65 0 -106 25 -128 37c-36 20 -73 39 -127 39s-107 -21 -155 -55z" />
    <glyph glyph-name="notequal" unicode="&#x2260;" horiz-adv-x="753" 
d="M75 328v115h323l61 96h135l-61 -96h123v-115h-195l-73 -116h268v-115h-340l-60 -96h-136l60 96h-105v115h178l73 116h-251z" />
    <glyph glyph-name="plusminus" unicode="&#xb1;" horiz-adv-x="753" 
d="M75 323v115h226v155h131v-155h224v-115h-224v-155h-131v155h-226zM75 0v114h581v-114h-581z" />
    <glyph glyph-name="less" unicode="&#x3c;" horiz-adv-x="753" 
d="M656 509v-129l-388 -109v-12l388 -109v-128l-581 187v113z" />
    <glyph glyph-name="greater" unicode="&#x3e;" horiz-adv-x="753" 
d="M75 380v129l581 -187v-113l-581 -187v128l389 109v12z" />
    <glyph glyph-name="lessequal" unicode="&#x2264;" horiz-adv-x="753" 
d="M75 0v114h581v-114h-581zM656 612v-128l-385 -101v-12l385 -100v-128l-581 176v116z" />
    <glyph glyph-name="greaterequal" unicode="&#x2265;" horiz-adv-x="753" 
d="M656 114v-114h-581v114h581zM75 484v128l581 -177v-116l-581 -176v128l385 100v12z" />
    <glyph glyph-name="logicalnot" unicode="&#xac;" horiz-adv-x="753" 
d="M656 113h-132v193h-449v114h581v-307z" />
    <glyph glyph-name="periodcentered" unicode="&#xb7;" horiz-adv-x="753" 
d="M264 265c0 49 43 90 102 90c57 0 102 -41 102 -90c0 -50 -45 -89 -102 -89c-59 0 -102 39 -102 89z" />
    <glyph glyph-name="asciitilde" unicode="~" horiz-adv-x="753" 
d="M131 180l-99 64c75 84 138 134 212 134c79 0 128 -43 157 -67c25 -21 51 -41 79 -41c29 0 68 26 119 80l102 -63c-85 -97 -159 -139 -224 -139c-84 0 -133 48 -159 70c-29 23 -54 38 -78 38c-26 0 -63 -28 -109 -76z" />
    <glyph glyph-name="asciicircum" unicode="^" horiz-adv-x="753" 
d="M229 208h-148l223 405h128l219 -405h-147l-132 255h-8z" />
    <glyph glyph-name="brokenbar" unicode="&#xa6;" horiz-adv-x="346" 
d="M107 385v412h126v-412h-126zM107 -228v420h126v-420h-126z" />
    <glyph glyph-name="bar" unicode="|" horiz-adv-x="346" 
d="M107 -307v1212h126v-1212h-126z" />
    <glyph glyph-name="mu" unicode="&#xb5;" horiz-adv-x="618" 
d="M206 -219h-134v702h134v-323c0 -36 34 -66 81 -66c48 0 85 32 112 63v326h133v-345c0 -40 2 -84 13 -138h-125c-3 19 -5 41 -6 61c-37 -44 -87 -79 -163 -79c-16 0 -32 3 -45 12v-213z" />
    <glyph glyph-name="mu" unicode="&#x3bc;" horiz-adv-x="618" 
d="M206 -219h-134v702h134v-323c0 -36 34 -66 81 -66c48 0 85 32 112 63v326h133v-345c0 -40 2 -84 13 -138h-125c-3 19 -5 41 -6 61c-37 -44 -87 -79 -163 -79c-16 0 -32 3 -45 12v-213z" />
    <glyph glyph-name="pi" unicode="&#x3c0;" horiz-adv-x="683" 
d="M33 379v104h619v-104h-99l-31 -298c-3 -27 -3 -53 -1 -81h-133c-2 28 -2 53 1 81l31 298h-144l-41 -379h-132l41 379h-111z" />
    <glyph glyph-name="Delta" unicode="&#x394;" horiz-adv-x="727" 
d="M46 102l256 551h124l254 -551v-102h-634v102zM357 482l-158 -368h323l-159 368h-6z" />
    <glyph glyph-name="Delta" unicode="&#x2206;" horiz-adv-x="727" 
d="M46 102l256 551h124l254 -551v-102h-634v102zM357 482l-158 -368h323l-159 368h-6z" />
    <glyph glyph-name="Omega" unicode="&#x3a9;" horiz-adv-x="872" 
d="M69 0v114h155c-105 48 -170 139 -170 243c0 174 167 316 381 316s384 -142 384 -316c0 -102 -70 -195 -174 -243h155v-114h-308v105c105 28 177 123 177 237c0 115 -103 207 -234 207c-130 0 -230 -92 -230 -207c0 -113 70 -207 173 -237v-105h-309z" />
    <glyph glyph-name="Omega" unicode="&#x2126;" horiz-adv-x="872" 
d="M69 0v114h155c-105 48 -170 139 -170 243c0 174 167 316 381 316s384 -142 384 -316c0 -102 -70 -195 -174 -243h155v-114h-308v105c105 28 177 123 177 237c0 115 -103 207 -234 207c-130 0 -230 -92 -230 -207c0 -113 70 -207 173 -237v-105h-309z" />
    <glyph glyph-name="product" unicode="&#x220f;" horiz-adv-x="807" 
d="M48 531v122h712v-122h-96v-638h-142v638h-239v-638h-141v638h-94z" />
    <glyph glyph-name="summation" unicode="&#x2211;" horiz-adv-x="720" 
d="M666 653v-122h-382l262 -221v-72l-262 -224h382v-121h-620v85l347 293v6l-347 291v85h620z" />
    <glyph glyph-name="integral" unicode="&#x222b;" horiz-adv-x="442" 
d="M397 723v-113h-67c-27 0 -41 -23 -41 -47v-616c0 -70 -56 -134 -175 -134h-65v113h68c26 0 40 22 40 47v615c0 69 43 135 134 135h106z" />
    <glyph glyph-name="partialdiff" unicode="&#x2202;" horiz-adv-x="648" 
d="M288 454c73 0 136 -35 171 -73v14c0 45 -52 148 -252 148v111c321 0 383 -183 383 -339c0 -235 -134 -334 -277 -334c-129 0 -266 77 -266 238c0 157 131 235 241 235zM308 83c73 0 145 55 154 179c-32 48 -92 90 -156 90c-62 0 -127 -46 -127 -133
c0 -91 64 -136 129 -136z" />
    <glyph glyph-name="infinity" unicode="&#x221e;" horiz-adv-x="1021" 
d="M271 464h11c49 0 110 -17 177 -73l51 -44l52 44c68 56 125 73 175 73h12c124 0 216 -92 216 -190v-18c0 -98 -92 -188 -216 -188h-12c-43 0 -106 17 -175 72l-52 42l-52 -43c-68 -54 -125 -71 -176 -71h-11c-124 0 -215 90 -215 188v18c0 98 91 190 215 190zM651 313
l-58 -47l58 -48c35 -29 65 -40 86 -40h12c51 0 89 38 89 78v18c0 42 -38 79 -89 79h-12c-19 0 -53 -12 -86 -40zM182 274v-18c0 -40 37 -78 89 -78h11c21 0 48 7 87 40l55 48l-55 47c-36 29 -66 40 -87 40h-11c-52 0 -89 -37 -89 -79z" />
    <glyph glyph-name="lozenge" unicode="&#x25ca;" horiz-adv-x="666" 
d="M294 653h78l250 -291v-70l-250 -292h-78l-250 292v70zM333 505l-152 -177v-2l152 -178h1l151 177v3l-151 177h-1z" />
    <glyph glyph-name="radical" unicode="&#x221a;" horiz-adv-x="674" 
d="M23 488h203l106 -280l199 546h134l-288 -754h-92l-154 384h-108v104z" />
    <glyph glyph-name="zero.tos" horiz-adv-x="679" 
d="M40 284c0 169 136 303 299 303s300 -134 300 -303c0 -168 -137 -303 -300 -303s-299 135 -299 303zM176 284c0 -100 73 -186 163 -186c89 0 164 86 164 186c0 102 -75 185 -164 185c-90 0 -163 -83 -163 -185z" />
    <glyph glyph-name="one.tos" horiz-adv-x="679" 
d="M114 0v111h204v328l-181 -65l-32 112l227 82h123v-457h148v-111h-489z" />
    <glyph glyph-name="two.tos" horiz-adv-x="679" 
d="M66 0v91c0 140 131 206 282 244c38 9 130 31 130 82c0 43 -61 57 -118 57c-94 0 -155 -39 -218 -87l-76 90c79 57 157 110 290 110c129 0 259 -49 259 -169c0 -129 -150 -168 -253 -198c-95 -27 -157 -55 -157 -106v-6h398v-108h-537z" />
    <glyph glyph-name="three.tos" horiz-adv-x="679" 
d="M285 245v104h92c44 0 75 23 75 57c0 50 -57 68 -102 68c-71 0 -144 -42 -197 -89l-78 84c68 58 163 118 277 118c99 0 238 -44 238 -164c0 -48 -36 -87 -67 -105c49 -17 109 -56 109 -137c0 -128 -134 -201 -301 -201c-119 0 -217 38 -304 120l76 90
c60 -56 131 -97 228 -97c91 0 164 35 164 95c0 48 -58 57 -95 57h-115z" />
    <glyph glyph-name="four.tos" horiz-adv-x="679" 
d="M640 221v-103h-99v-118h-137v118h-382v82l396 368h123v-347h99zM213 225v-4h191v183h-8c-59 -58 -124 -122 -183 -179z" />
    <glyph glyph-name="five.tos" horiz-adv-x="679" 
d="M570 568v-113h-354v-133c49 32 96 57 175 57c121 0 246 -59 246 -187c0 -152 -156 -212 -303 -212c-149 0 -248 55 -302 86l62 95c43 -26 128 -68 240 -68c82 0 161 31 161 98c0 56 -60 80 -124 80c-81 0 -143 -26 -198 -55l-80 57v295h477z" />
    <glyph glyph-name="six.tos" horiz-adv-x="679" 
d="M605 536l-61 -95c-45 21 -102 34 -160 34c-105 0 -201 -66 -207 -184c54 43 129 82 222 82c157 0 235 -93 235 -182c0 -118 -110 -210 -267 -210c-162 0 -319 100 -319 293c0 197 160 313 334 313c104 0 182 -33 223 -51zM380 269c-72 0 -141 -30 -192 -59
c27 -75 100 -117 179 -117c78 0 131 48 131 98c0 35 -31 78 -118 78z" />
    <glyph glyph-name="seven.tos" horiz-adv-x="679" 
d="M52 450v118h580v-108l-341 -460h-175l352 450h-416z" />
    <glyph glyph-name="eight.tos" horiz-adv-x="679" 
d="M340 -21c-149 0 -291 69 -291 188c0 77 55 127 122 147c-55 19 -91 56 -91 114c0 107 145 160 261 160c113 0 258 -51 258 -163c0 -56 -28 -93 -91 -111c67 -20 122 -70 122 -147c0 -119 -143 -188 -290 -188zM340 91c73 0 145 31 145 85c0 55 -80 81 -145 81
s-146 -26 -146 -81c0 -54 74 -85 146 -85zM340 356c73 0 113 22 113 60c0 47 -63 69 -113 69c-51 0 -114 -22 -114 -69c0 -38 40 -60 114 -60z" />
    <glyph glyph-name="nine.tos" horiz-adv-x="679" 
d="M72 32l60 94c45 -20 103 -33 160 -33c107 0 202 66 209 183c-55 -43 -130 -82 -223 -82c-157 0 -237 93 -237 183c0 117 111 210 268 210c164 0 321 -101 321 -293c0 -197 -161 -313 -335 -313c-103 0 -183 33 -223 51zM297 298c72 0 141 29 193 59
c-27 76 -101 117 -180 117c-78 0 -133 -48 -133 -97c0 -36 32 -79 120 -79z" />
    <glyph glyph-name="dollar.tos" horiz-adv-x="679" 
d="M244 -129l13 120c-96 18 -169 61 -221 102l76 90c34 -27 91 -66 165 -85l17 142c-112 11 -228 37 -228 165c0 139 130 182 247 182h17l10 82h94l-12 -93c77 -15 144 -43 184 -68l-77 -92c-25 17 -70 39 -125 52l-14 -116c108 -10 234 -37 234 -176s-119 -195 -264 -195
h-10l-12 -110h-94zM489 162c0 48 -43 63 -113 71l-17 -145h3c77 0 127 27 127 74zM203 414c0 -40 53 -51 105 -56l14 121h-11c-67 0 -108 -23 -108 -65z" />
    <glyph glyph-name="cent.tos" horiz-adv-x="679" 
d="M230 -129l30 126c-117 30 -205 116 -205 232c0 146 131 241 294 241c8 0 16 0 25 -1l17 72h95l-21 -85c51 -13 99 -34 142 -64l-82 -85c-28 19 -59 32 -90 41l-62 -253c61 2 115 27 158 60l82 -79c-24 -24 -116 -91 -257 -91h-5l-27 -114h-94zM197 229
c0 -56 38 -100 93 -121l61 251c-87 -3 -154 -51 -154 -130z" />
    <glyph glyph-name="Euro.tos" horiz-adv-x="679" 
d="M40 316v73h89c40 114 144 197 277 197c81 0 166 -31 222 -79l-72 -90c-39 34 -93 54 -137 54c-60 0 -108 -33 -137 -82h185v-73h-210c-1 -11 -2 -22 -2 -33c0 -10 0 -19 1 -28h211v-72h-188c29 -52 80 -87 143 -87c53 0 110 28 147 67l72 -89c-57 -53 -135 -93 -232 -93
c-138 0 -243 85 -282 202h-87v72h73c-1 9 -1 19 -1 29c0 11 0 21 1 32h-73z" />
    <glyph glyph-name="sterling.tos" horiz-adv-x="679" 
d="M50 262v82h123v72c0 118 113 171 223 171c61 0 155 -26 229 -65l-58 -96c-56 28 -123 48 -165 48c-43 0 -89 -23 -89 -75v-55h203v-82h-203v-50c0 -65 -23 -93 -83 -104h395v-108h-575v108h37c65 0 86 18 86 104v50h-123z" />
    <glyph glyph-name="yen.tos" horiz-adv-x="679" 
d="M46 316v73h132l-122 179h171l116 -191l114 191h163l-123 -179h136v-73h-186l-39 -58v-3h225v-72h-225v-183h-140v183h-222v72h222v3l-40 58h-182z" />
    <glyph glyph-name="florin.tos" horiz-adv-x="679" 
d="M156 344h114l27 119c21 93 112 124 183 124c42 0 83 -5 100 -14l-30 -97c-18 4 -54 7 -69 7c-28 0 -50 -12 -54 -30l-25 -109h123v-82h-141l-58 -261c-28 -124 -138 -168 -227 -168l-10 96c43 10 94 24 106 78l57 255h-96v82z" />
    <glyph glyph-name="colonmonetary.tos" horiz-adv-x="679" 
d="M475 669h66l-24 -117c44 -17 83 -41 116 -70l-84 -82c-17 15 -36 27 -55 38l-68 -334c49 16 95 49 131 86l85 -82c-58 -56 -141 -109 -240 -123l-23 -114h-66l22 112c-24 1 -48 5 -70 10l-25 -122h-66l29 144c-102 50 -162 152 -162 269c0 156 110 288 277 301l17 84h67
l-17 -85c24 -2 47 -6 70 -12zM288 109c21 -9 44 -14 70 -15l75 369c-24 7 -48 10 -71 11zM183 283c0 -51 17 -97 47 -131l63 309c-68 -27 -110 -98 -110 -178z" />
    <glyph glyph-name="franc.tos" horiz-adv-x="679" 
d="M48 95v78h97v395h491v-110h-352v-92h218v-109h-218v-84h159v-78h-159v-95h-139v95h-97z" />
    <glyph glyph-name="lira.tos" horiz-adv-x="679" 
d="M51 316v73h120v27c0 118 115 171 227 171c62 0 157 -26 233 -65l-60 -96c-56 28 -125 48 -168 48c-44 0 -92 -23 -92 -75v-10h205v-73h-205v-61h205v-72h-207c-7 -45 -31 -66 -83 -75h405v-108h-580v108h33c57 0 81 13 86 75h-119v72h120v61h-120z" />
    <glyph glyph-name="peso.tos" horiz-adv-x="679" 
d="M25 319v72h76v177h245c90 0 151 -25 194 -70c28 -29 47 -65 55 -107h71v-72h-70c-7 -49 -30 -88 -62 -119c-43 -42 -98 -65 -188 -65h-105v-135h-140v319h-76zM427 272c13 13 23 27 28 47h-214v-73h109c37 0 57 7 77 26zM351 458h-110v-67h213c-4 12 -11 24 -22 37
c-20 22 -43 30 -81 30z" />
    <glyph glyph-name="Rupee.tos" horiz-adv-x="679" 
d="M28 319v72h399c-5 13 -12 25 -22 37c-20 22 -44 30 -82 30h-295v110h629v-73h-156c34 -26 57 -63 66 -104h90v-72h-88c-7 -48 -30 -87 -63 -119c-40 -32 -87 -50 -170 -52l-71 4l266 -152h-223l-280 173v73h294c35 0 57 6 78 26c13 13 23 27 28 47h-400z" />
    <glyph glyph-name="section.tos" horiz-adv-x="679" 
d="M579 99c-13 -13 -27 -24 -43 -33c4 -7 7 -13 10 -21c6 -14 9 -31 9 -50c0 -115 -120 -158 -219 -158c-67 0 -146 19 -206 51l55 89c45 -21 102 -38 153 -38c31 0 79 8 79 45c0 9 -2 15 -8 21c-16 17 -58 21 -112 27c-55 7 -153 25 -209 80c-25 24 -43 56 -43 98
c0 46 21 84 50 114c13 14 28 25 45 35l-9 17c-6 16 -10 33 -10 54c0 115 120 158 221 158c67 0 148 -18 210 -50l-55 -90c-47 21 -106 38 -157 38c-32 0 -80 -6 -80 -44c0 -9 2 -15 8 -20c17 -16 58 -19 111 -26c56 -7 158 -26 213 -84c24 -25 39 -56 39 -96
c0 -47 -20 -87 -52 -117zM360 281c-40 5 -93 8 -138 24c-7 -6 -13 -13 -18 -20c-15 -17 -24 -36 -24 -58c0 -18 7 -32 17 -43c26 -27 82 -34 120 -38c40 -4 93 -9 138 -25c6 5 12 11 17 17c16 18 25 38 25 61c0 18 -6 31 -17 42c-27 28 -82 36 -120 40z" />
    <glyph glyph-name="numbersign.tos" horiz-adv-x="679" 
d="M444 617h83l-24 -163h147v-100h-161l-23 -159h138v-102h-153l-27 -190h-83l27 190h-115l-27 -190h-83l27 190h-143v102h158l23 159h-136v100h150l24 163h84l-24 -163h114zM291 354l-23 -159h115l23 159h-115z" />
    <glyph glyph-name="percent.tos" horiz-adv-x="679" 
d="M15 444c0 96 60 176 137 176c75 0 137 -80 137 -176c0 -98 -62 -178 -137 -178c-77 0 -137 80 -137 178zM507 605l-244 -605h-93l244 605h93zM109 444c0 -46 20 -83 43 -83c24 0 43 37 43 83c0 45 -19 81 -43 81c-23 0 -43 -36 -43 -81zM387 162c0 96 60 177 136 177
c77 0 144 -81 144 -177c0 -98 -67 -177 -144 -177c-76 0 -136 79 -136 177zM481 162c0 -45 19 -82 42 -82c24 0 44 37 44 82s-20 82 -44 82c-23 0 -42 -37 -42 -82z" />
    <glyph glyph-name="zero.pl" horiz-adv-x="801" 
d="M48 307c0 182 160 326 351 326c193 0 354 -144 354 -326c0 -181 -161 -327 -354 -327c-191 0 -351 146 -351 327zM190 307c0 -111 93 -206 209 -206s212 95 212 206c0 112 -96 204 -212 204s-209 -92 -209 -204z" />
    <glyph glyph-name="one.pl" horiz-adv-x="445" 
d="M45 418l-30 113l197 82h128v-613h-142v481z" />
    <glyph glyph-name="one.pl.alt" horiz-adv-x="352" 
d="M105 0v613h142v-613h-142z" />
    <glyph glyph-name="two.pl" horiz-adv-x="672" 
d="M137 423l-78 93c81 60 160 117 294 117c129 0 262 -53 262 -181c0 -138 -148 -179 -254 -212c-97 -29 -159 -61 -159 -122v-6h401v-112h-543v95c0 152 131 224 285 263c41 12 128 34 128 93c0 49 -60 65 -116 65c-94 0 -157 -41 -220 -93z" />
    <glyph glyph-name="three.pl" horiz-adv-x="743" 
d="M315 268v107h114c42 0 77 25 77 64c0 57 -69 77 -122 77c-81 0 -163 -45 -223 -95l-80 86c74 62 179 126 305 126c109 0 262 -47 262 -176c0 -54 -38 -96 -71 -114c52 -18 118 -60 118 -148c0 -138 -147 -215 -332 -215c-132 0 -240 39 -336 128l79 92
c67 -60 147 -104 257 -104c106 0 190 38 190 105c0 56 -66 67 -105 67h-133z" />
    <glyph glyph-name="four.pl" horiz-adv-x="781" 
d="M741 236v-107h-117v-129h-141v129h-456v86l469 398h128v-377h117zM227 240v-4h256v208h-11z" />
    <glyph glyph-name="five.pl" horiz-adv-x="728" 
d="M616 613v-117h-389v-143c53 37 106 61 192 61c132 0 268 -63 268 -201c0 -168 -169 -233 -328 -233c-163 0 -272 65 -330 103l69 97c47 -32 139 -84 262 -84c92 0 180 35 180 116c0 64 -69 91 -141 91c-90 0 -157 -31 -216 -65l-84 59v316h517z" />
    <glyph glyph-name="six.pl" horiz-adv-x="744" 
d="M669 570l-69 -96c-50 26 -114 43 -179 43c-122 0 -231 -73 -237 -204c61 46 145 90 252 90c175 0 262 -101 262 -198c0 -125 -123 -225 -296 -225c-180 0 -352 108 -352 316c0 212 176 337 368 337c119 0 206 -41 251 -63zM416 296c-84 0 -164 -34 -221 -67
c30 -86 114 -133 207 -133c91 0 155 54 155 110c0 40 -38 90 -141 90z" />
    <glyph glyph-name="seven.pl" horiz-adv-x="662" 
d="M38 491v122h589v-111l-345 -502h-179l354 491h-419z" />
    <glyph glyph-name="eight.pl" horiz-adv-x="747" 
d="M373 -22c-165 0 -324 74 -324 202c0 84 67 138 145 160c-67 19 -108 59 -108 122c0 116 160 173 288 173c126 0 287 -56 287 -176c0 -60 -35 -101 -108 -119c78 -22 145 -76 145 -160c0 -128 -161 -202 -325 -202zM373 94c86 0 174 34 174 95c0 63 -96 92 -174 92
s-173 -29 -173 -92c0 -61 88 -95 173 -95zM373 382c88 0 137 25 137 69c0 52 -76 77 -137 77s-136 -25 -136 -77c0 -44 49 -69 136 -69z" />
    <glyph glyph-name="nine.pl" horiz-adv-x="741" 
d="M73 42l69 97c49 -27 114 -43 179 -43c121 0 230 73 237 204c-61 -47 -146 -90 -252 -90c-175 0 -262 101 -262 197c0 126 122 226 295 226c180 0 352 -108 352 -316c0 -212 -176 -337 -368 -337c-119 0 -206 41 -250 62zM325 317c84 0 164 34 221 66
c-30 87 -114 133 -206 133c-91 0 -155 -53 -155 -109c0 -41 38 -90 140 -90z" />
    <glyph glyph-name="dollar.pl" horiz-adv-x="695" 
d="M258 -140l14 129c-109 18 -190 67 -247 112l77 93c39 -31 102 -76 187 -95l16 163c-126 12 -248 39 -248 176c0 149 140 195 266 195c5 0 10 -1 16 -1l9 91h95l-11 -100c88 -16 162 -49 205 -76l-78 -94c-28 20 -81 45 -145 59l-14 -133c119 -11 258 -39 258 -190
c0 -149 -129 -209 -285 -209h-9l-11 -120h-95zM521 175c0 56 -51 72 -133 80l-16 -165h4c85 0 145 29 145 85zM195 448c0 -47 64 -59 122 -63l14 137h-11c-76 0 -125 -25 -125 -74z" />
    <glyph glyph-name="cent.pl" horiz-adv-x="596" 
d="M193 -140l29 138c-110 32 -191 124 -191 248c0 156 124 258 277 258c7 0 14 0 21 -1l18 80h95l-21 -95c46 -14 90 -36 130 -67l-82 -88c-25 19 -50 33 -76 43l-59 -279c51 3 100 32 141 66l82 -82c-23 -25 -110 -97 -243 -97l-26 -124h-95zM174 246
c0 -61 32 -107 77 -131l60 276c-78 -3 -137 -59 -137 -145z" />
    <glyph glyph-name="Euro.pl" horiz-adv-x="785" 
d="M46 343v75h105c46 124 166 214 319 214c98 0 196 -34 262 -86l-75 -93c-49 38 -116 60 -177 60c-75 0 -138 -38 -173 -95h239v-75h-268c-2 -12 -3 -25 -3 -37c0 -11 1 -22 2 -32h269v-75h-242c35 -60 100 -100 179 -100c69 0 139 30 187 74l76 -92
c-69 -58 -162 -101 -274 -101c-156 0 -278 92 -323 219h-103v75h86c-1 11 -1 22 -1 33c0 12 0 24 2 36h-87z" />
    <glyph glyph-name="sterling.pl" horiz-adv-x="730" 
d="M57 284v86h134v79c0 127 121 184 238 184c65 0 165 -28 245 -70l-61 -100c-60 31 -133 53 -179 53c-48 0 -101 -26 -101 -84v-62h224v-86h-224v-59c0 -71 -25 -102 -89 -114h429v-111h-616v111h40c70 0 94 20 94 114v59h-134z" />
    <glyph glyph-name="yen.pl" horiz-adv-x="801" 
d="M61 343v75h163l-147 195h174l153 -211l152 211h165l-147 -195h166v-75h-222l-48 -64v-5h270v-75h-270v-199h-141v199h-268v75h268v5l-49 64h-219z" />
    <glyph glyph-name="florin.pl" horiz-adv-x="449" 
d="M40 284v86h117l28 128c22 102 115 135 189 135c43 0 86 -6 102 -16l-30 -100c-18 4 -55 9 -71 9c-31 0 -54 -14 -59 -38l-25 -118h127v-86h-146l-60 -283c-29 -134 -141 -181 -232 -181l-10 100c44 9 97 26 110 87l59 277h-99z" />
    <glyph glyph-name="colonmonetary.pl" horiz-adv-x="724" 
d="M514 723h70l-27 -125c50 -19 95 -46 132 -78l-86 -84c-22 18 -46 33 -71 45l-80 -377c62 16 119 54 162 96l86 -83c-66 -63 -160 -121 -273 -133l-26 -124h-70l26 122c-30 2 -58 6 -85 13l-28 -135h-70l34 159c-112 55 -180 163 -180 287c0 168 124 309 309 325l20 92h70
l-20 -91c29 -2 57 -7 85 -14zM297 114c25 -11 53 -17 84 -18l87 409c-28 8 -57 12 -85 12zM172 306c0 -60 23 -114 64 -153l75 352c-85 -28 -139 -108 -139 -199z" />
    <glyph glyph-name="franc.pl" horiz-adv-x="693" 
d="M38 107v80h104v426h523v-114h-382v-105h236v-113h-236v-94h172v-80h-172v-107h-141v107h-104z" />
    <glyph glyph-name="lira.pl" horiz-adv-x="736" 
d="M64 343v75h134v31c0 127 121 184 238 184c65 0 165 -28 245 -70l-61 -100c-60 31 -133 53 -179 53c-49 0 -101 -26 -101 -84v-14h224v-75h-224v-69h224v-75h-225c-6 -53 -33 -78 -88 -88h429v-111h-616v111h40c63 0 89 16 93 88h-133v75h134v69h-134z" />
    <glyph glyph-name="peso.pl" horiz-adv-x="837" 
d="M42 348v75h88v190h326c84 0 150 -21 198 -72c29 -32 49 -72 56 -118h94v-75h-92c-7 -53 -30 -96 -65 -130c-43 -42 -98 -66 -191 -66h-185v-152h-141v348h-88zM541 295c14 15 23 31 28 53h-298v-82h184c42 0 66 10 86 29zM456 499h-185v-76h297c-4 18 -13 32 -24 45
c-21 22 -48 31 -88 31z" />
    <glyph glyph-name="peseta.pl" horiz-adv-x="1591" 
d="M997 100l10 -100c-20 -15 -81 -19 -105 -19c-74 0 -154 36 -154 145v263h-62c-6 -39 -24 -74 -53 -102c-43 -43 -103 -64 -188 -64h-209v-223h-141v613h350c82 0 144 -19 191 -67c16 -18 30 -37 39 -58h73v138h134v-138h120v-99h-120v-253c0 -30 18 -43 53 -43
c18 0 44 4 62 7zM1519 454l-46 -95c-55 25 -125 44 -177 44c-49 0 -80 -16 -80 -47c0 -41 54 -44 96 -46c87 -4 234 -14 234 -155c0 -116 -101 -172 -231 -172c-114 0 -197 42 -248 74l46 95c48 -29 126 -66 204 -66c62 0 96 23 96 57c0 46 -60 51 -103 54
c-105 6 -226 13 -226 145c0 124 109 164 207 164c88 0 187 -32 228 -52zM445 496h-209v-156h209c34 0 60 6 79 24c15 14 24 32 24 53s-8 39 -22 53c-22 22 -48 26 -81 26z" />
    <glyph glyph-name="rupiah.pl" horiz-adv-x="1348" 
d="M237 0h-141v613h360c80 0 141 -25 182 -67c33 -33 52 -77 52 -125c0 -77 -51 -140 -127 -172l147 -249h-160l-128 229h-185v-229zM456 496h-219v-151h229c44 0 83 36 83 76c0 18 -8 36 -20 49c-18 19 -44 26 -73 26zM788 488h125c3 -19 5 -41 5 -61c31 36 83 77 155 77
c126 0 235 -101 235 -259c0 -155 -109 -259 -235 -259c-49 0 -97 17 -141 63v-256h-133v557c0 40 0 81 -11 138zM1050 98c64 0 114 59 114 146c0 91 -51 147 -115 147c-56 0 -99 -36 -117 -55v-185c36 -33 78 -53 118 -53z" />
    <glyph glyph-name="Rupee.pl" horiz-adv-x="812" 
d="M100 348v75h413c-4 18 -13 32 -24 45c-21 22 -48 31 -88 31h-301v114h649v-75h-163c36 -31 60 -69 69 -115h94v-75h-92c-7 -53 -30 -96 -65 -130c-40 -33 -93 -52 -172 -52l-69 4l284 -170h-221l-314 191v75h300c42 0 66 10 86 29c14 15 23 31 28 53h-414z" />
    <glyph glyph-name="section.pl" horiz-adv-x="681" 
d="M653 232c0 -50 -22 -94 -55 -126c-15 -15 -32 -27 -51 -37c5 -7 9 -14 13 -22c6 -16 10 -33 10 -54c0 -123 -128 -168 -233 -168c-73 0 -157 20 -220 55l56 92c48 -23 110 -42 165 -42c37 0 92 10 92 51c0 10 -3 18 -9 24c-19 19 -65 23 -124 30c-61 8 -166 27 -226 86
c-28 27 -46 62 -46 107c0 49 21 90 53 122c15 15 33 28 53 39c-5 6 -8 12 -11 19c-8 17 -12 36 -12 59c0 122 127 168 234 168c74 0 160 -21 225 -56l-56 -92c-50 24 -114 42 -171 42c-35 0 -91 -8 -91 -50c0 -11 3 -18 9 -24c20 -18 65 -21 123 -29c62 -7 170 -28 229 -90
c26 -26 43 -60 43 -104zM363 308c-44 5 -101 9 -149 26c-10 -7 -18 -14 -25 -23c-17 -19 -27 -41 -27 -66c-1 -21 7 -37 20 -49c30 -30 90 -38 134 -43c43 -5 101 -10 149 -27c8 6 16 12 22 20c19 20 30 43 30 68c0 21 -8 37 -20 49c-30 31 -90 40 -134 45z" />
    <glyph glyph-name="numbersign.pl" horiz-adv-x="878" 
d="M586 666h91l-31 -178h199v-104h-218l-31 -177h190v-103h-208l-36 -209h-91l36 209h-169l-36 -209h-91l36 209h-196v103h214l31 177h-186v104h205l31 178h91l-31 -178h169zM367 384l-31 -177h169l31 177h-169z" />
    <glyph glyph-name="percent.pl" horiz-adv-x="1040" 
d="M649 653h114l-371 -653h-115zM30 479c0 103 91 190 207 190c114 0 210 -87 210 -190c0 -106 -96 -192 -210 -192c-116 0 -207 86 -207 192zM150 479c0 -49 39 -90 87 -90c50 0 90 41 90 90s-40 89 -90 89c-48 0 -87 -40 -87 -89zM593 175c0 103 91 190 207 190
c114 0 210 -87 210 -190c0 -105 -96 -191 -210 -191c-116 0 -207 86 -207 191zM713 175c0 -49 39 -90 87 -90c49 0 90 41 90 90s-41 89 -90 89c-48 0 -87 -40 -87 -89z" />
    <glyph glyph-name="perthousand.pl" horiz-adv-x="1494" 
d="M649 653h114l-371 -653h-115zM30 479c0 103 91 190 207 190c114 0 210 -87 210 -190c0 -106 -96 -192 -210 -192c-116 0 -207 86 -207 192zM150 479c0 -49 39 -90 87 -90c50 0 90 41 90 90s-40 89 -90 89c-48 0 -87 -40 -87 -89zM593 175c0 103 91 190 207 190
c114 0 210 -87 210 -190c0 -105 -96 -191 -210 -191c-116 0 -207 86 -207 191zM713 175c0 -49 39 -90 87 -90c49 0 90 41 90 90s-41 89 -90 89c-48 0 -87 -40 -87 -89zM1051 175c0 103 92 190 207 190s211 -87 211 -190c0 -105 -96 -191 -211 -191s-207 86 -207 191z
M1171 175c0 -49 39 -90 87 -90c50 0 91 41 91 90s-41 89 -91 89c-48 0 -87 -40 -87 -89z" />
    <glyph glyph-name="zero.tl" horiz-adv-x="751" 
d="M43 307c0 182 151 326 332 326s333 -144 333 -326c0 -181 -152 -327 -333 -327s-332 146 -332 327zM184 307c0 -111 85 -206 191 -206c104 0 192 95 192 206c0 112 -88 204 -192 204c-106 0 -191 -92 -191 -204z" />
    <glyph glyph-name="one.tl" horiz-adv-x="751" 
d="M125 0v112h226v369l-214 -69l-31 113l258 88h129v-501h180v-112h-548z" />
    <glyph glyph-name="two.tl" horiz-adv-x="751" 
d="M152 423l-79 93c87 60 174 117 320 117c143 0 288 -53 288 -181c0 -138 -168 -179 -283 -212c-109 -29 -185 -61 -185 -122v-6h456v-112h-599v95c0 152 147 224 313 263c49 12 157 34 157 93c0 49 -74 65 -143 65c-106 0 -176 -41 -245 -93z" />
    <glyph glyph-name="three.tl" horiz-adv-x="751" 
d="M318 268v107h116c42 0 77 25 77 64c0 57 -69 77 -123 77c-83 0 -165 -45 -225 -95l-80 86c74 62 180 126 307 126c110 0 263 -47 263 -176c0 -54 -37 -96 -71 -114c52 -18 120 -60 120 -148c0 -138 -149 -215 -336 -215c-133 0 -241 39 -338 128l79 92
c68 -60 148 -104 259 -104c108 0 194 38 194 105c0 56 -68 67 -107 67h-135z" />
    <glyph glyph-name="four.tl" horiz-adv-x="751" 
d="M712 236v-107h-111v-129h-142v129h-434v86l448 398h128v-377h111zM223 240v-4h236v208h-10z" />
    <glyph glyph-name="five.tl" horiz-adv-x="751" 
d="M634 613v-117h-403v-143c56 37 110 61 200 61c136 0 276 -63 276 -201c0 -168 -173 -233 -336 -233c-168 0 -280 65 -339 103l70 97c47 -32 142 -84 269 -84c97 0 190 35 190 116c0 64 -73 91 -150 91c-93 0 -162 -31 -224 -65l-84 59v316h531z" />
    <glyph glyph-name="six.tl" horiz-adv-x="751" 
d="M674 570l-69 -96c-50 26 -115 43 -181 43c-122 0 -233 -73 -239 -205c61 47 147 91 254 91c177 0 264 -101 264 -198c0 -125 -123 -225 -297 -225c-181 0 -354 108 -354 316c0 212 177 337 370 337c120 0 207 -41 252 -63zM420 296c-85 0 -166 -35 -224 -68
c31 -86 116 -132 209 -132s157 54 157 110c0 40 -38 90 -142 90z" />
    <glyph glyph-name="seven.tl" horiz-adv-x="751" 
d="M48 491v122h656v-111l-393 -502h-181l404 491h-486z" />
    <glyph glyph-name="eight.tl" horiz-adv-x="751" 
d="M375 -22c-166 0 -326 74 -326 202c0 84 68 138 147 160c-68 19 -110 59 -110 122c0 116 162 173 290 173c127 0 288 -56 288 -176c0 -60 -35 -101 -109 -119c79 -22 147 -76 147 -160c0 -128 -162 -202 -327 -202zM375 94c87 0 176 34 176 95c0 63 -97 92 -176 92
s-175 -29 -175 -92c0 -61 89 -95 175 -95zM375 382c89 0 138 25 138 69c0 52 -76 77 -138 77c-61 0 -138 -25 -138 -77c0 -44 50 -69 138 -69z" />
    <glyph glyph-name="nine.tl" horiz-adv-x="751" 
d="M74 42l70 97c50 -27 115 -43 181 -43c123 0 234 74 240 205c-62 -47 -147 -91 -255 -91c-177 0 -265 101 -265 197c0 126 124 226 298 226c182 0 356 -108 356 -316c0 -212 -178 -337 -372 -337c-120 0 -208 41 -253 62zM329 317c85 0 166 34 224 66
c-30 87 -115 133 -209 133c-93 0 -158 -53 -158 -109c0 -41 39 -90 143 -90z" />
    <glyph glyph-name="dollar.tl" horiz-adv-x="751" 
d="M286 -140l12 128c-119 18 -206 68 -268 113l78 93c46 -34 114 -78 207 -96l15 165c-129 12 -265 36 -265 176c0 148 150 194 285 194h9l9 90h96l-9 -99c96 -16 179 -50 224 -77l-78 -94c-34 22 -94 47 -163 60l-13 -134c136 -12 278 -45 278 -192
c0 -146 -138 -207 -305 -207h-5l-11 -120h-96zM566 177c0 54 -57 69 -152 78l-15 -165h4c93 0 163 27 163 87zM203 450c0 -48 62 -59 138 -65l12 137h-6c-87 0 -144 -26 -144 -72z" />
    <glyph glyph-name="cent.tl" horiz-adv-x="751" 
d="M245 -140l36 138c-131 32 -228 124 -228 248c0 156 149 258 332 258c9 0 18 0 27 -1l21 80h100l-25 -92c59 -13 115 -36 165 -70l-84 -88c-35 22 -74 38 -114 48l-74 -284c80 1 145 30 193 66l85 -82c-26 -25 -127 -97 -287 -97h-15l-33 -124h-99zM197 246
c0 -65 49 -115 117 -137l74 282c-107 -1 -191 -57 -191 -145z" />
    <glyph glyph-name="Euro.tl" horiz-adv-x="751" 
d="M43 343v75h100c43 123 159 214 306 214c94 0 188 -34 250 -86l-74 -93c-46 38 -108 60 -164 60c-72 0 -130 -38 -164 -95h224v-75h-250c-2 -12 -3 -25 -3 -37c0 -11 1 -22 2 -32h251v-75h-226c33 -60 94 -100 169 -100c64 0 130 30 175 74l74 -92
c-65 -58 -153 -101 -261 -101c-151 0 -268 92 -311 219h-98v75h82c-1 11 -1 22 -1 33c0 12 1 24 2 36h-83z" />
    <glyph glyph-name="sterling.tl" horiz-adv-x="751" 
d="M59 284v86h138v79c0 127 125 184 244 184c67 0 170 -28 251 -70l-61 -100c-62 31 -137 53 -185 53c-51 0 -107 -26 -107 -84v-62h233v-86h-233v-59c0 -71 -25 -102 -90 -114h442v-111h-632v111h41c73 0 97 20 97 114v59h-138z" />
    <glyph glyph-name="yen.tl" horiz-adv-x="751" 
d="M55 343v75h151l-138 195h174l137 -211l136 211h165l-137 -195h153v-75h-206l-45 -64v-5h251v-75h-251v-199h-141v199h-249v75h249v5l-45 64h-204z" />
    <glyph glyph-name="florin.tl" horiz-adv-x="751" 
d="M190 284v86h117l28 128c22 102 115 135 189 135c43 0 86 -6 102 -16l-30 -100c-18 4 -55 9 -71 9c-31 0 -54 -14 -59 -38l-25 -118h127v-86h-146l-60 -283c-29 -134 -141 -181 -232 -181l-10 100c44 9 97 26 110 87l59 277h-99z" />
    <glyph glyph-name="colonmonetary.tl" horiz-adv-x="751" 
d="M532 723h71l-27 -125c51 -19 97 -46 135 -78l-87 -84c-22 18 -47 34 -74 46l-83 -379c65 16 125 55 169 97l86 -83c-68 -63 -165 -121 -281 -133l-27 -124h-70l26 122c-31 2 -60 6 -88 14l-29 -136h-70l34 159c-115 54 -185 163 -185 287c0 168 129 310 319 325l20 92h71
l-20 -91c29 -2 59 -7 87 -14zM308 113c26 -10 55 -16 87 -17l89 409c-29 8 -58 12 -87 12zM176 306c0 -61 25 -117 70 -155l78 355c-90 -28 -148 -108 -148 -200z" />
    <glyph glyph-name="franc.tl" horiz-adv-x="751" 
d="M42 107v80h113v426h561v-114h-420v-105h259v-113h-259v-94h187v-80h-187v-107h-141v107h-113z" />
    <glyph glyph-name="lira.tl" horiz-adv-x="751" 
d="M66 343v75h138v31c0 127 123 184 241 184c65 0 166 -28 247 -70l-61 -100c-61 31 -135 53 -181 53c-50 0 -104 -26 -104 -84v-14h229v-75h-229v-69h229v-75h-230c-6 -53 -33 -78 -88 -88h434v-111h-625v111h43c64 0 90 16 94 88h-137v75h138v69h-138z" />
    <glyph glyph-name="peso.tl" horiz-adv-x="751" 
d="M28 348v75h85v190h282c84 0 150 -21 198 -72c29 -32 49 -72 56 -118h84v-75h-82c-7 -53 -30 -96 -65 -130c-43 -42 -98 -66 -191 -66h-141v-152h-141v348h-85zM480 295c14 15 23 31 28 53h-254v-82h140c42 0 66 10 86 29zM395 499h-141v-76h253c-4 18 -13 32 -24 45
c-21 22 -48 31 -88 31z" />
    <glyph glyph-name="Rupee.tl" horiz-adv-x="751" 
d="M57 348v75h413c-4 18 -13 32 -24 45c-21 22 -48 31 -88 31h-301v114h649v-75h-163c36 -31 60 -69 69 -115h94v-75h-92c-7 -53 -30 -96 -65 -130c-40 -33 -93 -52 -172 -52l-69 4l284 -170h-221l-314 191v75h300c42 0 66 10 86 29c14 15 23 31 28 53h-414z" />
    <glyph glyph-name="section.tl" horiz-adv-x="751" 
d="M650 106c-17 -15 -36 -27 -58 -37c5 -7 10 -14 14 -22c8 -16 12 -33 12 -54c0 -123 -136 -168 -247 -168c-78 0 -167 20 -234 55l57 92c51 -23 118 -42 178 -42c42 0 106 10 106 51c0 10 -4 18 -10 24c-22 19 -74 23 -137 30c-67 8 -180 27 -244 86
c-30 27 -49 62 -49 107c0 49 22 90 56 122c16 15 38 28 60 39c-5 6 -9 12 -13 19c-8 17 -12 36 -12 59c0 122 134 168 247 168c80 0 170 -21 239 -56l-57 -92c-53 24 -122 42 -184 42c-39 0 -104 -8 -104 -50c0 -11 3 -18 10 -24c22 -18 73 -21 136 -29
c68 -7 183 -28 246 -90c28 -26 47 -60 47 -104c0 -50 -24 -94 -59 -126zM399 308c-47 5 -110 9 -161 26c-12 -7 -22 -14 -31 -23c-20 -19 -32 -41 -32 -66c0 -21 9 -37 24 -49c33 -30 98 -38 148 -43c48 -5 111 -10 162 -27c10 6 20 12 29 20c21 20 33 43 33 68
c1 21 -8 37 -23 49c-33 31 -99 40 -149 45z" />
    <glyph glyph-name="numbersign.tl" horiz-adv-x="751" 
d="M498 666h87l-27 -178h169v-104h-185l-27 -177h161v-103h-177l-31 -209h-86l31 209h-139l-31 -209h-87l32 209h-167v103h183l27 177h-159v104h175l27 178h86l-27 -178h138zM317 384l-27 -177h139l26 177h-138z" />
    <glyph glyph-name="percent.tl" horiz-adv-x="751" 
d="M4 479c0 103 69 190 156 190c85 0 157 -87 157 -190c0 -106 -72 -192 -157 -192c-87 0 -156 86 -156 192zM562 653l-280 -653h-94l280 653h94zM103 479c0 -49 27 -90 57 -90c33 0 59 41 59 90s-26 89 -59 89c-30 0 -57 -40 -57 -89zM433 175c0 103 69 190 155 190
c87 0 158 -87 158 -190c0 -105 -71 -191 -158 -191c-86 0 -155 86 -155 191zM532 175c0 -49 26 -90 56 -90c33 0 60 41 60 90s-27 89 -60 89c-30 0 -56 -40 -56 -89z" />
    <glyph glyph-name="zero.superior" unicode="&#x2070;" horiz-adv-x="578" 
d="M34 437c0 129 115 231 254 231c140 0 257 -102 257 -231s-117 -232 -257 -232c-139 0 -254 103 -254 232zM151 437c0 -72 61 -134 137 -134s139 62 139 134s-63 132 -139 132s-137 -60 -137 -132z" />
    <glyph glyph-name="one.superior" unicode="&#xb9;" horiz-adv-x="332" 
d="M31 503l-25 92l140 58h106v-433h-119v324z" />
    <glyph glyph-name="two.superior" unicode="&#xb2;" horiz-adv-x="484" 
d="M102 507l-64 75c60 45 118 86 217 86c94 0 191 -38 191 -131c0 -98 -104 -129 -182 -153c-67 -21 -104 -39 -104 -71v-2h276v-91h-394v73c0 107 94 158 207 187c25 7 79 22 79 57c0 29 -37 37 -70 37c-65 0 -110 -30 -156 -67z" />
    <glyph glyph-name="three.superior" unicode="&#xb3;" horiz-adv-x="534" 
d="M221 403v86h81c31 0 48 17 48 38c0 35 -42 47 -74 47c-55 0 -113 -31 -155 -67l-67 71c55 44 132 90 223 90c80 0 192 -34 192 -126c0 -35 -24 -64 -47 -78c37 -14 79 -45 79 -105c0 -99 -107 -154 -240 -154c-95 0 -174 28 -244 92l65 74c48 -42 104 -72 178 -72
c69 0 123 23 123 65c0 33 -39 39 -66 39h-96z" />
    <glyph glyph-name="four.superior" unicode="&#x2074;" horiz-adv-x="570" 
d="M539 394v-87h-82v-87h-118v87h-318v67l331 279h105v-259h82zM186 396v-2h153v122h-8c-47 -39 -98 -80 -145 -120z" />
    <glyph glyph-name="five.superior" unicode="&#x2075;" horiz-adv-x="529" 
d="M448 653v-94h-271v-90c37 27 74 44 133 44c93 0 191 -45 191 -143c0 -119 -123 -165 -239 -165c-117 0 -197 36 -239 57l51 84c35 -18 103 -47 188 -47c61 0 116 22 116 71c0 37 -42 53 -86 53c-62 0 -110 -21 -152 -45l-69 47v228h377z" />
    <glyph glyph-name="six.superior" unicode="&#x2076;" horiz-adv-x="536" 
d="M487 627l-55 -78c-35 15 -81 25 -126 25c-82 0 -154 -46 -160 -130c43 33 100 61 172 61c125 0 188 -70 188 -140c0 -89 -89 -160 -215 -160c-131 0 -257 76 -257 224c0 150 129 239 270 239c83 0 149 -26 183 -41zM301 419c-53 0 -105 -20 -144 -42
c22 -51 75 -78 134 -78c58 0 98 33 98 67c0 23 -23 53 -88 53z" />
    <glyph glyph-name="seven.superior" unicode="&#x2077;" horiz-adv-x="485" 
d="M28 554v99h430v-89l-244 -344h-149l250 334h-287z" />
    <glyph glyph-name="eight.superior" unicode="&#x2078;" horiz-adv-x="540" 
d="M270 203c-122 0 -237 53 -237 145c0 57 43 95 95 112c-43 15 -70 42 -70 85c0 83 119 124 213 124c92 0 211 -40 211 -127c0 -40 -21 -68 -70 -82c53 -17 94 -55 94 -112c0 -92 -115 -145 -236 -145zM270 298c56 0 111 20 111 57c0 38 -61 57 -111 57s-112 -19 -112 -57
c0 -37 56 -57 112 -57zM270 494c56 0 87 15 87 42c0 31 -49 47 -87 47c-39 0 -87 -16 -87 -47c0 -27 31 -42 87 -42z" />
    <glyph glyph-name="nine.superior" unicode="&#x2079;" horiz-adv-x="536" 
d="M49 245l55 79c36 -16 81 -26 126 -26c81 0 153 46 159 129c-43 -32 -100 -60 -171 -60c-125 0 -188 71 -188 140c0 90 88 161 214 161c132 0 258 -77 258 -224c0 -151 -129 -239 -270 -239c-83 0 -148 26 -183 40zM235 454c53 0 104 20 144 41c-22 51 -76 79 -134 79
s-98 -33 -98 -67c0 -24 23 -53 88 -53z" />
    <glyph glyph-name="zero.inferior" unicode="&#x2080;" horiz-adv-x="573" 
d="M31 49c0 129 115 231 254 231c140 0 257 -102 257 -231s-117 -232 -257 -232c-139 0 -254 103 -254 232zM148 49c0 -72 61 -134 137 -134s139 62 139 134s-63 132 -139 132s-137 -60 -137 -132z" />
    <glyph glyph-name="one.inferior" unicode="&#x2081;" horiz-adv-x="328" 
d="M29 115l-25 92l140 58h106v-433h-119v324z" />
    <glyph glyph-name="two.inferior" unicode="&#x2082;" horiz-adv-x="482" 
d="M101 119l-65 75c61 45 118 86 217 86c94 0 191 -38 191 -131c0 -98 -103 -129 -182 -153c-66 -21 -103 -39 -103 -71v-2h276v-91h-394v73c0 107 93 158 207 187c25 7 78 22 78 57c0 29 -36 37 -69 37c-66 0 -111 -30 -156 -67z" />
    <glyph glyph-name="three.inferior" unicode="&#x2083;" horiz-adv-x="534" 
d="M220 15v86h81c32 0 49 17 49 38c0 35 -42 47 -75 47c-55 0 -112 -31 -155 -67l-66 71c54 44 131 90 223 90c79 0 191 -34 191 -126c0 -35 -24 -64 -47 -78c38 -14 80 -45 80 -105c0 -99 -107 -154 -241 -154c-95 0 -173 28 -243 92l65 74c48 -42 104 -72 178 -72
c68 0 123 23 123 65c0 33 -39 39 -66 39h-97z" />
    <glyph glyph-name="four.inferior" unicode="&#x2084;" horiz-adv-x="566" 
d="M539 6v-87h-82v-87h-118v87h-318v67l331 279h105v-259h82zM186 8v-2h153v122h-8c-47 -39 -98 -80 -145 -120z" />
    <glyph glyph-name="five.inferior" unicode="&#x2085;" horiz-adv-x="526" 
d="M446 265v-94h-270v-90c37 27 74 44 133 44c93 0 190 -45 190 -143c0 -119 -123 -165 -238 -165c-118 0 -197 36 -239 57l51 84c34 -18 102 -47 188 -47c61 0 116 22 116 71c0 37 -42 53 -87 53c-62 0 -109 -21 -151 -45l-69 47v228h376z" />
    <glyph glyph-name="six.inferior" unicode="&#x2086;" horiz-adv-x="533" 
d="M485 239l-56 -78c-35 15 -81 25 -125 25c-83 0 -155 -46 -161 -130c43 32 100 61 172 61c125 0 189 -70 189 -140c0 -89 -89 -160 -215 -160c-131 0 -257 76 -257 224c0 150 129 239 269 239c84 0 149 -26 184 -41zM299 31c-54 0 -106 -20 -145 -41
c22 -51 75 -79 134 -79s99 33 99 67c0 23 -23 53 -88 53z" />
    <glyph glyph-name="seven.inferior" unicode="&#x2087;" horiz-adv-x="479" 
d="M28 166v99h430v-89l-243 -344h-149l250 334h-288z" />
    <glyph glyph-name="eight.inferior" unicode="&#x2088;" horiz-adv-x="539" 
d="M270 -185c-122 0 -237 53 -237 145c0 57 42 95 95 112c-43 15 -71 42 -71 85c0 83 119 124 214 124c92 0 210 -40 210 -127c0 -40 -21 -68 -69 -82c52 -17 94 -55 94 -112c0 -92 -116 -145 -236 -145zM270 -90c56 0 111 20 111 57c0 38 -62 57 -111 57
c-50 0 -112 -19 -112 -57c0 -37 56 -57 112 -57zM270 106c56 0 86 15 86 42c0 31 -48 47 -86 47c-39 0 -87 -16 -87 -47c0 -27 31 -42 87 -42z" />
    <glyph glyph-name="nine.inferior" unicode="&#x2089;" horiz-adv-x="533" 
d="M48 -143l56 79c35 -16 81 -26 125 -26c82 0 154 47 160 130c-43 -33 -100 -61 -172 -61c-124 0 -188 71 -188 140c0 90 89 161 215 161c131 0 257 -77 257 -224c0 -151 -129 -239 -269 -239c-83 0 -149 26 -184 40zM234 66c53 0 105 20 145 41c-23 51 -76 79 -134 79
s-99 -33 -99 -67c0 -24 23 -53 88 -53z" />
    <glyph glyph-name="zero.numerator" horiz-adv-x="572" 
d="M31 437c0 129 115 231 254 231c140 0 257 -102 257 -231s-117 -232 -257 -232c-139 0 -254 103 -254 232zM148 437c0 -72 61 -134 137 -134s139 62 139 134s-63 132 -139 132s-137 -60 -137 -132z" />
    <glyph glyph-name="one.numerator" horiz-adv-x="328" 
d="M29 503l-25 92l140 58h106v-433h-119v324z" />
    <glyph glyph-name="two.numerator" horiz-adv-x="482" 
d="M101 507l-65 75c61 45 118 86 217 86c94 0 191 -38 191 -131c0 -98 -103 -129 -182 -153c-66 -21 -103 -39 -103 -71v-2h276v-91h-394v73c0 107 93 158 207 187c25 7 78 22 78 57c0 29 -36 37 -69 37c-66 0 -111 -30 -156 -67z" />
    <glyph glyph-name="three.numerator" horiz-adv-x="534" 
d="M220 403v86h81c32 0 49 17 49 38c0 35 -42 47 -75 47c-55 0 -112 -31 -155 -67l-66 71c54 44 131 90 223 90c79 0 191 -34 191 -126c0 -35 -24 -64 -47 -78c38 -14 80 -45 80 -105c0 -99 -107 -154 -241 -154c-95 0 -173 28 -243 92l65 74c48 -42 104 -72 178 -72
c68 0 123 23 123 65c0 33 -39 39 -66 39h-97z" />
    <glyph glyph-name="four.numerator" horiz-adv-x="566" 
d="M539 394v-87h-82v-87h-118v87h-318v67l331 279h105v-259h82zM186 396v-2h153v122h-8c-47 -39 -98 -80 -145 -120z" />
    <glyph glyph-name="five.numerator" horiz-adv-x="526" 
d="M446 653v-94h-270v-90c37 27 74 44 133 44c93 0 190 -45 190 -143c0 -119 -123 -165 -238 -165c-118 0 -197 36 -239 57l51 84c34 -18 102 -47 188 -47c61 0 116 22 116 71c0 37 -42 53 -87 53c-62 0 -109 -21 -151 -45l-69 47v228h376z" />
    <glyph glyph-name="six.numerator" horiz-adv-x="532" 
d="M485 627l-56 -78c-35 15 -81 25 -125 25c-83 0 -155 -46 -161 -130c43 32 100 61 172 61c125 0 189 -70 189 -140c0 -89 -89 -160 -215 -160c-131 0 -257 76 -257 224c0 150 129 239 269 239c84 0 149 -26 184 -41zM299 419c-54 0 -106 -20 -145 -42
c22 -51 75 -78 134 -78s99 33 99 67c0 23 -23 53 -88 53z" />
    <glyph glyph-name="seven.numerator" horiz-adv-x="479" 
d="M28 554v99h430v-89l-244 -344h-149l250 334h-287z" />
    <glyph glyph-name="eight.numerator" horiz-adv-x="539" 
d="M270 203c-122 0 -237 53 -237 145c0 57 42 95 95 112c-43 15 -71 42 -71 85c0 83 119 124 214 124c92 0 210 -40 210 -127c0 -40 -21 -68 -69 -82c52 -17 94 -55 94 -112c0 -92 -116 -145 -236 -145zM270 298c56 0 111 20 111 57c0 38 -62 57 -111 57
c-50 0 -112 -19 -112 -57c0 -37 56 -57 112 -57zM270 494c56 0 86 15 86 42c0 31 -48 47 -86 47c-39 0 -87 -16 -87 -47c0 -27 31 -42 87 -42z" />
    <glyph glyph-name="nine.numerator" horiz-adv-x="533" 
d="M48 245l55 79c36 -16 81 -26 126 -26c81 0 153 46 159 129c-43 -32 -100 -60 -171 -60c-125 0 -188 71 -188 140c0 90 88 161 214 161c132 0 258 -77 258 -224c0 -151 -129 -239 -270 -239c-83 0 -148 26 -183 40zM234 454c53 0 104 20 144 41c-22 51 -76 79 -134 79
s-98 -33 -98 -67c0 -24 23 -53 88 -53z" />
    <glyph glyph-name="zero.denominator" horiz-adv-x="573" 
d="M31 217c0 129 115 231 254 231c140 0 257 -102 257 -231s-117 -232 -257 -232c-139 0 -254 103 -254 232zM148 217c0 -72 61 -134 137 -134s139 62 139 134s-63 132 -139 132s-137 -60 -137 -132z" />
    <glyph glyph-name="one.denominator" horiz-adv-x="328" 
d="M29 283l-25 92l140 58h106v-433h-119v324z" />
    <glyph glyph-name="two.denominator" horiz-adv-x="482" 
d="M101 287l-65 75c61 45 118 86 217 86c94 0 191 -38 191 -131c0 -98 -103 -129 -182 -153c-66 -21 -103 -39 -103 -71v-2h276v-91h-394v73c0 107 93 158 207 187c25 7 78 22 78 57c0 29 -36 37 -69 37c-66 0 -111 -30 -156 -67z" />
    <glyph glyph-name="three.denominator" horiz-adv-x="534" 
d="M220 183v86h81c32 0 49 17 49 38c0 35 -42 47 -75 47c-55 0 -112 -31 -155 -67l-66 71c54 44 131 90 223 90c79 0 191 -34 191 -126c0 -35 -24 -64 -47 -78c38 -14 80 -45 80 -105c0 -99 -107 -154 -241 -154c-95 0 -173 28 -243 92l65 74c48 -42 104 -72 178 -72
c68 0 123 23 123 65c0 33 -39 39 -66 39h-97z" />
    <glyph glyph-name="four.denominator" horiz-adv-x="566" 
d="M539 174v-87h-82v-87h-118v87h-318v67l331 279h105v-259h82zM186 176v-2h153v122h-8c-47 -39 -98 -80 -145 -120z" />
    <glyph glyph-name="five.denominator" horiz-adv-x="526" 
d="M446 433v-94h-270v-90c37 27 74 44 133 44c93 0 190 -45 190 -143c0 -119 -123 -165 -238 -165c-118 0 -197 36 -239 57l51 84c34 -18 102 -47 188 -47c61 0 116 22 116 71c0 37 -42 53 -87 53c-62 0 -109 -21 -151 -45l-69 47v228h376z" />
    <glyph glyph-name="six.denominator" horiz-adv-x="533" 
d="M485 407l-56 -78c-35 15 -81 25 -125 25c-83 0 -155 -46 -161 -130c43 32 100 61 172 61c125 0 189 -70 189 -140c0 -89 -89 -160 -215 -160c-131 0 -257 76 -257 224c0 150 129 239 269 239c84 0 149 -26 184 -41zM299 199c-54 0 -106 -20 -145 -42
c22 -51 75 -78 134 -78s99 33 99 67c0 23 -23 53 -88 53z" />
    <glyph glyph-name="seven.denominator" horiz-adv-x="479" 
d="M28 334v99h430v-89l-243 -344h-149l250 334h-288z" />
    <glyph glyph-name="eight.denominator" horiz-adv-x="539" 
d="M270 -17c-122 0 -237 53 -237 145c0 57 42 95 95 112c-43 15 -71 42 -71 85c0 83 119 124 214 124c92 0 210 -40 210 -127c0 -40 -21 -68 -69 -82c52 -17 94 -55 94 -112c0 -92 -116 -145 -236 -145zM270 78c56 0 111 20 111 57c0 38 -62 57 -111 57
c-50 0 -112 -19 -112 -57c0 -37 56 -57 112 -57zM270 274c56 0 86 15 86 42c0 31 -48 47 -86 47c-39 0 -87 -16 -87 -47c0 -27 31 -42 87 -42z" />
    <glyph glyph-name="nine.denominator" horiz-adv-x="533" 
d="M48 25l56 79c35 -16 81 -26 125 -26c82 0 154 46 160 130c-43 -33 -100 -61 -172 -61c-124 0 -188 71 -188 140c0 90 89 161 215 161c131 0 257 -77 257 -224c0 -151 -129 -239 -269 -239c-83 0 -149 26 -184 40zM234 234c53 0 105 20 145 41c-23 51 -76 79 -134 79
s-99 -33 -99 -67c0 -24 23 -53 88 -53z" />
    <glyph glyph-name="onehalf" unicode="&#xbd;" horiz-adv-x="1026" 
d="M29 503l-25 92l140 58h106v-433h-119v324zM566 653h114l-371 -653h-115zM645 287l-65 75c61 45 118 86 217 86c94 0 191 -38 191 -131c0 -98 -103 -129 -182 -153c-66 -21 -103 -39 -103 -71v-2h276v-91h-394v73c0 107 93 158 207 187c25 7 78 22 78 57
c0 29 -36 37 -69 37c-66 0 -111 -30 -156 -67z" />
    <glyph glyph-name="onequarter" unicode="&#xbc;" horiz-adv-x="1074" 
d="M29 503l-25 92l140 58h106v-433h-119v324zM566 653h114l-371 -653h-115zM1047 174v-87h-82v-87h-118v87h-318v67l331 279h105v-259h82zM694 176v-2h153v122h-8c-47 -39 -98 -80 -145 -120z" />
    <glyph glyph-name="threequarters" unicode="&#xbe;" horiz-adv-x="1280" 
d="M220 403v86h81c32 0 49 17 49 38c0 35 -42 47 -75 47c-55 0 -112 -31 -155 -67l-66 71c54 44 131 90 223 90c79 0 191 -34 191 -126c0 -35 -24 -64 -47 -78c38 -14 80 -45 80 -105c0 -99 -107 -154 -241 -154c-95 0 -173 28 -243 92l65 74c48 -42 104 -72 178 -72
c68 0 123 23 123 65c0 33 -39 39 -66 39h-97zM772 653h114l-371 -653h-115zM1253 174v-87h-82v-87h-118v87h-318v67l331 279h105v-259h82zM900 176v-2h153v122h-8c-47 -39 -98 -80 -145 -120z" />
    <glyph glyph-name="onethird" unicode="&#x2153;" horiz-adv-x="1078" 
d="M29 503l-25 92l140 58h106v-433h-119v324zM566 653h114l-371 -653h-115zM764 183v86h81c32 0 49 17 49 38c0 35 -42 47 -75 47c-55 0 -112 -31 -155 -67l-66 71c54 44 131 90 223 90c79 0 191 -34 191 -126c0 -35 -24 -64 -47 -78c38 -14 80 -45 80 -105
c0 -99 -107 -154 -241 -154c-95 0 -173 28 -243 92l65 74c48 -42 104 -72 178 -72c68 0 123 23 123 65c0 33 -39 39 -66 39h-97z" />
    <glyph glyph-name="twothirds" unicode="&#x2154;" horiz-adv-x="1232" 
d="M101 507l-65 75c61 45 118 86 217 86c94 0 191 -38 191 -131c0 -98 -103 -129 -182 -153c-66 -21 -103 -39 -103 -71v-2h276v-91h-394v73c0 107 93 158 207 187c25 7 78 22 78 57c0 29 -36 37 -69 37c-66 0 -111 -30 -156 -67zM720 653h114l-371 -653h-115zM918 183v86
h81c32 0 49 17 49 38c0 35 -42 47 -75 47c-55 0 -112 -31 -155 -67l-66 71c54 44 131 90 223 90c79 0 191 -34 191 -126c0 -35 -24 -64 -47 -78c38 -14 80 -45 80 -105c0 -99 -107 -154 -241 -154c-95 0 -173 28 -243 92l65 74c48 -42 104 -72 178 -72c68 0 123 23 123 65
c0 33 -39 39 -66 39h-97z" />
    <glyph glyph-name="oneeighth" unicode="&#x215b;" horiz-adv-x="1083" 
d="M29 503l-25 92l140 58h106v-433h-119v324zM566 653h114l-371 -653h-115zM814 -17c-122 0 -237 53 -237 145c0 57 42 95 95 112c-43 15 -71 42 -71 85c0 83 119 124 214 124c92 0 210 -40 210 -127c0 -40 -21 -68 -69 -82c52 -17 94 -55 94 -112
c0 -92 -116 -145 -236 -145zM814 78c56 0 111 20 111 57c0 38 -62 57 -111 57c-50 0 -112 -19 -112 -57c0 -37 56 -57 112 -57zM814 274c56 0 86 15 86 42c0 31 -48 47 -86 47c-39 0 -87 -16 -87 -47c0 -27 31 -42 87 -42z" />
    <glyph glyph-name="threeeighths" unicode="&#x215c;" horiz-adv-x="1289" 
d="M220 403v86h81c32 0 49 17 49 38c0 35 -42 47 -75 47c-55 0 -112 -31 -155 -67l-66 71c54 44 131 90 223 90c79 0 191 -34 191 -126c0 -35 -24 -64 -47 -78c38 -14 80 -45 80 -105c0 -99 -107 -154 -241 -154c-95 0 -173 28 -243 92l65 74c48 -42 104 -72 178 -72
c68 0 123 23 123 65c0 33 -39 39 -66 39h-97zM772 653h114l-371 -653h-115zM1020 -17c-122 0 -237 53 -237 145c0 57 42 95 95 112c-43 15 -71 42 -71 85c0 83 119 124 214 124c92 0 210 -40 210 -127c0 -40 -21 -68 -69 -82c52 -17 94 -55 94 -112
c0 -92 -116 -145 -236 -145zM1020 78c56 0 111 20 111 57c0 38 -62 57 -111 57c-50 0 -112 -19 -112 -57c0 -37 56 -57 112 -57zM1020 274c56 0 86 15 86 42c0 31 -48 47 -86 47c-39 0 -87 -16 -87 -47c0 -27 31 -42 87 -42z" />
    <glyph glyph-name="fiveeighths" unicode="&#x215d;" horiz-adv-x="1281" 
d="M446 653v-94h-270v-90c37 27 74 44 133 44c93 0 190 -45 190 -143c0 -119 -123 -165 -238 -165c-118 0 -197 36 -239 57l51 84c34 -18 102 -47 188 -47c61 0 116 22 116 71c0 37 -42 53 -87 53c-62 0 -109 -21 -151 -45l-69 47v228h376zM764 653h114l-371 -653h-115z
M1012 -17c-122 0 -237 53 -237 145c0 57 42 95 95 112c-43 15 -71 42 -71 85c0 83 119 124 214 124c92 0 210 -40 210 -127c0 -40 -21 -68 -69 -82c52 -17 94 -55 94 -112c0 -92 -116 -145 -236 -145zM1012 78c56 0 111 20 111 57c0 38 -62 57 -111 57
c-50 0 -112 -19 -112 -57c0 -37 56 -57 112 -57zM1012 274c56 0 86 15 86 42c0 31 -48 47 -86 47c-39 0 -87 -16 -87 -47c0 -27 31 -42 87 -42z" />
    <glyph glyph-name="seveneighths" unicode="&#x215e;" horiz-adv-x="1189" 
d="M28 554v99h430v-89l-244 -344h-149l250 334h-287zM672 653h114l-371 -653h-115zM920 -17c-122 0 -237 53 -237 145c0 57 42 95 95 112c-43 15 -71 42 -71 85c0 83 119 124 214 124c92 0 210 -40 210 -127c0 -40 -21 -68 -69 -82c52 -17 94 -55 94 -112
c0 -92 -116 -145 -236 -145zM920 78c56 0 111 20 111 57c0 38 -62 57 -111 57c-50 0 -112 -19 -112 -57c0 -37 56 -57 112 -57zM920 274c56 0 86 15 86 42c0 31 -48 47 -86 47c-39 0 -87 -16 -87 -47c0 -27 31 -42 87 -42z" />
    <glyph glyph-name="fraction" unicode="&#x2044;" horiz-adv-x="216" 
d="M238 653h114l-371 -653h-115z" />
    <glyph glyph-name="Aacute" unicode="&#xc1;" horiz-adv-x="753" 
d="M12 0l303 653h123l303 -653h-157l-60 138h-302l-59 -138h-151zM370 482l-99 -231h204l-99 231h-6zM289 726l100 138h143l-124 -138h-119z" />
    <glyph glyph-name="Agrave" unicode="&#xc0;" horiz-adv-x="753" 
d="M12 0l303 653h123l303 -653h-157l-60 138h-302l-59 -138h-151zM370 482l-99 -231h204l-99 231h-6zM363 864l100 -138h-120l-123 138h143z" />
    <glyph glyph-name="Acircumflex" unicode="&#xc2;" horiz-adv-x="753" 
d="M12 0l303 653h123l303 -653h-157l-60 138h-302l-59 -138h-151zM370 482l-99 -231h204l-99 231h-6zM204 726l106 139h132l105 -139h-105l-66 74l-67 -74h-105z" />
    <glyph glyph-name="Adieresis" unicode="&#xc4;" horiz-adv-x="753" 
d="M12 0l303 653h123l303 -653h-157l-60 138h-302l-59 -138h-151zM370 482l-99 -231h204l-99 231h-6zM190 798c0 36 31 67 72 67c42 0 74 -31 74 -67c0 -37 -32 -66 -74 -66c-41 0 -72 29 -72 66zM414 798c0 36 31 67 73 67c41 0 74 -31 74 -67c0 -37 -33 -66 -74 -66
c-42 0 -73 29 -73 66z" />
    <glyph glyph-name="Atilde" unicode="&#xc3;" horiz-adv-x="753" 
d="M12 0l303 653h123l303 -653h-157l-60 138h-302l-59 -138h-151zM370 482l-99 -231h204l-99 231h-6zM263 721l-80 43c41 72 79 98 127 98c31 0 52 -11 72 -25c19 -12 35 -25 52 -25c25 0 42 25 57 46l74 -40c-38 -69 -79 -100 -127 -100c-28 0 -51 11 -69 23
c-20 14 -35 27 -53 27c-24 0 -38 -26 -53 -47z" />
    <glyph glyph-name="Aring" unicode="&#xc5;" horiz-adv-x="753" 
d="M12 0l303 653h123l303 -653h-157l-60 138h-302l-59 -138h-151zM370 482l-99 -231h204l-99 231h-6zM315 801c0 -30 25 -49 58 -49s58 19 58 49c0 31 -25 55 -58 55s-58 -24 -58 -55zM373 693c-90 0 -136 50 -136 108s46 112 136 112c88 0 136 -54 136 -112
s-48 -108 -136 -108z" />
    <glyph glyph-name="Abreve" unicode="&#x102;" horiz-adv-x="753" 
d="M12 0l303 653h123l303 -653h-157l-60 138h-302l-59 -138h-151zM370 482l-99 -231h204l-99 231h-6zM215 864h93c0 -33 12 -68 68 -68s67 35 67 68h93c0 -64 -29 -148 -160 -148s-161 84 -161 148z" />
    <glyph glyph-name="Amacron" unicode="&#x100;" horiz-adv-x="753" 
d="M12 0l303 653h123l303 -653h-157l-60 138h-302l-59 -138h-151zM370 482l-99 -231h204l-99 231h-6zM241 838h269v-93h-269v93z" />
    <glyph glyph-name="Aogonek" unicode="&#x104;" horiz-adv-x="753" 
d="M12 0l303 653h123l303 -653h-42c-32 -14 -103 -46 -103 -96c0 -29 23 -45 61 -45c17 0 37 4 59 8l11 -80c-32 -9 -66 -14 -94 -14c-88 0 -143 43 -143 105c0 58 47 100 92 127l-58 133h-302l-59 -138h-151zM370 482l-99 -231h204l-99 231h-6z" />
    <glyph glyph-name="Aringacute" unicode="&#x1fa;" horiz-adv-x="753" 
d="M12 0l303 653h123l303 -653h-157l-60 138h-302l-59 -138h-151zM370 482l-99 -231h204l-99 231h-6zM315 801c0 -30 25 -49 58 -49s58 19 58 49c0 31 -25 55 -58 55s-58 -24 -58 -55zM373 693c-90 0 -136 50 -136 108s46 112 136 112c88 0 136 -54 136 -112
s-48 -108 -136 -108zM289 959l100 138h143l-124 -138h-119z" />
    <glyph glyph-name="Ccedilla" unicode="&#xc7;" horiz-adv-x="766" 
d="M649 207l91 -93c-71 -66 -177 -127 -308 -133l-6 -13c46 -7 108 -31 108 -90c0 -62 -71 -105 -172 -105c-48 0 -92 10 -138 21l19 71c38 -6 74 -14 108 -14c41 0 66 12 66 33c0 27 -41 33 -59 33c-8 0 -17 -1 -23 -3l-13 29l21 42c-180 27 -295 170 -295 342
c0 188 144 346 355 346c120 0 238 -47 316 -114l-90 -94c-60 52 -144 84 -214 84c-132 0 -217 -101 -217 -223c0 -123 87 -223 222 -223c89 0 172 47 229 104z" />
    <glyph glyph-name="Cacute" unicode="&#x106;" horiz-adv-x="766" 
d="M649 207l91 -93c-75 -70 -189 -134 -332 -134c-217 0 -360 155 -360 347c0 188 144 346 355 346c120 0 238 -47 316 -114l-90 -94c-60 52 -144 84 -214 84c-132 0 -217 -101 -217 -223c0 -123 87 -223 222 -223c89 0 172 47 229 104zM319 726l100 138h143l-124 -138h-119
z" />
    <glyph glyph-name="Ccaron" unicode="&#x10c;" horiz-adv-x="766" 
d="M649 207l91 -93c-75 -70 -189 -134 -332 -134c-217 0 -360 155 -360 347c0 188 144 346 355 346c120 0 238 -47 316 -114l-90 -94c-60 52 -144 84 -214 84c-132 0 -217 -101 -217 -223c0 -123 87 -223 222 -223c89 0 172 47 229 104zM339 865l67 -75l66 75h105l-105 -139
h-132l-106 139h105z" />
    <glyph glyph-name="Ccircumflex" unicode="&#x108;" horiz-adv-x="766" 
d="M649 207l91 -93c-75 -70 -189 -134 -332 -134c-217 0 -360 155 -360 347c0 188 144 346 355 346c120 0 238 -47 316 -114l-90 -94c-60 52 -144 84 -214 84c-132 0 -217 -101 -217 -223c0 -123 87 -223 222 -223c89 0 172 47 229 104zM234 726l106 139h132l105 -139h-105
l-66 74l-67 -74h-105z" />
    <glyph glyph-name="Cdotaccent" unicode="&#x10a;" horiz-adv-x="766" 
d="M649 207l91 -93c-75 -70 -189 -134 -332 -134c-217 0 -360 155 -360 347c0 188 144 346 355 346c120 0 238 -47 316 -114l-90 -94c-60 52 -144 84 -214 84c-132 0 -217 -101 -217 -223c0 -123 87 -223 222 -223c89 0 172 47 229 104zM333 798c0 36 31 67 72 67
c42 0 74 -31 74 -67c0 -37 -32 -66 -74 -66c-41 0 -72 29 -72 66z" />
    <glyph glyph-name="Dcaron" unicode="&#x10e;" horiz-adv-x="806" 
d="M410 0h-307v653h307c120 0 198 -34 256 -93c57 -59 88 -141 88 -233c0 -95 -33 -181 -94 -241c-56 -53 -127 -86 -250 -86zM246 123h159c75 0 106 17 140 47c38 38 60 90 60 156c0 62 -19 114 -55 151c-33 33 -68 52 -145 52h-159v-406zM326 865l67 -75l66 75h105
l-105 -139h-132l-106 139h105z" />
    <glyph glyph-name="Dcroat" unicode="&#x110;" horiz-adv-x="836" 
d="M37 281v104h96v268h307c120 0 198 -34 256 -93c57 -59 88 -141 88 -233c0 -95 -33 -181 -94 -241c-56 -53 -127 -86 -250 -86h-307v281h-96zM276 123h159c75 0 106 17 140 47c38 38 60 90 60 156c0 62 -19 114 -55 151c-33 33 -68 52 -145 52h-159v-144h175v-104h-175
v-158z" />
    <glyph glyph-name="Eacute" unicode="&#xc9;" horiz-adv-x="711" 
d="M487 402v-123h-241v-156h424v-123h-567v653h544v-124h-401v-127h241zM288 726l100 138h143l-124 -138h-119z" />
    <glyph glyph-name="Egrave" unicode="&#xc8;" horiz-adv-x="711" 
d="M487 402v-123h-241v-156h424v-123h-567v653h544v-124h-401v-127h241zM362 864l100 -138h-120l-123 138h143z" />
    <glyph glyph-name="Ecircumflex" unicode="&#xca;" horiz-adv-x="711" 
d="M487 402v-123h-241v-156h424v-123h-567v653h544v-124h-401v-127h241zM203 726l106 139h132l105 -139h-105l-66 74l-67 -74h-105z" />
    <glyph glyph-name="Edieresis" unicode="&#xcb;" horiz-adv-x="711" 
d="M487 402v-123h-241v-156h424v-123h-567v653h544v-124h-401v-127h241zM189 798c0 36 31 67 72 67c42 0 74 -31 74 -67c0 -37 -32 -66 -74 -66c-41 0 -72 29 -72 66zM413 798c0 36 31 67 73 67c41 0 74 -31 74 -67c0 -37 -33 -66 -74 -66c-42 0 -73 29 -73 66z" />
    <glyph glyph-name="Ebreve" unicode="&#x114;" horiz-adv-x="711" 
d="M487 402v-123h-241v-156h424v-123h-567v653h544v-124h-401v-127h241zM214 864h93c0 -33 12 -68 68 -68s67 35 67 68h93c0 -64 -29 -148 -160 -148s-161 84 -161 148z" />
    <glyph glyph-name="Ecaron" unicode="&#x11a;" horiz-adv-x="711" 
d="M487 402v-123h-241v-156h424v-123h-567v653h544v-124h-401v-127h241zM308 865l67 -75l66 75h105l-105 -139h-132l-106 139h105z" />
    <glyph glyph-name="Edotaccent" unicode="&#x116;" horiz-adv-x="711" 
d="M487 402v-123h-241v-156h424v-123h-567v653h544v-124h-401v-127h241zM302 798c0 36 31 67 72 67c42 0 74 -31 74 -67c0 -37 -32 -66 -74 -66c-41 0 -72 29 -72 66z" />
    <glyph glyph-name="Emacron" unicode="&#x112;" horiz-adv-x="711" 
d="M487 402v-123h-241v-156h424v-123h-567v653h544v-124h-401v-127h241zM240 838h269v-93h-269v93z" />
    <glyph glyph-name="Eogonek" unicode="&#x118;" horiz-adv-x="711" 
d="M487 402v-123h-241v-156h424v-123h-43c-32 -14 -103 -46 -103 -96c0 -29 23 -45 61 -45c17 0 37 4 59 8l11 -80c-32 -9 -66 -14 -94 -14c-88 0 -143 43 -143 105c0 54 42 95 84 122h-399v653h544v-124h-401v-127h241z" />
    <glyph glyph-name="Gbreve" unicode="&#x11e;" horiz-adv-x="801" 
d="M717 556l-95 -89c-57 52 -146 82 -214 82c-125 0 -212 -101 -212 -223c0 -114 76 -222 222 -222c59 0 125 16 166 44v110h-197v118h331v-293c-85 -63 -204 -102 -306 -102c-209 0 -365 154 -365 346c0 191 158 346 360 346c103 0 216 -41 310 -117zM246 864h93
c0 -33 12 -68 68 -68s67 35 67 68h93c0 -64 -29 -148 -160 -148s-161 84 -161 148z" />
    <glyph glyph-name="Gcircumflex" unicode="&#x11c;" horiz-adv-x="801" 
d="M717 556l-95 -89c-57 52 -146 82 -214 82c-125 0 -212 -101 -212 -223c0 -114 76 -222 222 -222c59 0 125 16 166 44v110h-197v118h331v-293c-85 -63 -204 -102 -306 -102c-209 0 -365 154 -365 346c0 191 158 346 360 346c103 0 216 -41 310 -117zM235 726l106 139h132
l105 -139h-105l-66 74l-67 -74h-105z" />
    <glyph glyph-name="uni0122" unicode="&#x122;" horiz-adv-x="801" 
d="M717 556l-95 -89c-57 52 -146 82 -214 82c-125 0 -212 -101 -212 -223c0 -114 76 -222 222 -222c59 0 125 16 166 44v110h-197v118h331v-293c-85 -63 -204 -102 -306 -102c-209 0 -365 154 -365 346c0 191 158 346 360 346c103 0 216 -41 310 -117zM375 -67l104 26
c13 -14 38 -44 38 -92c0 -72 -65 -121 -168 -121c-27 0 -59 5 -92 14l11 75c21 -3 40 -7 57 -7c46 0 72 17 72 49c0 28 -14 46 -22 56z" />
    <glyph glyph-name="Gdotaccent" unicode="&#x120;" horiz-adv-x="801" 
d="M717 556l-95 -89c-57 52 -146 82 -214 82c-125 0 -212 -101 -212 -223c0 -114 76 -222 222 -222c59 0 125 16 166 44v110h-197v118h331v-293c-85 -63 -204 -102 -306 -102c-209 0 -365 154 -365 346c0 191 158 346 360 346c103 0 216 -41 310 -117zM334 798
c0 36 31 67 72 67c42 0 74 -31 74 -67c0 -37 -32 -66 -74 -66c-41 0 -72 29 -72 66z" />
    <glyph glyph-name="Hbar" unicode="&#x126;" horiz-adv-x="824" 
d="M21 460v104h95v89h144v-89h304v89h143v-89h96v-104h-96v-460h-143v249h-304v-249h-144v460h-95zM260 367h304v93h-304v-93z" />
    <glyph glyph-name="Hcircumflex" unicode="&#x124;" horiz-adv-x="802" 
d="M247 0h-144v653h144v-242h308v242h144v-653h-144v290h-308v-290zM228 726l106 139h132l105 -139h-105l-66 74l-67 -74h-105z" />
    <glyph glyph-name="Iacute" unicode="&#xcd;" horiz-adv-x="349" 
d="M246 0h-143v653h143v-653zM88 726l100 138h143l-124 -138h-119z" />
    <glyph glyph-name="Igrave" unicode="&#xcc;" horiz-adv-x="349" 
d="M246 0h-143v653h143v-653zM162 864l100 -138h-120l-123 138h143z" />
    <glyph glyph-name="Icircumflex" unicode="&#xce;" horiz-adv-x="349" 
d="M246 0h-143v653h143v-653zM3 726l106 139h132l105 -139h-105l-66 74l-67 -74h-105z" />
    <glyph glyph-name="Idieresis" unicode="&#xcf;" horiz-adv-x="349" 
d="M246 0h-143v653h143v-653zM-11 798c0 36 31 67 72 67c42 0 74 -31 74 -67c0 -37 -32 -66 -74 -66c-41 0 -72 29 -72 66zM213 798c0 36 31 67 73 67c41 0 74 -31 74 -67c0 -37 -33 -66 -74 -66c-42 0 -73 29 -73 66z" />
    <glyph glyph-name="Ibreve" unicode="&#x12c;" horiz-adv-x="349" 
d="M246 0h-143v653h143v-653zM14 864h93c0 -33 12 -68 68 -68s67 35 67 68h93c0 -64 -29 -148 -160 -148s-161 84 -161 148z" />
    <glyph glyph-name="Idotaccent" unicode="&#x130;" horiz-adv-x="349" 
d="M246 0h-143v653h143v-653zM102 798c0 36 31 67 72 67c42 0 74 -31 74 -67c0 -37 -32 -66 -74 -66c-41 0 -72 29 -72 66z" />
    <glyph glyph-name="Imacron" unicode="&#x12a;" horiz-adv-x="349" 
d="M246 0h-143v653h143v-653zM40 838h269v-93h-269v93z" />
    <glyph glyph-name="Iogonek" unicode="&#x12e;" horiz-adv-x="349" 
d="M246 0c-32 -14 -103 -46 -103 -96c0 -29 23 -45 61 -45c17 0 37 4 59 8l11 -80c-32 -9 -66 -14 -94 -14c-88 0 -143 43 -143 105c0 54 42 95 84 122h-18v653h143v-653z" />
    <glyph glyph-name="Itilde" unicode="&#x128;" horiz-adv-x="349" 
d="M246 0h-143v653h143v-653zM62 721l-80 43c41 72 79 98 127 98c31 0 52 -11 72 -25c19 -12 35 -25 52 -25c25 0 42 25 57 46l74 -40c-38 -69 -79 -100 -127 -100c-28 0 -51 11 -69 23c-20 14 -35 27 -53 27c-24 0 -38 -26 -53 -47z" />
    <glyph glyph-name="IJ" unicode="&#x132;" horiz-adv-x="999" 
d="M246 0h-143v653h143v-653zM764 653h144v-417c0 -163 -117 -255 -280 -255c-168 0 -238 105 -273 179l121 63c22 -50 63 -119 151 -119c80 0 137 46 137 132v417z" />
    <glyph glyph-name="Jcircumflex" unicode="&#x134;" horiz-adv-x="650" 
d="M415 653h144v-417c0 -163 -117 -255 -280 -255c-168 0 -238 105 -273 179l121 63c22 -50 63 -119 151 -119c80 0 137 46 137 132v417zM317 726l106 139h132l105 -139h-105l-66 74l-67 -74h-105z" />
    <glyph glyph-name="uni0136" unicode="&#x136;" horiz-adv-x="772" 
d="M247 653v-284l299 284h180l-272 -255l321 -398h-181l-242 304l-105 -99v-205h-144v653h144zM362 -67l104 26c13 -14 38 -44 38 -92c0 -72 -65 -121 -168 -121c-27 0 -59 5 -92 14l11 75c21 -3 40 -7 57 -7c46 0 72 17 72 49c0 28 -14 46 -22 56z" />
    <glyph glyph-name="Lacute" unicode="&#x139;" horiz-adv-x="649" 
d="M103 653h143v-530h384v-123h-527v653zM88 726l100 138h143l-124 -138h-119z" />
    <glyph glyph-name="Lcaron" unicode="&#x13d;" horiz-adv-x="649" 
d="M103 653h143v-530h384v-123h-527v653zM454 464h-68v236h118c0 -97 -13 -165 -50 -236z" />
    <glyph glyph-name="uni013B" unicode="&#x13b;" horiz-adv-x="649" 
d="M103 653h143v-530h384v-123h-527v653zM301 -67l104 26c13 -14 38 -44 38 -92c0 -72 -65 -121 -168 -121c-27 0 -59 5 -92 14l11 75c21 -3 40 -7 57 -7c46 0 72 17 72 49c0 28 -14 46 -22 56z" />
    <glyph glyph-name="Ldot" unicode="&#x13f;" horiz-adv-x="666" 
d="M103 653h143v-530h384v-123h-527v653zM418 401c0 36 31 67 72 67c42 0 74 -31 74 -67c0 -37 -32 -66 -74 -66c-41 0 -72 29 -72 66z" />
    <glyph glyph-name="Lslash" unicode="&#x141;" horiz-adv-x="677" 
d="M34 173v116l97 56v308h143v-226l195 113v-115l-195 -113v-189h384v-123h-527v229z" />
    <glyph glyph-name="Ntilde" unicode="&#xd1;" horiz-adv-x="807" 
d="M560 653h144v-653h-124l-332 404h-1v-404h-144v653h123l333 -405h1v405zM290 721l-80 43c41 72 79 98 127 98c31 0 52 -11 72 -25c19 -12 35 -25 52 -25c25 0 42 25 57 46l74 -40c-38 -69 -79 -100 -127 -100c-28 0 -51 11 -69 23c-20 14 -35 27 -53 27
c-24 0 -38 -26 -53 -47z" />
    <glyph glyph-name="Nacute" unicode="&#x143;" horiz-adv-x="807" 
d="M560 653h144v-653h-124l-332 404h-1v-404h-144v653h123l333 -405h1v405zM316 726l100 138h143l-124 -138h-119z" />
    <glyph glyph-name="Ncaron" unicode="&#x147;" horiz-adv-x="807" 
d="M560 653h144v-653h-124l-332 404h-1v-404h-144v653h123l333 -405h1v405zM336 865l67 -75l66 75h105l-105 -139h-132l-106 139h105z" />
    <glyph glyph-name="uni0145" unicode="&#x145;" horiz-adv-x="807" 
d="M560 653h144v-653h-124l-332 404h-1v-404h-144v653h123l333 -405h1v405zM369 -67l104 26c13 -14 38 -44 38 -92c0 -72 -65 -121 -168 -121c-27 0 -59 5 -92 14l11 75c21 -3 40 -7 57 -7c46 0 72 17 72 49c0 28 -14 46 -22 56z" />
    <glyph glyph-name="Eng" unicode="&#x14a;" horiz-adv-x="807" 
d="M560 653h144v-625c0 -163 -117 -255 -280 -255v123c78 0 134 45 136 128l-312 380h-1v-404h-144v653h123l333 -405h1v405z" />
    <glyph glyph-name="Oacute" unicode="&#xd3;" horiz-adv-x="835" 
d="M47 328c0 190 162 345 369 345s373 -155 373 -345c0 -194 -166 -348 -373 -348s-369 154 -369 348zM197 328c0 -123 96 -225 219 -225c125 0 223 102 223 225c0 121 -98 221 -223 221c-123 0 -219 -100 -219 -221zM330 726l100 138h143l-124 -138h-119z" />
    <glyph glyph-name="Ograve" unicode="&#xd2;" horiz-adv-x="835" 
d="M47 328c0 190 162 345 369 345s373 -155 373 -345c0 -194 -166 -348 -373 -348s-369 154 -369 348zM197 328c0 -123 96 -225 219 -225c125 0 223 102 223 225c0 121 -98 221 -223 221c-123 0 -219 -100 -219 -221zM404 864l100 -138h-120l-123 138h143z" />
    <glyph glyph-name="Ocircumflex" unicode="&#xd4;" horiz-adv-x="835" 
d="M47 328c0 190 162 345 369 345s373 -155 373 -345c0 -194 -166 -348 -373 -348s-369 154 -369 348zM197 328c0 -123 96 -225 219 -225c125 0 223 102 223 225c0 121 -98 221 -223 221c-123 0 -219 -100 -219 -221zM245 726l106 139h132l105 -139h-105l-66 74l-67 -74
h-105z" />
    <glyph glyph-name="Odieresis" unicode="&#xd6;" horiz-adv-x="835" 
d="M47 328c0 190 162 345 369 345s373 -155 373 -345c0 -194 -166 -348 -373 -348s-369 154 -369 348zM197 328c0 -123 96 -225 219 -225c125 0 223 102 223 225c0 121 -98 221 -223 221c-123 0 -219 -100 -219 -221zM231 798c0 36 31 67 72 67c42 0 74 -31 74 -67
c0 -37 -32 -66 -74 -66c-41 0 -72 29 -72 66zM455 798c0 36 31 67 73 67c41 0 74 -31 74 -67c0 -37 -33 -66 -74 -66c-42 0 -73 29 -73 66z" />
    <glyph glyph-name="Otilde" unicode="&#xd5;" horiz-adv-x="835" 
d="M47 328c0 190 162 345 369 345s373 -155 373 -345c0 -194 -166 -348 -373 -348s-369 154 -369 348zM197 328c0 -123 96 -225 219 -225c125 0 223 102 223 225c0 121 -98 221 -223 221c-123 0 -219 -100 -219 -221zM304 721l-80 43c41 72 79 98 127 98c31 0 52 -11 72 -25
c19 -12 35 -25 52 -25c25 0 42 25 57 46l74 -40c-38 -69 -79 -100 -127 -100c-28 0 -51 11 -69 23c-20 14 -35 27 -53 27c-24 0 -38 -26 -53 -47z" />
    <glyph glyph-name="Obreve" unicode="&#x14e;" horiz-adv-x="835" 
d="M47 328c0 190 162 345 369 345s373 -155 373 -345c0 -194 -166 -348 -373 -348s-369 154 -369 348zM197 328c0 -123 96 -225 219 -225c125 0 223 102 223 225c0 121 -98 221 -223 221c-123 0 -219 -100 -219 -221zM256 864h93c0 -33 12 -68 68 -68s67 35 67 68h93
c0 -64 -29 -148 -160 -148s-161 84 -161 148z" />
    <glyph glyph-name="Ohungarumlaut" unicode="&#x150;" horiz-adv-x="835" 
d="M47 328c0 190 162 345 369 345s373 -155 373 -345c0 -194 -166 -348 -373 -348s-369 154 -369 348zM197 328c0 -123 96 -225 219 -225c125 0 223 102 223 225c0 121 -98 221 -223 221c-123 0 -219 -100 -219 -221zM496 867h112l-71 -143h-83zM313 867h112l-71 -143h-83z
" />
    <glyph glyph-name="Omacron" unicode="&#x14c;" horiz-adv-x="835" 
d="M47 328c0 190 162 345 369 345s373 -155 373 -345c0 -194 -166 -348 -373 -348s-369 154 -369 348zM197 328c0 -123 96 -225 219 -225c125 0 223 102 223 225c0 121 -98 221 -223 221c-123 0 -219 -100 -219 -221zM282 838h269v-93h-269v93z" />
    <glyph glyph-name="Oslash" unicode="&#xd8;" horiz-adv-x="835" 
d="M47 328c0 190 162 345 369 345c56 0 109 -12 157 -32l56 80l86 -58l-53 -76c78 -63 127 -156 127 -259c0 -194 -166 -348 -373 -348c-56 0 -109 12 -156 31l-55 -79l-86 58l52 75c-77 64 -124 157 -124 263zM639 328c0 56 -21 107 -56 146l-248 -356
c25 -10 52 -15 81 -15c125 0 223 102 223 225zM197 328c0 -57 20 -109 54 -149l247 354c-26 10 -53 16 -82 16c-123 0 -219 -100 -219 -221z" />
    <glyph glyph-name="Oslashacute" unicode="&#x1fe;" horiz-adv-x="835" 
d="M47 328c0 190 162 345 369 345c56 0 109 -12 157 -32l56 80l86 -58l-53 -76c78 -63 127 -156 127 -259c0 -194 -166 -348 -373 -348c-56 0 -109 12 -156 31l-55 -79l-86 58l52 75c-77 64 -124 157 -124 263zM639 328c0 56 -21 107 -56 146l-248 -356
c25 -10 52 -15 81 -15c125 0 223 102 223 225zM197 328c0 -57 20 -109 54 -149l247 354c-26 10 -53 16 -82 16c-123 0 -219 -100 -219 -221zM330 726l100 138h143l-124 -138h-119z" />
    <glyph glyph-name="Racute" unicode="&#x154;" horiz-adv-x="780" 
d="M246 0h-143v653h362c93 0 154 -27 196 -71c34 -36 54 -83 54 -135c0 -84 -52 -149 -132 -184l153 -263h-164l-132 240h-194v-240zM470 532h-224v-171h234c50 0 91 36 91 86c0 22 -8 42 -23 57c-23 25 -52 28 -78 28zM303 726l100 138h143l-124 -138h-119z" />
    <glyph glyph-name="Rcaron" unicode="&#x158;" horiz-adv-x="780" 
d="M246 0h-143v653h362c93 0 154 -27 196 -71c34 -36 54 -83 54 -135c0 -84 -52 -149 -132 -184l153 -263h-164l-132 240h-194v-240zM470 532h-224v-171h234c50 0 91 36 91 86c0 22 -8 42 -23 57c-23 25 -52 28 -78 28zM323 865l67 -75l66 75h105l-105 -139h-132l-106 139
h105z" />
    <glyph glyph-name="uni0156" unicode="&#x156;" horiz-adv-x="780" 
d="M246 0h-143v653h362c93 0 154 -27 196 -71c34 -36 54 -83 54 -135c0 -84 -52 -149 -132 -184l153 -263h-164l-132 240h-194v-240zM470 532h-224v-171h234c50 0 91 36 91 86c0 22 -8 42 -23 57c-23 25 -52 28 -78 28zM367 -67l104 26c13 -14 38 -44 38 -92
c0 -72 -65 -121 -168 -121c-27 0 -59 5 -92 14l11 75c21 -3 40 -7 57 -7c46 0 72 17 72 49c0 28 -14 46 -22 56z" />
    <glyph glyph-name="Scaron" unicode="&#x160;" horiz-adv-x="730" 
d="M647 585l-82 -100c-39 29 -121 70 -229 70c-65 0 -123 -24 -123 -80c0 -58 86 -62 171 -69c119 -8 305 -22 305 -202c0 -161 -134 -224 -294 -224c-169 0 -283 67 -359 129l81 98c55 -44 148 -110 280 -110c83 0 149 32 149 93c0 63 -67 77 -165 85
c-143 9 -311 25 -311 191c0 158 147 207 270 207c136 0 251 -50 307 -88zM298 865l67 -75l66 75h105l-105 -139h-132l-106 139h105z" />
    <glyph glyph-name="Sacute" unicode="&#x15a;" horiz-adv-x="730" 
d="M647 585l-82 -100c-39 29 -121 70 -229 70c-65 0 -123 -24 -123 -80c0 -58 86 -62 171 -69c119 -8 305 -22 305 -202c0 -161 -134 -224 -294 -224c-169 0 -283 67 -359 129l81 98c55 -44 148 -110 280 -110c83 0 149 32 149 93c0 63 -67 77 -165 85
c-143 9 -311 25 -311 191c0 158 147 207 270 207c136 0 251 -50 307 -88zM278 726l100 138h143l-124 -138h-119z" />
    <glyph glyph-name="Scedilla" unicode="&#x15e;" horiz-adv-x="730" 
d="M648 585l-82 -100c-39 29 -121 70 -229 70c-65 0 -123 -24 -123 -80c0 -58 86 -62 171 -69c119 -8 305 -22 305 -202c0 -154 -123 -218 -273 -223l-6 -13c46 -7 108 -31 108 -90c0 -62 -71 -105 -172 -105c-48 0 -92 10 -138 21l19 71c38 -6 74 -14 108 -14
c41 0 66 12 66 33c0 27 -41 33 -59 33c-8 0 -17 -1 -23 -3l-13 29l20 41c-132 15 -225 72 -290 125l81 98c55 -44 148 -110 280 -110c83 0 149 32 149 93c0 63 -67 77 -165 85c-143 9 -311 25 -311 191c0 158 147 207 270 207c136 0 251 -50 307 -88z" />
    <glyph glyph-name="Scircumflex" unicode="&#x15c;" horiz-adv-x="730" 
d="M647 585l-82 -100c-39 29 -121 70 -229 70c-65 0 -123 -24 -123 -80c0 -58 86 -62 171 -69c119 -8 305 -22 305 -202c0 -161 -134 -224 -294 -224c-169 0 -283 67 -359 129l81 98c55 -44 148 -110 280 -110c83 0 149 32 149 93c0 63 -67 77 -165 85
c-143 9 -311 25 -311 191c0 158 147 207 270 207c136 0 251 -50 307 -88zM193 726l106 139h132l105 -139h-105l-66 74l-67 -74h-105z" />
    <glyph glyph-name="uni0218" unicode="&#x218;" horiz-adv-x="730" 
d="M647 585l-82 -100c-39 29 -121 70 -229 70c-65 0 -123 -24 -123 -80c0 -58 86 -62 171 -69c119 -8 305 -22 305 -202c0 -161 -134 -224 -294 -224c-169 0 -283 67 -359 129l81 98c55 -44 148 -110 280 -110c83 0 149 32 149 93c0 63 -67 77 -165 85
c-143 9 -311 25 -311 191c0 158 147 207 270 207c136 0 251 -50 307 -88zM342 -67l104 26c13 -14 38 -44 38 -92c0 -72 -65 -121 -168 -121c-27 0 -59 5 -92 14l11 75c21 -3 40 -7 57 -7c46 0 72 17 72 49c0 28 -14 46 -22 56z" />
    <glyph glyph-name="Tbar" unicode="&#x166;" horiz-adv-x="668" 
d="M26 529v124h616v-124h-236v-144h144v-104h-144v-281h-143v281h-144v104h144v144h-237z" />
    <glyph glyph-name="Tcaron" unicode="&#x164;" horiz-adv-x="668" 
d="M26 529v124h616v-124h-236v-529h-143v529h-237zM267 865l67 -75l66 75h105l-105 -139h-132l-106 139h105z" />
    <glyph glyph-name="uni0162" unicode="&#x162;" horiz-adv-x="668" 
d="M26 529v124h616v-124h-236v-529l-16 -32c46 -7 108 -31 108 -90c0 -62 -71 -105 -172 -105c-48 0 -92 10 -138 21l19 71c38 -6 74 -14 108 -14c41 0 66 12 66 33c0 27 -41 33 -59 33c-8 0 -17 -1 -23 -3l-13 29l29 57h-52v529h-237z" />
    <glyph glyph-name="uni021A" unicode="&#x21a;" horiz-adv-x="668" 
d="M26 529v124h616v-124h-236v-529h-143v529h-237zM311 -67l104 26c13 -14 38 -44 38 -92c0 -72 -65 -121 -168 -121c-27 0 -59 5 -92 14l11 75c21 -3 40 -7 57 -7c46 0 72 17 72 49c0 28 -14 46 -22 56z" />
    <glyph glyph-name="Uacute" unicode="&#xda;" horiz-adv-x="778" 
d="M543 653h144v-418c0 -163 -126 -255 -299 -255c-168 0 -297 92 -297 255v418h144v-418c0 -86 69 -132 153 -132c89 0 155 46 155 132v418zM301 726l100 138h143l-124 -138h-119z" />
    <glyph glyph-name="Ugrave" unicode="&#xd9;" horiz-adv-x="778" 
d="M543 653h144v-418c0 -163 -126 -255 -299 -255c-168 0 -297 92 -297 255v418h144v-418c0 -86 69 -132 153 -132c89 0 155 46 155 132v418zM375 864l100 -138h-120l-123 138h143z" />
    <glyph glyph-name="Ucircumflex" unicode="&#xdb;" horiz-adv-x="778" 
d="M543 653h144v-418c0 -163 -126 -255 -299 -255c-168 0 -297 92 -297 255v418h144v-418c0 -86 69 -132 153 -132c89 0 155 46 155 132v418zM216 726l106 139h132l105 -139h-105l-66 74l-67 -74h-105z" />
    <glyph glyph-name="Udieresis" unicode="&#xdc;" horiz-adv-x="778" 
d="M543 653h144v-418c0 -163 -126 -255 -299 -255c-168 0 -297 92 -297 255v418h144v-418c0 -86 69 -132 153 -132c89 0 155 46 155 132v418zM202 798c0 36 31 67 72 67c42 0 74 -31 74 -67c0 -37 -32 -66 -74 -66c-41 0 -72 29 -72 66zM426 798c0 36 31 67 73 67
c41 0 74 -31 74 -67c0 -37 -33 -66 -74 -66c-42 0 -73 29 -73 66z" />
    <glyph glyph-name="Ubreve" unicode="&#x16c;" horiz-adv-x="778" 
d="M543 653h144v-418c0 -163 -126 -255 -299 -255c-168 0 -297 92 -297 255v418h144v-418c0 -86 69 -132 153 -132c89 0 155 46 155 132v418zM227 864h93c0 -33 12 -68 68 -68s67 35 67 68h93c0 -64 -29 -148 -160 -148s-161 84 -161 148z" />
    <glyph glyph-name="Uhungarumlaut" unicode="&#x170;" horiz-adv-x="778" 
d="M543 653h144v-418c0 -163 -126 -255 -299 -255c-168 0 -297 92 -297 255v418h144v-418c0 -86 69 -132 153 -132c89 0 155 46 155 132v418zM467 867h112l-71 -143h-83zM284 867h112l-71 -143h-83z" />
    <glyph glyph-name="Umacron" unicode="&#x16a;" horiz-adv-x="778" 
d="M543 653h144v-418c0 -163 -126 -255 -299 -255c-168 0 -297 92 -297 255v418h144v-418c0 -86 69 -132 153 -132c89 0 155 46 155 132v418zM253 838h269v-93h-269v93z" />
    <glyph glyph-name="Uogonek" unicode="&#x172;" horiz-adv-x="778" 
d="M543 653h144v-418c0 -143 -97 -232 -238 -251c-33 -17 -69 -44 -69 -80c0 -29 23 -45 61 -45c17 0 37 4 59 8l11 -80c-32 -9 -66 -14 -94 -14c-88 0 -143 43 -143 105c0 44 27 79 60 105c-141 17 -243 107 -243 252v418h144v-418c0 -86 69 -132 153 -132
c89 0 155 46 155 132v418z" />
    <glyph glyph-name="Uring" unicode="&#x16e;" horiz-adv-x="778" 
d="M543 653h144v-418c0 -163 -126 -255 -299 -255c-168 0 -297 92 -297 255v418h144v-418c0 -86 69 -132 153 -132c89 0 155 46 155 132v418zM327 801c0 -30 25 -49 58 -49s58 19 58 49c0 31 -25 55 -58 55s-58 -24 -58 -55zM385 693c-90 0 -136 50 -136 108s46 112 136 112
c88 0 136 -54 136 -112s-48 -108 -136 -108z" />
    <glyph glyph-name="Utilde" unicode="&#x168;" horiz-adv-x="778" 
d="M543 653h144v-418c0 -163 -126 -255 -299 -255c-168 0 -297 92 -297 255v418h144v-418c0 -86 69 -132 153 -132c89 0 155 46 155 132v418zM275 721l-80 43c41 72 79 98 127 98c31 0 52 -11 72 -25c19 -12 35 -25 52 -25c25 0 42 25 57 46l74 -40
c-38 -69 -79 -100 -127 -100c-28 0 -51 11 -69 23c-20 14 -35 27 -53 27c-24 0 -38 -26 -53 -47z" />
    <glyph glyph-name="Wacute" unicode="&#x1e82;" horiz-adv-x="999" 
d="M29 653h156l125 -429h6l134 429h105l133 -429h6l126 429h150l-209 -653h-136l-123 388h-6l-122 -388h-136zM412 726l100 138h143l-124 -138h-119z" />
    <glyph glyph-name="Wcircumflex" unicode="&#x174;" horiz-adv-x="999" 
d="M29 653h156l125 -429h6l134 429h105l133 -429h6l126 429h150l-209 -653h-136l-123 388h-6l-122 -388h-136zM327 726l106 139h132l105 -139h-105l-66 74l-67 -74h-105z" />
    <glyph glyph-name="Wdieresis" unicode="&#x1e84;" horiz-adv-x="999" 
d="M29 653h156l125 -429h6l134 429h105l133 -429h6l126 429h150l-209 -653h-136l-123 388h-6l-122 -388h-136zM313 798c0 36 31 67 72 67c42 0 74 -31 74 -67c0 -37 -32 -66 -74 -66c-41 0 -72 29 -72 66zM537 798c0 36 31 67 73 67c41 0 74 -31 74 -67
c0 -37 -33 -66 -74 -66c-42 0 -73 29 -73 66z" />
    <glyph glyph-name="Wgrave" unicode="&#x1e80;" horiz-adv-x="999" 
d="M29 653h156l125 -429h6l134 429h105l133 -429h6l126 429h150l-209 -653h-136l-123 388h-6l-122 -388h-136zM486 864l100 -138h-120l-123 138h143z" />
    <glyph glyph-name="Yacute" unicode="&#xdd;" horiz-adv-x="670" 
d="M498 653h168l-259 -355v-298h-144v298l-260 355h178l159 -227zM248 726l100 138h143l-124 -138h-119z" />
    <glyph glyph-name="Ydieresis" unicode="&#x178;" horiz-adv-x="670" 
d="M498 653h168l-259 -355v-298h-144v298l-260 355h178l159 -227zM149 798c0 36 31 67 72 67c42 0 74 -31 74 -67c0 -37 -32 -66 -74 -66c-41 0 -72 29 -72 66zM373 798c0 36 31 67 73 67c41 0 74 -31 74 -67c0 -37 -33 -66 -74 -66c-42 0 -73 29 -73 66z" />
    <glyph glyph-name="Ycircumflex" unicode="&#x176;" horiz-adv-x="670" 
d="M498 653h168l-259 -355v-298h-144v298l-260 355h178l159 -227zM163 726l106 139h132l105 -139h-105l-66 74l-67 -74h-105z" />
    <glyph glyph-name="Ygrave" unicode="&#x1ef2;" horiz-adv-x="670" 
d="M498 653h168l-259 -355v-298h-144v298l-260 355h178l159 -227zM322 864l100 -138h-120l-123 138h143z" />
    <glyph glyph-name="Zcaron" unicode="&#x17d;" horiz-adv-x="682" 
d="M625 123v-123h-578v84l370 445h-351v124h559v-85l-370 -445h370zM273 865l67 -75l66 75h105l-105 -139h-132l-106 139h105z" />
    <glyph glyph-name="Zacute" unicode="&#x179;" horiz-adv-x="682" 
d="M625 123v-123h-578v84l370 445h-351v124h559v-85l-370 -445h370zM253 726l100 138h143l-124 -138h-119z" />
    <glyph glyph-name="Zdotaccent" unicode="&#x17b;" horiz-adv-x="682" 
d="M625 123v-123h-578v84l370 445h-351v124h559v-85l-370 -445h370zM267 798c0 36 31 67 72 67c42 0 74 -31 74 -67c0 -37 -32 -66 -74 -66c-41 0 -72 29 -72 66z" />
    <glyph glyph-name="Eth" unicode="&#xd0;" horiz-adv-x="836" 
d="M37 281v104h96v268h307c120 0 198 -34 256 -93c57 -59 88 -141 88 -233c0 -95 -33 -181 -94 -241c-56 -53 -127 -86 -250 -86h-307v281h-96zM276 123h159c75 0 106 17 140 47c38 38 60 90 60 156c0 62 -19 114 -55 151c-33 33 -68 52 -145 52h-159v-144h175v-104h-175
v-158z" />
    <glyph glyph-name="Thorn" unicode="&#xde;" horiz-adv-x="764" 
d="M246 653v-120h239c92 0 154 -26 197 -72c34 -38 53 -84 53 -134c0 -57 -24 -107 -62 -144c-41 -39 -99 -63 -188 -63h-239v-120h-143v653h143zM490 412h-244v-171h244c25 0 53 4 75 25c16 16 26 38 26 60c0 23 -9 43 -24 59c-22 23 -51 27 -77 27z" />
    <glyph glyph-name="AE" unicode="&#xc6;" horiz-adv-x="1071" 
d="M463 0v138h-237l-94 -138h-155l448 653h581v-124h-400v-127h240v-123h-240v-156h423v-123h-566zM458 482l-157 -231h162v231h-5z" />
    <glyph glyph-name="AEacute" unicode="&#x1fc;" horiz-adv-x="1071" 
d="M463 0v138h-237l-94 -138h-155l448 653h581v-124h-400v-127h240v-123h-240v-156h423v-123h-566zM458 482l-157 -231h162v231h-5zM530 726l100 138h143l-124 -138h-119z" />
    <glyph glyph-name="OE" unicode="&#x152;" horiz-adv-x="1248" 
d="M1024 402v-123h-241v-156h424v-123h-567v75c-59 -64 -142 -95 -229 -95c-204 0 -364 154 -364 348c0 190 160 345 364 345c87 0 170 -30 229 -96v76h544v-124h-401v-127h241zM197 328c0 -123 94 -225 214 -225c131 0 233 102 233 225c0 121 -102 221 -233 221
c-120 0 -214 -100 -214 -221z" />
    <glyph glyph-name="Schwa" unicode="&#x18f;" horiz-adv-x="780" 
d="M375 -20c-161 0 -326 93 -327 324c0 12 0 25 2 46h531c-10 109 -84 199 -206 199c-80 0 -168 -38 -219 -83l-93 92c70 63 187 115 314 115c221 0 354 -160 354 -346c0 -197 -151 -347 -356 -347zM378 101c93 0 162 54 188 139h-366c7 -97 94 -139 178 -139z" />
    <glyph glyph-name="acute.cap" 
d="M161 726l100 138h143l-124 -138h-119z" />
    <glyph glyph-name="grave.cap" 
d="M235 864l100 -138h-120l-123 138h143z" />
    <glyph glyph-name="circumflex.cap" 
d="M76 726l106 139h132l105 -139h-105l-66 74l-67 -74h-105z" />
    <glyph glyph-name="dieresis.cap" 
d="M62 798c0 36 31 67 72 67c42 0 74 -31 74 -67c0 -37 -32 -66 -74 -66c-41 0 -72 29 -72 66zM286 798c0 36 31 67 73 67c41 0 74 -31 74 -67c0 -37 -33 -66 -74 -66c-42 0 -73 29 -73 66z" />
    <glyph glyph-name="tilde.cap" 
d="M135 721l-80 43c41 72 79 98 127 98c31 0 52 -11 72 -25c19 -12 35 -25 52 -25c25 0 42 25 57 46l74 -40c-38 -69 -79 -100 -127 -100c-28 0 -51 11 -69 23c-20 14 -35 27 -53 27c-24 0 -38 -26 -53 -47z" />
    <glyph glyph-name="ring.cap" 
d="M187 801c0 -30 25 -49 58 -49s58 19 58 49c0 31 -25 55 -58 55s-58 -24 -58 -55zM245 693c-90 0 -136 50 -136 108s46 112 136 112c88 0 136 -54 136 -112s-48 -108 -136 -108z" />
    <glyph glyph-name="cedilla.cap" 
d="M232 24h90l-27 -56c46 -7 108 -31 108 -90c0 -62 -71 -105 -172 -105c-48 0 -92 10 -138 21l19 71c38 -6 74 -14 108 -14c41 0 66 12 66 33c0 27 -41 33 -59 33c-8 0 -17 -1 -23 -3l-13 29z" />
    <glyph glyph-name="breve.cap" 
d="M87 864h93c0 -33 12 -68 68 -68s67 35 67 68h93c0 -64 -29 -148 -160 -148s-161 84 -161 148z" />
    <glyph glyph-name="caron.cap" 
d="M181 865l67 -75l66 75h105l-105 -139h-132l-106 139h105z" />
    <glyph glyph-name="dotaccent.cap" 
d="M175 798c0 36 31 67 72 67c42 0 74 -31 74 -67c0 -37 -32 -66 -74 -66c-41 0 -72 29 -72 66z" />
    <glyph glyph-name="hungarumlaut.cap" 
d="M327 867h112l-71 -143h-83zM144 867h112l-71 -143h-83z" />
    <glyph glyph-name="macron.cap" 
d="M113 838h269v-93h-269v93z" />
    <glyph glyph-name="ogonek.cap" 
d="M254 34l61 -34c-32 -14 -103 -46 -103 -96c0 -29 23 -45 61 -45c17 0 37 4 59 8l11 -80c-32 -9 -66 -14 -94 -14c-88 0 -143 43 -143 105c0 85 104 137 148 156z" />
    <glyph glyph-name="commaaccent.cap" 
d="M225 -67l104 26c13 -14 38 -44 38 -92c0 -72 -65 -121 -168 -121c-27 0 -59 5 -92 14l11 75c21 -3 40 -7 57 -7c46 0 72 17 72 49c0 28 -14 46 -22 56z" />
    <glyph glyph-name="caron.cap.alt" 
d="M266 464h-68v236h118c0 -97 -14 -165 -50 -236z" />
    <glyph glyph-name="ampersand.cap" horiz-adv-x="763" 
d="M563 620l-60 -109c-30 19 -89 43 -131 43c-45 0 -66 -27 -66 -55c0 -50 66 -110 86 -131l124 -137c35 39 70 88 106 149l106 -53c-45 -74 -91 -134 -135 -181l133 -146h-177l-54 59c-75 -55 -156 -75 -218 -75c-99 0 -238 51 -238 211c0 115 72 170 157 203
c-20 31 -32 61 -32 99c0 109 97 177 208 177c76 0 147 -32 191 -54zM295 281l-36 38c-42 -22 -79 -57 -79 -114c0 -76 66 -104 116 -104c33 0 75 12 122 43z" />
    <glyph glyph-name="zero.cap" horiz-adv-x="799" 
d="M47 327c0 193 160 347 351 347c193 0 354 -154 354 -347s-161 -348 -354 -348c-191 0 -351 155 -351 348zM189 327c0 -122 93 -226 209 -226s212 104 212 226c0 123 -96 225 -212 225s-209 -102 -209 -225z" />
    <glyph glyph-name="one.cap" horiz-adv-x="441" 
d="M42 452l-30 113l196 88h129v-653h-142v521z" />
    <glyph glyph-name="one.cap.alt" horiz-adv-x="435" 
d="M289 0h-143v653h143v-653z" />
    <glyph glyph-name="two.cap" horiz-adv-x="666" 
d="M56 0v98c0 162 132 238 285 280c41 12 129 37 129 103c0 56 -61 75 -117 75c-94 0 -156 -44 -219 -98l-78 93c80 63 159 123 293 123c130 0 262 -56 262 -191c0 -147 -147 -190 -254 -224c-97 -31 -158 -67 -158 -140v-7h400v-112h-543z" />
    <glyph glyph-name="three.cap" horiz-adv-x="738" 
d="M312 289v108h114c42 0 77 28 77 73c0 63 -69 86 -122 86c-81 0 -163 -49 -223 -103l-80 87c74 66 179 134 305 134c109 0 262 -50 262 -186c0 -60 -38 -105 -71 -124c52 -17 118 -61 118 -157c0 -147 -147 -228 -332 -228c-132 0 -240 42 -336 136l79 93
c67 -65 147 -112 257 -112c106 0 190 43 190 117c0 63 -66 76 -105 76h-133z" />
    <glyph glyph-name="four.cap" horiz-adv-x="777" 
d="M739 248v-108h-116v-140h-142v140h-455v88l468 425h129v-405h116zM225 252v-4h256v234h-11c-80 -75 -165 -154 -245 -230z" />
    <glyph glyph-name="five.cap" horiz-adv-x="726" 
d="M359 -21c-163 0 -272 70 -330 111l69 98c47 -35 139 -92 262 -92c92 0 180 38 180 129c0 73 -69 103 -141 103c-90 0 -157 -32 -216 -69l-84 60v334h517v-118h-389v-158c53 39 106 64 192 64c132 0 268 -67 268 -215c0 -178 -169 -247 -328 -247z" />
    <glyph glyph-name="six.cap" horiz-adv-x="738" 
d="M667 605l-69 -97c-50 30 -114 48 -179 48c-122 0 -229 -79 -237 -220c61 47 145 93 252 93c175 0 262 -109 262 -210c0 -134 -123 -240 -296 -240c-180 0 -352 115 -352 336c0 226 176 359 368 359c119 0 206 -47 251 -69zM414 321c-85 0 -166 -37 -223 -72
c27 -100 113 -153 209 -153c91 0 155 60 155 123c0 46 -38 102 -141 102z" />
    <glyph glyph-name="seven.cap" horiz-adv-x="648" 
d="M30 530v123h588v-113l-344 -540h-180l354 530h-418z" />
    <glyph glyph-name="eight.cap" horiz-adv-x="743" 
d="M371 -23c-165 0 -324 78 -324 214c0 92 67 149 145 171c-67 20 -108 62 -108 131c0 123 160 183 288 183c126 0 287 -59 287 -185c0 -67 -35 -110 -108 -129c78 -22 145 -80 145 -171c0 -136 -161 -214 -325 -214zM371 94c86 0 174 38 174 106c0 70 -96 103 -174 103
s-173 -33 -173 -103c0 -68 88 -106 173 -106zM371 405c88 0 137 27 137 77c0 59 -76 86 -137 86s-136 -27 -136 -86c0 -50 49 -77 136 -77z" />
    <glyph glyph-name="nine.cap" horiz-adv-x="739" 
d="M72 48l69 97c50 -31 114 -49 179 -49c121 0 228 80 236 220c-61 -47 -145 -92 -251 -92c-175 0 -262 108 -262 210c0 133 123 240 296 240c180 0 352 -115 352 -337c0 -225 -176 -358 -368 -358c-119 0 -206 46 -251 69zM325 332c84 0 165 37 222 71
c-27 99 -113 153 -208 153c-91 0 -155 -60 -155 -123c0 -45 38 -101 141 -101z" />
    <glyph glyph-name="exclamdown.cap" horiz-adv-x="340" 
d="M247 584c0 -46 -40 -85 -93 -85c-52 0 -94 39 -94 85c0 47 42 84 94 84c53 0 93 -37 93 -84zM108 435h92l30 -262v-173h-152v173z" />
    <glyph glyph-name="questiondown.cap" horiz-adv-x="575" 
d="M432 179l85 -77c-64 -65 -132 -121 -267 -121c-113 0 -214 43 -214 162c0 73 40 114 89 148c53 43 127 64 131 144h130c4 -129 -102 -170 -172 -224c-25 -18 -47 -36 -47 -64c0 -39 39 -59 90 -59c76 0 125 37 175 91zM396 584c0 -46 -40 -85 -93 -85s-94 39 -94 85
c0 47 42 84 94 84s93 -37 93 -84z" />
    <glyph glyph-name="guilsinglleft.cap" horiz-adv-x="357" 
d="M147 495h150l-126 -150v-8l126 -149h-150l-101 125v56z" />
    <glyph glyph-name="guilsinglright.cap" horiz-adv-x="357" 
d="M60 495h149l102 -126v-56l-102 -125h-149l125 149v8z" />
    <glyph glyph-name="guillemotleft.cap" horiz-adv-x="626" 
d="M147 495h150l-126 -150v-8l126 -149h-150l-101 125v56zM295 337v8l121 150h150l-126 -150v-8l126 -149h-150z" />
    <glyph glyph-name="guillemotright.cap" horiz-adv-x="626" 
d="M329 495h149l102 -126v-56l-102 -125h-149l125 149v8zM331 345v-8l-122 -149h-149l125 149v8l-125 150h149z" />
    <glyph glyph-name="hyphen.cap" horiz-adv-x="399" 
d="M60 288v123h279v-123h-279z" />
    <glyph glyph-name="endash.cap" horiz-adv-x="623" 
d="M60 297v114h503v-114h-503z" />
    <glyph glyph-name="emdash.cap" horiz-adv-x="1077" 
d="M60 297v114h957v-114h-957z" />
    <glyph glyph-name="parenleft.cap" horiz-adv-x="402" 
d="M314 750l67 -82c-121 -69 -202 -201 -202 -350s81 -280 202 -349l-67 -82c-174 90 -277 248 -277 431s103 342 277 432z" />
    <glyph glyph-name="parenright.cap" horiz-adv-x="402" 
d="M21 668l66 82c175 -90 277 -249 277 -432s-102 -341 -277 -431l-66 82c121 69 201 200 201 349s-80 281 -201 350z" />
    <glyph glyph-name="bracketleft.cap" horiz-adv-x="382" 
d="M343 3v-102h-262v842h262v-102h-130v-638h130z" />
    <glyph glyph-name="bracketright.cap" horiz-adv-x="382" 
d="M39 743h262v-842h-262v102h130v638h-130v102z" />
    <glyph glyph-name="braceleft.cap" horiz-adv-x="403" 
d="M365 -100c-186 0 -237 27 -237 167v134c0 64 -50 79 -103 79v100c53 0 103 32 103 83v112c1 140 54 169 237 169v-102c-81 0 -103 -10 -104 -62v-117c0 -67 -48 -114 -104 -128v-5c57 -10 103 -41 103 -129v-139c0 -50 23 -60 105 -60v-102z" />
    <glyph glyph-name="braceright.cap" horiz-adv-x="403" 
d="M38 -100v102c79 0 105 10 105 60v139c0 88 46 119 103 129v5c-56 14 -104 61 -104 128v117c-1 52 -25 62 -104 62v102c183 0 236 -29 237 -169v-112c0 -51 50 -83 103 -83v-100c-53 0 -103 -15 -103 -79v-134c0 -140 -51 -167 -237 -167z" />
    <glyph glyph-name="bullet.cap" horiz-adv-x="461" 
d="M231 184c-95 0 -173 72 -173 163c0 90 78 162 173 162c94 0 172 -72 172 -162c0 -91 -78 -163 -172 -163z" />
    <glyph glyph-name="at.cap" horiz-adv-x="1031" 
d="M655 527h124l-84 -256c-6 -18 -9 -29 -9 -40c0 -26 14 -39 41 -39c68 0 152 84 152 206c0 146 -122 254 -307 254c-214 0 -404 -143 -404 -364c0 -219 187 -323 355 -323c93 0 203 32 264 63l32 -83c-59 -33 -183 -75 -301 -75c-213 0 -467 135 -467 417
c0 279 247 460 521 460c250 0 414 -151 414 -343c0 -190 -159 -312 -290 -312c-56 0 -113 23 -120 87c-45 -55 -98 -86 -152 -86c-71 0 -143 53 -143 172c0 159 131 278 234 278c55 0 96 -38 117 -87zM466 208c29 0 67 17 102 55l30 90c-10 41 -40 75 -74 75
c-43 0 -111 -55 -111 -147c0 -51 21 -73 53 -73z" />
    <glyph glyph-name="copyright.cap" horiz-adv-x="1030" 
d="M725 473l-51 -89c-47 36 -97 52 -142 52c-79 0 -131 -57 -131 -127c0 -69 61 -113 134 -113c62 0 103 20 146 44l48 -86c-52 -36 -106 -64 -205 -64c-141 0 -255 87 -255 219c0 129 99 232 252 232c73 0 149 -30 204 -68zM515 746c256 0 466 -194 466 -438
s-210 -438 -466 -438c-258 0 -470 194 -470 438s212 438 470 438zM515 657c-201 0 -370 -160 -370 -349c0 -193 169 -348 370 -348c204 0 366 155 366 348c0 189 -162 349 -366 349z" />
    <glyph glyph-name="soundrecordingcopyright.cap" horiz-adv-x="1030" 
d="M514 -129c-258 0 -469 194 -469 438s211 438 469 438c256 0 467 -194 467 -438s-211 -438 -467 -438zM513 -39c204 0 368 155 368 349c0 189 -164 347 -368 347c-201 0 -368 -158 -368 -347c0 -193 167 -349 368 -349zM589 223h-130v-113h-128v416h233
c80 0 201 -24 201 -149c0 -107 -91 -154 -176 -154zM459 427v-105h119c27 0 59 12 59 54c0 37 -32 51 -59 51h-119z" />
    <glyph glyph-name="dollar.cap" horiz-adv-x="728" 
d="M276 -150l14 139c-109 20 -189 72 -247 120l78 93c39 -34 102 -80 186 -101l17 184c-122 12 -248 38 -248 184c0 157 140 204 265 204c5 0 10 -1 16 -1l9 99h95l-11 -109c89 -17 163 -52 206 -81l-78 -94c-29 22 -81 48 -144 63l-14 -149c125 -12 257 -46 257 -201
c0 -157 -130 -221 -285 -221h-9l-12 -129h-95zM540 186c0 62 -51 81 -132 90l-17 -185h3c86 0 146 31 146 95zM214 479c0 -54 62 -67 121 -72l15 154h-11c-71 0 -125 -23 -125 -82z" />
    <glyph glyph-name="cent.cap" horiz-adv-x="621" 
d="M207 -150l29 147c-109 34 -191 131 -191 263c0 166 124 273 277 273c7 0 14 0 21 -1l18 88h95l-21 -104c46 -14 90 -36 130 -69l-82 -88c-24 20 -50 35 -75 45l-62 -308c52 3 102 36 143 71l82 -81c-23 -27 -110 -103 -243 -103l-26 -133h-95zM188 260
c0 -66 31 -118 77 -145l61 305c-78 -3 -138 -64 -138 -160z" />
    <glyph glyph-name="Euro.cap" horiz-adv-x="798" 
d="M51 367v77h104c46 132 168 229 320 229c99 0 197 -37 262 -94l-75 -93c-48 42 -115 67 -176 67c-78 0 -142 -44 -177 -109h242v-77h-268c-2 -14 -3 -27 -3 -41c0 -12 1 -24 2 -35h269v-77h-245c35 -69 101 -115 182 -115c69 0 140 33 188 81l75 -92
c-68 -64 -162 -109 -273 -109c-157 0 -281 99 -325 235h-102v77h87c-1 12 -2 24 -2 36c0 13 1 27 2 40h-87z" />
    <glyph glyph-name="sterling.cap" horiz-adv-x="723" 
d="M56 305v88h134v85c0 135 121 196 238 196c65 0 165 -31 245 -76l-61 -100c-60 34 -133 58 -179 58c-49 0 -101 -29 -101 -93v-70h224v-88h-224v-71c0 -76 -25 -109 -89 -122h429v-112h-616v112h40c70 0 94 21 94 122v71h-134z" />
    <glyph glyph-name="yen.cap" horiz-adv-x="787" 
d="M54 367v77h165l-149 209h175l153 -231l151 231h166l-149 -209h167v-77h-221l-48 -68v-8h269v-77h-269v-214h-142v214h-268v77h268v8l-49 68h-219z" />
    <glyph glyph-name="florin.cap" horiz-adv-x="449" 
d="M40 393h118l27 135c22 110 115 146 189 146c43 0 86 -8 102 -20l-30 -101c-18 7 -55 13 -71 13c-31 0 -53 -17 -59 -47l-26 -126h128v-88h-145l-61 -304c-28 -142 -141 -192 -232 -192l-10 100c44 10 97 28 110 97l60 299h-100v88z" />
    <glyph glyph-name="colonmonetary.cap" horiz-adv-x="761" 
d="M534 771h70l-27 -135c50 -20 95 -49 132 -83l-87 -83c-21 19 -44 35 -68 48l-83 -415c62 18 119 59 162 105l86 -83c-65 -67 -160 -128 -272 -142l-26 -133h-70l26 131c-30 2 -58 6 -85 14l-28 -145h-70l34 170c-112 58 -180 173 -180 306c0 179 125 330 309 346l20 99
h70l-20 -99c29 -2 57 -7 84 -14zM316 115c25 -12 53 -19 83 -20l90 450c-28 8 -57 12 -85 13zM192 326c0 -66 23 -125 63 -168l77 388c-86 -31 -140 -118 -140 -220z" />
    <glyph glyph-name="franc.cap" horiz-adv-x="724" 
d="M53 119v81h104v453h524v-116h-383v-119h237v-115h-237v-103h172v-81h-172v-119h-141v119h-104z" />
    <glyph glyph-name="lira.cap" horiz-adv-x="728" 
d="M61 367v77h134v34c0 135 121 196 238 196c65 0 165 -31 245 -76l-61 -100c-60 34 -133 58 -179 58c-49 0 -101 -29 -101 -93v-19h224v-77h-224v-76h224v-77h-225c-4 -62 -30 -90 -88 -102h429v-112h-616v112h40c65 0 91 18 94 102h-134v77h134v76h-134z" />
    <glyph glyph-name="peso.cap" horiz-adv-x="828" 
d="M40 375v77h88v201h321c94 0 156 -25 201 -74c32 -35 51 -80 58 -127h94v-77h-93c-7 -53 -28 -101 -67 -139c-44 -44 -103 -67 -193 -67h-180v-169h-141v375h-88zM537 314c16 18 25 39 29 61h-297v-91h180c37 0 65 4 88 30zM449 537h-180v-85h296c-5 21 -14 38 -26 53
c-22 27 -50 32 -90 32z" />
    <glyph glyph-name="peseta.cap" horiz-adv-x="1607" 
d="M231 0h-144v653h362c93 0 155 -26 197 -72c25 -28 42 -59 49 -93h65v138h133v-138h120v-99h-120v-253c0 -30 19 -43 53 -43c19 0 45 4 62 7l10 -100c-19 -15 -80 -19 -106 -19c-72 0 -152 36 -152 145v263h-70c-10 -33 -28 -62 -53 -86c-41 -39 -99 -63 -188 -63h-218
v-240zM1531 454l-47 -95c-54 25 -124 44 -176 44c-50 0 -81 -16 -81 -47c0 -41 54 -44 96 -46c88 -4 235 -14 235 -155c0 -116 -101 -172 -232 -172c-113 0 -197 42 -248 74l47 95c47 -29 126 -66 203 -66c62 0 97 23 97 57c0 46 -60 51 -103 54c-106 6 -227 13 -227 145
c0 124 109 164 208 164c88 0 187 -32 228 -52zM454 532h-223v-171h223c25 0 54 4 76 25c16 16 26 38 26 60c0 23 -9 43 -24 59c-22 23 -52 27 -78 27z" />
    <glyph glyph-name="rupiah.cap" horiz-adv-x="1363" 
d="M806 488h125c3 -19 5 -41 5 -61c31 36 85 77 152 77c130 0 238 -101 238 -260c0 -154 -108 -258 -238 -258c-48 0 -97 20 -138 63v-256h-133v557c0 40 0 81 -11 138zM1069 98c63 0 113 59 113 146c0 91 -52 147 -113 147c-60 0 -101 -37 -119 -55v-185
c36 -33 78 -53 119 -53zM239 0h-143v653h362c93 0 154 -27 196 -71c34 -36 54 -83 54 -135c0 -84 -52 -149 -132 -184l153 -263h-164l-132 240h-194v-240zM463 532h-224v-171h234c50 0 91 36 91 86c0 22 -8 42 -23 57c-23 25 -52 28 -78 28z" />
    <glyph glyph-name="Rupee.cap" horiz-adv-x="803" 
d="M98 375v77h412c-5 22 -14 39 -26 53c-22 27 -52 32 -92 32h-294v116h649v-77h-164c37 -33 61 -75 69 -124h95v-77h-93c-6 -50 -26 -101 -68 -138c-43 -39 -104 -56 -180 -56l-54 4l307 -185h-223l-338 207v77h294c38 0 68 4 91 29c16 18 25 40 29 62h-414z" />
    <glyph glyph-name="section.cap" horiz-adv-x="717" 
d="M616 112c-15 -16 -31 -30 -50 -41c5 -7 9 -15 12 -24c7 -16 11 -35 11 -58c0 -128 -128 -175 -234 -175c-72 0 -156 22 -220 59l56 93c49 -26 111 -46 166 -46c37 0 91 11 91 59c0 11 -2 19 -8 26c-19 22 -66 26 -124 34c-61 8 -167 27 -227 91c-27 28 -45 66 -45 114
c0 52 21 95 52 129c16 17 34 32 53 44c-4 7 -8 13 -11 20c-7 18 -11 38 -11 63c0 129 127 176 234 176c73 0 159 -22 224 -60l-56 -92c-50 25 -114 45 -170 45c-36 0 -92 -9 -92 -58c0 -12 3 -20 10 -27c19 -20 64 -23 123 -31c61 -8 170 -30 229 -95c26 -29 43 -65 43 -113
c0 -53 -23 -98 -56 -133zM381 334c-43 5 -101 10 -149 28c-9 -7 -17 -16 -24 -26c-17 -21 -28 -46 -28 -74c0 -24 8 -43 20 -57c30 -33 90 -42 134 -48c44 -5 102 -10 150 -29c8 6 15 14 22 23c18 22 29 48 29 77c0 24 -7 42 -19 56c-30 34 -91 44 -135 50z" />
    <glyph glyph-name="numbersign.cap" horiz-adv-x="905" 
d="M600 709h91l-32 -193h200v-103h-217l-32 -195h190v-104h-207l-37 -226h-91l37 226h-169l-37 -226h-91l37 226h-197v104h214l32 195h-187v103h204l32 193h91l-32 -193h169zM382 413l-32 -195h169l32 195h-169z" />
    <glyph glyph-name="percent.cap" horiz-adv-x="1071" 
d="M664 653h114l-371 -653h-114zM45 479c0 103 92 190 208 190c114 0 210 -87 210 -190c0 -106 -96 -192 -210 -192c-116 0 -208 86 -208 192zM165 479c0 -49 40 -90 88 -90c49 0 90 41 90 90s-41 89 -90 89c-48 0 -88 -40 -88 -89zM608 175c0 103 92 190 207 190
s211 -87 211 -190c0 -105 -96 -191 -211 -191s-207 86 -207 191zM728 175c0 -49 39 -90 87 -90c50 0 91 41 91 90s-41 89 -91 89c-48 0 -87 -40 -87 -89z" />
    <glyph glyph-name="perthousand.cap" horiz-adv-x="1531" 
d="M666 653h114l-371 -653h-114zM47 479c0 103 92 190 208 190c114 0 210 -87 210 -190c0 -106 -96 -192 -210 -192c-116 0 -208 86 -208 192zM167 479c0 -49 40 -90 88 -90c49 0 90 41 90 90s-41 89 -90 89c-48 0 -88 -40 -88 -89zM610 175c0 103 92 190 207 190
s211 -87 211 -190c0 -105 -96 -191 -211 -191s-207 86 -207 191zM730 175c0 -49 39 -90 87 -90c50 0 91 41 91 90s-41 89 -91 89c-48 0 -87 -40 -87 -89zM1069 175c0 103 91 190 207 190c114 0 210 -87 210 -190c0 -105 -96 -191 -210 -191c-116 0 -207 86 -207 191z
M1189 175c0 -49 39 -90 87 -90c49 0 90 41 90 90s-41 89 -90 89c-48 0 -87 -40 -87 -89z" />
    <glyph glyph-name="aacute" unicode="&#xe1;" horiz-adv-x="598" 
d="M113 353l-41 99c46 23 134 52 228 52c112 0 225 -38 225 -148v-261c0 -22 2 -58 14 -95h-132c-5 15 -9 38 -12 56c-36 -35 -79 -68 -164 -68c-118 0 -193 71 -193 166c0 91 78 162 214 162c52 0 104 -12 140 -40v49c0 51 -44 74 -103 74c-62 0 -140 -27 -176 -46zM260 86
c70 0 117 40 132 54v47c-21 18 -63 35 -113 35c-79 0 -108 -31 -108 -68c0 -41 33 -68 89 -68zM309 698h135l-108 -146h-117z" />
    <glyph glyph-name="agrave" unicode="&#xe0;" horiz-adv-x="598" 
d="M113 353l-41 99c46 23 134 52 228 52c112 0 225 -38 225 -148v-261c0 -22 2 -58 14 -95h-132c-5 15 -9 38 -12 56c-36 -35 -79 -68 -164 -68c-118 0 -193 71 -193 166c0 91 78 162 214 162c52 0 104 -12 140 -40v49c0 51 -44 74 -103 74c-62 0 -140 -27 -176 -46zM260 86
c70 0 117 40 132 54v47c-21 18 -63 35 -113 35c-79 0 -108 -31 -108 -68c0 -41 33 -68 89 -68zM154 698h134l90 -146h-116z" />
    <glyph glyph-name="acircumflex" unicode="&#xe2;" horiz-adv-x="598" 
d="M113 353l-41 99c46 23 134 52 228 52c112 0 225 -38 225 -148v-261c0 -22 2 -58 14 -95h-132c-5 15 -9 38 -12 56c-36 -35 -79 -68 -164 -68c-118 0 -193 71 -193 166c0 91 78 162 214 162c52 0 104 -12 140 -40v49c0 51 -44 74 -103 74c-62 0 -140 -27 -176 -46zM260 86
c70 0 117 40 132 54v47c-21 18 -63 35 -113 35c-79 0 -108 -31 -108 -68c0 -41 33 -68 89 -68zM127 553l106 141h132l105 -141h-105l-66 76l-67 -76h-105z" />
    <glyph glyph-name="adieresis" unicode="&#xe4;" horiz-adv-x="598" 
d="M113 353l-41 99c46 23 134 52 228 52c112 0 225 -38 225 -148v-261c0 -22 2 -58 14 -95h-132c-5 15 -9 38 -12 56c-36 -35 -79 -68 -164 -68c-118 0 -193 71 -193 166c0 91 78 162 214 162c52 0 104 -12 140 -40v49c0 51 -44 74 -103 74c-62 0 -140 -27 -176 -46zM260 86
c70 0 117 40 132 54v47c-21 18 -63 35 -113 35c-79 0 -108 -31 -108 -68c0 -41 33 -68 89 -68zM113 625c0 36 31 67 72 67c42 0 74 -31 74 -67c0 -37 -32 -66 -74 -66c-41 0 -72 29 -72 66zM337 625c0 36 31 67 73 67c41 0 74 -31 74 -67c0 -37 -33 -66 -74 -66
c-42 0 -73 29 -73 66z" />
    <glyph glyph-name="atilde" unicode="&#xe3;" horiz-adv-x="598" 
d="M113 353l-41 99c46 23 134 52 228 52c112 0 225 -38 225 -148v-261c0 -22 2 -58 14 -95h-132c-5 15 -9 38 -12 56c-36 -35 -79 -68 -164 -68c-118 0 -193 71 -193 166c0 91 78 162 214 162c52 0 104 -12 140 -40v49c0 51 -44 74 -103 74c-62 0 -140 -27 -176 -46zM260 86
c70 0 117 40 132 54v47c-21 18 -63 35 -113 35c-79 0 -108 -31 -108 -68c0 -41 33 -68 89 -68zM186 547l-80 43c41 73 79 99 127 99c31 0 52 -11 72 -25c19 -13 35 -25 52 -25c25 0 42 24 57 46l74 -40c-38 -69 -79 -100 -127 -100c-28 0 -51 11 -69 23
c-20 14 -35 27 -53 27c-24 0 -38 -27 -53 -48z" />
    <glyph glyph-name="aring" unicode="&#xe5;" horiz-adv-x="598" 
d="M113 353l-41 99c46 23 134 52 228 52c112 0 225 -38 225 -148v-261c0 -22 2 -58 14 -95h-132c-5 15 -9 38 -12 56c-36 -35 -79 -68 -164 -68c-118 0 -193 71 -193 166c0 91 78 162 214 162c52 0 104 -12 140 -40v49c0 51 -44 74 -103 74c-62 0 -140 -27 -176 -46zM260 86
c70 0 117 40 132 54v47c-21 18 -63 35 -113 35c-79 0 -108 -31 -108 -68c0 -41 33 -68 89 -68zM238 650c0 -29 25 -49 58 -49s58 20 58 49c0 32 -25 56 -58 56s-58 -24 -58 -56zM160 650c0 59 46 112 136 112c88 0 136 -53 136 -112c0 -57 -48 -107 -136 -107
c-90 0 -136 50 -136 107z" />
    <glyph glyph-name="abreve" unicode="&#x103;" horiz-adv-x="598" 
d="M113 353l-41 99c46 23 134 52 228 52c112 0 225 -38 225 -148v-261c0 -22 2 -58 14 -95h-132c-5 15 -9 38 -12 56c-36 -35 -79 -68 -164 -68c-118 0 -193 71 -193 166c0 91 78 162 214 162c52 0 104 -12 140 -40v49c0 51 -44 74 -103 74c-62 0 -140 -27 -176 -46zM260 86
c70 0 117 40 132 54v47c-21 18 -63 35 -113 35c-79 0 -108 -31 -108 -68c0 -41 33 -68 89 -68zM138 693h93c0 -34 12 -70 68 -70s67 36 67 70h93c0 -65 -29 -150 -160 -150s-161 85 -161 150z" />
    <glyph glyph-name="amacron" unicode="&#x101;" horiz-adv-x="598" 
d="M113 353l-41 99c46 23 134 52 228 52c112 0 225 -38 225 -148v-261c0 -22 2 -58 14 -95h-132c-5 15 -9 38 -12 56c-36 -35 -79 -68 -164 -68c-118 0 -193 71 -193 166c0 91 78 162 214 162c52 0 104 -12 140 -40v49c0 51 -44 74 -103 74c-62 0 -140 -27 -176 -46zM260 86
c70 0 117 40 132 54v47c-21 18 -63 35 -113 35c-79 0 -108 -31 -108 -68c0 -41 33 -68 89 -68zM164 665h269v-93h-269v93z" />
    <glyph glyph-name="aogonek" unicode="&#x105;" horiz-adv-x="598" 
d="M113 353l-41 99c46 23 134 52 228 52c112 0 225 -38 225 -148v-261c0 -22 2 -58 14 -95h-7c-32 -14 -103 -46 -103 -96c0 -29 23 -45 61 -45c17 0 37 4 59 8l11 -80c-32 -9 -66 -14 -94 -14c-88 0 -143 43 -143 105c0 54 42 95 84 122c-5 15 -9 38 -12 56
c-36 -35 -79 -68 -164 -68c-118 0 -193 71 -193 166c0 91 78 162 214 162c52 0 104 -12 140 -40v49c0 51 -44 74 -103 74c-62 0 -140 -27 -176 -46zM260 86c70 0 117 40 132 54v47c-21 18 -63 35 -113 35c-79 0 -108 -31 -108 -68c0 -41 33 -68 89 -68z" />
    <glyph glyph-name="aringacute" unicode="&#x1fb;" horiz-adv-x="598" 
d="M113 353l-41 99c46 23 134 52 228 52c112 0 225 -38 225 -148v-261c0 -22 2 -58 14 -95h-132c-5 15 -9 38 -12 56c-36 -35 -79 -68 -164 -68c-118 0 -193 71 -193 166c0 91 78 162 214 162c52 0 104 -12 140 -40v49c0 51 -44 74 -103 74c-62 0 -140 -27 -176 -46zM260 86
c70 0 117 40 132 54v47c-21 18 -63 35 -113 35c-79 0 -108 -31 -108 -68c0 -41 33 -68 89 -68zM238 650c0 -29 25 -49 58 -49s58 20 58 49c0 32 -25 56 -58 56s-58 -24 -58 -56zM160 650c0 59 46 112 136 112c88 0 136 -53 136 -112c0 -57 -48 -107 -136 -107
c-90 0 -136 50 -136 107zM212 796l100 138h143l-124 -138h-119z" />
    <glyph glyph-name="ccedilla" unicode="&#xe7;" horiz-adv-x="558" 
d="M524 421l-83 -88c-40 39 -86 58 -125 58c-72 0 -130 -56 -130 -145s62 -149 135 -149c49 0 94 30 131 66l82 -82c-20 -23 -91 -86 -201 -95l-8 -18c46 -7 108 -31 108 -90c0 -62 -71 -105 -172 -105c-48 0 -92 10 -138 21l19 71c38 -6 74 -14 108 -14c41 0 66 12 66 33
c0 27 -41 33 -59 33c-8 0 -17 -1 -23 -3l-13 29l24 49c-113 24 -201 120 -201 254c0 156 117 258 262 258c75 0 154 -26 218 -83z" />
    <glyph glyph-name="cacute" unicode="&#x107;" horiz-adv-x="558" 
d="M524 421l-83 -88c-40 39 -86 58 -125 58c-72 0 -130 -56 -130 -145s62 -149 135 -149c49 0 94 30 131 66l82 -82c-21 -25 -103 -96 -228 -96c-141 0 -262 104 -262 261c0 156 117 258 262 258c75 0 154 -26 218 -83zM317 698h135l-108 -146h-117z" />
    <glyph glyph-name="ccaron" unicode="&#x10d;" horiz-adv-x="558" 
d="M524 421l-83 -88c-40 39 -86 58 -125 58c-72 0 -130 -56 -130 -145s62 -149 135 -149c49 0 94 30 131 66l82 -82c-21 -25 -103 -96 -228 -96c-141 0 -262 104 -262 261c0 156 117 258 262 258c75 0 154 -26 218 -83zM135 694h105l67 -77l66 77h105l-105 -141h-132z" />
    <glyph glyph-name="ccircumflex" unicode="&#x109;" horiz-adv-x="558" 
d="M524 421l-83 -88c-40 39 -86 58 -125 58c-72 0 -130 -56 -130 -145s62 -149 135 -149c49 0 94 30 131 66l82 -82c-21 -25 -103 -96 -228 -96c-141 0 -262 104 -262 261c0 156 117 258 262 258c75 0 154 -26 218 -83zM135 553l106 141h132l105 -141h-105l-66 76l-67 -76
h-105z" />
    <glyph glyph-name="cdotaccent" unicode="&#x10b;" horiz-adv-x="558" 
d="M524 421l-83 -88c-40 39 -86 58 -125 58c-72 0 -130 -56 -130 -145s62 -149 135 -149c49 0 94 30 131 66l82 -82c-21 -25 -103 -96 -228 -96c-141 0 -262 104 -262 261c0 156 117 258 262 258c75 0 154 -26 218 -83zM234 625c0 36 31 67 72 67c42 0 74 -31 74 -67
c0 -37 -32 -66 -74 -66c-41 0 -72 29 -72 66z" />
    <glyph glyph-name="dcaron" unicode="&#x10f;" horiz-adv-x="632" 
d="M565 0h-126c-3 17 -5 41 -6 58c-30 -34 -83 -72 -151 -72c-130 0 -237 103 -237 260c0 156 108 258 237 258c48 0 98 -23 138 -60v256h134v-561c0 -40 0 -82 11 -139zM302 391c-64 0 -113 -56 -113 -145s50 -148 113 -148c58 0 101 36 118 54v184c-35 34 -78 55 -118 55z
M687 464h-68v236h118c0 -97 -13 -165 -50 -236z" />
    <glyph glyph-name="dcroat" unicode="&#x111;" horiz-adv-x="632" 
d="M292 552v88h128v60h134v-60h73v-88h-73v-413c0 -40 0 -82 11 -139h-126c-3 17 -5 41 -6 58c-30 -34 -83 -72 -151 -72c-130 0 -237 103 -237 260c0 156 108 258 237 258c48 0 98 -23 138 -60v108h-128zM302 391c-64 0 -113 -56 -113 -145s50 -148 113 -148
c58 0 101 36 118 54v184c-35 34 -78 55 -118 55z" />
    <glyph glyph-name="eacute" unicode="&#xe9;" horiz-adv-x="590" 
d="M466 142l63 -85c-54 -41 -142 -72 -230 -72c-165 0 -255 118 -255 255c0 148 108 264 259 264c119 0 245 -72 245 -252c0 -8 0 -18 -2 -41h-371c11 -69 59 -119 141 -119c53 0 111 21 150 50zM302 402c-71 0 -109 -47 -124 -102h235c-1 69 -60 102 -111 102zM314 698h135
l-108 -146h-117z" />
    <glyph glyph-name="egrave" unicode="&#xe8;" horiz-adv-x="590" 
d="M466 142l63 -85c-54 -41 -142 -72 -230 -72c-165 0 -255 118 -255 255c0 148 108 264 259 264c119 0 245 -72 245 -252c0 -8 0 -18 -2 -41h-371c11 -69 59 -119 141 -119c53 0 111 21 150 50zM302 402c-71 0 -109 -47 -124 -102h235c-1 69 -60 102 -111 102zM159 698h134
l90 -146h-116z" />
    <glyph glyph-name="ecircumflex" unicode="&#xea;" horiz-adv-x="590" 
d="M466 142l63 -85c-54 -41 -142 -72 -230 -72c-165 0 -255 118 -255 255c0 148 108 264 259 264c119 0 245 -72 245 -252c0 -8 0 -18 -2 -41h-371c11 -69 59 -119 141 -119c53 0 111 21 150 50zM302 402c-71 0 -109 -47 -124 -102h235c-1 69 -60 102 -111 102zM132 553
l106 141h132l105 -141h-105l-66 76l-67 -76h-105z" />
    <glyph glyph-name="edieresis" unicode="&#xeb;" horiz-adv-x="590" 
d="M466 142l63 -85c-54 -41 -142 -72 -230 -72c-165 0 -255 118 -255 255c0 148 108 264 259 264c119 0 245 -72 245 -252c0 -8 0 -18 -2 -41h-371c11 -69 59 -119 141 -119c53 0 111 21 150 50zM302 402c-71 0 -109 -47 -124 -102h235c-1 69 -60 102 -111 102zM118 625
c0 36 31 67 72 67c42 0 74 -31 74 -67c0 -37 -32 -66 -74 -66c-41 0 -72 29 -72 66zM342 625c0 36 31 67 73 67c41 0 74 -31 74 -67c0 -37 -33 -66 -74 -66c-42 0 -73 29 -73 66z" />
    <glyph glyph-name="ebreve" unicode="&#x115;" horiz-adv-x="590" 
d="M466 142l63 -85c-54 -41 -142 -72 -230 -72c-165 0 -255 118 -255 255c0 148 108 264 259 264c119 0 245 -72 245 -252c0 -8 0 -18 -2 -41h-371c11 -69 59 -119 141 -119c53 0 111 21 150 50zM302 402c-71 0 -109 -47 -124 -102h235c-1 69 -60 102 -111 102zM143 693h93
c0 -34 12 -70 68 -70s67 36 67 70h93c0 -65 -29 -150 -160 -150s-161 85 -161 150z" />
    <glyph glyph-name="ecaron" unicode="&#x11b;" horiz-adv-x="590" 
d="M466 142l63 -85c-54 -41 -142 -72 -230 -72c-165 0 -255 118 -255 255c0 148 108 264 259 264c119 0 245 -72 245 -252c0 -8 0 -18 -2 -41h-371c11 -69 59 -119 141 -119c53 0 111 21 150 50zM302 402c-71 0 -109 -47 -124 -102h235c-1 69 -60 102 -111 102zM132 694h105
l67 -77l66 77h105l-105 -141h-132z" />
    <glyph glyph-name="edotaccent" unicode="&#x117;" horiz-adv-x="590" 
d="M466 142l63 -85c-54 -41 -142 -72 -230 -72c-165 0 -255 118 -255 255c0 148 108 264 259 264c119 0 245 -72 245 -252c0 -8 0 -18 -2 -41h-371c11 -69 59 -119 141 -119c53 0 111 21 150 50zM302 402c-71 0 -109 -47 -124 -102h235c-1 69 -60 102 -111 102zM231 625
c0 36 31 67 72 67c42 0 74 -31 74 -67c0 -37 -32 -66 -74 -66c-41 0 -72 29 -72 66z" />
    <glyph glyph-name="emacron" unicode="&#x113;" horiz-adv-x="590" 
d="M466 142l63 -85c-54 -41 -142 -72 -230 -72c-165 0 -255 118 -255 255c0 148 108 264 259 264c119 0 245 -72 245 -252c0 -8 0 -18 -2 -41h-371c11 -69 59 -119 141 -119c53 0 111 21 150 50zM302 402c-71 0 -109 -47 -124 -102h235c-1 69 -60 102 -111 102zM169 665h269
v-93h-269v93z" />
    <glyph glyph-name="eogonek" unicode="&#x119;" horiz-adv-x="590" 
d="M466 142l63 -85c-31 -24 -73 -44 -120 -57c-32 -14 -103 -46 -103 -96c0 -29 23 -45 61 -45c17 0 37 4 59 8l11 -80c-32 -9 -66 -14 -94 -14c-88 0 -143 43 -143 105c0 46 30 83 65 109c-144 15 -221 125 -221 253c0 148 108 264 259 264c119 0 245 -72 245 -252
c0 -8 0 -18 -2 -41h-371c11 -69 59 -119 141 -119c53 0 111 21 150 50zM302 402c-71 0 -109 -47 -124 -102h235c-1 69 -60 102 -111 102z" />
    <glyph glyph-name="gbreve" unicode="&#x11f;" horiz-adv-x="632" 
d="M420 -28v83c-40 -41 -90 -64 -138 -64c-130 0 -237 101 -237 252c0 159 106 261 237 261c65 0 123 -45 151 -77c0 18 3 45 7 63h124c-11 -58 -11 -100 -11 -140v-373c0 -112 -85 -204 -252 -204c-112 0 -183 35 -232 79l70 77c38 -28 88 -51 162 -51c78 0 119 42 119 94z
M301 103c41 0 83 21 119 54v179c-18 18 -60 55 -119 55c-62 0 -113 -57 -113 -148c0 -84 51 -140 113 -140zM154 693h93c0 -34 12 -70 68 -70s67 36 67 70h93c0 -65 -29 -150 -160 -150s-161 85 -161 150z" />
    <glyph glyph-name="gcircumflex" unicode="&#x11d;" horiz-adv-x="632" 
d="M420 -28v83c-40 -41 -90 -64 -138 -64c-130 0 -237 101 -237 252c0 159 106 261 237 261c65 0 123 -45 151 -77c0 18 3 45 7 63h124c-11 -58 -11 -100 -11 -140v-373c0 -112 -85 -204 -252 -204c-112 0 -183 35 -232 79l70 77c38 -28 88 -51 162 -51c78 0 119 42 119 94z
M301 103c41 0 83 21 119 54v179c-18 18 -60 55 -119 55c-62 0 -113 -57 -113 -148c0 -84 51 -140 113 -140zM143 553l106 141h132l105 -141h-105l-66 76l-67 -76h-105z" />
    <glyph glyph-name="uni0123" unicode="&#x123;" horiz-adv-x="632" 
d="M364 569l-106 -20c-16 16 -46 42 -46 92c0 70 59 120 162 120c17 0 33 -1 54 -7v-76c-13 3 -29 3 -41 3c-35 0 -55 -16 -55 -48c0 -30 17 -48 32 -64zM420 -28v83c-40 -41 -90 -64 -138 -64c-130 0 -237 101 -237 252c0 159 106 261 237 261c65 0 123 -45 151 -77
c0 18 3 45 7 63h124c-11 -58 -11 -100 -11 -140v-373c0 -112 -85 -204 -252 -204c-112 0 -183 35 -232 79l70 77c38 -28 88 -51 162 -51c78 0 119 42 119 94zM301 103c41 0 83 21 119 54v179c-18 18 -60 55 -119 55c-62 0 -113 -57 -113 -148c0 -84 51 -140 113 -140z" />
    <glyph glyph-name="gdotaccent" unicode="&#x121;" horiz-adv-x="632" 
d="M420 -28v83c-40 -41 -90 -64 -138 -64c-130 0 -237 101 -237 252c0 159 106 261 237 261c65 0 123 -45 151 -77c0 18 3 45 7 63h124c-11 -58 -11 -100 -11 -140v-373c0 -112 -85 -204 -252 -204c-112 0 -183 35 -232 79l70 77c38 -28 88 -51 162 -51c78 0 119 42 119 94z
M301 103c41 0 83 21 119 54v179c-18 18 -60 55 -119 55c-62 0 -113 -57 -113 -148c0 -84 51 -140 113 -140zM242 625c0 36 31 67 72 67c42 0 74 -31 74 -67c0 -37 -32 -66 -74 -66c-41 0 -72 29 -72 66z" />
    <glyph glyph-name="hbar" unicode="&#x127;" horiz-adv-x="608" 
d="M338 640v-88h-128v-115c35 35 82 67 141 67c111 0 186 -74 186 -176v-328h-134v323c0 37 -34 68 -82 68c-47 0 -88 -33 -111 -63v-328h-133v552h-74v88h74v60h133v-60h128z" />
    <glyph glyph-name="hcircumflex" unicode="&#x125;" horiz-adv-x="608" 
d="M210 0h-133v700h133v-263c35 35 82 67 141 67c111 0 186 -74 186 -176v-328h-134v323c0 37 -34 68 -82 68c-47 0 -88 -33 -111 -63v-328zM-26 765l106 139h132l105 -139h-105l-66 74l-67 -74h-105z" />
    <glyph glyph-name="iacute" unicode="&#xed;" horiz-adv-x="287" 
d="M210 0h-133v488h133v-488zM154 698h135l-108 -146h-117z" />
    <glyph glyph-name="igrave" unicode="&#xec;" horiz-adv-x="287" 
d="M210 0h-133v488h133v-488zM-1 698h134l90 -146h-116z" />
    <glyph glyph-name="icircumflex" unicode="&#xee;" horiz-adv-x="287" 
d="M210 0h-133v488h133v-488zM-28 553l106 141h132l105 -141h-105l-66 76l-67 -76h-105z" />
    <glyph glyph-name="idieresis" unicode="&#xef;" horiz-adv-x="287" 
d="M210 0h-133v488h133v-488zM-42 625c0 36 31 67 72 67c42 0 74 -31 74 -67c0 -37 -32 -66 -74 -66c-41 0 -72 29 -72 66zM182 625c0 36 31 67 73 67c41 0 74 -31 74 -67c0 -37 -33 -66 -74 -66c-42 0 -73 29 -73 66z" />
    <glyph glyph-name="ibreve" unicode="&#x12d;" horiz-adv-x="287" 
d="M210 0h-133v488h133v-488zM-17 693h93c0 -34 12 -70 68 -70s67 36 67 70h93c0 -65 -29 -150 -160 -150s-161 85 -161 150z" />
    <glyph glyph-name="imacron" unicode="&#x12b;" horiz-adv-x="287" 
d="M210 0h-133v488h133v-488zM9 665h269v-93h-269v93z" />
    <glyph glyph-name="iogonek" unicode="&#x12f;" horiz-adv-x="287" 
d="M77 0v488h133v-488c-31 -14 -103 -46 -103 -96c0 -29 24 -45 61 -45c18 0 38 4 59 8l11 -80c-32 -9 -66 -14 -93 -14c-89 0 -144 43 -144 105c0 54 42 95 84 122h-8zM143 565c-45 0 -79 32 -79 71c0 40 34 73 79 73s80 -34 80 -73s-35 -71 -80 -71z" />
    <glyph glyph-name="itilde" unicode="&#x129;" horiz-adv-x="287" 
d="M210 0h-133v488h133v-488zM31 547l-80 43c41 73 79 99 127 99c31 0 52 -11 72 -25c19 -13 35 -25 52 -25c25 0 42 24 57 46l74 -40c-38 -69 -79 -100 -127 -100c-28 0 -51 11 -69 23c-20 14 -35 27 -53 27c-24 0 -38 -27 -53 -48z" />
    <glyph glyph-name="ij" unicode="&#x133;" horiz-adv-x="575" 
d="M210 0h-133v488h133v-488zM64 636c0 40 34 73 79 73s80 -34 80 -73s-35 -71 -80 -71s-79 32 -79 71zM308 -228l-36 99c43 10 92 23 92 85v532h133v-532c0 -136 -106 -184 -189 -184zM350 636c0 40 34 73 80 73c45 0 80 -34 80 -73s-35 -71 -80 -71c-46 0 -80 32 -80 71z
" />
    <glyph glyph-name="dotlessi" unicode="&#x131;" horiz-adv-x="287" 
d="M210 0h-133v488h133v-488z" />
    <glyph glyph-name="jcircumflex" unicode="&#x135;" horiz-adv-x="287" 
d="M21 -228l-36 99c43 10 92 23 92 85v532h133v-532c0 -136 -106 -184 -189 -184zM-28 553l106 141h132l105 -141h-105l-66 76l-67 -76h-105z" />
    <glyph glyph-name="dotlessj" unicode="&#x237;" horiz-adv-x="287" 
d="M21 -228l-36 99c43 10 92 23 92 85v532h133v-532c0 -136 -106 -184 -189 -184z" />
    <glyph glyph-name="uni0137" unicode="&#x137;" horiz-adv-x="584" 
d="M388 488h175l-191 -178l211 -310h-165l-141 221l-66 -61v-160h-134v700h134v-389zM248 -61l105 20c17 -17 46 -43 46 -92c0 -71 -58 -121 -162 -121c-16 0 -32 1 -54 8v76c14 -3 29 -3 41 -3c36 0 56 16 56 48c0 29 -17 47 -32 64z" />
    <glyph glyph-name="kgreenlandic" unicode="&#x138;" horiz-adv-x="584" 
d="M388 488h175l-191 -178l211 -310h-165l-141 221l-66 -61v-160h-134v488h134v-177z" />
    <glyph glyph-name="lacute" unicode="&#x13a;" horiz-adv-x="292" 
d="M213 0h-134v700h134v-700zM59 765l100 138h143l-124 -138h-119z" />
    <glyph glyph-name="lcaron" unicode="&#x13e;" horiz-adv-x="292" 
d="M213 0h-134v700h134v-700zM346 464h-68v236h118c0 -97 -14 -165 -50 -236z" />
    <glyph glyph-name="uni013C" unicode="&#x13c;" horiz-adv-x="292" 
d="M213 0h-134v700h134v-700zM102 -61l105 20c17 -17 46 -43 46 -92c0 -71 -58 -121 -162 -121c-16 0 -32 1 -54 8v76c14 -3 29 -3 41 -3c36 0 56 16 56 48c0 29 -17 47 -32 64z" />
    <glyph glyph-name="ldot" unicode="&#x140;" horiz-adv-x="372" 
d="M213 0h-134v700h134v-700zM248 360c0 36 31 67 72 67c42 0 74 -31 74 -67c0 -37 -32 -66 -74 -66c-41 0 -72 29 -72 66z" />
    <glyph glyph-name="lslash" unicode="&#x142;" horiz-adv-x="327" 
d="M36 241l-18 101l79 43v315h133v-241l74 41l17 -101l-91 -51v-348h-133v275z" />
    <glyph glyph-name="ntilde" unicode="&#xf1;" horiz-adv-x="610" 
d="M196 424c37 44 88 80 164 80c99 0 178 -74 178 -176v-328h-134v323c0 37 -33 68 -81 68s-84 -32 -112 -63v-328h-133v349c0 41 -3 85 -14 139h122c4 -19 8 -41 10 -64zM191 547l-80 43c41 73 79 99 127 99c31 0 52 -11 72 -25c19 -13 35 -25 52 -25c25 0 42 24 57 46
l74 -40c-38 -69 -79 -100 -127 -100c-28 0 -51 11 -69 23c-20 14 -35 27 -53 27c-24 0 -38 -27 -53 -48z" />
    <glyph glyph-name="nacute" unicode="&#x144;" horiz-adv-x="610" 
d="M196 424c37 44 88 80 164 80c99 0 178 -74 178 -176v-328h-134v323c0 37 -33 68 -81 68s-84 -32 -112 -63v-328h-133v349c0 41 -3 85 -14 139h122c4 -19 8 -41 10 -64zM314 698h135l-108 -146h-117z" />
    <glyph glyph-name="ncaron" unicode="&#x148;" horiz-adv-x="610" 
d="M196 424c37 44 88 80 164 80c99 0 178 -74 178 -176v-328h-134v323c0 37 -33 68 -81 68s-84 -32 -112 -63v-328h-133v349c0 41 -3 85 -14 139h122c4 -19 8 -41 10 -64zM132 694h105l67 -77l66 77h105l-105 -141h-132z" />
    <glyph glyph-name="uni0146" unicode="&#x146;" horiz-adv-x="610" 
d="M196 424c37 44 88 80 164 80c99 0 178 -74 178 -176v-328h-134v323c0 37 -33 68 -81 68s-84 -32 -112 -63v-328h-133v349c0 41 -3 85 -14 139h122c4 -19 8 -41 10 -64zM252 -61l105 20c17 -17 46 -43 46 -92c0 -71 -58 -121 -162 -121c-16 0 -32 1 -54 8v76
c14 -3 29 -3 41 -3c36 0 56 16 56 48c0 29 -17 47 -32 64z" />
    <glyph glyph-name="eng" unicode="&#x14b;" horiz-adv-x="610" 
d="M538 328v-372c0 -136 -107 -184 -189 -184l-37 99c44 10 92 23 92 85v367c0 37 -33 68 -81 68s-84 -32 -112 -63v-328h-133v349c0 41 -3 85 -14 139h122c4 -19 8 -41 10 -64c37 44 88 80 164 80c99 0 178 -74 178 -176z" />
    <glyph glyph-name="napostrophe" unicode="&#x149;" horiz-adv-x="610" 
d="M-15 519l-35 57c32 9 87 41 87 79v6c-6 -2 -14 -4 -23 -4c-29 0 -52 26 -52 58c0 36 32 63 73 63c47 0 88 -38 88 -93c0 -98 -80 -145 -138 -166zM196 424c37 44 88 80 164 80c99 0 178 -74 178 -176v-328h-134v323c0 37 -33 68 -81 68s-84 -32 -112 -63v-328h-133v349
c0 41 -3 85 -14 139h122c4 -19 8 -41 10 -64z" />
    <glyph glyph-name="oacute" unicode="&#xf3;" horiz-adv-x="620" 
d="M44 246c0 145 107 258 265 258c159 0 267 -113 267 -258s-108 -261 -267 -261c-158 0 -265 116 -265 261zM181 246c0 -81 47 -151 128 -151c83 0 131 70 131 151c0 80 -48 147 -131 147c-81 0 -128 -67 -128 -147zM320 698h135l-108 -146h-117z" />
    <glyph glyph-name="ograve" unicode="&#xf2;" horiz-adv-x="620" 
d="M44 246c0 145 107 258 265 258c159 0 267 -113 267 -258s-108 -261 -267 -261c-158 0 -265 116 -265 261zM181 246c0 -81 47 -151 128 -151c83 0 131 70 131 151c0 80 -48 147 -131 147c-81 0 -128 -67 -128 -147zM165 698h134l90 -146h-116z" />
    <glyph glyph-name="ocircumflex" unicode="&#xf4;" horiz-adv-x="620" 
d="M44 246c0 145 107 258 265 258c159 0 267 -113 267 -258s-108 -261 -267 -261c-158 0 -265 116 -265 261zM181 246c0 -81 47 -151 128 -151c83 0 131 70 131 151c0 80 -48 147 -131 147c-81 0 -128 -67 -128 -147zM138 553l106 141h132l105 -141h-105l-66 76l-67 -76
h-105z" />
    <glyph glyph-name="odieresis" unicode="&#xf6;" horiz-adv-x="620" 
d="M44 246c0 145 107 258 265 258c159 0 267 -113 267 -258s-108 -261 -267 -261c-158 0 -265 116 -265 261zM181 246c0 -81 47 -151 128 -151c83 0 131 70 131 151c0 80 -48 147 -131 147c-81 0 -128 -67 -128 -147zM124 625c0 36 31 67 72 67c42 0 74 -31 74 -67
c0 -37 -32 -66 -74 -66c-41 0 -72 29 -72 66zM348 625c0 36 31 67 73 67c41 0 74 -31 74 -67c0 -37 -33 -66 -74 -66c-42 0 -73 29 -73 66z" />
    <glyph glyph-name="otilde" unicode="&#xf5;" horiz-adv-x="620" 
d="M44 246c0 145 107 258 265 258c159 0 267 -113 267 -258s-108 -261 -267 -261c-158 0 -265 116 -265 261zM181 246c0 -81 47 -151 128 -151c83 0 131 70 131 151c0 80 -48 147 -131 147c-81 0 -128 -67 -128 -147zM197 547l-80 43c41 73 79 99 127 99c31 0 52 -11 72 -25
c19 -13 35 -25 52 -25c25 0 42 24 57 46l74 -40c-38 -69 -79 -100 -127 -100c-28 0 -51 11 -69 23c-20 14 -35 27 -53 27c-24 0 -38 -27 -53 -48z" />
    <glyph glyph-name="obreve" unicode="&#x14f;" horiz-adv-x="620" 
d="M44 246c0 145 107 258 265 258c159 0 267 -113 267 -258s-108 -261 -267 -261c-158 0 -265 116 -265 261zM181 246c0 -81 47 -151 128 -151c83 0 131 70 131 151c0 80 -48 147 -131 147c-81 0 -128 -67 -128 -147zM149 693h93c0 -34 12 -70 68 -70s67 36 67 70h93
c0 -65 -29 -150 -160 -150s-161 85 -161 150z" />
    <glyph glyph-name="ohungarumlaut" unicode="&#x151;" horiz-adv-x="620" 
d="M44 246c0 145 107 258 265 258c159 0 267 -113 267 -258s-108 -261 -267 -261c-158 0 -265 116 -265 261zM181 246c0 -81 47 -151 128 -151c83 0 131 70 131 151c0 80 -48 147 -131 147c-81 0 -128 -67 -128 -147zM389 694h112l-71 -143h-83zM206 694h112l-71 -143h-83z
" />
    <glyph glyph-name="omacron" unicode="&#x14d;" horiz-adv-x="620" 
d="M44 246c0 145 107 258 265 258c159 0 267 -113 267 -258s-108 -261 -267 -261c-158 0 -265 116 -265 261zM181 246c0 -81 47 -151 128 -151c83 0 131 70 131 151c0 80 -48 147 -131 147c-81 0 -128 -67 -128 -147zM175 665h269v-93h-269v93z" />
    <glyph glyph-name="oslash" unicode="&#xf8;" horiz-adv-x="620" 
d="M150 -61l-73 51l46 65c-50 48 -79 115 -79 191c0 145 107 258 266 258c41 0 79 -8 112 -22l48 68l72 -51l-45 -64c50 -47 80 -114 80 -189c0 -145 -108 -261 -267 -261c-42 0 -79 8 -113 22zM310 88c86 0 136 74 136 158c0 32 -8 61 -21 86l-164 -235c14 -6 31 -9 49 -9z
M176 246c0 -32 7 -62 20 -87l162 232c-14 6 -31 9 -48 9c-85 0 -134 -70 -134 -154z" />
    <glyph glyph-name="oslashacute" unicode="&#x1ff;" horiz-adv-x="620" 
d="M320 698h135l-108 -146h-117zM150 -61l-73 51l46 65c-50 48 -79 115 -79 191c0 145 107 258 266 258c41 0 79 -8 112 -22l48 68l72 -51l-45 -64c50 -47 80 -114 80 -189c0 -145 -108 -261 -267 -261c-42 0 -79 8 -113 22zM310 88c86 0 136 74 136 158c0 32 -8 61 -21 86
l-164 -235c14 -6 31 -9 49 -9zM176 246c0 -32 7 -62 20 -87l162 232c-14 6 -31 9 -48 9c-85 0 -134 -70 -134 -154z" />
    <glyph glyph-name="racute" unicode="&#x155;" horiz-adv-x="409" 
d="M296 376c-35 0 -57 -27 -84 -62v-314h-134v350c0 41 -4 84 -14 138h122c4 -21 8 -48 10 -73c30 50 65 89 128 89c25 0 58 -7 75 -20l-37 -122c-15 6 -48 14 -66 14zM215 698h135l-108 -146h-117z" />
    <glyph glyph-name="rcaron" unicode="&#x159;" horiz-adv-x="409" 
d="M296 376c-35 0 -57 -27 -84 -62v-314h-134v350c0 41 -4 84 -14 138h122c4 -21 8 -48 10 -73c30 50 65 89 128 89c25 0 58 -7 75 -20l-37 -122c-15 6 -48 14 -66 14zM33 694h105l67 -77l66 77h105l-105 -141h-132z" />
    <glyph glyph-name="uni0157" unicode="&#x157;" horiz-adv-x="409" 
d="M296 376c-35 0 -57 -27 -84 -62v-314h-134v350c0 41 -4 84 -14 138h122c4 -21 8 -48 10 -73c30 50 65 89 128 89c25 0 58 -7 75 -20l-37 -122c-15 6 -48 14 -66 14zM117 -61l105 20c17 -17 46 -43 46 -92c0 -71 -58 -121 -162 -121c-16 0 -32 1 -54 8v76
c14 -3 29 -3 41 -3c36 0 56 16 56 48c0 29 -17 47 -32 64z" />
    <glyph glyph-name="scaron" unicode="&#x161;" horiz-adv-x="557" 
d="M491 454l-47 -95c-54 25 -124 44 -176 44c-50 0 -81 -16 -81 -47c0 -41 54 -44 96 -46c88 -4 235 -14 235 -155c0 -116 -101 -172 -232 -172c-113 0 -197 42 -248 74l47 95c47 -29 126 -66 203 -66c62 0 97 23 97 57c0 46 -60 51 -103 54c-106 6 -227 13 -227 145
c0 124 109 164 208 164c88 0 187 -32 228 -52zM106 694h105l67 -77l66 77h105l-105 -141h-132z" />
    <glyph glyph-name="sacute" unicode="&#x15b;" horiz-adv-x="557" 
d="M491 454l-47 -95c-54 25 -124 44 -176 44c-50 0 -81 -16 -81 -47c0 -41 54 -44 96 -46c88 -4 235 -14 235 -155c0 -116 -101 -172 -232 -172c-113 0 -197 42 -248 74l47 95c47 -29 126 -66 203 -66c62 0 97 23 97 57c0 46 -60 51 -103 54c-106 6 -227 13 -227 145
c0 124 109 164 208 164c88 0 187 -32 228 -52zM288 698h135l-108 -146h-117z" />
    <glyph glyph-name="scedilla" unicode="&#x15f;" horiz-adv-x="557" 
d="M491 454l-47 -95c-54 25 -124 44 -176 44c-50 0 -81 -16 -81 -47c0 -41 54 -44 96 -46c88 -4 235 -14 235 -155c0 -102 -78 -157 -185 -169l-8 -18c46 -7 108 -31 108 -90c0 -62 -71 -105 -172 -105c-48 0 -92 10 -138 21l19 71c38 -6 74 -14 108 -14c41 0 66 12 66 33
c0 27 -41 33 -59 33c-8 0 -17 -1 -23 -3l-13 29l21 42c-91 9 -160 44 -204 72l47 95c47 -29 126 -66 203 -66c62 0 97 23 97 57c0 46 -60 51 -103 54c-106 6 -227 13 -227 145c0 124 109 164 208 164c88 0 187 -32 228 -52z" />
    <glyph glyph-name="scircumflex" unicode="&#x15d;" horiz-adv-x="557" 
d="M491 454l-47 -95c-54 25 -124 44 -176 44c-50 0 -81 -16 -81 -47c0 -41 54 -44 96 -46c88 -4 235 -14 235 -155c0 -116 -101 -172 -232 -172c-113 0 -197 42 -248 74l47 95c47 -29 126 -66 203 -66c62 0 97 23 97 57c0 46 -60 51 -103 54c-106 6 -227 13 -227 145
c0 124 109 164 208 164c88 0 187 -32 228 -52zM106 553l106 141h132l105 -141h-105l-66 76l-67 -76h-105z" />
    <glyph glyph-name="uni0219" unicode="&#x219;" horiz-adv-x="557" 
d="M491 454l-47 -95c-54 25 -124 44 -176 44c-50 0 -81 -16 -81 -47c0 -41 54 -44 96 -46c88 -4 235 -14 235 -155c0 -116 -101 -172 -232 -172c-113 0 -197 42 -248 74l47 95c47 -29 126 -66 203 -66c62 0 97 23 97 57c0 46 -60 51 -103 54c-106 6 -227 13 -227 145
c0 124 109 164 208 164c88 0 187 -32 228 -52zM211 -61l105 20c17 -17 46 -43 46 -92c0 -71 -58 -121 -162 -121c-16 0 -32 1 -54 8v76c14 -3 29 -3 41 -3c36 0 56 16 56 48c0 29 -17 47 -32 64z" />
    <glyph glyph-name="tbar" unicode="&#x167;" horiz-adv-x="403" 
d="M22 389v99h85v138h133v-138h120v-99h-120v-98h120v-88h-120v-67c0 -30 19 -43 53 -43c19 0 45 4 62 7l10 -100c-19 -15 -80 -19 -106 -19c-72 0 -152 36 -152 145v77h-85v88h85v98h-85z" />
    <glyph glyph-name="tcaron" unicode="&#x165;" horiz-adv-x="403" 
d="M22 389v99h85v138h133v-138h120v-99h-120v-253c0 -30 19 -43 53 -43c19 0 45 4 62 7l10 -100c-19 -15 -80 -19 -106 -19c-72 0 -152 36 -152 145v263h-85zM366 546h-68v236h118c0 -97 -14 -165 -50 -236z" />
    <glyph glyph-name="uni0163" unicode="&#x163;" horiz-adv-x="403" 
d="M22 389v99h85v138h133v-138h120v-99h-120v-253c0 -30 19 -43 53 -43c19 0 45 4 62 7l10 -100c-19 -15 -80 -19 -106 -19h-9l-6 -13c46 -7 108 -31 108 -90c0 -62 -71 -105 -172 -105c-48 0 -92 10 -138 21l19 71c38 -6 74 -14 108 -14c41 0 66 12 66 33
c0 27 -41 33 -59 33c-8 0 -17 -1 -23 -3l-13 29l30 60c-36 21 -63 60 -63 123v263h-85z" />
    <glyph glyph-name="uni021B" unicode="&#x21b;" horiz-adv-x="403" 
d="M22 389v99h85v138h133v-138h120v-99h-120v-253c0 -30 19 -43 53 -43c19 0 45 4 62 7l10 -100c-19 -15 -80 -19 -106 -19c-72 0 -152 36 -152 145v263h-85zM171 -61l105 20c17 -17 46 -43 46 -92c0 -71 -58 -121 -162 -121c-16 0 -32 1 -54 8v76c14 -3 29 -3 41 -3
c36 0 56 16 56 48c0 29 -17 47 -32 64z" />
    <glyph glyph-name="uacute" unicode="&#xfa;" horiz-adv-x="609" 
d="M413 63c-38 -43 -88 -79 -164 -79c-99 0 -178 74 -178 176v328h134v-323c0 -38 33 -68 81 -68s84 31 112 63v328h133v-350c0 -40 2 -84 12 -138h-124c-3 17 -5 44 -6 63zM314 698h135l-108 -146h-117z" />
    <glyph glyph-name="ugrave" unicode="&#xf9;" horiz-adv-x="609" 
d="M413 63c-38 -43 -88 -79 -164 -79c-99 0 -178 74 -178 176v328h134v-323c0 -38 33 -68 81 -68s84 31 112 63v328h133v-350c0 -40 2 -84 12 -138h-124c-3 17 -5 44 -6 63zM159 698h134l90 -146h-116z" />
    <glyph glyph-name="ucircumflex" unicode="&#xfb;" horiz-adv-x="609" 
d="M413 63c-38 -43 -88 -79 -164 -79c-99 0 -178 74 -178 176v328h134v-323c0 -38 33 -68 81 -68s84 31 112 63v328h133v-350c0 -40 2 -84 12 -138h-124c-3 17 -5 44 -6 63zM132 553l106 141h132l105 -141h-105l-66 76l-67 -76h-105z" />
    <glyph glyph-name="udieresis" unicode="&#xfc;" horiz-adv-x="609" 
d="M413 63c-38 -43 -88 -79 -164 -79c-99 0 -178 74 -178 176v328h134v-323c0 -38 33 -68 81 -68s84 31 112 63v328h133v-350c0 -40 2 -84 12 -138h-124c-3 17 -5 44 -6 63zM118 625c0 36 31 67 72 67c42 0 74 -31 74 -67c0 -37 -32 -66 -74 -66c-41 0 -72 29 -72 66z
M342 625c0 36 31 67 73 67c41 0 74 -31 74 -67c0 -37 -33 -66 -74 -66c-42 0 -73 29 -73 66z" />
    <glyph glyph-name="ubreve" unicode="&#x16d;" horiz-adv-x="609" 
d="M413 63c-38 -43 -88 -79 -164 -79c-99 0 -178 74 -178 176v328h134v-323c0 -38 33 -68 81 -68s84 31 112 63v328h133v-350c0 -40 2 -84 12 -138h-124c-3 17 -5 44 -6 63zM143 693h93c0 -34 12 -70 68 -70s67 36 67 70h93c0 -65 -29 -150 -160 -150s-161 85 -161 150z" />
    <glyph glyph-name="uhungarumlaut" unicode="&#x171;" horiz-adv-x="609" 
d="M413 63c-38 -43 -88 -79 -164 -79c-99 0 -178 74 -178 176v328h134v-323c0 -38 33 -68 81 -68s84 31 112 63v328h133v-350c0 -40 2 -84 12 -138h-124c-3 17 -5 44 -6 63zM383 694h112l-71 -143h-83zM200 694h112l-71 -143h-83z" />
    <glyph glyph-name="umacron" unicode="&#x16b;" horiz-adv-x="609" 
d="M413 63c-38 -43 -88 -79 -164 -79c-99 0 -178 74 -178 176v328h134v-323c0 -38 33 -68 81 -68s84 31 112 63v328h133v-350c0 -40 2 -84 12 -138h-124c-3 17 -5 44 -6 63zM169 665h269v-93h-269v93z" />
    <glyph glyph-name="uogonek" unicode="&#x173;" horiz-adv-x="609" 
d="M413 63c-38 -43 -88 -79 -164 -79c-99 0 -178 74 -178 176v328h134v-323c0 -38 33 -68 81 -68s84 31 112 63v328h133v-350c0 -40 2 -84 12 -138c-32 -14 -103 -46 -103 -96c0 -29 23 -45 61 -45c17 0 37 4 59 8l11 -80c-32 -9 -66 -14 -94 -14c-88 0 -143 43 -143 105
c0 55 43 95 85 122c-3 17 -5 44 -6 63z" />
    <glyph glyph-name="uring" unicode="&#x16f;" horiz-adv-x="609" 
d="M413 63c-38 -43 -88 -79 -164 -79c-99 0 -178 74 -178 176v328h134v-323c0 -38 33 -68 81 -68s84 31 112 63v328h133v-350c0 -40 2 -84 12 -138h-124c-3 17 -5 44 -6 63zM243 650c0 -29 25 -49 58 -49s58 20 58 49c0 32 -25 56 -58 56s-58 -24 -58 -56zM165 650
c0 59 46 112 136 112c88 0 136 -53 136 -112c0 -57 -48 -107 -136 -107c-90 0 -136 50 -136 107z" />
    <glyph glyph-name="utilde" unicode="&#x169;" horiz-adv-x="609" 
d="M413 63c-38 -43 -88 -79 -164 -79c-99 0 -178 74 -178 176v328h134v-323c0 -38 33 -68 81 -68s84 31 112 63v328h133v-350c0 -40 2 -84 12 -138h-124c-3 17 -5 44 -6 63zM191 547l-80 43c41 73 79 99 127 99c31 0 52 -11 72 -25c19 -13 35 -25 52 -25c25 0 42 24 57 46
l74 -40c-38 -69 -79 -100 -127 -100c-28 0 -51 11 -69 23c-20 14 -35 27 -53 27c-24 0 -38 -27 -53 -48z" />
    <glyph glyph-name="wacute" unicode="&#x1e83;" horiz-adv-x="792" 
d="M338 488h121l88 -312h6l76 312h137l-155 -488h-127l-85 299h-6l-86 -299h-126l-155 488h140l78 -312h6zM406 698h135l-108 -146h-117z" />
    <glyph glyph-name="wcircumflex" unicode="&#x175;" horiz-adv-x="792" 
d="M338 488h121l88 -312h6l76 312h137l-155 -488h-127l-85 299h-6l-86 -299h-126l-155 488h140l78 -312h6zM224 553l106 141h132l105 -141h-105l-66 76l-67 -76h-105z" />
    <glyph glyph-name="wdieresis" unicode="&#x1e85;" horiz-adv-x="792" 
d="M338 488h121l88 -312h6l76 312h137l-155 -488h-127l-85 299h-6l-86 -299h-126l-155 488h140l78 -312h6zM210 625c0 36 31 67 72 67c42 0 74 -31 74 -67c0 -37 -32 -66 -74 -66c-41 0 -72 29 -72 66zM434 625c0 36 31 67 73 67c41 0 74 -31 74 -67c0 -37 -33 -66 -74 -66
c-42 0 -73 29 -73 66z" />
    <glyph glyph-name="wgrave" unicode="&#x1e81;" horiz-adv-x="792" 
d="M338 488h121l88 -312h6l76 312h137l-155 -488h-127l-85 299h-6l-86 -299h-126l-155 488h140l78 -312h6zM251 698h134l90 -146h-116z" />
    <glyph glyph-name="yacute" unicode="&#xfd;" horiz-adv-x="557" 
d="M281 197h6l129 291h137l-329 -695h-139l127 252l-198 443h149zM292 698h135l-108 -146h-117z" />
    <glyph glyph-name="ydieresis" unicode="&#xff;" horiz-adv-x="557" 
d="M281 197h6l129 291h137l-329 -695h-139l127 252l-198 443h149zM96 625c0 36 31 67 72 67c42 0 74 -31 74 -67c0 -37 -32 -66 -74 -66c-41 0 -72 29 -72 66zM320 625c0 36 31 67 73 67c41 0 74 -31 74 -67c0 -37 -33 -66 -74 -66c-42 0 -73 29 -73 66z" />
    <glyph glyph-name="ycircumflex" unicode="&#x177;" horiz-adv-x="557" 
d="M281 197h6l129 291h137l-329 -695h-139l127 252l-198 443h149zM110 553l106 141h132l105 -141h-105l-66 76l-67 -76h-105z" />
    <glyph glyph-name="ygrave" unicode="&#x1ef3;" horiz-adv-x="557" 
d="M281 197h6l129 291h137l-329 -695h-139l127 252l-198 443h149zM137 698h134l90 -146h-116z" />
    <glyph glyph-name="zcaron" unicode="&#x17e;" horiz-adv-x="533" 
d="M482 103v-103h-440v74l255 310h-236v104h421v-75l-255 -310h255zM95 694h105l67 -77l66 77h105l-105 -141h-132z" />
    <glyph glyph-name="zacute" unicode="&#x17a;" horiz-adv-x="533" 
d="M482 103v-103h-440v74l255 310h-236v104h421v-75l-255 -310h255zM277 698h135l-108 -146h-117z" />
    <glyph glyph-name="zdotaccent" unicode="&#x17c;" horiz-adv-x="533" 
d="M482 103v-103h-440v74l255 310h-236v104h421v-75l-255 -310h255zM194 625c0 36 31 67 72 67c42 0 74 -31 74 -67c0 -37 -32 -66 -74 -66c-41 0 -72 29 -72 66z" />
    <glyph glyph-name="eth" unicode="&#xf0;" horiz-adv-x="631" 
d="M154 517l-24 69l115 34c-29 22 -60 42 -89 60l136 35c25 -17 53 -35 81 -56l128 38l24 -69l-86 -26c73 -72 134 -175 134 -331c0 -181 -118 -286 -266 -286c-151 0 -262 115 -262 255c0 139 100 244 235 244c54 0 101 -21 135 -50c-24 48 -60 91 -102 130zM182 241
c0 -78 48 -144 124 -144c79 0 131 66 131 144s-51 140 -131 140c-77 0 -124 -62 -124 -140z" />
    <glyph glyph-name="thorn" unicode="&#xfe;" horiz-adv-x="632" 
d="M329 98c63 0 113 59 113 146c0 91 -52 147 -113 147c-60 0 -101 -37 -119 -55v-185c36 -33 78 -53 119 -53zM210 700v-259c29 29 75 63 138 63c130 0 238 -101 238 -260c0 -154 -108 -258 -238 -258c-48 0 -97 20 -138 63v-256h-133v907h133z" />
    <glyph glyph-name="ae" unicode="&#xe6;" horiz-adv-x="937" 
d="M814 142l63 -85c-54 -41 -138 -72 -228 -72c-89 0 -157 35 -201 89c-59 -57 -134 -88 -217 -88c-118 0 -193 73 -193 168c0 91 78 162 214 162c52 0 107 -12 142 -40v49c0 51 -46 74 -105 74c-62 0 -140 -27 -176 -46l-41 99c46 23 134 52 228 52c68 0 142 -16 175 -69
l4 -5c40 45 104 74 169 74c123 0 247 -71 247 -251c0 -9 0 -18 -2 -42h-371c11 -67 62 -119 138 -119c61 0 115 22 154 50zM260 86c66 0 111 29 144 67c-3 9 -7 23 -9 33c-28 21 -67 36 -116 36c-79 0 -108 -31 -108 -68c0 -41 33 -68 89 -68zM650 402
c-72 0 -111 -45 -126 -102h236c0 69 -58 102 -110 102z" />
    <glyph glyph-name="aeacute" unicode="&#x1fd;" horiz-adv-x="937" 
d="M814 142l63 -85c-54 -41 -138 -72 -228 -72c-89 0 -157 35 -201 89c-59 -57 -134 -88 -217 -88c-118 0 -193 73 -193 168c0 91 78 162 214 162c52 0 107 -12 142 -40v49c0 51 -46 74 -105 74c-62 0 -140 -27 -176 -46l-41 99c46 23 134 52 228 52c68 0 142 -16 175 -69
l4 -5c40 45 104 74 169 74c123 0 247 -71 247 -251c0 -9 0 -18 -2 -42h-371c11 -67 62 -119 138 -119c61 0 115 22 154 50zM260 86c66 0 111 29 144 67c-3 9 -7 23 -9 33c-28 21 -67 36 -116 36c-79 0 -108 -31 -108 -68c0 -41 33 -68 89 -68zM650 402
c-72 0 -111 -45 -126 -102h236c0 69 -58 102 -110 102zM478 698h135l-108 -146h-117z" />
    <glyph glyph-name="oe" unicode="&#x153;" horiz-adv-x="986" 
d="M863 142l63 -85c-54 -41 -138 -72 -228 -72c-85 0 -155 36 -194 92c-44 -57 -117 -92 -195 -92c-152 0 -266 116 -266 261s114 258 266 258c80 0 155 -37 198 -95c42 58 113 95 190 95c123 0 247 -71 247 -251c0 -9 0 -19 -2 -42h-371c11 -67 62 -119 138 -119
c61 0 115 22 154 50zM699 402c-70 0 -109 -45 -124 -102h234c0 69 -58 102 -110 102zM180 246c0 -81 48 -151 129 -151c82 0 131 70 131 151c0 80 -49 147 -131 147c-81 0 -129 -67 -129 -147z" />
    <glyph glyph-name="schwa" unicode="&#x259;" horiz-adv-x="590" 
d="M124 346l-63 85c53 41 137 73 228 73c163 0 257 -118 257 -254c0 -149 -109 -265 -257 -265c-123 0 -247 71 -247 253c0 8 0 17 2 39h371c-11 68 -62 119 -138 119c-60 0 -115 -21 -153 -50zM288 86c69 0 108 45 123 103h-234c1 -69 59 -103 111 -103z" />
    <glyph glyph-name="ij.alt" horiz-adv-x="575" 
d="M210 0h-133v488h133v-488zM64 636c0 40 34 73 79 73s80 -34 80 -73s-35 -71 -80 -71s-79 32 -79 71zM350 634c0 39 34 71 80 71c45 0 80 -33 80 -71s-35 -69 -80 -69c-46 0 -80 31 -80 69zM364 -82v570h133v-570c0 -109 -83 -145 -158 -145c-33 0 -85 8 -103 16l14 103
c18 -6 53 -12 68 -12c28 0 46 15 46 38z" />
    <glyph glyph-name="j.alt" horiz-adv-x="287" 
d="M63 634c0 39 34 71 80 71c45 0 80 -33 80 -71s-35 -69 -80 -69c-46 0 -80 31 -80 69zM77 -82v570h133v-570c0 -109 -83 -145 -158 -145c-33 0 -85 8 -103 16l14 103c18 -6 53 -12 68 -12c28 0 46 15 46 38z" />
    <glyph glyph-name="jcircumflex.alt" horiz-adv-x="287" 
d="M77 -82v570h133v-570c0 -109 -83 -145 -158 -145c-33 0 -85 8 -103 16l14 103c18 -6 53 -12 68 -12c28 0 46 15 46 38zM-28 553l106 141h132l105 -141h-105l-66 76l-67 -76h-105z" />
    <glyph glyph-name="dotlessj.alt" horiz-adv-x="287" 
d="M77 -82v570h133v-570c0 -109 -83 -145 -158 -145c-33 0 -85 8 -103 16l14 103c18 -6 53 -12 68 -12c28 0 46 15 46 38z" />
    <glyph glyph-name="r.alt" horiz-adv-x="505" 
d="M335 504c88 0 153 -77 141 -197h-123c5 50 -19 77 -51 77c-35 0 -61 -32 -90 -70v-314h-134v350c0 41 -4 84 -14 138h122c4 -21 8 -48 10 -73c31 50 70 89 139 89z" />
    <glyph glyph-name="racute.alt" horiz-adv-x="505" 
d="M335 504c88 0 153 -77 141 -197h-123c5 50 -19 77 -51 77c-35 0 -61 -32 -90 -70v-314h-134v350c0 41 -4 84 -14 138h122c4 -21 8 -48 10 -73c31 50 70 89 139 89zM268 698h135l-108 -146h-117z" />
    <glyph glyph-name="rcaron.alt" horiz-adv-x="505" 
d="M335 504c88 0 153 -77 141 -197h-123c5 50 -19 77 -51 77c-35 0 -61 -32 -90 -70v-314h-134v350c0 41 -4 84 -14 138h122c4 -21 8 -48 10 -73c31 50 70 89 139 89zM86 694h105l67 -77l66 77h105l-105 -141h-132z" />
    <glyph glyph-name="uni0157.alt" horiz-adv-x="505" 
d="M335 504c88 0 153 -77 141 -197h-123c5 50 -19 77 -51 77c-35 0 -61 -32 -90 -70v-314h-134v350c0 41 -4 84 -14 138h122c4 -21 8 -48 10 -73c31 50 70 89 139 89zM142 -61l105 20c17 -17 46 -43 46 -92c0 -71 -58 -121 -162 -121c-16 0 -32 1 -54 8v76
c14 -3 29 -3 41 -3c36 0 56 16 56 48c0 29 -17 47 -32 64z" />
    <glyph glyph-name="y.alt" horiz-adv-x="557" 
d="M14 488h149l118 -291h6l129 291h137l-259 -547c-45 -93 -109 -168 -223 -168c-35 0 -77 7 -101 18l8 102c22 -8 54 -13 82 -13c43 0 78 16 120 100l32 65z" />
    <glyph glyph-name="yacute.alt" horiz-adv-x="557" 
d="M292 698h135l-108 -146h-117zM14 488h149l118 -291h6l129 291h137l-259 -547c-45 -93 -109 -168 -223 -168c-35 0 -77 7 -101 18l8 102c22 -8 54 -13 82 -13c43 0 78 16 120 100l32 65z" />
    <glyph glyph-name="ydieresis.alt" horiz-adv-x="557" 
d="M96 625c0 36 31 67 72 67c42 0 74 -31 74 -67c0 -37 -32 -66 -74 -66c-41 0 -72 29 -72 66zM320 625c0 36 31 67 73 67c41 0 74 -31 74 -67c0 -37 -33 -66 -74 -66c-42 0 -73 29 -73 66zM14 488h149l118 -291h6l129 291h137l-259 -547c-45 -93 -109 -168 -223 -168
c-35 0 -77 7 -101 18l8 102c22 -8 54 -13 82 -13c43 0 78 16 120 100l32 65z" />
    <glyph glyph-name="ycircumflex.alt" horiz-adv-x="557" 
d="M110 553l106 141h132l105 -141h-105l-66 76l-67 -76h-105zM14 488h149l118 -291h6l129 291h137l-259 -547c-45 -93 -109 -168 -223 -168c-35 0 -77 7 -101 18l8 102c22 -8 54 -13 82 -13c43 0 78 16 120 100l32 65z" />
    <glyph glyph-name="ygrave.alt" horiz-adv-x="557" 
d="M137 698h134l90 -146h-116zM14 488h149l118 -291h6l129 291h137l-259 -547c-45 -93 -109 -168 -223 -168c-35 0 -77 7 -101 18l8 102c22 -8 54 -13 82 -13c43 0 78 16 120 100l32 65z" />
    <glyph glyph-name="acute" unicode="&#xb4;" 
d="M258 698h135l-108 -146h-117z" />
    <glyph glyph-name="grave" unicode="`" 
d="M103 698h134l90 -146h-116z" />
    <glyph glyph-name="circumflex" unicode="&#x2c6;" 
d="M76 553l106 141h132l105 -141h-105l-66 76l-67 -76h-105z" />
    <glyph glyph-name="dieresis" unicode="&#xa8;" 
d="M62 625c0 36 31 67 72 67c42 0 74 -31 74 -67c0 -37 -32 -66 -74 -66c-41 0 -72 29 -72 66zM286 625c0 36 31 67 73 67c41 0 74 -31 74 -67c0 -37 -33 -66 -74 -66c-42 0 -73 29 -73 66z" />
    <glyph glyph-name="tilde" unicode="&#x2dc;" 
d="M135 547l-80 43c41 73 79 99 127 99c31 0 52 -11 72 -25c19 -13 35 -25 52 -25c25 0 42 24 57 46l74 -40c-38 -69 -79 -100 -127 -100c-28 0 -51 11 -69 23c-20 14 -35 27 -53 27c-24 0 -38 -27 -53 -48z" />
    <glyph glyph-name="ring" unicode="&#x2da;" 
d="M187 650c0 -29 25 -49 58 -49s58 20 58 49c0 32 -25 56 -58 56s-58 -24 -58 -56zM109 650c0 59 46 112 136 112c88 0 136 -53 136 -112c0 -57 -48 -107 -136 -107c-90 0 -136 50 -136 107z" />
    <glyph glyph-name="cedilla" unicode="&#xb8;" 
d="M232 24h90l-27 -56c46 -7 108 -31 108 -90c0 -62 -71 -105 -172 -105c-48 0 -92 10 -138 21l19 71c38 -6 74 -14 108 -14c41 0 66 12 66 33c0 27 -41 33 -59 33c-8 0 -17 -1 -23 -3l-13 29z" />
    <glyph glyph-name="breve" unicode="&#x2d8;" 
d="M87 693h93c0 -34 12 -70 68 -70s67 36 67 70h93c0 -65 -29 -150 -160 -150s-161 85 -161 150z" />
    <glyph glyph-name="caron" unicode="&#x2c7;" 
d="M76 694h105l67 -77l66 77h105l-105 -141h-132z" />
    <glyph glyph-name="dotaccent" unicode="&#x2d9;" 
d="M175 625c0 36 31 67 72 67c42 0 74 -31 74 -67c0 -37 -32 -66 -74 -66c-41 0 -72 29 -72 66z" />
    <glyph glyph-name="hungarumlaut" unicode="&#x2dd;" 
d="M327 694h112l-71 -143h-83zM144 694h112l-71 -143h-83z" />
    <glyph glyph-name="macron" unicode="&#xaf;" 
d="M113 665h269v-93h-269v93z" />
    <glyph glyph-name="ogonek" unicode="&#x2db;" 
d="M254 34l61 -34c-32 -14 -103 -46 -103 -96c0 -29 23 -45 61 -45c17 0 37 4 59 8l11 -80c-32 -9 -66 -14 -94 -14c-88 0 -143 43 -143 105c0 85 104 137 148 156z" />
    <glyph glyph-name="commaaccent" unicode="&#xf6c3;" 
d="M199 -61l105 20c17 -17 46 -43 46 -92c0 -71 -58 -121 -162 -121c-16 0 -32 1 -54 8v76c14 -3 29 -3 41 -3c36 0 56 16 56 48c0 29 -17 47 -32 64z" />
    <glyph glyph-name="caron.alt" 
d="M266 464h-68v236h118c0 -97 -14 -165 -50 -236z" />
    <glyph glyph-name="germandbls" unicode="&#xdf;" horiz-adv-x="613" 
d="M310 -10l-10 100c91 0 138 42 138 100c0 87 -109 133 -156 140l10 99c57 11 86 56 86 100c0 52 -38 79 -81 79s-88 -33 -88 -112v-496h-132v497c0 156 111 215 219 215c130 0 216 -71 216 -169c0 -81 -69 -130 -110 -144c60 -17 170 -92 170 -216
c0 -111 -90 -193 -262 -193z" />
    <glyph glyph-name="fi" horiz-adv-x="666" 
d="M33 488h84v77c0 110 83 146 158 146c33 0 85 -8 103 -17l-14 -102c-18 6 -53 11 -68 11c-28 0 -46 -14 -46 -38v-77h120v-99h-120v-389h-133v389h-84v99zM590 0h-134v488h134v-488zM443 636c0 40 34 73 79 73s81 -34 81 -73s-36 -71 -81 -71s-79 32 -79 71z" />
    <glyph glyph-name="fl" horiz-adv-x="672" 
d="M33 488h84v77c0 110 83 146 158 146c33 0 85 -8 103 -17l-14 -102c-18 6 -53 11 -68 11c-28 0 -46 -14 -46 -38v-77h120v-99h-120v-389h-133v389h-84v99zM592 0h-133v700h133v-700z" />
    <glyph glyph-name="f_j.alt" horiz-adv-x="666" 
d="M33 488h84v77c0 110 83 146 158 146c33 0 85 -8 103 -17l-14 -102c-18 6 -53 11 -68 11c-28 0 -46 -14 -46 -38v-77h120v-99h-120v-389h-133v389h-84v99zM456 -82v570h134v-570c0 -109 -84 -145 -158 -145c-33 0 -85 8 -104 16l15 103c18 -6 53 -12 67 -12
c28 0 46 15 46 38zM443 636c0 40 34 73 79 73s81 -34 81 -73s-36 -71 -81 -71s-79 32 -79 71z" />
    <glyph glyph-name="f_f_j.alt" horiz-adv-x="1002" 
d="M453 0v389h-203v-389h-133v389h-84v99h84v77c0 110 83 146 158 146c33 0 85 -8 103 -17l-14 -102c-18 6 -53 11 -68 11c-28 0 -46 -14 -46 -38v-77h203v77c0 110 83 146 158 146c33 0 85 -8 103 -17l-14 -102c-18 6 -53 11 -68 11c-28 0 -46 -14 -46 -38v-77h120v-99
h-120v-389h-133zM664 -211l15 103c18 -6 53 -12 67 -12c28 0 46 15 46 38v570h134v-570c0 -109 -84 -145 -158 -145c-33 0 -85 8 -104 16zM859 565c-46 0 -80 32 -80 71c0 40 34 73 80 73c45 0 80 -34 80 -73s-35 -71 -80 -71z" />
    <glyph glyph-name="ordfeminine" unicode="&#xaa;" horiz-adv-x="466" 
d="M90 473l-33 77c36 17 104 37 176 37c87 0 174 -27 174 -107v-191c0 -16 1 -42 10 -69h-107c-3 10 -6 26 -8 38c-28 -25 -58 -49 -121 -49c-91 0 -149 53 -149 123c0 66 61 118 165 118c38 0 76 -9 102 -26v31c0 34 -30 50 -75 50c-46 0 -106 -19 -134 -32zM204 288
c51 0 84 26 95 37v29c-20 13 -46 22 -80 22c-59 0 -79 -20 -79 -44c0 -27 24 -44 64 -44z" />
    <glyph glyph-name="ordmasculine" unicode="&#xba;" horiz-adv-x="477" 
d="M34 399c0 106 88 188 204 188s204 -82 204 -188s-88 -190 -204 -190s-204 84 -204 190zM145 399c0 -56 33 -103 93 -103s94 47 94 103s-34 100 -94 100s-93 -44 -93 -100z" />
    <glyph glyph-name="a.superior" horiz-adv-x="466" 
d="M90 473l-33 77c36 17 104 37 176 37c87 0 174 -27 174 -107v-191c0 -16 1 -42 10 -69h-107c-3 10 -6 26 -8 38c-28 -25 -58 -49 -121 -49c-91 0 -149 53 -149 123c0 66 61 118 165 118c38 0 76 -9 102 -26v31c0 34 -30 50 -75 50c-46 0 -106 -19 -134 -32zM204 288
c51 0 84 26 95 37v29c-20 13 -46 22 -80 22c-59 0 -79 -20 -79 -44c0 -27 24 -44 64 -44z" />
    <glyph glyph-name="b.superior" horiz-adv-x="490" 
d="M156 220h-101c8 43 8 74 8 104v376h108v-158c30 28 66 45 102 45c99 0 181 -74 181 -188c0 -115 -81 -190 -180 -190c-50 0 -91 27 -113 52c0 -12 -3 -29 -5 -41zM257 499c-30 0 -60 -14 -86 -37v-128c14 -13 45 -37 87 -37c44 0 79 41 79 102c0 62 -35 100 -80 100z" />
    <glyph glyph-name="d.superior" horiz-adv-x="490" 
d="M435 220h-102c-2 12 -4 29 -5 41c-22 -25 -62 -52 -112 -52c-99 0 -181 75 -181 190c0 114 82 188 181 188c35 0 72 -15 102 -41v154h108v-376c0 -30 0 -61 9 -104zM232 499c-45 0 -80 -38 -80 -100c0 -61 36 -102 80 -102c42 0 73 24 86 37v128c-26 23 -57 37 -86 37z
" />
    <glyph glyph-name="e.superior" horiz-adv-x="453" 
d="M355 327l52 -66c-42 -30 -106 -52 -175 -52c-125 0 -197 86 -197 185c0 109 83 193 196 193c95 0 189 -51 190 -183c0 -8 0 -15 -1 -34h-279c10 -45 47 -77 100 -77c45 0 85 15 114 34zM233 508c-50 0 -78 -30 -89 -68h167c0 46 -41 68 -78 68z" />
    <glyph glyph-name="h.superior" horiz-adv-x="473" 
d="M170 220h-107v480h108v-160c26 25 59 47 102 47c86 0 143 -54 143 -129v-238h-109v235c0 24 -23 44 -57 44c-33 0 -63 -22 -80 -44v-235z" />
    <glyph glyph-name="i.superior" horiz-adv-x="234" 
d="M171 220h-108v355h108v-355zM53 670c0 30 27 54 64 54c36 0 65 -25 65 -54s-29 -53 -65 -53c-37 0 -64 24 -64 53z" />
    <glyph glyph-name="l.superior" horiz-adv-x="234" 
d="M171 220h-108v480h108v-480z" />
    <glyph glyph-name="m.superior" horiz-adv-x="697" 
d="M173 220h-109v252c0 31 -2 63 -10 104h99c3 -13 5 -30 7 -46c27 29 61 57 114 57c47 0 89 -23 110 -62c27 34 69 62 123 62c75 0 132 -54 132 -129v-238h-108v235c0 25 -24 44 -55 44c-30 0 -54 -21 -70 -44v-235h-109v231c0 26 -23 48 -55 48c-30 0 -53 -21 -69 -44
v-235z" />
    <glyph glyph-name="n.superior" unicode="&#x207f;" horiz-adv-x="475" 
d="M173 220h-109v251c0 31 -2 64 -10 104h99c3 -13 5 -29 7 -45c28 32 64 57 121 57c75 0 137 -54 137 -129v-238h-108v235c0 24 -24 44 -58 44s-60 -22 -79 -44v-235z" />
    <glyph glyph-name="o.superior" horiz-adv-x="477" 
d="M34 399c0 106 88 188 204 188s204 -82 204 -188s-88 -190 -204 -190s-204 84 -204 190zM145 399c0 -56 33 -103 93 -103s94 47 94 103s-34 100 -94 100s-93 -44 -93 -100z" />
    <glyph glyph-name="r.superior" horiz-adv-x="325" 
d="M173 220h-109v252c0 31 -3 64 -10 104h98c3 -16 6 -35 8 -53c23 36 49 64 96 64c19 0 44 -5 57 -12l-30 -96c-12 3 -37 9 -50 9c-24 0 -40 -18 -60 -43v-225z" />
    <glyph glyph-name="s.superior" horiz-adv-x="432" 
d="M379 552l-37 -74c-43 17 -95 30 -137 30c-34 0 -55 -11 -55 -28c0 -27 36 -30 69 -31c67 -3 181 -11 181 -116c0 -84 -78 -126 -178 -126c-87 0 -152 31 -191 54l37 74c37 -21 97 -48 157 -48c44 0 67 17 67 36c0 31 -42 35 -74 36c-83 4 -175 12 -175 110
c0 90 84 120 159 120c69 0 146 -22 177 -37z" />
    <glyph glyph-name="t.superior" horiz-adv-x="328" 
d="M28 499v76h64v100h108v-100h87v-76h-87v-180c0 -17 12 -26 38 -26c14 0 33 1 45 3l8 -79c-15 -9 -62 -12 -80 -12c-56 0 -119 27 -119 107v187h-64z" />
    <glyph glyph-name="a.sc" horiz-adv-x="714" 
d="M15 0l282 568h120l282 -568h-154l-53 113h-277l-52 -113h-148zM351 404l-88 -189h182l-88 189h-6z" />
    <glyph glyph-name="b.sc" horiz-adv-x="763" 
d="M478 0h-375v568h361c80 0 137 -20 173 -58c21 -22 34 -51 34 -82c0 -48 -31 -90 -75 -112c67 -23 107 -74 107 -141c0 -44 -16 -85 -53 -121c-41 -40 -86 -54 -172 -54zM468 242h-224v-130h225c34 0 58 8 72 22c11 11 17 27 17 42c0 16 -7 31 -18 42
c-14 14 -35 24 -72 24zM447 455h-203v-111h206c30 0 47 7 59 18c11 10 17 25 17 41c0 10 -3 21 -12 31c-15 16 -34 21 -67 21z" />
    <glyph glyph-name="c.sc" horiz-adv-x="729" 
d="M610 188l88 -89c-70 -61 -177 -118 -311 -118c-202 0 -335 136 -335 303c0 164 134 303 331 303c111 0 221 -41 295 -100l-88 -90c-55 45 -133 72 -195 72c-121 0 -197 -85 -197 -186s78 -185 202 -185c81 0 157 41 210 90z" />
    <glyph glyph-name="d.sc" horiz-adv-x="768" 
d="M390 0h-287v568h287c124 0 188 -32 244 -84c51 -51 78 -122 78 -200s-27 -149 -79 -201c-55 -51 -118 -83 -243 -83zM243 117h143c73 0 102 17 133 44c31 31 47 74 47 123c0 47 -15 90 -44 120c-32 29 -61 46 -136 46h-143v-333z" />
    <glyph glyph-name="e.sc" horiz-adv-x="681" 
d="M465 354v-117h-222v-120h390v-117h-530v568h508v-118h-368v-96h222z" />
    <glyph glyph-name="f.sc" horiz-adv-x="637" 
d="M243 0h-140v568h505v-118h-365v-100h221v-117h-221v-233z" />
    <glyph glyph-name="g.sc" horiz-adv-x="754" 
d="M676 483l-92 -85c-53 45 -135 71 -197 71c-113 0 -191 -85 -191 -186c0 -93 68 -184 201 -184c52 0 112 12 149 34v86h-182v112h313v-260c-80 -54 -191 -89 -286 -89c-195 0 -340 135 -340 302s147 303 335 303c96 0 201 -37 290 -104z" />
    <glyph glyph-name="h.sc" horiz-adv-x="763" 
d="M244 0h-141v568h141v-206h276v206h140v-568h-140v247h-276v-247z" />
    <glyph glyph-name="i.sc" horiz-adv-x="347" 
d="M243 0h-140v568h140v-568z" />
    <glyph glyph-name="j.sc" horiz-adv-x="623" 
d="M391 568h140v-363c0 -142 -109 -223 -261 -223c-157 0 -222 93 -255 159l118 60c19 -42 57 -102 136 -102c71 0 122 37 122 106v363z" />
    <glyph glyph-name="k.sc" horiz-adv-x="741" 
d="M514 568h176l-255 -223l300 -345h-177l-222 256l-92 -75v-181h-141v568h141v-230c92 80 178 152 270 230z" />
    <glyph glyph-name="l.sc" horiz-adv-x="625" 
d="M103 568h140v-451h354v-117h-494v568z" />
    <glyph glyph-name="m.sc" horiz-adv-x="860" 
d="M103 0v568h133l196 -304h1l195 304h128v-568h-140v318h-4l-165 -252h-39l-164 252h-5v-318h-136z" />
    <glyph glyph-name="n.sc" horiz-adv-x="768" 
d="M524 568h140v-568h-120l-299 339h-1v-339h-141v568h120l300 -340h1v340z" />
    <glyph glyph-name="o.sc" horiz-adv-x="783" 
d="M52 285c0 166 149 302 339 302c189 0 341 -136 341 -302c0 -168 -152 -304 -341 -304c-190 0 -339 136 -339 304zM197 285c0 -102 85 -187 194 -187s195 85 195 187c0 101 -86 184 -195 184s-194 -83 -194 -184z" />
    <glyph glyph-name="p.sc" horiz-adv-x="711" 
d="M243 0h-140v568h338c79 0 142 -19 186 -65c31 -32 48 -72 48 -118c0 -48 -19 -88 -50 -119c-44 -44 -103 -63 -186 -63h-196v-203zM446 453h-203v-135h201c27 0 53 4 72 23c12 12 20 28 20 44s-7 32 -17 43c-21 22 -51 25 -73 25z" />
    <glyph glyph-name="q.sc" horiz-adv-x="783" 
d="M52 285c0 166 149 302 339 302c189 0 341 -136 341 -302c0 -99 -53 -187 -134 -242l76 -109l-129 -39l-67 96c-28 -6 -57 -10 -87 -10c-190 0 -339 136 -339 304zM337 194l128 40l59 -86c38 35 62 83 62 137c0 101 -86 184 -195 184s-194 -83 -194 -184
c0 -102 85 -187 194 -187h12z" />
    <glyph glyph-name="r.sc" horiz-adv-x="745" 
d="M243 0h-140v568h336c92 0 149 -26 187 -64c31 -32 49 -73 49 -118c0 -73 -48 -131 -120 -160l140 -226h-159l-121 203h-172v-203zM444 453h-201v-135h209c27 0 49 9 64 23c12 12 20 28 20 44s-7 31 -18 43c-19 21 -46 25 -74 25z" />
    <glyph glyph-name="s.sc" horiz-adv-x="699" 
d="M615 511l-79 -95c-37 24 -115 57 -214 57c-59 0 -109 -18 -109 -61c0 -46 77 -49 154 -54c110 -8 284 -20 284 -179c0 -142 -124 -198 -273 -198c-158 0 -265 59 -337 112l79 94c51 -37 138 -93 260 -93c73 0 131 24 131 72s-58 60 -147 66c-134 9 -292 24 -292 171
c0 140 138 184 253 184c127 0 238 -43 290 -76z" />
    <glyph glyph-name="t.sc" horiz-adv-x="642" 
d="M33 450v118h576v-118h-218v-450h-140v450h-218z" />
    <glyph glyph-name="u.sc" horiz-adv-x="741" 
d="M508 568h140v-368c0 -140 -117 -219 -279 -219c-156 0 -277 79 -277 219v368h140v-368c0 -66 62 -102 137 -102c80 0 139 36 139 102v368z" />
    <glyph glyph-name="v.sc" horiz-adv-x="714" 
d="M547 568h152l-282 -568h-120l-282 568h158l184 -402h5z" />
    <glyph glyph-name="w.sc" horiz-adv-x="949" 
d="M36 568h152l112 -363h6l121 363h101l121 -363h6l112 363h146l-194 -568h-131l-111 326h-5l-110 -326h-132z" />
    <glyph glyph-name="x.sc" horiz-adv-x="725" 
d="M520 568h169l-240 -272l250 -296h-175l-164 197l-172 -197h-169l258 291l-233 277h175l147 -179z" />
    <glyph glyph-name="y.sc" horiz-adv-x="642" 
d="M468 568h164l-241 -310v-258h-140v258l-241 310h173l143 -188z" />
    <glyph glyph-name="z.sc" horiz-adv-x="655" 
d="M592 117v-117h-538v80l336 370h-319v118h521v-80l-335 -371h335z" />
    <glyph glyph-name="ampersand.sc" horiz-adv-x="761" 
d="M551 542l-58 -103c-29 14 -83 33 -123 33c-41 0 -62 -20 -62 -41c0 -39 68 -96 82 -109l116 -115c35 34 72 78 108 134l104 -50c-45 -67 -90 -120 -134 -162l131 -129h-173l-54 52c-74 -49 -157 -67 -216 -67c-101 0 -226 54 -226 187c0 98 68 147 149 176
c-17 25 -27 50 -27 81c0 97 94 158 203 158c71 0 139 -26 180 -45zM300 238l-41 39c-38 -17 -73 -47 -73 -96c0 -64 61 -84 107 -84c31 0 70 9 115 34z" />
    <glyph glyph-name="aacute.sc" horiz-adv-x="714" 
d="M15 0l282 568h120l282 -568h-154l-53 113h-277l-52 -113h-148zM351 404l-88 -189h182l-88 189h-6zM270 638l100 138h143l-124 -138h-119z" />
    <glyph glyph-name="agrave.sc" horiz-adv-x="714" 
d="M15 0l282 568h120l282 -568h-154l-53 113h-277l-52 -113h-148zM351 404l-88 -189h182l-88 189h-6zM344 776l100 -138h-120l-123 138h143z" />
    <glyph glyph-name="acircumflex.sc" horiz-adv-x="714" 
d="M15 0l282 568h120l282 -568h-154l-53 113h-277l-52 -113h-148zM351 404l-88 -189h182l-88 189h-6zM185 638l106 139h132l105 -139h-105l-66 74l-67 -74h-105z" />
    <glyph glyph-name="adieresis.sc" horiz-adv-x="714" 
d="M15 0l282 568h120l282 -568h-154l-53 113h-277l-52 -113h-148zM351 404l-88 -189h182l-88 189h-6zM171 710c0 36 31 67 72 67c42 0 74 -31 74 -67c0 -37 -32 -66 -74 -66c-41 0 -72 29 -72 66zM395 710c0 36 31 67 73 67c41 0 74 -31 74 -67c0 -37 -33 -66 -74 -66
c-42 0 -73 29 -73 66z" />
    <glyph glyph-name="atilde.sc" horiz-adv-x="714" 
d="M15 0l282 568h120l282 -568h-154l-53 113h-277l-52 -113h-148zM351 404l-88 -189h182l-88 189h-6zM244 633l-80 43c41 72 79 98 127 98c31 0 52 -11 72 -25c19 -12 35 -25 52 -25c25 0 42 25 57 46l74 -40c-38 -69 -79 -100 -127 -100c-28 0 -51 11 -69 23
c-20 14 -35 27 -53 27c-24 0 -38 -26 -53 -47z" />
    <glyph glyph-name="aring.sc" horiz-adv-x="714" 
d="M15 0l282 568h120l282 -568h-154l-53 113h-277l-52 -113h-148zM351 404l-88 -189h182l-88 189h-6zM296 712c0 -29 25 -49 58 -49s58 20 58 49c0 31 -25 56 -58 56s-58 -25 -58 -56zM354 604c-90 0 -136 51 -136 108c0 59 46 112 136 112c88 0 136 -53 136 -112
c0 -57 -48 -108 -136 -108z" />
    <glyph glyph-name="abreve.sc" horiz-adv-x="714" 
d="M15 0l282 568h120l282 -568h-154l-53 113h-277l-52 -113h-148zM351 404l-88 -189h182l-88 189h-6zM196 776h93c0 -33 12 -68 68 -68s67 35 67 68h93c0 -64 -29 -148 -160 -148s-161 84 -161 148z" />
    <glyph glyph-name="amacron.sc" horiz-adv-x="714" 
d="M15 0l282 568h120l282 -568h-154l-53 113h-277l-52 -113h-148zM351 404l-88 -189h182l-88 189h-6zM222 750h269v-93h-269v93z" />
    <glyph glyph-name="aogonek.sc" horiz-adv-x="714" 
d="M15 0l282 568h120l282 -568h-32c-32 -14 -103 -46 -103 -96c0 -29 23 -45 61 -45c17 0 37 4 59 8l11 -80c-32 -9 -66 -14 -94 -14c-88 0 -143 43 -143 105c0 55 44 96 86 123l-52 112h-277l-52 -113h-148zM351 404l-88 -189h182l-88 189h-6z" />
    <glyph glyph-name="aringacute.sc" horiz-adv-x="714" 
d="M15 0l282 568h120l282 -568h-154l-53 113h-277l-52 -113h-148zM351 404l-88 -189h182l-88 189h-6zM296 712c0 -29 25 -49 58 -49s58 20 58 49c0 31 -25 56 -58 56s-58 -25 -58 -56zM354 604c-90 0 -136 51 -136 108c0 59 46 112 136 112c88 0 136 -53 136 -112
c0 -57 -48 -108 -136 -108zM270 857l100 138h143l-124 -138h-119z" />
    <glyph glyph-name="ccedilla.sc" horiz-adv-x="729" 
d="M610 188l88 -89c-65 -56 -160 -109 -279 -117l-7 -14c46 -7 108 -31 108 -90c0 -62 -71 -105 -172 -105c-48 0 -92 10 -138 21l19 71c38 -6 74 -14 108 -14c41 0 66 12 66 33c0 27 -41 33 -59 33c-8 0 -17 -1 -23 -3l-13 29l21 42c-169 23 -277 148 -277 299
c0 164 134 303 331 303c111 0 221 -41 295 -100l-88 -90c-55 45 -133 72 -195 72c-121 0 -197 -85 -197 -186s78 -185 202 -185c81 0 157 41 210 90z" />
    <glyph glyph-name="cacute.sc" horiz-adv-x="729" 
d="M610 188l88 -89c-70 -61 -177 -118 -311 -118c-202 0 -335 136 -335 303c0 164 134 303 331 303c111 0 221 -41 295 -100l-88 -90c-55 45 -133 72 -195 72c-121 0 -197 -85 -197 -186s78 -185 202 -185c81 0 157 41 210 90zM297 638l100 138h143l-124 -138h-119z" />
    <glyph glyph-name="ccaron.sc" horiz-adv-x="729" 
d="M610 188l88 -89c-70 -61 -177 -118 -311 -118c-202 0 -335 136 -335 303c0 164 134 303 331 303c111 0 221 -41 295 -100l-88 -90c-55 45 -133 72 -195 72c-121 0 -197 -85 -197 -186s78 -185 202 -185c81 0 157 41 210 90zM317 777l67 -75l66 75h105l-105 -139h-132
l-106 139h105z" />
    <glyph glyph-name="ccircumflex.sc" horiz-adv-x="729" 
d="M610 188l88 -89c-70 -61 -177 -118 -311 -118c-202 0 -335 136 -335 303c0 164 134 303 331 303c111 0 221 -41 295 -100l-88 -90c-55 45 -133 72 -195 72c-121 0 -197 -85 -197 -186s78 -185 202 -185c81 0 157 41 210 90zM212 638l106 139h132l105 -139h-105l-66 74
l-67 -74h-105z" />
    <glyph glyph-name="cdotaccent.sc" horiz-adv-x="729" 
d="M610 188l88 -89c-70 -61 -177 -118 -311 -118c-202 0 -335 136 -335 303c0 164 134 303 331 303c111 0 221 -41 295 -100l-88 -90c-55 45 -133 72 -195 72c-121 0 -197 -85 -197 -186s78 -185 202 -185c81 0 157 41 210 90zM311 710c0 36 31 67 72 67c42 0 74 -31 74 -67
c0 -37 -32 -66 -74 -66c-41 0 -72 29 -72 66z" />
    <glyph glyph-name="dcaron.sc" horiz-adv-x="768" 
d="M390 0h-287v568h287c124 0 188 -32 244 -84c51 -51 78 -122 78 -200s-27 -149 -79 -201c-55 -51 -118 -83 -243 -83zM243 117h143c73 0 102 17 133 44c31 31 47 74 47 123c0 47 -15 90 -44 120c-32 29 -61 46 -136 46h-143v-333zM303 777l67 -75l66 75h105l-105 -139
h-132l-106 139h105z" />
    <glyph glyph-name="dcroat.sc" horiz-adv-x="797" 
d="M44 239v98h89v231h287c124 0 188 -32 244 -84c51 -51 78 -122 78 -200s-27 -149 -79 -201c-55 -51 -118 -83 -243 -83h-287v239h-89zM273 117h143c73 0 102 17 133 44c31 31 47 74 47 123c0 47 -15 90 -44 120c-32 29 -61 46 -136 46h-143v-113h159v-98h-159v-122z" />
    <glyph glyph-name="eacute.sc" horiz-adv-x="681" 
d="M465 354v-117h-222v-120h390v-117h-530v568h508v-118h-368v-96h222zM262 638l100 138h143l-124 -138h-119z" />
    <glyph glyph-name="egrave.sc" horiz-adv-x="681" 
d="M465 354v-117h-222v-120h390v-117h-530v568h508v-118h-368v-96h222zM336 776l100 -138h-120l-123 138h143z" />
    <glyph glyph-name="ecircumflex.sc" horiz-adv-x="681" 
d="M465 354v-117h-222v-120h390v-117h-530v568h508v-118h-368v-96h222zM177 638l106 139h132l105 -139h-105l-66 74l-67 -74h-105z" />
    <glyph glyph-name="edieresis.sc" horiz-adv-x="681" 
d="M465 354v-117h-222v-120h390v-117h-530v568h508v-118h-368v-96h222zM163 710c0 36 31 67 72 67c42 0 74 -31 74 -67c0 -37 -32 -66 -74 -66c-41 0 -72 29 -72 66zM387 710c0 36 31 67 73 67c41 0 74 -31 74 -67c0 -37 -33 -66 -74 -66c-42 0 -73 29 -73 66z" />
    <glyph glyph-name="ebreve.sc" horiz-adv-x="681" 
d="M465 354v-117h-222v-120h390v-117h-530v568h508v-118h-368v-96h222zM188 776h93c0 -33 12 -68 68 -68s67 35 67 68h93c0 -64 -29 -148 -160 -148s-161 84 -161 148z" />
    <glyph glyph-name="ecaron.sc" horiz-adv-x="681" 
d="M465 354v-117h-222v-120h390v-117h-530v568h508v-118h-368v-96h222zM282 777l67 -75l66 75h105l-105 -139h-132l-106 139h105z" />
    <glyph glyph-name="edotaccent.sc" horiz-adv-x="681" 
d="M465 354v-117h-222v-120h390v-117h-530v568h508v-118h-368v-96h222zM276 710c0 36 31 67 72 67c42 0 74 -31 74 -67c0 -37 -32 -66 -74 -66c-41 0 -72 29 -72 66z" />
    <glyph glyph-name="emacron.sc" horiz-adv-x="681" 
d="M465 354v-117h-222v-120h390v-117h-530v568h508v-118h-368v-96h222zM214 750h269v-93h-269v93z" />
    <glyph glyph-name="eogonek.sc" horiz-adv-x="681" 
d="M465 354v-117h-222v-120h390v-117h-38c-32 -14 -103 -46 -103 -96c0 -29 23 -45 61 -45c17 0 37 4 59 8l11 -80c-32 -9 -66 -14 -94 -14c-88 0 -143 43 -143 105c0 54 42 95 84 122h-367v568h508v-118h-368v-96h222z" />
    <glyph glyph-name="gbreve.sc" horiz-adv-x="754" 
d="M676 483l-92 -85c-53 45 -135 71 -197 71c-113 0 -191 -85 -191 -186c0 -93 68 -184 201 -184c52 0 112 12 149 34v86h-182v112h313v-260c-80 -54 -191 -89 -286 -89c-195 0 -340 135 -340 302s147 303 335 303c96 0 201 -37 290 -104zM223 776h93c0 -33 12 -68 68 -68
s67 35 67 68h93c0 -64 -29 -148 -160 -148s-161 84 -161 148z" />
    <glyph glyph-name="gcircumflex.sc" horiz-adv-x="754" 
d="M676 483l-92 -85c-53 45 -135 71 -197 71c-113 0 -191 -85 -191 -186c0 -93 68 -184 201 -184c52 0 112 12 149 34v86h-182v112h313v-260c-80 -54 -191 -89 -286 -89c-195 0 -340 135 -340 302s147 303 335 303c96 0 201 -37 290 -104zM212 638l106 139h132l105 -139
h-105l-66 74l-67 -74h-105z" />
    <glyph glyph-name="uni0123.sc" horiz-adv-x="754" 
d="M676 483l-92 -85c-53 45 -135 71 -197 71c-113 0 -191 -85 -191 -186c0 -93 68 -184 201 -184c52 0 112 12 149 34v86h-182v112h313v-260c-80 -54 -191 -89 -286 -89c-195 0 -340 135 -340 302s147 303 335 303c96 0 201 -37 290 -104zM348 -67l104 26
c13 -14 38 -44 38 -92c0 -72 -65 -121 -168 -121c-27 0 -59 5 -92 14l11 75c21 -3 40 -7 57 -7c46 0 72 17 72 49c0 28 -14 46 -22 56z" />
    <glyph glyph-name="gdotaccent.sc" horiz-adv-x="754" 
d="M676 483l-92 -85c-53 45 -135 71 -197 71c-113 0 -191 -85 -191 -186c0 -93 68 -184 201 -184c52 0 112 12 149 34v86h-182v112h313v-260c-80 -54 -191 -89 -286 -89c-195 0 -340 135 -340 302s147 303 335 303c96 0 201 -37 290 -104zM311 710c0 36 31 67 72 67
c42 0 74 -31 74 -67c0 -37 -32 -66 -74 -66c-41 0 -72 29 -72 66z" />
    <glyph glyph-name="hbar.sc" horiz-adv-x="786" 
d="M26 398v98h88v72h141v-72h276v72h140v-72h89v-98h-89v-398h-140v204h-276v-204h-141v398h-88zM255 316h276v82h-276v-82z" />
    <glyph glyph-name="hcircumflex.sc" horiz-adv-x="763" 
d="M244 0h-141v568h141v-206h276v206h140v-568h-140v247h-276v-247zM209 638l106 139h132l105 -139h-105l-66 74l-67 -74h-105z" />
    <glyph glyph-name="iacute.sc" horiz-adv-x="347" 
d="M243 0h-140v568h140v-568zM87 638l100 138h143l-124 -138h-119z" />
    <glyph glyph-name="igrave.sc" horiz-adv-x="347" 
d="M243 0h-140v568h140v-568zM161 776l100 -138h-120l-123 138h143z" />
    <glyph glyph-name="icircumflex.sc" horiz-adv-x="347" 
d="M243 0h-140v568h140v-568zM2 638l106 139h132l105 -139h-105l-66 74l-67 -74h-105z" />
    <glyph glyph-name="idieresis.sc" horiz-adv-x="347" 
d="M243 0h-140v568h140v-568zM-12 710c0 36 31 67 72 67c42 0 74 -31 74 -67c0 -37 -32 -66 -74 -66c-41 0 -72 29 -72 66zM212 710c0 36 31 67 73 67c41 0 74 -31 74 -67c0 -37 -33 -66 -74 -66c-42 0 -73 29 -73 66z" />
    <glyph glyph-name="ibreve.sc" horiz-adv-x="347" 
d="M243 0h-140v568h140v-568zM13 776h93c0 -33 12 -68 68 -68s67 35 67 68h93c0 -64 -29 -148 -160 -148s-161 84 -161 148z" />
    <glyph glyph-name="idotaccent.sc" horiz-adv-x="347" 
d="M243 0h-140v568h140v-568zM101 710c0 36 31 67 72 67c42 0 74 -31 74 -67c0 -37 -32 -66 -74 -66c-41 0 -72 29 -72 66z" />
    <glyph glyph-name="imacron.sc" horiz-adv-x="347" 
d="M243 0h-140v568h140v-568zM39 750h269v-93h-269v93z" />
    <glyph glyph-name="iogonek.sc" horiz-adv-x="347" 
d="M243 0c-32 -14 -103 -46 -103 -96c0 -29 23 -45 61 -45c17 0 37 4 59 8l11 -80c-32 -9 -66 -14 -94 -14c-88 0 -143 43 -143 105c0 54 42 95 84 122h-15v568h140v-568z" />
    <glyph glyph-name="itilde.sc" horiz-adv-x="347" 
d="M243 0h-140v568h140v-568zM61 633l-80 43c41 72 79 98 127 98c31 0 52 -11 72 -25c19 -12 35 -25 52 -25c25 0 42 25 57 46l74 -40c-38 -69 -79 -100 -127 -100c-28 0 -51 11 -69 23c-20 14 -35 27 -53 27c-24 0 -38 -26 -53 -47z" />
    <glyph glyph-name="ij.sc" horiz-adv-x="970" 
d="M243 0h-140v568h140v-568zM738 568h140v-363c0 -142 -109 -223 -261 -223c-157 0 -222 93 -255 159l118 60c19 -42 57 -102 136 -102c71 0 122 37 122 106v363z" />
    <glyph glyph-name="jcircumflex.sc" horiz-adv-x="623" 
d="M391 568h140v-363c0 -142 -109 -223 -261 -223c-157 0 -222 93 -255 159l118 60c19 -42 57 -102 136 -102c71 0 122 37 122 106v363zM289 638l106 139h132l105 -139h-105l-66 74l-67 -74h-105z" />
    <glyph glyph-name="uni0137.sc" horiz-adv-x="741" 
d="M514 568h176l-255 -223l300 -345h-177l-222 256l-92 -75v-181h-141v568h141v-230c92 80 178 152 270 230zM347 -67l104 26c13 -14 38 -44 38 -92c0 -72 -65 -121 -168 -121c-27 0 -59 5 -92 14l11 75c21 -3 40 -7 57 -7c46 0 72 17 72 49c0 28 -14 46 -22 56z" />
    <glyph glyph-name="lacute.sc" horiz-adv-x="625" 
d="M103 568h140v-451h354v-117h-494v568zM87 638l100 138h143l-124 -138h-119z" />
    <glyph glyph-name="lcaron.sc" horiz-adv-x="625" 
d="M103 568h140v-451h354v-117h-494v568zM439 366h-68v236h118c0 -97 -14 -165 -50 -236z" />
    <glyph glyph-name="ldot.sc" horiz-adv-x="634" 
d="M103 568h140v-451h354v-117h-494v568zM406 356c0 36 31 67 72 67c42 0 74 -31 74 -67c0 -37 -32 -66 -74 -66c-41 0 -72 29 -72 66z" />
    <glyph glyph-name="uni013C.sc" horiz-adv-x="625" 
d="M103 568h140v-451h354v-117h-494v568zM289 -67l104 26c13 -14 38 -44 38 -92c0 -72 -65 -121 -168 -121c-27 0 -59 5 -92 14l11 75c21 -3 40 -7 57 -7c46 0 72 17 72 49c0 28 -14 46 -22 56z" />
    <glyph glyph-name="lslash.sc" horiz-adv-x="645" 
d="M123 568h140v-189l180 99v-111l-180 -99v-151h354v-117h-494v191l-89 -48v110l89 49v266z" />
    <glyph glyph-name="ntilde.sc" horiz-adv-x="768" 
d="M524 568h140v-568h-120l-299 339h-1v-339h-141v568h120l300 -340h1v340zM271 633l-80 43c41 72 79 98 127 98c31 0 52 -11 72 -25c19 -12 35 -25 52 -25c25 0 42 25 57 46l74 -40c-38 -69 -79 -100 -127 -100c-28 0 -51 11 -69 23c-20 14 -35 27 -53 27
c-24 0 -38 -26 -53 -47z" />
    <glyph glyph-name="nacute.sc" horiz-adv-x="768" 
d="M524 568h140v-568h-120l-299 339h-1v-339h-141v568h120l300 -340h1v340zM297 638l100 138h143l-124 -138h-119z" />
    <glyph glyph-name="ncaron.sc" horiz-adv-x="768" 
d="M524 568h140v-568h-120l-299 339h-1v-339h-141v568h120l300 -340h1v340zM317 777l67 -75l66 75h105l-105 -139h-132l-106 139h105z" />
    </font>
</defs>
</svg>
